<?xml version="1.0" encoding="UTF-8"?>
<svg width="24px" height="21px" viewBox="0 0 24 21" version="1.1" xmlns="http://www.w3.org/2000/svg" xmlns:xlink="http://www.w3.org/1999/xlink">
    <title>menu copy 14</title>
    <g id="POCA-Phase-1" stroke="none" stroke-width="1" fill="none" fill-rule="evenodd">
        <g id="EHR-V2" transform="translate(-1403.000000, -140.000000)">
            <g id="Group-2" transform="translate(1390.000000, 125.000000)">
                <g id="Group-21-Copy-4" transform="translate(13.000000, 9.000000)">
                    <g id="Group-20">
                        <g id="Group">
                            <g id="VimIcon" transform="translate(0.000000, 6.000000)">
                                <path d="M22.9179959,8.12580299 C24.6679503,5.92247833 24.2510836,2.7558294 21.9869198,1.05296031 C19.7225715,-0.650000447 16.4684647,-0.244337152 14.7185103,1.95889583 L11.9083969,5.49517966 L18.4585003,13.740458 L22.9179959,8.12580299 Z" id="Fill-13" fill="#09ACE4"></path>
                                <path d="M9.21415862,1.95747462 C7.47699061,-0.24411208 4.24639856,-0.649546994 1.9984766,1.05216209 C-0.249262162,2.75359637 -0.663104769,5.91765587 1.07415483,8.11942578 L5.50129978,13.7295604 L9.62149772,18.9508403 C10.1554261,19.6760613 11.0200256,20.1526718 12.0026041,20.1526718 C12.985091,20.1526718 13.849782,19.6760613 14.3837105,18.9508403 L18.5038168,13.7295604 L9.21415862,1.95747462 Z" id="Fill-16" fill="#6CCDEF"></path>
                            </g>
                        </g>
                    </g>
                </g>
            </g>
        </g>
    </g>
</svg>