<?xml version="1.0" encoding="utf-8"?>
<!-- Generator: Adobe Illustrator 25.4.1, SVG Export Plug-In . SVG Version: 6.00 Build 0)  -->
<svg version="1.1" id="anthem_Layer_1" xmlns="http://www.w3.org/2000/svg" xmlns:xlink="http://www.w3.org/1999/xlink" x="0px" y="0px"
	 viewBox="0 0 170.97 34.48" style="enable-background:new 0 0 170.97 34.48;" xml:space="preserve">
<style type="text/css">
	.st0{display:none;}
	.st1{display:inline;fill:#BB8545;}
	.st2{display:inline;fill:#0065A5;}
	.st3{fill:#FFFFFF;}
	.st4{fill:#0071BA;}
</style>
<g class="st0">
	<path class="st1" d="M-170.69,325.06c1.15-0.2,2.52-0.33,4.02-0.33c2.72,0,4.65,0.65,5.93,1.83c1.33,1.2,2.09,2.89,2.09,5.26
		c0,2.39-0.76,4.35-2.11,5.69c-1.39,1.37-3.65,2.11-6.5,2.11c-1.37,0-2.48-0.07-3.43-0.17V325.06z M-168.8,338.01
		c0.48,0.07,1.17,0.09,1.91,0.09c4.06,0,6.24-2.26,6.24-6.21c0.02-3.45-1.93-5.65-5.93-5.65c-0.98,0-1.72,0.09-2.22,0.2V338.01z"/>
	<path class="st1" d="M-146.67,334.14c0,3.89-2.72,5.58-5.24,5.58c-2.82,0-5.04-2.09-5.04-5.41c0-3.5,2.33-5.56,5.21-5.56
		C-148.72,328.75-146.67,330.95-146.67,334.14z M-154.99,334.25c0,2.3,1.3,4.04,3.17,4.04c1.83,0,3.19-1.72,3.19-4.08
		c0-1.78-0.89-4.02-3.15-4.02C-154.02,330.19-154.99,332.27-154.99,334.25z"/>
	<path class="st1" d="M-143.65,328.97l1.41,5.34c0.28,1.17,0.56,2.26,0.76,3.35h0.06c0.24-1.06,0.59-2.19,0.93-3.32l1.72-5.37h1.61
		l1.63,5.26c0.39,1.26,0.7,2.37,0.93,3.43h0.07c0.17-1.06,0.46-2.17,0.8-3.41l1.5-5.28h1.89l-3.39,10.52h-1.74l-1.61-5.02
		c-0.37-1.17-0.67-2.22-0.93-3.46h-0.04c-0.26,1.26-0.59,2.35-0.96,3.48l-1.69,5h-1.74l-3.17-10.52H-143.65z"/>
	<path class="st1" d="M-128.41,331.82c0-1.11-0.02-1.98-0.09-2.85h1.69l0.11,1.74h0.04c0.52-0.98,1.74-1.96,3.48-1.96
		c1.46,0,3.72,0.87,3.72,4.48v6.26h-1.91v-6.06c0-1.69-0.63-3.11-2.43-3.11c-1.24,0-2.22,0.89-2.56,1.96
		c-0.09,0.24-0.13,0.57-0.13,0.89v6.32h-1.91V331.82z"/>
	<path class="st1" d="M-116.35,324.06h1.91v15.43h-1.91V324.06z"/>
	<path class="st1" d="M-101.71,334.14c0,3.89-2.72,5.58-5.24,5.58c-2.82,0-5.04-2.09-5.04-5.41c0-3.5,2.33-5.56,5.21-5.56
		C-103.75,328.75-101.71,330.95-101.71,334.14z M-110.03,334.25c0,2.3,1.3,4.04,3.17,4.04c1.83,0,3.19-1.72,3.19-4.08
		c0-1.78-0.89-4.02-3.15-4.02C-109.05,330.19-110.03,332.27-110.03,334.25z"/>
	<path class="st1" d="M-91.9,336.96c0,0.91,0.04,1.8,0.15,2.52h-1.72l-0.15-1.33h-0.06c-0.59,0.83-1.72,1.56-3.22,1.56
		c-2.13,0-3.22-1.5-3.22-3.02c0-2.54,2.26-3.93,6.32-3.91v-0.22c0-0.85-0.24-2.43-2.39-2.41c-1,0-2.02,0.28-2.76,0.78l-0.43-1.28
		c0.87-0.54,2.15-0.91,3.48-0.91c3.22,0,4,2.2,4,4.28V336.96z M-93.75,334.12c-2.09-0.04-4.45,0.33-4.45,2.37
		c0,1.26,0.83,1.82,1.78,1.82c1.39,0,2.28-0.87,2.59-1.76c0.07-0.22,0.09-0.43,0.09-0.61V334.12z"/>
	<path class="st1" d="M-79.75,324.06v12.71c0,0.93,0.04,2,0.09,2.72h-1.69l-0.09-1.83h-0.07c-0.57,1.17-1.83,2.06-3.54,2.06
		c-2.54,0-4.52-2.15-4.52-5.35c-0.02-3.5,2.17-5.63,4.71-5.63c1.63,0,2.69,0.76,3.17,1.59h0.04v-6.28H-79.75z M-81.64,333.25
		c0-0.24-0.02-0.56-0.09-0.8c-0.28-1.2-1.33-2.19-2.76-2.19c-1.98,0-3.15,1.74-3.15,4.04c0,2.13,1.06,3.89,3.11,3.89
		c1.28,0,2.46-0.87,2.8-2.28c0.07-0.26,0.09-0.52,0.09-0.83V333.25z"/>
	<path class="st1" d="M-72.56,339.49v-1.17l1.5-1.46c3.61-3.43,5.26-5.26,5.26-7.39c0-1.43-0.67-2.76-2.78-2.76
		c-1.28,0-2.35,0.65-3,1.2l-0.61-1.35c0.96-0.8,2.37-1.43,3.98-1.43c3.04,0,4.32,2.09,4.32,4.11c0,2.61-1.89,4.71-4.87,7.58
		l-1.11,1.04v0.04h6.32v1.59H-72.56z"/>
	<path class="st1" d="M-52,332.27c0,4.8-1.8,7.45-4.91,7.45c-2.76,0-4.65-2.59-4.69-7.26c0-4.76,2.06-7.34,4.93-7.34
		C-53.72,325.12-52,327.77-52,332.27z M-59.67,332.49c0,3.67,1.13,5.76,2.87,5.76c1.93,0,2.87-2.28,2.87-5.89
		c0-3.48-0.87-5.76-2.87-5.76C-58.45,326.6-59.67,328.64-59.67,332.49z"/>
	<path class="st1" d="M-40.85,332.27c0,4.8-1.8,7.45-4.91,7.45c-2.76,0-4.65-2.59-4.69-7.26c0-4.76,2.06-7.34,4.93-7.34
		C-42.57,325.12-40.85,327.77-40.85,332.27z M-48.52,332.49c0,3.67,1.13,5.76,2.87,5.76c1.93,0,2.87-2.28,2.87-5.89
		c0-3.48-0.87-5.76-2.87-5.76C-47.3,326.6-48.52,328.64-48.52,332.49z"/>
	<path class="st1" d="M-39.74,342.18c0.48-1.3,1.06-3.63,1.3-5.21l2.13-0.22c-0.52,1.85-1.48,4.26-2.09,5.28L-39.74,342.18z"/>
	<path class="st1" d="M-25.2,332.27c0,4.8-1.8,7.45-4.91,7.45c-2.76,0-4.65-2.59-4.69-7.26c0-4.76,2.06-7.34,4.93-7.34
		C-26.92,325.12-25.2,327.77-25.2,332.27z M-32.87,332.49c0,3.67,1.13,5.76,2.87,5.76c1.93,0,2.87-2.28,2.87-5.89
		c0-3.48-0.87-5.76-2.87-5.76C-31.66,326.6-32.87,328.64-32.87,332.49z"/>
	<path class="st1" d="M-14.05,332.27c0,4.8-1.8,7.45-4.91,7.45c-2.76,0-4.65-2.59-4.69-7.26c0-4.76,2.06-7.34,4.93-7.34
		C-15.77,325.12-14.05,327.77-14.05,332.27z M-21.72,332.49c0,3.67,1.13,5.76,2.87,5.76c1.93,0,2.87-2.28,2.87-5.89
		c0-3.48-0.87-5.76-2.87-5.76C-20.51,326.6-21.72,328.64-21.72,332.49z"/>
	<path class="st1" d="M-2.9,332.27c0,4.8-1.8,7.45-4.91,7.45c-2.76,0-4.65-2.59-4.69-7.26c0-4.76,2.06-7.34,4.93-7.34
		C-4.62,325.12-2.9,327.77-2.9,332.27z M-10.57,332.49c0,3.67,1.13,5.76,2.87,5.76c1.93,0,2.87-2.28,2.87-5.89
		c0-3.48-0.87-5.76-2.87-5.76C-9.36,326.6-10.57,328.64-10.57,332.49z"/>
	<path class="st1" d="M5.03,327.93v5.11h4.91v1.3H5.03v5.15H3.64v-5.15h-4.91v-1.3h4.91v-5.11H5.03z"/>
	<path class="st1" d="M17.01,324.06h1.89v6.61h0.04c0.67-1.17,1.89-1.91,3.59-1.91c2.63,0,4.46,2.17,4.46,5.35
		c0,3.76-2.39,5.63-4.74,5.63c-1.52,0-2.74-0.59-3.54-1.96h-0.04l-0.11,1.72h-1.63c0.04-0.72,0.09-1.78,0.09-2.72V324.06z
		 M18.9,335.27c0,0.24,0.02,0.48,0.09,0.7c0.35,1.33,1.48,2.24,2.87,2.24c2.02,0,3.19-1.63,3.19-4.04c0-2.11-1.09-3.91-3.15-3.91
		c-1.28,0-2.5,0.91-2.89,2.35c-0.07,0.24-0.11,0.5-0.11,0.8V335.27z"/>
	<path class="st1" d="M29.37,332.25c0-1.24-0.02-2.3-0.09-3.28h1.67l0.09,2.09h0.07c0.48-1.41,1.65-2.3,2.93-2.3
		c0.2,0,0.35,0.02,0.52,0.04v1.8c-0.2-0.04-0.39-0.04-0.65-0.04c-1.35,0-2.3,1-2.56,2.43c-0.04,0.26-0.06,0.59-0.06,0.89v5.61h-1.91
		V332.25z"/>
	<path class="st1" d="M43.76,336.96c0,0.91,0.04,1.8,0.15,2.52H42.2l-0.15-1.33h-0.07c-0.59,0.83-1.72,1.56-3.22,1.56
		c-2.13,0-3.22-1.5-3.22-3.02c0-2.54,2.26-3.93,6.32-3.91v-0.22c0-0.85-0.24-2.43-2.39-2.41c-1,0-2.02,0.28-2.76,0.78l-0.43-1.28
		c0.87-0.54,2.15-0.91,3.48-0.91c3.22,0,4,2.2,4,4.28V336.96z M41.91,334.12c-2.09-0.04-4.45,0.33-4.45,2.37
		c0,1.26,0.83,1.82,1.78,1.82c1.39,0,2.28-0.87,2.59-1.76c0.07-0.22,0.09-0.43,0.09-0.61V334.12z"/>
	<path class="st1" d="M46.85,331.82c0-1.11-0.02-1.98-0.09-2.85h1.69l0.11,1.74h0.04c0.52-0.98,1.74-1.96,3.48-1.96
		c1.46,0,3.72,0.87,3.72,4.48v6.26h-1.91v-6.06c0-1.69-0.63-3.11-2.43-3.11c-1.24,0-2.22,0.89-2.56,1.96
		c-0.09,0.24-0.13,0.57-0.13,0.89v6.32h-1.91V331.82z"/>
	<path class="st1" d="M67.97,324.06v12.71c0,0.93,0.04,2,0.09,2.72h-1.69l-0.09-1.83h-0.06c-0.57,1.17-1.83,2.06-3.54,2.06
		c-2.54,0-4.52-2.15-4.52-5.35c-0.02-3.5,2.17-5.63,4.71-5.63c1.63,0,2.69,0.76,3.17,1.59h0.04v-6.28H67.97z M66.08,333.25
		c0-0.24-0.02-0.56-0.09-0.8c-0.28-1.2-1.33-2.19-2.76-2.19c-1.98,0-3.15,1.74-3.15,4.04c0,2.13,1.07,3.89,3.11,3.89
		c1.28,0,2.46-0.87,2.8-2.28c0.07-0.26,0.09-0.52,0.09-0.83V333.25z"/>
	<path class="st1" d="M75.78,324.06h1.91v15.43h-1.91V324.06z"/>
	<path class="st1" d="M90.42,334.14c0,3.89-2.72,5.58-5.24,5.58c-2.82,0-5.04-2.09-5.04-5.41c0-3.5,2.33-5.56,5.21-5.56
		C88.38,328.75,90.42,330.95,90.42,334.14z M82.1,334.25c0,2.3,1.3,4.04,3.17,4.04c1.82,0,3.19-1.72,3.19-4.08
		c0-1.78-0.89-4.02-3.15-4.02C83.08,330.19,82.1,332.27,82.1,334.25z"/>
	<path class="st1" d="M101.83,337.94c0,2.43-0.5,3.89-1.5,4.82c-1.04,0.93-2.52,1.26-3.85,1.26c-1.26,0-2.65-0.3-3.5-0.87l0.48-1.48
		c0.7,0.46,1.78,0.85,3.08,0.85c1.96,0,3.39-1.02,3.39-3.69v-1.15H99.9c-0.57,0.98-1.72,1.76-3.35,1.76c-2.61,0-4.48-2.22-4.48-5.13
		c0-3.56,2.32-5.56,4.76-5.56c1.83,0,2.8,0.93,3.28,1.8h0.04l0.07-1.59h1.7c-0.07,0.74-0.09,1.61-0.09,2.87V337.94z M99.92,333.12
		c0-0.33-0.02-0.61-0.11-0.85c-0.35-1.13-1.26-2.04-2.67-2.04c-1.83,0-3.13,1.54-3.13,3.98c0,2.06,1.06,3.78,3.11,3.78
		c1.19,0,2.26-0.74,2.65-1.96c0.11-0.33,0.15-0.7,0.15-1.02V333.12z"/>
	<path class="st1" d="M114.5,334.14c0,3.89-2.72,5.58-5.24,5.58c-2.82,0-5.04-2.09-5.04-5.41c0-3.5,2.33-5.56,5.21-5.56
		C112.46,328.75,114.5,330.95,114.5,334.14z M106.18,334.25c0,2.3,1.3,4.04,3.17,4.04c1.82,0,3.19-1.72,3.19-4.08
		c0-1.78-0.89-4.02-3.15-4.02C107.16,330.19,106.18,332.27,106.18,334.25z"/>
	<path class="st1" d="M116.66,337.55c0.59,0.35,1.59,0.74,2.54,0.74c1.37,0,2.02-0.67,2.02-1.56c0-0.91-0.54-1.39-1.93-1.91
		c-1.91-0.7-2.8-1.72-2.8-2.98c0-1.7,1.39-3.09,3.63-3.09c1.06,0,2,0.28,2.56,0.65l-0.46,1.39c-0.41-0.26-1.17-0.63-2.15-0.63
		c-1.13,0-1.74,0.65-1.74,1.43c0,0.87,0.61,1.26,1.98,1.8c1.8,0.67,2.76,1.59,2.76,3.15c0,1.87-1.46,3.17-3.91,3.17
		c-1.15,0-2.22-0.3-2.96-0.74L116.66,337.55z"/>
	<path class="st1" d="M132.26,326.01c0,0.65-0.46,1.17-1.22,1.17c-0.7,0-1.15-0.52-1.15-1.17c0-0.65,0.48-1.2,1.2-1.2
		C131.78,324.82,132.26,325.34,132.26,326.01z M130.13,339.49v-10.52h1.91v10.52H130.13z"/>
	<path class="st1" d="M135.22,331.82c0-1.11-0.02-1.98-0.09-2.85h1.7l0.11,1.74h0.04c0.52-0.98,1.74-1.96,3.48-1.96
		c1.46,0,3.72,0.87,3.72,4.48v6.26h-1.91v-6.06c0-1.69-0.63-3.11-2.43-3.11c-1.24,0-2.22,0.89-2.56,1.96
		c-0.09,0.24-0.13,0.57-0.13,0.89v6.32h-1.91V331.82z"/>
	<path class="st1" d="M152.63,328.97l2.06,5.89c0.35,0.98,0.63,1.85,0.85,2.72h0.07c0.24-0.87,0.54-1.74,0.89-2.72l2.04-5.89h2
		l-4.13,10.52h-1.83l-4-10.52H152.63z"/>
	<path class="st1" d="M163.19,334.58c0.04,2.58,1.67,3.65,3.61,3.65c1.37,0,2.22-0.24,2.91-0.54l0.35,1.37
		c-0.67,0.3-1.85,0.67-3.52,0.67c-3.24,0-5.17-2.15-5.17-5.32c0-3.17,1.87-5.65,4.93-5.65c3.46,0,4.35,3,4.35,4.93
		c0,0.39-0.02,0.67-0.07,0.89H163.19z M168.8,333.21c0.02-1.2-0.5-3.09-2.65-3.09c-1.96,0-2.78,1.76-2.93,3.09H168.8z"/>
	<path class="st1" d="M180.51,339.12c-0.5,0.24-1.61,0.61-3.02,0.61c-3.17,0-5.24-2.15-5.24-5.37c0-3.24,2.22-5.61,5.65-5.61
		c1.13,0,2.13,0.28,2.65,0.57l-0.43,1.46c-0.46-0.24-1.17-0.5-2.22-0.5c-2.41,0-3.72,1.8-3.72,3.98c0,2.43,1.56,3.93,3.65,3.93
		c1.09,0,1.8-0.26,2.35-0.5L180.51,339.12z"/>
	<path class="st1" d="M185.34,326.45v2.52h2.74v1.46h-2.74v5.67c0,1.3,0.37,2.04,1.43,2.04c0.52,0,0.83-0.04,1.11-0.13l0.09,1.46
		c-0.37,0.13-0.96,0.26-1.69,0.26c-0.89,0-1.61-0.3-2.06-0.8c-0.52-0.59-0.74-1.52-0.74-2.76v-5.74h-1.63v-1.46h1.63v-1.96
		L185.34,326.45z"/>
	<path class="st1" d="M199.61,334.14c0,3.89-2.72,5.58-5.24,5.58c-2.83,0-5.04-2.09-5.04-5.41c0-3.5,2.32-5.56,5.21-5.56
		C197.57,328.75,199.61,330.95,199.61,334.14z M191.29,334.25c0,2.3,1.3,4.04,3.17,4.04c1.83,0,3.19-1.72,3.19-4.08
		c0-1.78-0.89-4.02-3.15-4.02C192.27,330.19,191.29,332.27,191.29,334.25z"/>
	<path class="st1" d="M202.03,332.25c0-1.24-0.02-2.3-0.09-3.28h1.67l0.09,2.09h0.06c0.48-1.41,1.65-2.3,2.93-2.3
		c0.2,0,0.35,0.02,0.52,0.04v1.8c-0.2-0.04-0.39-0.04-0.65-0.04c-1.35,0-2.3,1-2.56,2.43c-0.04,0.26-0.07,0.59-0.07,0.89v5.61h-1.91
		V332.25z"/>
	<path class="st1" d="M213.94,339.49v-9.06h-1.46v-1.46h1.46v-0.5c0-1.48,0.35-2.82,1.22-3.67c0.72-0.7,1.67-0.98,2.56-0.98
		c0.7,0,1.26,0.15,1.63,0.3l-0.26,1.48c-0.28-0.13-0.65-0.24-1.22-0.24c-1.63,0-2.04,1.41-2.04,3.04v0.57h2.54v1.46h-2.54v9.06
		H213.94z"/>
	<path class="st1" d="M229.32,334.14c0,3.89-2.72,5.58-5.24,5.58c-2.82,0-5.04-2.09-5.04-5.41c0-3.5,2.33-5.56,5.21-5.56
		C227.28,328.75,229.32,330.95,229.32,334.14z M221,334.25c0,2.3,1.3,4.04,3.17,4.04c1.82,0,3.19-1.72,3.19-4.08
		c0-1.78-0.89-4.02-3.15-4.02C221.98,330.19,221,332.27,221,334.25z"/>
	<path class="st1" d="M231.74,332.25c0-1.24-0.02-2.3-0.09-3.28h1.67l0.09,2.09h0.07c0.48-1.41,1.65-2.3,2.93-2.3
		c0.2,0,0.35,0.02,0.52,0.04v1.8c-0.2-0.04-0.39-0.04-0.65-0.04c-1.35,0-2.3,1-2.56,2.43c-0.04,0.26-0.07,0.59-0.07,0.89v5.61h-1.91
		V332.25z"/>
	<path class="st1" d="M238.93,331.82c0-1.11-0.04-1.98-0.09-2.85h1.67l0.09,1.72h0.06c0.59-1,1.56-1.93,3.32-1.93
		c1.41,0,2.5,0.87,2.96,2.11h0.04c0.33-0.61,0.76-1.04,1.2-1.37c0.63-0.48,1.3-0.74,2.3-0.74c1.41,0,3.48,0.91,3.48,4.56v6.17h-1.87
		v-5.93c0-2.04-0.76-3.24-2.28-3.24c-1.11,0-1.93,0.8-2.28,1.72c-0.09,0.28-0.15,0.61-0.15,0.96v6.5h-1.87v-6.3
		c0-1.67-0.74-2.87-2.19-2.87c-1.17,0-2.06,0.96-2.37,1.91c-0.11,0.26-0.15,0.61-0.15,0.93v6.32h-1.87V331.82z"/>
	<path class="st1" d="M264.45,336.96c0,0.91,0.04,1.8,0.15,2.52h-1.72l-0.15-1.33h-0.06c-0.59,0.83-1.72,1.56-3.22,1.56
		c-2.13,0-3.22-1.5-3.22-3.02c0-2.54,2.26-3.93,6.32-3.91v-0.22c0-0.85-0.24-2.43-2.39-2.41c-1,0-2.02,0.28-2.76,0.78l-0.43-1.28
		c0.87-0.54,2.15-0.91,3.48-0.91c3.22,0,4,2.2,4,4.28V336.96z M262.6,334.12c-2.09-0.04-4.45,0.33-4.45,2.37
		c0,1.26,0.83,1.82,1.78,1.82c1.39,0,2.28-0.87,2.59-1.76c0.07-0.22,0.09-0.43,0.09-0.61V334.12z"/>
	<path class="st1" d="M269.75,326.45v2.52h2.74v1.46h-2.74v5.67c0,1.3,0.37,2.04,1.43,2.04c0.52,0,0.83-0.04,1.11-0.13l0.09,1.46
		c-0.37,0.13-0.96,0.26-1.69,0.26c-0.89,0-1.61-0.3-2.06-0.8c-0.52-0.59-0.74-1.52-0.74-2.76v-5.74h-1.63v-1.46h1.63v-1.96
		L269.75,326.45z"/>
	<path class="st1" d="M279.44,339.49v-9.06h-1.46v-1.46h1.46v-0.5c0-1.48,0.35-2.82,1.22-3.67c0.72-0.7,1.67-0.98,2.56-0.98
		c0.7,0,1.26,0.15,1.63,0.3l-0.26,1.48c-0.28-0.13-0.65-0.24-1.22-0.24c-1.63,0-2.04,1.41-2.04,3.04v0.57h2.54v1.46h-2.54v9.06
		H279.44z"/>
	<path class="st1" d="M294.83,334.14c0,3.89-2.72,5.58-5.24,5.58c-2.83,0-5.04-2.09-5.04-5.41c0-3.5,2.32-5.56,5.21-5.56
		C292.79,328.75,294.83,330.95,294.83,334.14z M286.51,334.25c0,2.3,1.3,4.04,3.17,4.04c1.83,0,3.19-1.72,3.19-4.08
		c0-1.78-0.89-4.02-3.15-4.02C287.49,330.19,286.51,332.27,286.51,334.25z"/>
	<path class="st1" d="M297.24,332.25c0-1.24-0.02-2.3-0.09-3.28h1.67l0.09,2.09h0.06c0.48-1.41,1.65-2.3,2.93-2.3
		c0.2,0,0.35,0.02,0.52,0.04v1.8c-0.2-0.04-0.39-0.04-0.65-0.04c-1.35,0-2.3,1-2.56,2.43c-0.04,0.26-0.07,0.59-0.07,0.89v5.61h-1.91
		V332.25z"/>
	<path class="st1" d="M309.16,339.49v-9.06h-1.46v-1.46h1.46v-0.5c0-1.48,0.35-2.82,1.22-3.67c0.72-0.7,1.67-0.98,2.56-0.98
		c0.7,0,1.26,0.15,1.63,0.3l-0.26,1.48c-0.28-0.13-0.65-0.24-1.22-0.24c-1.63,0-2.04,1.41-2.04,3.04v0.57h2.54v1.46h-2.54v9.06
		H309.16z"/>
	<path class="st1" d="M315.31,332.25c0-1.24-0.02-2.3-0.09-3.28h1.67l0.09,2.09h0.06c0.48-1.41,1.65-2.3,2.93-2.3
		c0.2,0,0.35,0.02,0.52,0.04v1.8c-0.2-0.04-0.39-0.04-0.65-0.04c-1.35,0-2.3,1-2.56,2.43c-0.04,0.26-0.07,0.59-0.07,0.89v5.61h-1.91
		V332.25z"/>
	<path class="st1" d="M323.26,334.58c0.04,2.58,1.67,3.65,3.61,3.65c1.37,0,2.22-0.24,2.91-0.54l0.35,1.37
		c-0.67,0.3-1.85,0.67-3.52,0.67c-3.24,0-5.17-2.15-5.17-5.32c0-3.17,1.87-5.65,4.93-5.65c3.46,0,4.35,3,4.35,4.93
		c0,0.39-0.02,0.67-0.06,0.89H323.26z M328.87,333.21c0.02-1.2-0.5-3.09-2.65-3.09c-1.96,0-2.78,1.76-2.93,3.09H328.87z"/>
	<path class="st1" d="M334.15,334.58c0.04,2.58,1.67,3.65,3.61,3.65c1.37,0,2.22-0.24,2.91-0.54l0.35,1.37
		c-0.67,0.3-1.85,0.67-3.52,0.67c-3.24,0-5.17-2.15-5.17-5.32c0-3.17,1.87-5.65,4.93-5.65c3.46,0,4.35,3,4.35,4.93
		c0,0.39-0.02,0.67-0.06,0.89H334.15z M339.76,333.21c0.02-1.2-0.5-3.09-2.65-3.09c-1.96,0-2.78,1.76-2.93,3.09H339.76z"/>
	<path class="st1" d="M343.26,338.36c0-0.78,0.54-1.37,1.3-1.37c0.76,0,1.28,0.57,1.28,1.37c0,0.78-0.52,1.37-1.33,1.37
		C343.78,339.72,343.26,339.14,343.26,338.36z"/>
	<path class="st2" d="M-59.31,350.14h3.3v6.08h0.04c0.35-0.48,0.78-0.85,1.3-1.11c0.5-0.26,1.11-0.41,1.72-0.41
		c2.11,0,3.72,1.46,3.72,4.67v6.19h-3.3v-5.84c0-1.39-0.48-2.35-1.72-2.35c-0.87,0-1.41,0.56-1.65,1.17
		c-0.09,0.2-0.11,0.48-0.11,0.72v6.3h-3.3V350.14z"/>
	<path class="st2" d="M-40.84,352.07v2.87h2.37v2.43h-2.37v3.85c0,1.28,0.33,1.87,1.3,1.87c0.46,0,0.67-0.02,0.98-0.09l0.02,2.5
		c-0.41,0.15-1.22,0.28-2.13,0.28c-1.06,0-1.96-0.37-2.5-0.91c-0.61-0.63-0.91-1.65-0.91-3.15v-4.35h-1.41v-2.43h1.41v-1.98
		L-40.84,352.07z"/>
	<path class="st2" d="M-30.69,352.07v2.87h2.37v2.43h-2.37v3.85c0,1.28,0.33,1.87,1.3,1.87c0.46,0,0.67-0.02,0.98-0.09l0.02,2.5
		c-0.41,0.15-1.22,0.28-2.13,0.28c-1.06,0-1.96-0.37-2.5-0.91c-0.61-0.63-0.91-1.65-0.91-3.15v-4.35h-1.41v-2.43h1.41v-1.98
		L-30.69,352.07z"/>
	<path class="st2" d="M-24.23,358.5c0-1.39-0.04-2.56-0.09-3.56h2.87l0.15,1.48h0.04c0.78-1.11,2-1.72,3.54-1.72
		c2.32,0,4.41,2.02,4.41,5.41c0,3.87-2.46,5.69-4.82,5.69c-1.28,0-2.28-0.52-2.76-1.22h-0.04v5.28h-3.3V358.5z M-20.93,361
		c0,0.26,0.02,0.48,0.06,0.7c0.22,0.89,0.98,1.56,1.93,1.56c1.43,0,2.28-1.19,2.28-3c0-1.7-0.76-2.98-2.24-2.98
		c-0.93,0-1.76,0.7-1.98,1.67c-0.04,0.17-0.06,0.39-0.06,0.59V361z"/>
	<path class="st2" d="M-9.28,356.81c0-1.17,0.8-2,1.93-2c1.15,0,1.91,0.8,1.93,2c0,1.13-0.76,1.98-1.96,1.98
		C-8.5,358.79-9.28,357.94-9.28,356.81z M-9.28,363.83c0-1.17,0.8-2,1.93-2c1.15,0,1.91,0.8,1.93,2c0,1.13-0.76,1.98-1.96,1.98
		C-8.5,365.81-9.28,364.96-9.28,363.83z"/>
	<path class="st2" d="M-2.22,366.41l4.65-15.75h2.19l-4.65,15.75H-2.22z"/>
	<path class="st2" d="M7.15,366.41l4.65-15.75H14l-4.65,15.75H7.15z"/>
	<path class="st2" d="M19.78,354.94l0.87,4.37c0.2,1.09,0.41,2.26,0.59,3.48h0.07c0.2-1.22,0.52-2.41,0.76-3.46l1.13-4.39h2.61
		l1.07,4.24c0.3,1.22,0.59,2.39,0.78,3.61h0.04c0.15-1.2,0.37-2.41,0.63-3.63l0.89-4.21h3.24l-3.26,10.62H26.1l-1-3.72
		c-0.28-1.04-0.48-2-0.7-3.32h-0.04c-0.2,1.33-0.41,2.33-0.67,3.3l-1.06,3.74h-3.11l-3.11-10.62H19.78z"/>
	<path class="st2" d="M38.86,354.94l0.87,4.37c0.2,1.09,0.41,2.26,0.59,3.48h0.07c0.2-1.22,0.52-2.41,0.76-3.46l1.13-4.39h2.61
		l1.07,4.24c0.3,1.22,0.59,2.39,0.78,3.61h0.04c0.15-1.2,0.37-2.41,0.63-3.63l0.89-4.21h3.24l-3.26,10.62h-3.08l-1-3.72
		c-0.28-1.04-0.48-2-0.7-3.32h-0.04c-0.2,1.33-0.41,2.33-0.67,3.3l-1.06,3.74H38.6l-3.11-10.62H38.86z"/>
	<path class="st2" d="M57.94,354.94l0.87,4.37c0.2,1.09,0.41,2.26,0.59,3.48h0.07c0.2-1.22,0.52-2.41,0.76-3.46l1.13-4.39h2.61
		l1.06,4.24c0.3,1.22,0.59,2.39,0.78,3.61h0.04c0.15-1.2,0.37-2.41,0.63-3.63l0.89-4.21h3.24l-3.26,10.62h-3.09l-1-3.72
		c-0.28-1.04-0.48-2-0.7-3.32h-0.04c-0.2,1.33-0.41,2.33-0.67,3.3l-1.07,3.74h-3.11l-3.11-10.62H57.94z"/>
	<path class="st2" d="M73.05,363.81c0-1.2,0.8-2.02,1.96-2.02c1.13,0,1.91,0.8,1.93,2.02c0,1.15-0.78,2-1.98,2
		C73.85,365.81,73.05,364.96,73.05,363.81z"/>
	<path class="st2" d="M81.11,350.14h3.3v15.43h-3.3V350.14z"/>
	<path class="st2" d="M99.76,360.13c0,3.89-2.76,5.67-5.61,5.67c-3.11,0-5.5-2.04-5.5-5.48c0-3.46,2.26-5.65,5.69-5.65
		C97.58,354.68,99.76,356.92,99.76,360.13z M92.07,360.24c0,1.83,0.76,3.19,2.17,3.19c1.3,0,2.11-1.28,2.11-3.21
		c0-1.56-0.61-3.17-2.11-3.17C92.67,357.05,92.07,358.68,92.07,360.24z"/>
	<path class="st2" d="M114.1,364.02c0,2.04-0.41,3.72-1.63,4.78c-1.15,1-2.74,1.3-4.3,1.3c-1.41,0-2.87-0.28-3.82-0.8l0.65-2.52
		c0.67,0.39,1.83,0.8,3.09,0.8c1.56,0,2.76-0.83,2.76-2.8v-0.67h-0.04c-0.63,0.87-1.65,1.37-2.87,1.37c-2.63,0-4.5-2.13-4.5-5.17
		c0-3.43,2.2-5.61,4.82-5.61c1.46,0,2.37,0.63,2.91,1.52h0.04l0.11-1.28h2.87c-0.04,0.7-0.09,1.59-0.09,3.17V364.02z M110.8,359.26
		c0-0.2-0.02-0.41-0.07-0.61c-0.24-0.87-0.87-1.46-1.78-1.46c-1.22,0-2.17,1.09-2.17,3.02c0,1.59,0.78,2.82,2.15,2.82
		c0.87,0,1.54-0.56,1.76-1.33c0.09-0.26,0.11-0.61,0.11-0.89V359.26z"/>
	<path class="st2" d="M129.42,360.13c0,3.89-2.76,5.67-5.61,5.67c-3.11,0-5.5-2.04-5.5-5.48c0-3.46,2.26-5.65,5.69-5.65
		C127.25,354.68,129.42,356.92,129.42,360.13z M121.73,360.24c0,1.83,0.76,3.19,2.17,3.19c1.3,0,2.11-1.28,2.11-3.21
		c0-1.56-0.61-3.17-2.11-3.17C122.34,357.05,121.73,358.68,121.73,360.24z"/>
	<path class="st2" d="M136.25,361.31c0.09,1.37,1.46,2.02,3,2.02c1.13,0,2.04-0.15,2.93-0.46l0.43,2.24
		c-1.09,0.46-2.41,0.67-3.85,0.67c-3.61,0-5.67-2.09-5.67-5.41c0-2.69,1.67-5.67,5.37-5.67c3.43,0,4.74,2.67,4.74,5.3
		c0,0.57-0.07,1.06-0.11,1.3H136.25z M140.14,359.05c0-0.8-0.35-2.15-1.87-2.15c-1.39,0-1.96,1.28-2.04,2.15H140.14z"/>
	<path class="st2" d="M147.36,358.5c0-1.39-0.04-2.56-0.09-3.56h2.87l0.15,1.48h0.04c0.78-1.11,2-1.72,3.54-1.72
		c2.33,0,4.41,2.02,4.41,5.41c0,3.87-2.46,5.69-4.82,5.69c-1.28,0-2.28-0.52-2.76-1.22h-0.04v5.28h-3.3V358.5z M150.66,361
		c0,0.26,0.02,0.48,0.07,0.7c0.22,0.89,0.98,1.56,1.93,1.56c1.43,0,2.28-1.19,2.28-3c0-1.7-0.76-2.98-2.24-2.98
		c-0.93,0-1.76,0.7-1.98,1.67c-0.04,0.17-0.07,0.39-0.07,0.59V361z"/>
	<path class="st2" d="M162.51,362.7c0.61,0.37,1.87,0.78,2.85,0.78c1,0,1.41-0.33,1.41-0.87c0-0.57-0.33-0.83-1.54-1.24
		c-2.22-0.74-3.06-1.93-3.04-3.19c0-2,1.7-3.5,4.32-3.5c1.24,0,2.33,0.3,2.98,0.63l-0.56,2.28c-0.48-0.26-1.41-0.61-2.3-0.61
		c-0.8,0-1.26,0.33-1.26,0.85c0,0.52,0.41,0.78,1.72,1.24c2.02,0.7,2.85,1.74,2.87,3.28c0,2-1.54,3.45-4.58,3.45
		c-1.39,0-2.63-0.33-3.43-0.76L162.51,362.7z"/>
	<path class="st2" d="M173.68,363.81c0-1.2,0.8-2.02,1.96-2.02c1.13,0,1.91,0.8,1.93,2.02c0,1.15-0.78,2-1.98,2
		C174.48,365.81,173.68,364.96,173.68,363.81z"/>
	<path class="st2" d="M189.71,365.28c-0.59,0.28-1.69,0.5-2.96,0.5c-3.43,0-5.63-2.11-5.63-5.43c0-3.11,2.13-5.65,6.08-5.65
		c0.87,0,1.83,0.15,2.52,0.41l-0.52,2.46c-0.39-0.17-0.98-0.33-1.85-0.33c-1.74,0-2.87,1.24-2.85,2.98c0,1.93,1.3,2.98,2.91,2.98
		c0.78,0,1.39-0.13,1.89-0.35L189.71,365.28z"/>
	<path class="st2" d="M203.97,360.13c0,3.89-2.76,5.67-5.61,5.67c-3.11,0-5.5-2.04-5.5-5.48c0-3.46,2.26-5.65,5.69-5.65
		C201.8,354.68,203.97,356.92,203.97,360.13z M196.28,360.24c0,1.83,0.76,3.19,2.17,3.19c1.3,0,2.11-1.28,2.11-3.21
		c0-1.56-0.61-3.17-2.11-3.17C196.89,357.05,196.28,358.68,196.28,360.24z"/>
	<path class="st2" d="M208.19,358.33c0-1.33-0.04-2.43-0.09-3.39h2.8l0.13,1.43h0.07c0.46-0.7,1.41-1.69,3.22-1.69
		c1.39,0,2.46,0.72,2.91,1.83h0.04c0.41-0.57,0.87-1,1.39-1.3c0.59-0.33,1.24-0.52,2.02-0.52c2.04,0,3.58,1.43,3.58,4.63v6.26h-3.22
		v-5.78c0-1.54-0.5-2.43-1.56-2.43c-0.78,0-1.3,0.52-1.54,1.15c-0.07,0.24-0.11,0.56-0.11,0.85v6.21h-3.22v-5.98
		c0-1.33-0.48-2.24-1.54-2.24c-0.85,0-1.35,0.65-1.54,1.17c-0.11,0.26-0.13,0.56-0.13,0.85v6.19h-3.22V358.33z"/>
	<path class="st2" d="M228.08,366.41l4.65-15.75h2.2l-4.65,15.75H228.08z"/>
</g>
<g>
	<g>
		<g>
			<g>
				<path class="st3" d="M156.59,8.21c0,0,5.01-0.07,7.34-1.65c0,0,1.03,1.24,1.03,5.42c0,4.19-1.72,11.94-8.31,15.38
					c0,0-7.62-2.82-8.24-15.58c0,0-0.27-2.82,1.1-5.29C149.52,6.5,152.33,7.94,156.59,8.21"/>
				<path class="st4" d="M138.37,27.39c0-1,0.82-1.82,1.83-1.82c1.01,0,1.82,0.82,1.82,1.82c0,1.01-0.82,1.83-1.82,1.83
					C139.19,29.23,138.37,28.4,138.37,27.39 M141.73,27.39c0-0.89-0.64-1.53-1.53-1.53c-0.89,0-1.54,0.64-1.54,1.53
					c0,0.9,0.65,1.54,1.54,1.54C141.09,28.93,141.73,28.29,141.73,27.39 M139.79,28.43h-0.27v-2.09h0.9c0.54,0,0.73,0.21,0.73,0.58
					c0,0.41-0.28,0.55-0.65,0.58l0.62,0.93h-0.3l-0.59-0.93h-0.45V28.43z M140.15,27.26c0.29,0,0.7,0.05,0.7-0.34
					c0-0.29-0.24-0.33-0.49-0.33h-0.57v0.67H140.15z"/>
				<path class="st3" d="M131.88,24.1c3.92,0,7.1-3.18,7.1-7.1c0-3.92-3.18-7.1-7.1-7.1c-3.92,0-7.11,3.18-7.11,7.1
					C124.77,20.92,127.95,24.1,131.88,24.1"/>
				<path class="st4" d="M133.11,13.37c0-0.53,0.7-0.62,0.37-1.8c1.04,0.22,1.92,1.03,2.69,1.8H133.11z"/>
				<path class="st4" d="M130.48,13.37h-3.05c0.67-0.9,1.65-1.57,2.69-1.8C129.78,12.75,130.48,12.84,130.48,13.37"/>
				<path class="st4" d="M137.41,15.73c0.39,2.19-0.26,3.76-1.26,5.02c0,0-2.05-3.87-2.27-4.29c-0.23-0.42,0-0.45,0.25-0.48
					C134.32,15.98,137.41,15.73,137.41,15.73"/>
				<path class="st4" d="M126.19,15.73c0,0,3.08,0.25,3.28,0.25c0.25,0.03,0.48,0.06,0.25,0.48c-0.22,0.42-2.27,4.29-2.27,4.29
					C126.44,19.49,125.8,17.91,126.19,15.73"/>
				<path class="st4" d="M134.18,22.21c-0.65,0.34-1.46,0.51-2.38,0.51c-0.92,0-1.74-0.17-2.38-0.51c0,0,2.19-3.45,2.38-3.45
					C131.99,18.76,134.18,22.21,134.18,22.21"/>
				<path class="st4" d="M143.9,11.69h-6.73V4.96h-10.71v6.73h-6.73v10.73h6.73l0,6.73l10.7,0v-6.73h6.73V11.69z M127.16,12.33
					c1.2-1.2,2.86-1.95,4.69-1.95c1.77,0,3.38,0.69,4.57,1.82c0.61,0.57,1.11,1.26,1.46,2.03l-4.57,0c-0.44,0-0.8-0.13-1-0.34
					c-0.27-0.27-0.29-0.68,0.08-1.12c0.64-0.79,0.08-1.49-0.59-1.51c-0.67-0.03-1.23,0.73-0.59,1.51c0.36,0.44,0.34,0.85,0.08,1.12
					c-0.21,0.21-0.56,0.34-1,0.34l-4.45,0C126.16,13.53,126.62,12.88,127.16,12.33 M125.22,17.02c0-0.79,0.14-1.56,0.39-2.26
					c1.62,0.03,3.06,0.27,3.94,0.32c0.95,0.06,1.66,0.56,1.01,1.77c-0.58,1.09-2.43,4.54-2.86,5.34
					C126.19,20.98,125.22,19.11,125.22,17.02 M131.85,23.65c-1.39,0-2.68-0.43-3.75-1.17c0.56-0.81,2.96-4.3,3.11-4.54
					c0.17-0.28,0.31-0.45,0.59-0.45c0.28,0,0.42,0.17,0.59,0.45c0.17,0.28,3.15,4.59,3.15,4.59
					C134.48,23.24,133.22,23.65,131.85,23.65 M135.92,22.26c-0.08-0.17-2.25-4.2-2.89-5.41c-0.64-1.21,0.06-1.71,1.01-1.77
					c0.91-0.05,2.39-0.31,4.05-0.33c0.26,0.71,0.4,1.47,0.4,2.27C138.49,19.15,137.48,21.04,135.92,22.26"/>
				<path class="st4" d="M161.47,27.39c0-1,0.82-1.82,1.83-1.82c1.01,0,1.82,0.82,1.82,1.82c0,1.01-0.82,1.83-1.82,1.83
					C162.29,29.23,161.47,28.4,161.47,27.39 M164.83,27.39c0-0.89-0.64-1.53-1.53-1.53c-0.9,0-1.54,0.64-1.54,1.53
					c0,0.9,0.64,1.54,1.54,1.54C164.19,28.93,164.83,28.29,164.83,27.39 M162.89,28.43h-0.27v-2.09h0.9c0.54,0,0.73,0.21,0.73,0.58
					c0,0.41-0.28,0.55-0.65,0.58l0.62,0.93h-0.3l-0.59-0.93h-0.45V28.43z M163.26,27.26c0.29,0,0.7,0.05,0.7-0.34
					c0-0.29-0.24-0.33-0.5-0.33h-0.57v0.67H163.26z"/>
				<path class="st4" d="M164.74,4.77c-2.3,1.22-4.61,1.86-8.04,1.86c-3.43,0-5.75-0.64-8.04-1.86c-0.95,1.65-1.49,4.02-1.49,6.96
					c0,7.82,4.39,13.06,5.48,14.21c1.08,1.15,3.23,2.92,4.06,3.1c0.83-0.18,2.97-1.95,4.05-3.1c1.08-1.15,5.48-6.39,5.48-14.21
					C166.23,8.79,165.69,6.42,164.74,4.77 M160.35,23.86c-0.68,0.82-3.2,3.09-3.65,3.2c-0.46-0.11-2.98-2.37-3.65-3.2
					c-0.5-0.62-4.17-5.14-4.17-12.2c0-1.51,0.23-3.7,0.76-4.49c1.42,0.76,4.16,1.46,7.06,1.46c2.91,0,5.64-0.71,7.07-1.46
					c0.52,0.79,0.76,2.98,0.76,4.48C164.52,18.72,160.85,23.24,160.35,23.86"/>
				<path class="st4" d="M155.73,11.37c0,0-0.06,0.16-0.17,0.18c-0.11,0.01-0.18-0.04-0.26-0.08c-0.2-0.13-0.32-0.15-0.32-0.15
					S155.38,11.18,155.73,11.37"/>
				<path class="st4" d="M163.32,8.33c-1.28,0.68-4.01,1.06-6.63,1.07c-2.62,0-5.35-0.39-6.63-1.07c-0.47,0.71-0.57,2.54-0.53,3.9
					c0.2,7,3.41,10.43,3.86,10.98c0.61,0.74,2.88,2.87,3.29,2.98c0.41-0.11,2.68-2.23,3.29-2.98c0.45-0.55,3.66-3.98,3.86-10.98
					C163.89,10.86,163.79,9.04,163.32,8.33 M155.84,24.28c-0.02,0.03-0.06,0.06-0.11,0.03c-0.14-0.07-0.16-0.37-0.16-0.44
					c-0.01-0.37,0.24-0.83,0.54-0.95l0.01,0.67C155.92,23.78,155.94,24.13,155.84,24.28 M156.88,24.74c0,0-0.31,0.14-0.57-0.03
					c0-0.1-0.01-0.64-0.02-1.08c-0.01-0.44-0.04-1.2-0.07-1.82c0.11,0.04,0.11,0.03,0.24,0.07c0.21,0.06,0.34,0.18,0.4,0.26
					c0.13,0.13,0.1,0.8,0.1,1.11C156.95,23.99,156.89,24.67,156.88,24.74 M157.1,23.15v-0.82c0-0.18-0.07-0.32-0.18-0.42
					c-0.09-0.08-0.16-0.14-0.34-0.24c-0.1-0.05-0.18-0.08-0.43-0.14c-1.7-0.43-1.28-2.02-0.24-2.03c0.01,0.14,0.03,0.28,0.03,0.39
					c0,0.14,0.03,0.27,0.04,0.46c-0.26,0.14-0.06,0.16,0.05,0.2c0.13,0.04,0.45,0.2,0.63,0.28c0.14,0.06,0.44,0.17,0.55,0.22
					C158.18,21.49,158.08,22.64,157.1,23.15 M156.1,19.5c-0.01-0.11-0.02-0.46-0.02-0.58c0.16,0.01,0.24,0.03,0.42,0.05
					c0.34,0.04,0.34-0.01,0.51,0.03c0,0.05,0.01,0.26,0.01,0.32c-0.01,0.13-0.02,0.31-0.02,0.44c0,0.25,0.01,0.25,0.01,0.49
					c0,0.13,0,0.4,0,0.52c-0.13-0.02-0.32-0.11-0.45-0.16c-0.2-0.08-0.31-0.18-0.43-0.25c0-0.04-0.01-0.19-0.01-0.23l0-0.28
					L156.1,19.5z M157.17,20.33c0-0.21,0.01-0.44,0.03-0.66c0.01-0.14,0.01-0.18,0.05-0.29c0.12-0.13,0.37-0.18,0.19-0.44
					c-0.1-0.14-0.47-0.11-0.81-0.15c-0.18-0.02-0.35-0.01-0.94-0.12c-1.36-0.26-1.26-1.99-0.38-2.33l0.26,0.65l0.23,0.54
					c0.38,0.03,0.52,0.02,0.97,0.07c0.08,0.01,0.22,0.04,0.47,0.1C159.06,18.09,158.63,20.19,157.17,20.33 M155.37,16l0.43-0.69
					l1.21,0.1l0,2.05l-1.06-0.1l-0.3-0.67L155.37,16z M157.27,17.24c-0.16-0.68-0.07-1.31-0.07-1.31c0.56-0.06,0.16-0.65,0-0.68
					c-0.22-0.04-0.39-0.04-0.77-0.08c-0.24-0.02-0.65-0.05-0.87-0.08c-3.62-0.47-3.08-3.74-1.33-4.03c1.28-0.21,1.97,0.28,2.18,0.8
					c0,0-0.37,0.17-0.66,0.14c-0.59-0.07-0.94-0.02-0.94-0.02c0.2,0.18,0.84,0.28,1.11,0.51c-0.3,0.13-0.64,0.12-0.96,0.08
					c-0.27-0.03-0.52-0.09-0.79-0.2c-0.1,0.33-0.32,1.02,1.29,1.35c0.22,0.05,0.5,0.12,0.79,0.15c0.31,0.03,0.59,0.08,0.83,0.14
					c0.1,0.03,0.2,0.06,0.3,0.09C159.67,14.66,158.96,17.27,157.27,17.24 M158.92,11.9c-0.94,0.91-1.38,1.38-1.61,1.62
					c-0.01,0.01-0.13,0.25-0.24,0.31l-1.31-0.22c-0.05-0.27-0.06-0.6-0.05-0.9c0.27-0.03,0.33-0.06,0.49-0.19l-0.06-0.18
					c0.39,0.12,0.75,0.17,0.88,0.16l-0.17-0.18c-0.18-0.03-0.37-0.13-0.6-0.2c0.3-0.04,0.4-0.13,0.4-0.13s-0.03-0.14-0.15-0.37
					c-0.21-0.39-0.67-0.62-0.67-0.62c-0.08-0.14-0.05-0.23-0.05-0.31c-0.01-0.46,0.25-0.36,0.73-0.2c0.09,0.04,0.14,0.1,0.18,0.12
					c0.31,0.13,0.6,0.32,0.59,0.41c0,0-0.02,1.11,0.09,1.05c0.22-0.11,0.79-0.62,0.98-0.74C158.72,11.08,159.27,11.55,158.92,11.9"
					/>
				<path class="st4" d="M111.75,27.39c0-1,0.82-1.82,1.83-1.82c1.01,0,1.82,0.82,1.82,1.82c0,1.01-0.82,1.83-1.82,1.83
					C112.57,29.23,111.75,28.4,111.75,27.39 M115.12,27.39c0-0.89-0.64-1.53-1.53-1.53c-0.89,0-1.54,0.64-1.54,1.53
					c0,0.9,0.65,1.54,1.54,1.54C114.47,28.93,115.12,28.29,115.12,27.39 M113.17,28.43h-0.27v-2.09h0.9c0.54,0,0.73,0.21,0.73,0.58
					c0,0.41-0.28,0.55-0.65,0.58l0.62,0.93h-0.3l-0.59-0.93h-0.45V28.43z M113.54,27.26c0.29,0,0.7,0.05,0.7-0.34
					c0-0.29-0.24-0.33-0.5-0.33h-0.57v0.67H113.54z"/>
				<path class="st4" d="M82.51,16.19c-1.15-1.02-2.75-1.55-4.63-1.55c-1.68,0-3.35,0.77-4.6,2.11c-1.33,1.43-2.06,3.39-2.06,5.52
					c-0.01,2.09,0.76,4,2.14,5.39c1.32,1.32,3.08,2.05,4.95,2.04c3.62-0.01,5.65-2.68,6.01-5.17l0.02-0.13h-0.13h-0.89h-0.1
					l-0.01,0.1c-0.26,2.02-1.97,4.16-4.65,4.15c-2.14,0-3.36-1.46-3.37-4.01c0,0,0-2.84,0-3.38h9.25h0.11l0-0.12
					C84.48,18.99,83.79,17.33,82.51,16.19 M80.55,20.22h-5.38V18.7c0-1,0.29-1.81,0.83-2.36c0.48-0.48,1.13-0.74,1.85-0.73
					c1.73,0.01,2.69,1.1,2.69,3.1V20.22z"/>
				<path class="st4" d="M53.15,26.45h-0.13H52.2H52.1l-0.02,0.09c-0.13,0.67-0.54,1.78-1.9,1.78c-1.05,0-1.59-0.74-1.59-2.19v-10.1
					h3.35h0.11l0-0.11v-0.76v-0.11h-0.11h-3.33v-4.25v-0.13l-0.12,0.01c-0.81,0.09-2.46,0.22-3.31,0.22l-0.11,0V11v4.03h-2.17h-0.11
					v0.11v0.77v0.11h0.11h2.19v8.79c0,3.24,1.39,4.88,4.12,4.88c3.14,0,3.8-2.39,3.93-3.12L53.15,26.45z"/>
				<path class="st4" d="M40.69,28.32v-8.94c0-1.39-0.45-2.57-1.3-3.42c-0.85-0.85-2.07-1.32-3.45-1.32c-1.88,0-3.38,0.78-4.49,2.26
					l-0.03-1.75l0-0.11h-0.11H25.9h-0.11v0.11v0.75v0.11h0.11H28v12.3h-3.95L15.95,5.04l-0.03-0.08h-0.08h-0.83h-0.08l-0.02,0.08
					L6.98,28.32H4.86H4.74v0.11v0.75v0.11h0.11h6.4h0.11v-0.11v-0.75v-0.11h-0.11H8.32l2.2-6.64h7.09l2.24,6.64h-2.97h-0.11v0.11
					v0.75v0.11h0.11h16.69h0.11v-0.11v-0.75v-0.12h-0.11h-2.09v-6.82c0.01-4.07,2.18-5.55,3.64-5.55c1.41,0,2.13,0.91,2.13,2.72
					v9.66h-1.96h-0.11v0.12v0.75v0.11h0.11h7.55h0.11v-0.11v-0.75v-0.12h-0.11H40.69z M13.97,11.18l3.32,9.48h-6.43L13.97,11.18z"/>
				<path class="st4" d="M68.5,28.32v-9.08c0-2.12-1.29-4.59-4.92-4.59c-2.81,0-4.27,1.37-4.89,2.07V5.15V5.03h-0.11h-5.41h-0.11
					v0.11v0.79v0.11h0.11h2v22.27h-2.17h-0.11v0.12v0.75v0.11h0.11h7.76h0.11v-0.11v-0.75v-0.12h-0.11h-2.06v-6.91
					c0-2.39,0.82-3.71,1.5-4.39c0.67-0.66,1.51-1.03,2.39-1.03c1.94,0,2.35,1.59,2.35,2.93v9.41h-2.07h-0.11v0.12v0.75v0.11h0.11
					h7.76h0.11v-0.11v-0.75v-0.12h-0.11H68.5z"/>
				<path class="st4" d="M110.74,28.32h-2.17v-9.63c0-2.5-1.71-4.04-4.46-4.04c-2.62,0-4.03,1.31-4.68,2.18
					c-0.72-1.42-2.11-2.18-4.06-2.18c-1.86,0-3.51,0.71-4.62,1.91l-0.03-1.4l0-0.11h-0.11H85.1h-0.11v0.11v0.75v0.11h0.11h2.23v12.3
					h-2.2h-0.12v0.12v0.75v0.11h0.12h7.58h0.11v-0.11v-0.75v-0.12h-0.11h-1.88v-6.79c0.07-1.98,0.16-3.25,0.86-4.22
					c0.61-0.81,1.58-1.31,2.53-1.31c1.17,0,1.59,0.89,1.63,0.99c0.3,0.56,0.3,1.53,0.3,2.48v8.87h-1.97h-0.11v0.12v0.75v0.11h0.11
					h7.46h0.11v-0.11v-0.75v-0.12h-0.11h-1.89v-6.79c0.07-1.98,0.16-3.24,0.87-4.22c0.61-0.81,1.58-1.31,2.53-1.31
					c1.17,0,1.59,0.89,1.63,0.99c0.3,0.56,0.3,1.53,0.3,2.48v8.87h-1.96h-0.11v0.12v0.75v0.11h0.11h7.62h0.11v-0.11v-0.75v-0.12
					H110.74z"/>
			</g>
		</g>
	</g>
</g>
</svg>
