<?xml version="1.0" standalone="no"?>
<!DOCTYPE svg PUBLIC "-//W3C//DTD SVG 1.1//EN" "http://www.w3.org/Graphics/SVG/1.1/DTD/svg11.dtd" >
<svg xmlns="http://www.w3.org/2000/svg">
<metadata>Generated by IcoMoon</metadata>
<defs>
<font id="bookmd_icons" horiz-adv-x="1024">
<font-face units-per-em="1024" ascent="960" descent="-64" />
<missing-glyph horiz-adv-x="1024" />
<glyph unicode="&#x20;" horiz-adv-x="512" d="" />
<glyph unicode="&#xe600;" glyph-name="help" d="M512-51.2c275.701 0 499.2 223.499 499.2 499.2s-223.499 499.2-499.2 499.2c-275.701 0-499.2-223.499-499.2-499.2s223.499-499.2 499.2-499.2v0zM512 25.6c-233.285 0-422.4 189.115-422.4 422.4s189.115 422.4 422.4 422.4c233.285 0 422.4-189.115 422.4-422.4s-189.115-422.4-422.4-422.4v0zM488.936 342.953h67.584c0 49.766 4.915 58.982 45.466 92.16 23.347 19.046 65.126 51.61 65.126 108.749 0 74.342-60.826 121.037-135.168 121.037-71.885 0-135.168-47.309-135.168-134.554h70.656c0 49.766 30.106 71.27 64.512 71.27 37.478 0 64.512-18.432 64.512-57.754s-35.021-64.512-59.597-82.944c-40.55-30.106-47.309-64.512-47.923-117.965v0zM471.119 269.225c0-28.262 22.733-52.224 51.61-52.224s52.224 23.962 52.224 52.224c0 28.262-23.347 51.61-52.224 51.61s-51.61-23.347-51.61-51.61v0z" />
<glyph unicode="&#xe601;" glyph-name="night" d="M246.692-7.24h626.053c13.359 0 24.188 10.83 24.188 24.188s-10.83 24.188-24.188 24.188h-626.053c-13.359 0-24.188-10.83-24.188-24.188s10.83-24.188 24.188-24.188v0zM779.147 477.987c-25.167-87.923-106.99-149.888-201.268-149.888-115.548 0-209.083 92.241-209.083 205.857 0 92.661 62.757 173.255 152.066 198.116l-27.149 35.878c-21.692-35.641-33.331-76.49-33.331-118.971 0-127.78 104.899-231.229 234.132-231.229 42.903 0 84.171 11.435 120.208 32.766l-35.575 27.472zM825.656 464.675c6.020 21.031-16.75 38.614-35.575 27.472-28.62-16.94-61.386-26.020-95.567-26.020-102.665 0-185.755 81.942-185.755 182.853 0 33.538 9.163 65.698 26.279 93.82 11.404 18.737-6.018 41.76-27.149 35.878-110.010-30.624-187.469-130.098-187.469-244.721 0-140.485 115.343-254.234 257.459-254.234 115.912 0 216.681 76.312 247.777 184.952v0zM885.5 732.726v30.861c0 5.635-4.567 10.204-10.202 10.204h-8.303c-5.621 0-10.202-4.568-10.202-10.204v-30.861h-30.861c-5.635 0-10.204-4.567-10.204-10.202v-8.303c0-5.621 4.568-10.202 10.204-10.202h30.861v-30.861c0-5.635 4.567-10.204 10.202-10.204h8.303c5.621 0 10.202 4.568 10.202 10.204v30.861h30.861c5.635 0 10.204 4.567 10.204 10.202v8.303c0 5.621-4.568 10.202-10.204 10.202h-30.861zM167.835 455.635v30.861c0 5.635-4.567 10.204-10.202 10.204h-8.303c-5.621 0-10.202-4.568-10.202-10.204v-30.861h-30.861c-5.635 0-10.204-4.567-10.204-10.202v-8.303c0-5.621 4.568-10.202 10.204-10.202h30.861v-30.861c0-5.635 4.567-10.204 10.202-10.204h8.303c5.621 0 10.202 4.568 10.202 10.204v30.861h30.861c5.635 0 10.204 4.567 10.204 10.202v8.303c0 5.621-4.568 10.202-10.204 10.202h-30.861zM253.955 815.854v3.143c0 5.631-4.567 10.213-10.202 10.213h-8.303c-5.621 0-10.202-4.573-10.202-10.213v-3.143h-3.143c-5.631 0-10.213-4.567-10.213-10.202v-8.303c0-5.621 4.573-10.202 10.213-10.202h3.143v-3.143c0-5.631 4.567-10.213 10.202-10.213h8.303c5.621 0 10.202 4.573 10.202 10.213v3.143h3.143c5.631 0 10.213 4.567 10.213 10.202v8.303c0 5.621-4.573 10.202-10.213 10.202h-3.143z" />
<glyph unicode="&#xe602;" glyph-name="evening" d="M199.514-7.633h625.154c13.34 0 24.154 10.823 24.154 24.174s-10.814 24.174-24.154 24.174h-625.154c-13.34 0-24.154-10.823-24.154-24.174s10.814-24.174 24.154-24.174v0zM731.204 196.835c-25.13-87.87-106.836-149.797-200.979-149.797-115.382 0-208.782 92.185-208.782 205.732 0 92.605 62.667 173.15 151.847 197.996l-27.11 35.856c-21.661-35.619-33.283-76.444-33.283-118.899 0-127.703 104.749-231.089 233.796-231.089 42.841 0 84.050 11.428 120.035 32.746l-35.524 27.455zM777.646 183.531c6.011 21.018-16.726 38.591-35.524 27.455-28.579-16.93-61.298-26.004-95.429-26.004-102.517 0-185.489 81.892-185.489 182.741 0 33.517 9.15 65.658 26.241 93.763 11.387 18.726-6.009 41.735-27.11 35.856-109.852-30.605-187.2-130.019-187.2-244.572 0-140.4 115.178-254.079 257.089-254.079 115.745 0 216.37 76.266 247.421 184.84v0z" />
<glyph unicode="&#xe603;" glyph-name="afternoon" d="M215.488-7.102h624.834c13.333 0 24.141 10.807 24.141 24.139s-10.808 24.139-24.141 24.139h-624.834c-13.333 0-24.141-10.807-24.141-24.139s10.808-24.139 24.141-24.139v0zM513.597 143.773c118.353 0 214.432 94.741 214.432 211.779s-96.079 211.779-214.432 211.779c-118.353 0-214.432-94.741-214.432-211.779s96.079-211.779 214.432-211.779v0zM513.597 192.051c-91.836 0-166.149 73.278-166.149 163.501s74.313 163.501 166.149 163.501c91.836 0 166.149-73.278 166.149-163.501s-74.313-163.501-166.149-163.501v0zM150.057 328.97h99.405c13.333 0 24.141 10.807 24.141 24.139s-10.808 24.139-24.141 24.139h-99.405c-13.333 0-24.141-10.807-24.141-24.139s10.808-24.139 24.141-24.139v0zM774.891 328.97h99.405c13.333 0 24.141 10.807 24.141 24.139s-10.808 24.139-24.141 24.139h-99.405c-13.333 0-24.141-10.807-24.141-24.139s10.808-24.139 24.141-24.139v0zM749.24 503.957l56.803 56.012c9.493 9.361 9.6 24.644 0.238 34.137s-24.647 9.599-34.14 0.238l-56.803-56.012c-9.493-9.361-9.6-24.644-0.238-34.137s24.647-9.599 34.14-0.238v0zM312.004 538.331l-56.803 56.012c-9.493 9.361-24.778 9.255-34.14-0.238s-9.256-24.776 0.238-34.137l56.803-56.012c9.493-9.361 24.778-9.255 34.14 0.238s9.256 24.776-0.238 34.137v0zM529.218 633.168v84.018c0 13.331-10.808 24.139-24.141 24.139s-24.141-10.807-24.141-24.139v-84.018c0-13.331 10.808-24.139 24.141-24.139s24.141 10.807 24.141 24.139v0zM749.24 196.301l56.803-56.012c9.493-9.361 9.6-24.644 0.238-34.137s-24.647-9.599-34.14-0.238l-56.803 56.012c-9.493 9.361-9.6 24.644-0.238 34.137s24.647 9.599 34.14 0.238v0zM312.004 161.927l-56.803-56.012c-9.493-9.361-24.778-9.255-34.14 0.238s-9.256 24.776 0.238 34.137l56.803 56.012c9.493 9.361 24.778 9.255 34.14-0.238s9.256-24.776-0.238-34.137v0z" />
<glyph unicode="&#xe604;" glyph-name="morning" d="M737.978-7.793c0 117.986-96.912 213.495-216.29 213.495s-216.29-95.509-216.29-213.495h48.701c0 90.955 74.957 164.826 167.589 164.826s167.589-73.872 167.589-164.826h48.701zM197.969-7.655h630.25c13.448 0 24.351 10.895 24.351 24.334s-10.902 24.334-24.351 24.334h-630.25c-13.448 0-24.351-10.895-24.351-24.334s10.902-24.334 24.351-24.334v0zM759.374 141.794l57.295 56.466c9.575 9.437 9.683 24.844 0.24 34.413s-24.861 9.676-34.436 0.24l-57.295-56.466c-9.575-9.437-9.683-24.844-0.24-34.413s24.861-9.676 34.436-0.24v0zM318.348 176.447l-57.295 56.466c-9.575 9.437-24.993 9.33-34.436-0.24s-9.336-24.976 0.24-34.413l57.295-56.466c9.575-9.437 24.993-9.33 34.436 0.24s9.336 24.976-0.24 34.413v0zM537.445 272.053v84.699c0 13.44-10.902 24.334-24.351 24.334s-24.351-10.895-24.351-24.334v-84.699c0-13.44 10.902-24.334 24.351-24.334s24.351 10.895 24.351 24.334v0z" />
<glyph unicode="&#xe605;" glyph-name="sunrise" d="M689.401 27.765c-32.054 71.029-103.48 117.706-183.467 117.706-80.874 0-152.943-47.72-184.459-119.94l45.798-20.012c23.604 54.091 77.753 89.945 138.661 89.945 60.243 0 113.91-35.072 137.922-88.279l45.545 20.582zM277.366-8.643h457.137c13.8 0 24.987 11.195 24.987 25.004s-11.187 25.004-24.987 25.004h-457.137c-13.8 0-24.987-11.195-24.987-25.004s11.187-25.004 24.987-25.004v0zM726.96 119.946l58.793 58.019c9.826 9.696 9.936 25.528 0.246 35.36s-25.51 9.943-35.336 0.246l-58.793-58.019c-9.826-9.696-9.936-25.528-0.246-35.36s25.51-9.943 35.336-0.246v0zM333.203 155.552l-58.793 58.019c-9.826 9.696-25.646 9.586-35.336-0.246s-9.58-25.664 0.246-35.36l58.793-58.019c9.826-9.696 25.646-9.586 35.336 0.246s9.58 25.664-0.246 35.36v0zM528.628 224.778v87.029c0 13.809-11.187 25.004-24.987 25.004s-24.987-11.195-24.987-25.004v-87.029c0-13.809 11.187-25.004 24.987-25.004s24.987 11.195 24.987 25.004v0z" />
<glyph unicode="&#xe606;" glyph-name="noon" d="M513.965 283.729c118.684 0 215.032 94.816 215.032 211.947s-96.348 211.947-215.032 211.947c-118.684 0-215.032-94.816-215.032-211.947s96.348-211.947 215.032-211.947v0zM513.965 332.045c-92.093 0-166.614 73.336-166.614 163.631s74.521 163.631 166.614 163.631c92.093 0 166.614-73.336 166.614-163.631s-74.521-163.631-166.614-163.631v0zM192.128-7.407h626.583c13.37 0 24.209 10.816 24.209 24.158s-10.839 24.158-24.209 24.158h-626.583c-13.37 0-24.209-10.816-24.209-24.158s10.839-24.158 24.209-24.158v0zM149.407 469.073h99.684c13.37 0 24.209 10.816 24.209 24.158s-10.839 24.158-24.209 24.158h-99.684c-13.37 0-24.209-10.816-24.209-24.158s10.839-24.158 24.209-24.158v0zM775.99 469.073h99.684c13.37 0 24.209 10.816 24.209 24.158s-10.839 24.158-24.209 24.158h-99.684c-13.37 0-24.209-10.816-24.209-24.158s10.839-24.158 24.209-24.158v0zM750.267 644.199l56.962 56.056c9.52 9.368 9.626 24.664 0.238 34.164s-24.716 9.606-34.236 0.238l-56.962-56.056c-9.52-9.368-9.626-24.664-0.238-34.164s24.716-9.606 34.236-0.238v0zM311.807 678.601l-56.962 56.056c-9.52 9.368-24.848 9.262-34.236-0.238s-9.281-24.795 0.238-34.164l56.962-56.056c9.52-9.368 24.848-9.262 34.236 0.238s9.281 24.795-0.238 34.164v0zM529.629 773.513v84.085c0 13.342-10.839 24.158-24.209 24.158s-24.209-10.816-24.209-24.158v-84.085c0-13.342 10.839-24.158 24.209-24.158s24.209 10.816 24.209 24.158v0zM750.267 336.299l56.962-56.056c9.52-9.368 9.626-24.664 0.238-34.164s-24.716-9.606-34.236-0.238l-56.962 56.056c-9.52 9.368-9.626 24.664-0.238 34.164s24.716 9.606 34.236 0.238v0zM311.807 301.897l-56.962-56.056c-9.52-9.368-24.848-9.262-34.236 0.238s-9.281 24.795 0.238 34.164l56.962 56.056c9.52 9.368 24.848 9.262 34.236-0.238s9.281-24.795-0.238-34.164v0zM529.629 206.985v-84.085c0-13.342-10.839-24.158-24.209-24.158s-24.209 10.816-24.209 24.158v84.085c0 13.342 10.839 24.158 24.209 24.158s24.209-10.816 24.209-24.158v0z" />
<glyph unicode="&#xe607;" glyph-name="speak" d="M512.638 862.963c-252.4 0-457.736-166.761-457.736-371.785 0-124.504 71.864-231.864 187.921-299.401-15.958-76.151-99.017-157.087-99.017-157.087s142.605-16.374 246.158 87.157c0 0 122.528-3.641 166.2-2.434 252.296 6.804 414.209 166.782 414.209 371.765 0 205.045-205.378 371.785-457.736 371.785zM556.186 161.92c-38.242-0.104-182.553 1.727-184.363 3.537-16.395-28.172-105.862-92.983-149.846-89.924 29.961 31.792 68.099 122.611 64.478 138.985-16.25 8.26-29.149 17.061-43.776 27.027 0-0.042 0.021-0.125 0.021-0.146-88.801 60.4-145.206 149.908-145.206 249.778 0 181.617 186.257 329.32 415.166 329.32 228.93 0 415.145-147.724 415.145-329.32-0.021-181.596-142.689-328.862-371.619-329.258z" />
<glyph unicode="&#xe608;" glyph-name="phone" d="M219.771 856.538c5.895 0 11.647-1.048 17.193-3.348 16.228-6.84 113.861-94.326 132.862-207.489 0 0-9.511-47.143-56.92-113.163 0 0 9.49-47.060 123.002-159.977 113.594-112.855 160.983-122.242 160.983-122.242 66.41 47.143 113.882 56.571 113.882 56.571 113.841-18.857 201.82-115.874 208.763-131.999 21.486-50.306-66.431-122.612-66.431-122.612-20.808-8.874-43.178-12.756-66.616-12.756-181.134 0-422.784 235.22-435.766 247.976-6.964 6.943-315.948 316.913-237.089 499.65 0 0 57.742 69.389 106.138 69.389zM350.188 288.034v0zM350.476 287.705l0.246-0.205 0.123-0.123-0.37 0.329zM219.771 897.436c-64.336 0-125.898-70.087-137.607-84.117l-3.759-4.54-2.342-5.443c-87.301-202.354 208.208-507.25 245.203-544.245h-0.021l0.082-0.123 0.37-0.37 0.411-0.329c28.553-28.039 270.284-259.705 464.38-259.705 29.826 0 57.619 5.341 82.638 16.043l5.423 2.28 4.519 3.78c18.652 15.283 109.999 95.559 78.078 170.268-12.51 29.21-111.643 135.039-239.698 156.259l-7.333 1.212-7.313-1.438c-5.197-1.048-48.765-10.558-110.184-50.183-20.007 11.113-61.439 38.844-127.829 104.802-65.979 65.609-93.936 106.692-105.234 126.617 39.789 60.988 49.361 104.248 50.409 109.424l1.458 7.354-1.232 7.457c-21.363 127.377-127.87 225.935-157.286 238.383-10.373 4.416-21.527 6.614-33.133 6.614z" />
<glyph unicode="&#xe609;" glyph-name="left-arrow" d="M184.255 380.563h732.271c36.766 0 66.57 29.825 66.57 66.616s-29.804 66.616-66.57 66.616h-732.271c-36.766 0-66.57-29.825-66.57-66.616s29.804-66.616 66.57-66.616v0zM390.178 793.179l-345.745-345.984 345.743-346.015c25.996-26.016 68.146-26.019 94.144-0.005s26.001 68.193 0.005 94.209l-298.675 298.91-0.002-94.207 298.675 298.881c25.997 26.015 25.997 68.194 0 94.209s-68.147 26.015-94.144 0v0z" />
<glyph unicode="&#xe60a;" glyph-name="x" d="M83.136 780.677l762.445-762.871c32.327-32.346 84.741-32.346 117.068 0s32.327 84.788 0 117.134l-762.445 762.871c-32.327 32.346-84.741 32.346-117.068 0s-32.327-84.788 0-117.134v0zM823.796 897.811l-762.445-762.871c-32.327-32.346-32.327-84.788 0-117.134s84.741-32.346 117.068 0l762.445 762.871c32.327 32.346 32.327 84.788 0 117.134s-84.741 32.346-117.068 0v0z" />
<glyph unicode="&#xe60b;" glyph-name="search" d="M1002.391 45.44l-306.624 308.385c44.384 62.752 70.751 139.294 70.751 222.175 0.002 212.063-170.942 384-381.789 384-210.849 0-381.792-171.937-381.792-384s170.943-384 381.792-384c82.4 0 158.496 26.525 220.897 71.165l306.624-308.381c12.447-12.512 28.768-18.784 45.088-18.784 16.324 0 32.64 6.272 45.056 18.784 24.893 25.023 24.893 65.634-0.003 90.656zM592.087 428.031l-25.024-35.39-35.199-25.184c-43.393-31.040-94.273-47.457-147.135-47.457-140.352 0-254.528 114.849-254.528 256 0 141.153 114.175 256 254.528 256s254.529-114.847 254.529-256c0.028-53.151-16.29-104.32-47.171-147.969z" />
<glyph unicode="&#xe60c;" glyph-name="notification" horiz-adv-x="939" d="M103.816 417.893c-4.709-83.889-21.597-162.316-56.645-232.412l-30.874-61.748h889.006l-30.874 61.748c-33.886 67.773-51.023 147.161-56.323 231.092-0.689 10.907-1.191 44.072-1.476 90.87-0.21 34.527-0.274 67.442-0.274 97.002v0c0 196.368-159.188 355.556-355.556 355.556s-355.556-159.188-355.556-355.556c0-29.853-0.049-61.879-0.213-95.695-0.23-47.4-0.643-80.675-1.215-90.857v0zM189.016 413.11c0.694 12.361 1.108 45.658 1.348 95.226 0.165 33.986 0.214 66.128 0.214 96.109 0 149.24 120.983 270.222 270.222 270.222s270.222-120.983 270.222-270.222v0c0-29.72 0.064-62.781 0.275-97.521 0.299-49.050 0.805-82.429 1.644-95.728 5.959-94.36 25.372-184.295 65.162-263.876l38.162 61.748h-750.933l38.162-61.748c40.988 81.976 60.213 171.255 65.52 265.791v0zM469.333-64c94.257 0 170.667 76.41 170.667 170.667h-85.333c0-47.128-38.205-85.333-85.333-85.333v-85.333zM469.333 21.333c-47.128 0-85.333 38.205-85.333 85.333h-85.333c0-94.257 76.41-170.667 170.667-170.667v85.333z" />
<glyph unicode="&#xe60d;" glyph-name="calendar-fav" d="M152.508 602.068v0-513.866c0 0.187-0.080 0.254-0.252 0.254h719.489c-0.112 0-0.252-0.117-0.252-0.254v513.866c0-0.187 0.080-0.254 0.252-0.254h-719.489c0.112 0 0.252 0.117 0.252 0.254v0zM49.796 705.085c0 56.558 45.842 102.407 102.46 102.407h719.489c56.587 0 102.46-45.939 102.46-102.407v-616.883c0-56.558-45.842-102.407-102.46-102.407h-719.489c-56.587 0-102.46 45.939-102.46 102.407v616.883zM203.864 910.204h102.712v-102.712h-102.712v102.712zM717.424 910.204h102.712v-102.712h-102.712v102.712zM512 242.576l-120.745-63.48 23.060 134.452-97.685 95.219 134.997 19.616 60.373 122.328 60.373-122.328 134.997-19.616-97.685-95.219 23.060-134.452z" />
<glyph unicode="&#xe60e;" glyph-name="dropdown-arrow" d="M513.277-7.82c251.038 0 454.544 203.506 454.544 454.544s-203.506 454.544-454.544 454.544c-251.038 0-454.544-203.506-454.544-454.544s203.506-454.544 454.544-454.544zM265.344 529.367h495.866l-247.933-247.933-247.933 247.933z" />
<glyph unicode="&#xe60f;" glyph-name="x-2" d="M512 565.482l313.829 313.829 117.482-117.482-313.829-313.829 313.829-313.829-117.482-117.482-313.829 313.829-313.829-313.829-117.482 117.482 313.829 313.829-313.829 313.829 117.482 117.482 313.829-313.829z" />
<glyph unicode="&#xe610;" glyph-name="search-circle" d="M512-15.481c-255.974 0-463.481 207.508-463.481 463.481s207.508 463.481 463.481 463.481c255.974 0 463.481-207.508 463.481-463.481s-207.508-463.481-463.481-463.481zM453.413 270.232c130.535 0 236.355 105.82 236.355 236.355s-105.82 236.355-236.355 236.355c-130.535 0-236.355-105.82-236.355-236.355s105.82-236.355 236.355-236.355zM453.413 354.501c-83.995 0-152.086 68.091-152.086 152.086s68.091 152.086 152.086 152.086c83.995 0 152.086-68.091 152.086-152.086s-68.091-152.086-152.086-152.086zM710.937 189.475c16.455-16.455 43.133-16.455 59.587 0s16.455 43.133 0 59.587l-144.462 144.462c-8.51 8.51 12.341-29.794 12.341-29.794l-42.135-42.135c0 0-46.248 28.796-29.794 12.341l144.462-144.462z" />
<glyph unicode="&#xe611;" glyph-name="trash" d="M169.458 848.339h686.863v-114.243h-686.863v114.243zM398.412 903.176h228.954v-111.958h-228.954v111.958zM226.124 105.759v571.215h573.53v-571.215c0-63.119-51.515-114.243-115.049-114.243h-343.431c-63.535 0-115.049 51.124-115.049 114.243z" />
<glyph unicode="&#xe612;" glyph-name="fax" d="M854.983 219.132v570.574c0 62.991-51.123 114.115-114.115 114.115h-456.459c-62.991 0-114.115-51.123-114.115-114.115v-570.574h-114.115v-228.229h912.918v228.229h-114.115zM227.352 789.706c0 31.439 25.619 57.057 57.057 57.057h456.459c31.496 0 57.057-25.619 57.057-57.057v-570.574h-570.574v570.574zM113.237 162.075h798.803v-114.115h-798.803v114.115zM341.466 732.648h342.344v-57.057h-342.344v57.057zM341.466 561.476h228.229v-57.057h-228.229v57.057zM341.466 390.304h342.344v-57.057h-342.344v57.057z" />
<glyph unicode="&#xe613;" glyph-name="date-picker" d="M60.010 174.763h181.307v-181.307h-181.307v181.307zM785.237 174.763h181.307v-181.307h-181.307v181.307zM422.623 174.763h181.307v-181.307h-181.307v181.307zM60.010 537.377h181.307v-181.307h-181.307v181.307zM785.237 537.377h181.307v-181.307h-181.307v181.307zM422.623 537.377h181.307v-181.307h-181.307v181.307zM60.010 899.99h181.307v-181.307h-181.307v181.307zM785.237 899.99h181.307v-181.307h-181.307v181.307zM422.623 899.99h181.307v-181.307h-181.307v181.307z" />
<glyph unicode="&#xe614;" glyph-name="info" d="M512-8.599c252.173 0 456.599 204.426 456.599 456.599s-204.426 456.599-456.599 456.599c-252.173 0-456.599-204.426-456.599-456.599s204.426-456.599 456.599-456.599v0zM512 59.045c-214.814 0-388.955 174.141-388.955 388.955s174.141 388.955 388.955 388.955c214.814 0 388.955-174.141 388.955-388.955s-174.141-388.955-388.955-388.955v0zM580.591 611.226c0-7.711-1.522-14.916-4.566-21.612s-7.103-12.48-12.176-17.351c-5.073-4.87-11.161-8.726-18.264-11.567s-14.51-4.262-22.221-4.262c-16.235 0-29.831 5.378-40.79 16.133s-16.438 23.642-16.438 38.659c0 7.306 1.421 14.307 4.262 21.004s6.9 12.48 12.176 17.351c5.276 4.87 11.364 8.828 18.264 11.872s14.408 4.566 22.526 4.566c7.711 0 15.118-1.421 22.221-4.262s13.191-6.697 18.264-11.567c5.073-4.87 9.132-10.654 12.176-17.351s4.566-13.901 4.566-21.612v0zM473.443 211.245v303.182h99.843v-303.182h-99.843z" />
<glyph unicode="&#xe615;" glyph-name="info-f" d="M512 902.544c-251.032 0-454.544-203.512-454.544-454.544s203.512-454.544 454.544-454.544c251.032 0 454.544 203.512 454.544 454.544s-203.512 454.544-454.544 454.544v0zM594.644 158.745h-165.289v330.577h165.289v-330.577zM512 571.966c-45.62 0-82.644 37.025-82.644 82.644s37.025 82.644 82.644 82.644c45.62 0 82.644-37.025 82.644-82.644s-37.025-82.644-82.644-82.644v0z" />
<glyph unicode="&#xe616;" glyph-name="plus" d="M586.906 906.374h-152.366v-380.914h-380.914v-152.366h380.914v-380.914h152.366v380.914h380.914v152.366h-380.914v380.914z" />
<glyph unicode="&#xe800;" glyph-name="envelope" horiz-adv-x="1408" d="M1320 960h-1232c-48.64 0-88-38.208-88-85.312v-853.312c0-47.168 39.36-85.376 88-85.376h1232c48.64 0 88 38.208 88 85.376v853.312c0 47.104-39.36 85.312-88 85.312v0zM1024 365.248l-45.248-45.248 320-320h-1189.504l320 320-45.248 45.248-320-320v811.2l621.184-450.368c5.632-4.032 12.224-6.080 18.816-6.080s13.184 1.984 18.816 6.080l621.184 450.368v-811.2l-320 320zM118.592 896h1170.88l-585.472-424.512-585.408 424.512z" />
<glyph unicode="&#xe900;" glyph-name="pencil" d="M49.796 211.202v-215.246h214.989l537.447 537.962-215.040 215.195-537.397-537.911zM944.46 656.415c-39.573-39.61-71.646-71.715-71.646-71.715l-214.989 215.144c0 0 32.124 32.104 71.697 71.715v0c39.522 39.61 103.72 39.61 143.292 0l71.646-71.715c39.573-39.61 39.573-103.819 0-143.43v0 0z" />
<glyph unicode="&#xe901;" glyph-name="plus-fat" d="M966.544 549.010h-353.534v353.534h-202.019v-353.534h-353.534v-202.019h353.534v-353.534h202.019v353.534h353.534v202.019z" />
<glyph unicode="&#xe902;" glyph-name="download" d="M579.562 906.374l-133.777-0.051v-453.928l-192.785 194.555-97.362-97.278 357.010-356.753 357.010 356.753-97.311 97.278-192.785-194.555v453.979zM53.626-10.905h918.025v152.872h-918.025v-152.872z" />
<glyph unicode="&#xe903;" glyph-name="help-c" d="M512.638 902.544c-251.385 0-455.182-203.797-455.182-455.182s203.797-455.182 455.182-455.182c251.385 0 455.182 203.797 455.182 455.182s-203.797 455.182-455.182 455.182zM512.638 819.783c205.37 0 372.422-167.093 372.422-372.422 0-205.37-167.052-372.422-372.422-372.422s-372.422 167.052-372.422 372.422c0 205.328 167.052 372.422 372.422 372.422zM542.3 203.041c0-25.78-20.897-46.635-46.635-46.635-25.697 0-46.594 20.856-46.594 46.635 0 25.697 20.897 46.635 46.594 46.635 25.738 0 46.635-20.938 46.635-46.635zM520.881 749.751c-109.533 0-198.666-89.133-198.666-198.666 0-22.842 18.538-41.38 41.38-41.38s41.38 18.538 41.38 41.38c0 63.932 52.015 115.906 115.906 115.906s115.906-51.974 115.906-115.906c0-56.898-46.387-105.023-87.229-112.513-63.519-10.221-95.588-43.035-97.906-100.306-0.124-2.524-0.041-16.552-0.041-19.325h-0.083c0-0.124 0.083-0.207 0.083-0.29v-0.248h0.041c0.29-22.635 18.58-40.842 41.256-40.842 22.759 0 41.173 18.373 41.339 41.091h0.124c0 0.041-0.124 12.621-0.041 16.262 0.538 13.449 0.703 17.504 29.256 22.138 85.988 15.683 155.962 102.747 155.962 194.032 0 109.533-89.133 198.666-198.666 198.666z" />
<glyph unicode="&#xe904;" glyph-name="datepicker-s" d="M56.18 903.82v-912.918h912.918v912.918h-912.918zM867.662 92.338h-710.047v608.612h710.047v-608.612zM259.050 548.797h101.435v-101.435h-101.435v101.435zM664.791 548.797h101.435v-101.435h-101.435v101.435zM461.921 548.797h101.435v-101.435h-101.435v101.435zM259.050 345.926h101.435v-101.435h-101.435v101.435zM664.791 345.926h101.435v-101.435h-101.435v101.435zM461.921 345.926h101.435v-101.435h-101.435v101.435z" />
<glyph unicode="&#xe905;" glyph-name="facility" d="M425.305 21.589c0-3.901-3.164-7.066-7.066-7.066h-332.65c-3.901 0-7.066 3.164-7.066 7.066v852.821c0 3.901 3.164 7.066 7.066 7.066h332.65c3.901 0 7.066-3.164 7.066-7.066v-852.821zM945.476 21.589c0-3.901-3.164-7.066-7.066-7.066h-332.65c-3.901 0-7.066 3.164-7.066 7.066v506.040c0 3.901 3.164 7.066 7.066 7.066h332.65c3.901 0 7.066-3.164 7.066-7.066v-506.040z" />
<glyph unicode="&#xe906;" glyph-name="hat" d="M256.572 448v-140.239c0-86.091 124.069-155.822 277.055-155.822 153.030 0 277.055 69.73 277.055 155.822v140.239l-277.055-166.21-277.055 166.21zM966.522 183.436c0 28.221-18.095 52.027-43.29 60.944v350.815l43.29 25.927-432.899 259.703-432.899-259.703 432.899-259.703 346.319 207.762v-324.802c-25.195-8.916-43.29-32.723-43.29-60.944 0-25.711 15.022-47.699 36.71-58.217l-36.71-110.071h129.87l-36.71 110.071c21.688 10.518 36.71 32.506 36.71 58.217z" />
<glyph unicode="&#xe907;" glyph-name="staff" d="M441.564 300.494v-67.023h-126.81c-82.453 0-149.56-70.272-149.56-152.638v-67.28h693.613v70.445c0 82.367-67.107 149.474-149.56 149.474h-126.792v67.617c91.681 10.478 178.54 45.43 230.279 104.446-46.906 46.949-59.521 72.092-59.521 201.755 0 21.329 0.434 79.939 0.434 96.325 0 83.407-67.627 150.991-151.034 150.991-35.244 0-67.237-12.572-92.944-32.773h-0.347c-13.482 36.892-60.995 60.561-98.016 60.561-87.569 0-158.534-70.965-158.534-158.577 0-17.21-0.043-89.216-0.043-110.545 0-129.706 0-160.788-46.906-207.737 52.766-60.187 142.058-95.346 235.742-105.041z" />
<glyph unicode="&#xe908;" glyph-name="map-pin" d="M511.713 409.802c-84.505 0-153.089 68.451-153.089 152.791s68.584 152.791 153.089 152.791c84.582 0 153.089-68.451 153.089-152.791s-68.507-152.791-153.089-152.791zM511.713 906.374c-190.213 0-344.451-153.937-344.451-343.781 0-257.835 344.451-572.968 344.451-572.968s344.451 315.132 344.451 572.968c0 189.843-154.161 343.781-344.451 343.781z" />
<glyph unicode="&#xe909;" glyph-name="life-ring" d="M55.101 419.42c15.826 0 28.58 12.797 28.58 28.58s-12.754 28.58-28.58 28.58c-6.057 0-10.28 4.266-12.328 9.598 18.513 229.665 201.384 412.536 431.049 431.049 5.375-2.048 9.598-6.271 9.598-12.328 0-15.826 12.797-28.58 28.58-28.58s28.58 12.754 28.58 28.58c0 6.057 4.223 10.28 9.598 12.328 229.665-18.513 412.536-201.384 431.049-431.049-2.048-5.332-6.271-9.598-12.328-9.598-15.826 0-28.58-12.797-28.58-28.58s12.754-28.58 28.58-28.58c6.057 0 10.28-4.223 12.328-9.555-18.513-229.708-201.384-412.578-431.049-431.092-5.375 2.048-9.598 6.271-9.598 12.328 0 15.826-12.797 28.58-28.58 28.58s-28.58-12.754-28.58-28.58c0-6.057-4.223-10.28-9.598-12.328-229.665 18.513-412.536 201.384-431.049 431.092 2.048 5.332 6.271 9.555 12.328 9.555v0zM135.040 529.048c10.963-10.835 19.58-23.888 25.466-38.391h142.517c16.935 83.565 82.755 149.342 166.32 166.32v142.517c-14.503 5.887-27.599 14.503-38.391 25.466-148.788-31.438-264.473-147.124-295.912-295.912v0zM512 320.029c70.555 0 127.971 57.416 127.971 127.971s-57.416 127.971-127.971 127.971c-70.555 0-127.971-57.416-127.971-127.971s57.416-127.971 127.971-127.971v0zM593.048 824.96c-10.835-10.963-23.888-19.58-38.391-25.466v-142.517c83.565-16.977 149.342-82.755 166.32-166.32h142.517c5.887 14.503 14.503 27.556 25.466 38.391-31.438 148.788-147.124 264.473-295.912 295.912v0zM888.96 366.952c-10.963 10.835-19.58 23.888-25.466 38.391h-142.517c-16.977-83.565-82.755-149.385-166.32-166.32v-142.517c14.503-5.887 27.556-14.503 38.391-25.466 148.788 31.438 264.473 147.124 295.912 295.912v0zM430.952 71.040c10.792 10.963 23.888 19.58 38.391 25.466v142.517c-83.565 16.935-149.385 82.755-166.32 166.32h-142.517c-5.887-14.503-14.503-27.556-25.466-38.391 31.438-148.788 147.124-264.473 295.912-295.912v0z" />
<glyph unicode="&#xe90a;" glyph-name="check" d="M296.663 188.2l-259.635 259.635 85.772 85.772 259.635-259.635 520.044 520.044 85.772-85.772-520.044-520.044 0.773-0.773-85.772-85.772-0.773 0.773-0.773-0.773-85.772 85.772 0.773 0.773z" />
<glyph unicode="&#xe90b;" glyph-name="folder" d="M866.506 862.963h-236.629c-65.31 0-118.314-53.074-118.314-118.47h-354.943c-65.31 0-118.314-53.074-118.314-118.47v-473.878c0-65.395 53.005-118.47 118.314-118.47h709.887c65.31 0 118.314 53.074 118.314 118.47v592.348c0 65.395-53.005 118.47-118.314 118.47zM866.506 744.493v-592.348h-709.887v473.878h473.258v118.47h236.629z" />
<glyph unicode="&#xe90c;" glyph-name="chevron-up" d="M512.638 726.344l-476.888-438.26 118.109-118.109 358.779 327.86 358.699-327.86 118.189 118.109z" />
<glyph unicode="&#xe90d;" glyph-name="chevron-right" d="M789.546 448.16l-438.26 476.888-118.109-118.109 327.86-358.779-327.86-358.699 118.109-118.189z" />
<glyph unicode="&#xe90e;" glyph-name="chevron-left" d="M233.177 448.16l438.26-476.888 118.109 118.109-327.86 358.779 327.86 358.699-118.109 118.189z" />
<glyph unicode="&#xe90f;" glyph-name="chevron-down" d="M511.362 169.975l476.888 438.26-118.109 118.109-358.779-327.86-358.699 327.86-118.189-118.109z" />
<glyph unicode="&#xe910;" glyph-name="home" d="M747.355 448v-353.033h-171.574v176.516h-122.62v-176.516h-176.516v421.992l235.355 235.296 235.355-235.296v-68.959zM512 918.71l-470.71-470.71h117.678v-353.033c0-64.958 52.72-117.678 117.678-117.678h470.71c64.958 0 117.678 52.72 117.678 117.678v353.033h117.678l-470.71 470.71z" />
<glyph unicode="&#xe911;" glyph-name="attachment" d="M404.633-23.142c-79.372 0-158.691 30.101-219.085 90.459-120.788 120.665-120.788 316.974 0 437.534l346.897 346.394c90.643 90.512 238.115 90.512 328.653 0 90.591-90.512 90.591-237.77 0-328.177l-346.95-346.394c-60.446-60.306-158.691-60.254-219.085 0-60.394 60.306-60.394 158.408 0 218.819l219.137 218.715c20.184 20.154 52.845 20.154 73.028 0s20.184-52.768 0-72.922l-219.085-218.767c-20.131-20.102-20.131-52.82 0-72.922 20.131-20.154 52.949-20.102 73.081 0l346.95 346.394c50.328 50.203 50.328 132.024 0 182.332-50.485 50.308-132.373 50.255-182.649 0l-346.95-346.394c-80.525-80.408-80.525-211.281 0-291.742 80.577-80.408 211.64-80.356 292.113 0l255.625 255.307c20.184 20.102 52.845 20.102 73.028 0 20.184-20.207 20.184-52.82 0-72.975l-255.625-255.254c-60.394-60.306-139.765-90.407-219.085-90.407v0z" />
<glyph unicode="&#xe912;" glyph-name="print" d="M147.231 917.865h731.413v-104.556h104.488v-418.226h-104.488v-418.226h-731.413v418.226h-104.488v418.226h104.488v104.556zM251.719 81.414h522.49v522.782h-522.49v-522.782zM356.217 395.083h313.463v104.556h-313.463zM356.217 185.971h313.463v104.556h-313.463z" />
<glyph unicode="&#xe913;" glyph-name="hospital" d="M94.413 29.136v836.451h836.451v-836.451h-836.451zM930.864 917.865h-836.451c-28.753 0-52.278-23.525-52.278-52.278v-836.451c0-28.753 23.525-52.278 52.278-52.278h836.451c28.753 0 52.278 23.525 52.278 52.278v836.451c0 28.753-23.525 52.278-52.278 52.278v0zM251.247 107.553c14.455 0 26.139 11.684 26.139 26.139v575.060h470.504v-575.060c0-14.455 11.684-26.139 26.139-26.139s26.139 11.684 26.139 26.139v601.199c0 14.455-11.684 26.139-26.139 26.139h-522.782c-14.455 0-26.139-11.684-26.139-26.139v-601.199c0-14.455 11.684-26.139 26.139-26.139zM512.638 604.196c-14.455 0-26.139-11.684-26.139-26.139v-26.139h-26.139c-14.455 0-26.139-11.684-26.139-26.139s11.684-26.139 26.139-26.139h26.139v-26.139c0-14.455 11.684-26.139 26.139-26.139s26.139 11.684 26.139 26.139v26.139h26.139c14.455 0 26.139 11.684 26.139 26.139s-11.684 26.139-26.139 26.139h-26.139v26.139c0 14.455-11.684 26.139-26.139 26.139zM617.195 316.666h-209.113c-14.455 0-26.139-11.684-26.139-26.139s11.684-26.139 26.139-26.139h78.417v-130.695c0-14.455 11.684-26.139 26.139-26.139s26.139 11.684 26.139 26.139v130.695h78.417c14.455 0 26.139 11.684 26.139 26.139s-11.684 26.139-26.139 26.139z" />
<glyph unicode="&#xe914;" glyph-name="md-bag" d="M512 30.342c-230.286 0-417.658 187.372-417.658 417.658s187.372 417.658 417.658 417.658c230.286 0 417.658-187.372 417.658-417.658s-187.372-417.658-417.658-417.658zM512 917.865c-259.496 0-469.865-210.369-469.865-469.865s210.369-469.865 469.865-469.865c259.496 0 469.865 210.369 469.865 469.865s-210.369 469.865-469.865 469.865zM570.759 389.267h-32.63v32.63c0 14.435-11.668 26.104-26.104 26.104s-26.104-11.668-26.104-26.104v-32.63h-32.656c-14.435 0-26.104-11.668-26.104-26.104s11.668-26.104 26.104-26.104h32.656v-32.63c0-14.435 11.668-26.104 26.104-26.104s26.104 11.668 26.104 26.104v32.63h32.63c14.435 0 26.104 11.668 26.104 26.104s-11.668 26.104-26.104 26.104zM333.811 239.171l20.309 243.86c0.131 1.54 2.976 4.124 4.516 4.124h306.718c1.566 0 4.385-2.584 4.516-4.15l20.309-243.834h-356.367zM665.354 539.363h-306.718c-28.688 0-54.165-23.389-56.54-52.025l-20.7-248.35c-2.375-28.636 19.186-52.025 47.874-52.025h365.451c28.714 0 50.249 23.389 47.874 52.025l-20.7 248.35c-2.375 28.636-27.826 52.025-56.54 52.025v0zM394.534 565.466c14.435 0 26.104 11.668 26.104 26.104 0 50.38 40.983 91.363 91.363 91.363s91.363-40.983 91.363-91.363c0-14.435 11.668-26.104 26.104-26.104s26.104 11.668 26.104 26.104c0 79.172-64.424 143.57-143.57 143.57s-143.57-64.398-143.57-143.57c0-14.435 11.668-26.104 26.104-26.104z" />
<glyph unicode="&#xe915;" glyph-name="face" d="M278.983 550.828c0 43.058 35.040 78.098 78.098 78.098s78.098-35.040 78.098-78.098c0-14.37 11.663-26.033 26.033-26.033s26.033 11.663 26.033 26.033c0 71.772-58.391 130.163-130.163 130.163s-130.163-58.391-130.163-130.163c0-14.37 11.663-26.033 26.033-26.033s26.033 11.663 26.033 26.033zM669.447 681.957c-71.746 0-130.137-58.391-130.137-130.137 0-14.37 11.637-26.033 26.007-26.033 14.396 0 26.033 11.663 26.033 26.033 0 43.058 35.040 78.072 78.098 78.072s78.098-35.014 78.098-78.072c0-14.37 11.637-26.033 26.033-26.033s26.033 11.663 26.033 26.033c0 71.746-58.365 130.137-130.163 130.137zM513.277 212.416h-130.163c-43.058 0-78.098 35.040-78.098 78.046 0 14.396-11.663 26.059-26.033 26.059s-26.033-11.663-26.033-26.059c0-71.746 58.391-130.111 130.163-130.111h130.163c14.37 0 26.033 11.663 26.033 26.033 0 14.396-11.663 26.033-26.033 26.033zM513.277 472.73c-14.37 0-26.033-11.663-26.033-26.033v-104.131h-39.049c-7.185 0-13.016 5.857-13.016 13.016 0 14.396-11.663 26.033-26.033 26.033s-26.033-11.637-26.033-26.033c0-35.899 29.209-65.082 65.082-65.082h91.114v156.196c0 14.37-11.663 26.033-26.033 26.033zM513.277 915.312c-258.791 0-468.589-209.797-468.589-468.589s209.797-468.589 468.589-468.589c258.791 0 468.589 209.797 468.589 468.589s-209.797 468.589-468.589 468.589zM513.277 863.246c229.66 0 416.523-186.863 416.523-416.523s-186.863-416.523-416.523-416.523c-229.66 0-416.523 186.863-416.523 416.523s186.863 416.523 416.523 416.523z" />
<glyph unicode="&#xe916;" glyph-name="filter" d="M596.179 387.99h-168.295l-315.946 460.076h800.133l-315.893-460.076zM447.728 47.934v260.043h128.608v-160.027l-128.608-100.017zM982.857 885.353c-13.816 26.244-41.073 42.727-70.785 42.727h-800.133c-29.712 0-56.969-16.483-70.785-42.727-13.869-26.298-12.002-58.143 4.854-82.627l321.707-468.505v-286.288c0-30.565 17.39-58.463 44.861-71.905 11.149-5.441 23.151-8.108 35.153-8.108 17.443 0 34.779 5.708 49.128 16.803l128.608 100.017c19.47 15.203 30.885 38.513 30.885 63.211v186.271l321.653 468.505c16.856 24.484 18.723 56.329 4.854 82.627v0z" />
<glyph unicode="&#xe917;" glyph-name="left-arrow-w" d="M42.256 431.516c21.143 21.146 55.317 21.146 76.46 0l178.065-178.092v193.938c0 208.702 169.846 378.574 378.516 378.574 29.903 0 54.074-24.175 54.074-54.082s-24.171-54.082-54.074-54.082c-149.081 0-270.369-121.306-270.369-270.41v-193.938l178.065 178.092c21.143 21.146 55.317 21.146 76.46 0s21.143-55.326 0-76.472l-270.369-270.41c-10.544-10.546-24.387-15.846-38.23-15.846s-27.686 5.3-38.23 15.846l-270.369 270.41c-21.143 21.146-21.143 55.326 0 76.472zM891.593 715.446h54.074c29.903 0 54.074 24.175 54.074 54.082s-24.171 54.082-54.074 54.082h-54.074c-29.903 0-54.074-24.175-54.074-54.082s24.171-54.082 54.074-54.082z" />
<glyph unicode="&#xe918;" glyph-name="right-arrow-w" d="M983.020 431.516c-21.143 21.146-55.317 21.146-76.46 0l-178.065-178.092v193.938c0 208.702-169.846 378.574-378.516 378.574-29.903 0-54.074-24.175-54.074-54.082s24.171-54.082 54.074-54.082c149.081 0 270.369-121.306 270.369-270.41v-193.938l-178.065 178.092c-21.143 21.146-55.317 21.146-76.46 0s-21.143-55.326 0-76.472l270.369-270.41c10.544-10.546 24.387-15.846 38.23-15.846s27.686 5.3 38.23 15.846l270.369 270.41c21.143 21.146 21.143 55.326 0 76.472zM133.684 715.446h-54.074c-29.903 0-54.074 24.175-54.074 54.082s24.171 54.082 54.074 54.082h54.074c29.903 0 54.074-24.175 54.074-54.082s-24.171-54.082-54.074-54.082z" />
<glyph unicode="&#xe919;" glyph-name="help-center" d="M630.974 373.064c-23.096 1.451 4.976 90.975-35.101 122.67-36.847 29.141-142.678-0.135-148.843 17.836-7.259 21.157-11.2 43.839-11.2 67.422 0 114.89 93.487 208.341 208.338 208.341s208.338-93.45 208.338-208.341c0-114.852-93.487-208.341-208.338-208.341-4.431 0-8.83 0.139-13.194 0.413zM831.028 420.91c36.895 43.070 59.358 98.943 59.358 160.081 0 135.99-110.268 246.221-246.218 246.221s-246.218-110.231-246.218-246.221c0-22.776 3.095-44.831 8.887-65.768 6.249-22.589 149.39 20.273 197.638-20.424 41.875-35.322-12.207-156.023 14.361-158.74 8.328-0.852 16.779-1.288 25.332-1.288 61.138 0 117.010 22.463 160.080 59.358l167.428-167.468c3.712-3.674 8.561-5.53 13.409-5.53s9.697 1.856 13.409 5.53c7.387 7.425 7.387 19.395 0 26.819l-167.466 167.43zM89.624 486.291h465.125l-232.544-166.142-232.581 166.142zM468.762 252.874c-7.424 7.387-19.394 7.387-26.781 0-7.424-7.387-7.424-19.395 0-26.781l118.601-118.603h-477.966l119.814 119.777c7.387 7.387 7.387 19.395 0 26.781-7.424 7.387-19.394 7.387-26.781 0l-118.601-118.603v327.549l254.135-181.521c3.296-2.349 7.159-3.523 11.023-3.523 3.826 0 7.727 1.174 11.023 3.523l254.135 181.521v-328.724l-118.601 118.603zM587.363 524.171h-530.316c-20.947 0-37.88-16.97-37.88-37.88v-378.801c0-20.948 16.932-37.88 37.88-37.88h530.316c20.91 0 37.88 16.932 37.88 37.88v378.801c0 20.91-16.97 37.88-37.88 37.88v0z" />
<glyph unicode="&#xe91a;" glyph-name="chat-f" d="M678.897 420.184h-389.426c-15.382 0-27.816 12.434-27.816 27.816s12.434 27.816 27.816 27.816h389.426c15.382 0 27.816-12.434 27.816-27.816s-12.434-27.816-27.816-27.816zM289.471 642.713h333.794c15.382 0 27.816-12.434 27.816-27.816s-12.434-27.816-27.816-27.816h-333.794c-15.382 0-27.816 12.434-27.816 27.816s12.434 27.816 27.816 27.816zM845.794 837.426h-667.588c-30.737 0-55.632-24.895-55.632-55.632v-500.691c0-30.737 24.895-55.632 55.632-55.632h305.978l139.081-166.897 139.081 166.897h83.449c30.737 0 55.632 24.895 55.632 55.632v500.691c0 30.737-24.895 55.632-55.632 55.632z" />
<glyph unicode="&#xe91b;" glyph-name="chat" d="M855.86 827.212h-673.676c-26.61 0-48.12-21.51-48.12-48.12v-481.197c0-26.61 21.51-48.12 48.12-48.12h336.838l144.359-192.479 144.359 192.479h48.12c26.61 0 48.12 21.51 48.12 48.12v481.197c0 26.61-21.51 48.12-48.12 48.12zM855.86 779.092v-481.197h-72.18l-120.299-160.383-120.299 160.383h-360.898v481.197h673.676zM663.382 634.733h-384.958c-13.281 0-24.060 10.779-24.060 24.060s10.779 24.060 24.060 24.060h384.958c13.281 0 24.060-10.779 24.060-24.060s-10.779-24.060-24.060-24.060zM711.501 490.374h-433.077c-13.281 0-24.060 10.779-24.060 24.060s10.779 24.060 24.060 24.060h433.077c13.281 0 24.060-10.779 24.060-24.060s-10.779-24.060-24.060-24.060z" />
<glyph unicode="&#xe91c;" glyph-name="arrow-best" d="M229.146 399.916h64.168l-57.481-64.948c-17.67-19.965-15.809-50.475 4.156-68.145s50.475-15.809 68.145 4.156l114.113 128.937h402.093l-57.481-64.948c-17.67-19.965-15.809-50.475 4.156-68.145s50.475-15.809 68.145 4.156l154.16 174.187-153.658 179.267c-17.351 20.243-47.827 22.587-68.070 5.236s-22.587-47.827-5.236-68.070l55.828-65.133h-403.862l-109.686 127.967c-17.351 20.243-47.827 22.587-68.070 5.236s-22.587-47.827-5.236-68.070l55.828-65.133h-65.936l-109.686 127.967c-17.351 20.243-47.827 22.587-68.070 5.236s-22.587-47.827-5.236-68.070l126.294-147.343 0.503 63.411-126.294-142.7c-17.67-19.965-15.809-50.475 4.156-68.145s50.475-15.809 68.145 4.156l114.113 128.937zM880.13 462.954l13.022 14.714-0.503-63.411-12.519 14.606v34.091z" />
<glyph unicode="&#xe91d;" glyph-name="filter-sliders" d="M307.711 754.434c28.141 0 51.072-22.931 51.072-51.072s-22.931-51.072-51.072-51.072c-28.141 0-51.072 22.931-51.072 51.072s22.931 51.072 51.072 51.072zM103.421 652.289h60.521c21.144-59.346 77.272-102.145 143.769-102.145s122.625 42.799 143.82 102.145h469.048c28.192 0 51.072 22.88 51.072 51.072s-22.88 51.072-51.072 51.072h-469.048c-21.195 59.346-77.323 102.145-143.82 102.145s-122.625-42.799-143.82-102.145h-60.47c-28.192 0-51.072-22.88-51.072-51.072s22.88-51.072 51.072-51.072zM716.289 396.928c-28.141 0-51.072 22.931-51.072 51.072s22.931 51.072 51.072 51.072c28.141 0 51.072-22.931 51.072-51.072s-22.931-51.072-51.072-51.072zM920.579 499.072h-60.47c-21.195 59.346-77.323 102.145-143.82 102.145s-122.625-42.799-143.82-102.145h-469.048c-28.192 0-51.072-22.88-51.072-51.072s22.88-51.072 51.072-51.072h469.099c21.144-59.346 77.272-102.145 143.769-102.145s122.625 42.799 143.82 102.145h60.47c28.192 0 51.072 22.88 51.072 51.072s-22.88 51.072-51.072 51.072zM409.855 141.566c-28.141 0-51.072 22.931-51.072 51.072s22.931 51.072 51.072 51.072c28.141 0 51.072-22.931 51.072-51.072s-22.931-51.072-51.072-51.072zM920.579 243.711h-366.904c-21.195 59.346-77.323 102.145-143.82 102.145s-122.625-42.799-143.82-102.145h-162.614c-28.192 0-51.072-22.88-51.072-51.072s22.88-51.072 51.072-51.072h162.665c21.144-59.346 77.272-102.145 143.769-102.145s122.625 42.799 143.82 102.145h366.904c28.192 0 51.072 22.88 51.072 51.072s-22.88 51.072-51.072 51.072z" />
<glyph unicode="&#xe91e;" glyph-name="calendar-o" d="M866.474 801.197h-58.973v117.945h-117.945v-117.945h-353.835v117.945h-117.945v-117.945h-58.973c-65.106 0-117.945-52.839-117.945-117.945v-589.726c0-65.106 52.839-117.945 117.945-117.945h707.671c65.106 0 117.945 52.839 117.945 117.945v589.726c0 65.106-52.839 117.945-117.945 117.945zM866.474 123.012c0-16.276-13.21-29.486-29.486-29.486h-648.698c-16.276 0-29.486 13.21-29.486 29.486v530.753c0 16.276 13.21 29.486 29.486 29.486h648.698c16.276 0 29.486-13.21 29.486-29.486v-530.753zM217.776 565.307h117.945v-117.945h-117.945v117.945zM453.666 565.307h117.945v-117.945h-117.945v117.945zM689.556 565.307h117.945v-117.945h-117.945v117.945zM217.776 329.416h117.945v-117.945h-117.945v117.945zM453.666 329.416h117.945v-117.945h-117.945v117.945zM689.556 329.416h117.945v-117.945h-117.945v117.945z" />
<glyph unicode="&#xe91f;" glyph-name="note-h" d="M40.858 919.142v-942.284h647.82l294.464 294.464v647.82h-942.284zM688.678 143.407v127.915h127.915l-127.915-127.915zM570.893 389.107v-294.464h-412.249v588.928h706.713v-294.464h-294.464z" />
<glyph unicode="&#xe920;" glyph-name="check-s" d="M40.858 919.142v-942.284h942.284v942.284h-942.284zM865.357 94.643h-706.713v706.713h706.713v-706.713zM425.722 225.562l374.794 374.735-83.274 83.274-291.519-291.46-124.912 124.912-83.274-83.274 124.912-124.912z" />
<glyph unicode="&#xe921;" glyph-name="pie-chart" d="M512 919.142c-260.188 0-471.142-210.954-471.142-471.142s210.954-471.142 471.142-471.142c260.188 0 471.142 210.954 471.142 471.142s-210.954 471.142-471.142 471.142zM570.893 796.056c53.534-9.011 103.003-30.035 145.524-60.306l-145.524-145.583v205.889zM512 94.643c-194.876 0-353.357 158.48-353.357 353.357 0 174.735 127.621 319.847 294.464 348.056v-348.056c0-23.793 14.311-45.347 36.337-54.417 7.303-3.062 14.959-4.476 22.556-4.476 15.312 0 30.389 6.007 41.637 17.256l246.054 246.054c41.166-57.774 65.665-128.21 65.665-204.417 0-194.876-158.48-353.357-353.357-353.357z" />
<glyph unicode="&#xe922;" glyph-name="quote" d="M224.989 838.314c-103.415 0-182.733-86.118-182.733-186.108 0-103.233 68.863-175.538 165.247-175.538 17.426 0 41.522 3.303 48.312 6.786-13.7-110.079-113.63-248.024-223.895-320.149l127.45-106.836c158.517 113.803 282.903 310 282.903 520.069-0.060 168.752-103.655 261.776-217.285 261.776v0zM776.132 838.314c-103.415 0-182.673-86.118-182.673-186.108 0-103.233 68.863-175.538 165.307-175.538 17.366 0 41.522 3.303 48.252 6.786-13.761-110.139-113.63-248.084-223.955-320.209l127.45-106.836c158.517 113.803 282.843 310 282.843 520.069 0 168.812-103.595 261.836-217.225 261.836z" />
<glyph unicode="&#xe923;" glyph-name="user" d="M518.943 811.89c66.895 0 121.297-54.402 121.297-121.297 0-40.998-20.863-78.964-55.675-101.586l-65.864-42.757-65.743 42.939c-34.63 22.622-55.311 60.527-55.311 101.404 0 66.895 54.402 121.297 121.297 121.297v0zM519.488 402.999l92.853-30.87c120.933-40.149 202.202-155.866 202.262-287.898l-606.484 0.425c0.243 128.453 88.911 246.596 215.787 287.534l95.582 30.809zM518.943 933.187c-133.972 0-242.594-108.621-242.594-242.594 0-85.090 44.031-159.687 110.319-202.99-171.999-55.433-299.846-215.059-299.846-403.494v-120.63l849.077-0.667v121.297c0 188.131-117.658 347.455-285.29 403.13 66.653 43.303 110.926 118.022 110.926 203.354 0 133.972-108.621 242.594-242.594 242.594v0z" />
<glyph unicode="&#xe924;" glyph-name="plus-s" d="M663.932 569.297h-91.183v90.973c0 16.678-13.668 30.324-30.374 30.324h-60.748c-16.706 0-30.374-13.646-30.374-30.324v-90.973h-91.062c-16.706 0-30.374-13.646-30.374-30.324v-60.648c0-16.678 13.668-30.324 30.374-30.324h91.062v-90.973c0-16.678 13.668-30.324 30.374-30.324h60.748c16.706 0 30.374 13.646 30.374 30.324v90.973h91.183c16.706 0 30.374 13.646 30.374 30.324v60.648c0 16.678-13.668 30.324-30.374 30.324zM846.116 933.187h-668.232c-33.533 0-60.748-27.17-60.748-60.648v-849.077c0-33.539 27.215-60.648 60.748-60.648h668.232c33.594 0 60.748 27.11 60.748 60.648v849.077c0 33.478-27.155 60.648-60.748 60.648zM785.368 114.495c0-16.739-13.608-30.324-30.374-30.324h30.374v-0.061h-516.361c-16.767 0-30.374 13.585-30.374 30.324v667.132c0 16.739 13.608 30.324 30.374 30.324h485.987c16.767 0 30.374-13.585 30.374-30.324v-667.072z" />
<glyph unicode="&#xe925;" glyph-name="notebook" d="M936.618 931.91h-726.823c-33.434 0-60.569-27.135-60.569-60.569v-121.137h-90.853c-16.656 0-30.284-13.628-30.284-30.284v-60.569c0-16.656 13.628-30.284 30.284-30.284h90.853v-121.137h-90.853c-16.656 0-30.284-13.628-30.284-30.284v-60.569c0-16.656 13.628-30.284 30.284-30.284h90.853v-121.137h-90.853c-16.656 0-30.284-13.628-30.284-30.284v-60.569c0-16.656 13.628-30.284 30.284-30.284h90.853v-121.137c0-33.494 27.135-60.569 60.569-60.569h726.823c33.494 0 60.569 27.074 60.569 60.569v847.96c0 33.434-27.074 60.569-60.569 60.569zM876.050 114.234c0-16.717-13.567-30.284-30.284-30.284h-545.117c-16.717 0-30.284 13.567-30.284 30.284v30.284h90.853c16.656 0 30.284 13.628 30.284 30.284v60.569c0 16.656-13.628 30.284-30.284 30.284h-90.853v121.137h90.853c16.656 0 30.284 13.628 30.284 30.284v60.569c0 16.656-13.628 30.284-30.284 30.284h-90.853v121.137h90.853c16.656 0 30.284 13.628 30.284 30.284v60.569c0 16.656-13.628 30.284-30.284 30.284h-90.853v30.284c0 16.717 13.567 30.284 30.284 30.284h545.117c16.717 0 30.284-13.567 30.284-30.284v-666.254z" />
<glyph unicode="&#xe926;" glyph-name="arrow-s" d="M562.569 763.843c3.081 0 6.645-1.571 10.512-4.954l294.029-294.27c10.693-9.243 10.693-24.407 0-33.65l-284.121-294.331c-3.806-3.383-7.491-5.014-10.512-5.014-5.316 0-8.82 4.954-8.82 14.016v120.825c0 14.257-11.418 25.917-25.494 25.917h-362.476c-14.016 0.060-25.494 11.66-25.494 25.917v250.29c0 14.257 11.478 25.917 25.494 25.917h352.569c14.016 0 25.494 11.66 25.494 25.917v129.404c0 9.062 3.504 14.016 8.82 14.016v0zM562.569 884.668c-72.677 0-129.646-59.265-129.646-134.841v-34.496h-257.237c-80.711 0-146.32-65.85-146.32-146.743v-250.29c0-80.893 65.608-146.743 146.32-146.743h267.145v-25.857c0-75.637 56.909-134.841 129.646-134.841 32.442 0 64.46 12.445 90.196 35.039l3.746 3.323 3.444 3.625 281.886 291.975c28.092 26.944 44.101 64.038 44.162 102.822 0.060 39.389-16.372 77.026-45.189 104.272l-295.177 295.418-3.141 2.719c-25.917 22.594-57.030 34.617-89.834 34.617v0z" />
<glyph unicode="&#xe927;" glyph-name="ul" d="M42.135 800.399h117.466v-117.466h-117.466v117.466zM42.135 506.733h117.466v-117.466h-117.466v117.466zM42.135 213.067h117.466v-117.466h-117.466v117.466zM277.067 800.399h704.798v-117.466h-704.798v117.466zM277.067 506.733h704.798v-117.466h-704.798v117.466zM277.067 213.067h704.798v-117.466h-704.798v117.466z" />
<glyph unicode="&#xe928;" glyph-name="cog" d="M931.928 552.982h-67.923c-7.296 24.408-16.797 47.819-28.765 69.813l47.924 47.924c20.524 20.524 20.524 53.698 0 74.222l-74.222 74.275c-20.576 20.524-53.751 20.471-74.275 0l-47.924-47.924c-21.994 11.915-45.352 21.469-69.761 28.713v67.923c0 28.975-23.463 52.491-52.491 52.491h-104.982c-29.028 0-52.491-23.516-52.491-52.491v-67.923c-24.408-7.244-47.819-16.85-69.813-28.713l-47.924 47.872c-20.524 20.524-53.698 20.524-74.222 0l-74.222-74.222c-20.524-20.524-20.524-53.698 0-74.222l47.872-47.924c-11.863-21.994-21.469-45.405-28.713-69.813h-67.923c-29.028 0-52.491-23.463-52.491-52.491v-104.982c0-29.028 23.463-52.491 52.491-52.491h67.923c7.244-24.408 16.797-47.767 28.713-69.761l-47.924-47.924c-20.524-20.576-20.524-53.698 0-74.275l74.275-74.222c20.524-20.524 53.698-20.524 74.222 0l47.924 47.924c21.941-11.968 45.405-21.469 69.813-28.765v-67.923c0-29.028 23.463-52.491 52.491-52.491h104.982c29.028 0 52.491 23.463 52.491 52.491v67.923c24.408 7.244 47.767 16.797 69.761 28.765l47.924-47.924c20.576-20.524 53.698-20.524 74.275 0l74.222 74.222c20.524 20.576 20.524 53.698 0 74.275l-47.924 47.924c11.968 21.994 21.521 45.352 28.765 69.761h67.923c29.028 0 52.491 23.463 52.491 52.491v104.982c0 29.028-23.463 52.491-52.491 52.491zM512 290.527c-86.978 0-157.473 70.495-157.473 157.473s70.495 157.473 157.473 157.473c86.978 0 157.473-70.495 157.473-157.473s-70.495-157.473-157.473-157.473z" />
<glyph unicode="&#xe929;" glyph-name="menu-bars" d="M37.027 922.973h951.222v-158.537h-951.222v158.537zM37.027 526.63h951.222v-158.537h-951.222v158.537zM37.027 130.288h951.222v-158.537h-951.222v158.537z" />
<glyph unicode="&#xe92a;" glyph-name="asterisk" d="M654.688 388.15l231.304-231.325-82.823-82.823-231.319 231.319v-327.186h-117.147v327.245l-231.377-231.377-82.823 82.823 231.304 231.325h-327.119v117.147h327.186l-231.348 231.348 82.823 82.882 231.354-231.374v327.16h117.147v-327.101l231.295 231.316 82.823-82.882-231.348-231.348h327.245v-117.147h-327.177z" />
<glyph unicode="&#xe92b;" glyph-name="phone-f" d="M709.591-5.267c-46.053 0-91.252 12.254-130.926 35.356-199.177 116.212-365.811 282.845-481.972 482.022-23.152 39.624-35.406 84.924-35.406 130.876 0 69.456 27.019 134.693 76.085 183.759 46.455 46.404 108.126 71.967 173.715 71.967h10.195l87.586-233.679-94.416-94.365 27.973-39.022c71.013-98.785 156.991-184.814 255.726-255.776l39.022-27.973 94.918 94.968 233.177-88.188v-10.094c0-65.639-25.563-127.311-71.967-173.765-49.016-49.066-114.303-76.085-183.709-76.085z" />
<glyph unicode="&#xe92c;" glyph-name="ext-link" d="M562.925 906.374v-101.861h233.567l-407.444-407.444 72.016-72.016 407.444 407.444v-233.567h101.861v407.444zM53.626 906.374v-916.748h916.748v356.513h-101.861v-254.652h-713.026v713.026h254.652v101.861z" />
<glyph unicode="&#xe92d;" glyph-name="shield" d="M512.142 835.298c64.742-56.804 151.066-92.952 242.784-92.952 21.581 0 43.162 0 64.742 5.164v-361.479c0-108.444-178.042-263.363-307.527-345.987-129.485 82.624-307.527 232.379-307.527 345.987v361.479c21.581-5.164 43.162-5.164 64.742-5.164 91.718 0 178.042 30.984 242.784 92.952v0zM512.142 912.758c-53.952-72.296-140.275-118.772-242.784-118.772-43.162 0-80.928 10.328-118.694 25.82v-428.61c0-196.231 361.479-407.954 361.479-407.954s361.479 211.723 361.479 402.79v433.774c-37.766-15.492-75.533-25.82-118.694-25.82-102.509 0-188.832 46.476-242.784 118.772v0z" />
<glyph unicode="&#xe92e;" glyph-name="map-pin-e" d="M506.891 931.91c-200.975 0-363.889-162.701-363.889-363.411 0-272.586 363.889-605.686 363.889-605.686s363.889 333.1 363.889 605.686c0 200.711-162.861 363.411-363.889 363.411zM506.891 878.071c170.947 0 309.98-138.904 309.98-309.573 0-197.104-221.029-440.455-309.98-530.473-88.951 90.018-309.98 333.369-309.98 530.473 0 170.669 139.086 309.573 309.98 309.573zM506.891 730.069c-89.328 0-161.675-72.359-161.675-161.57 0-89.103 72.347-161.462 161.675-161.462 89.382 0 161.728 72.359 161.728 161.462 0 89.211-72.347 161.57-161.728 161.57zM506.891 676.23c59.462 0 107.819-48.347 107.819-107.731s-48.357-107.624-107.819-107.624c-59.462 0-107.765 48.24-107.765 107.624s48.303 107.731 107.765 107.731z" />
<glyph unicode="&#xe92f;" glyph-name="home-2" d="M130.552 501.627l381.429 372.768 381.429-372.768h-762.859zM779.313 20.269h-160.399v213.866h-213.866v-213.866h-160.399v427.731h534.664v-427.731zM458.515 20.269v160.399h106.933v-160.399h-106.933zM981.683 486.71l-432.704 426.502c-10.159 10.64-23.579 15.986-36.999 15.986-13.367 0-26.787-5.347-36.945-15.986l-432.757-426.502c-20.317-21.28-12.939-38.71 16.468-38.71h132.436v-481.198h641.597v481.198h132.436c29.46 0 36.838 17.43 16.468 38.71v0z" />
<glyph unicode="&#xe930;" glyph-name="suitcase" d="M619.252 302.593v-68.856h-214.504v106.984h214.504v-38.128zM82.993 19.234v267.862h268.13v-91.754c0-8.366 7.99-15.23 17.804-15.23h286.148c9.814 0 17.804 6.864 17.804 15.23v91.754h268.13v53.626h-268.13v38.396c0 8.366-7.99 15.23-17.804 15.23h-286.148c-9.814 0-17.804-6.864-17.804-15.23v-38.396h-268.13v53.894l-0.268 267.862h858.283v-267.862l0.268-375.382h-858.283zM780.13 876.981v-160.61h-536.313l-0.215 160.61h536.527zM941.276 716.103h-107.52v161.146c0 29.387-23.971 53.358-53.358 53.358h-536.796c-29.387 0-53.358-23.971-53.358-53.358v-161.146h-107.52c-29.387 0-53.358-23.971-53.358-53.358v-643.779c0-29.333 23.971-53.358 53.358-53.358h858.551c29.387 0 53.358 24.024 53.358 53.358v643.779c0 29.387-23.971 53.358-53.358 53.358v0z" />
<glyph unicode="&#xe931;" glyph-name="location-cross" d="M539.345 154.946v25.371c0 14.742-11.965 26.707-26.707 26.707s-26.707-11.965-26.707-26.707v-25.371c-140.69 12.766-252.965 125.040-265.73 265.73h25.371c14.742 0 26.707 11.911 26.707 26.707 0 14.742-11.965 26.707-26.707 26.707h-25.371c12.766 140.637 125.040 252.911 265.73 265.677v-25.318c0-14.795 11.965-26.707 26.707-26.707s26.707 11.911 26.707 26.707v25.318c140.69-12.766 252.965-125.040 265.73-265.677h-25.371c-14.742 0-26.707-11.965-26.707-26.707 0-14.795 11.965-26.707 26.707-26.707h25.371c-12.766-140.69-125.040-252.965-265.73-265.73zM966.65 474.090h-108.162c-13.086 170.121-149.023 306.057-319.143 319.090v108.215c0 14.742-11.965 26.707-26.707 26.707s-26.707-11.965-26.707-26.707v-108.215c-170.121-13.033-306.057-148.969-319.143-319.090h-108.162c-14.742 0-26.707-11.965-26.707-26.707 0-14.795 11.965-26.707 26.707-26.707h108.162c13.086-170.121 149.023-306.111 319.143-319.143v-108.162c0-14.795 11.965-26.707 26.707-26.707s26.707 11.911 26.707 26.707v108.162c170.121 13.033 306.057 149.023 319.143 319.143h108.162c14.742 0 26.707 11.911 26.707 26.707 0 14.742-11.965 26.707-26.707 26.707zM512.638 367.242c-44.173 0-80.12 35.947-80.12 80.12s35.947 80.12 80.12 80.12c44.173 0 80.12-35.947 80.12-80.12s-35.947-80.12-80.12-80.12zM512.638 580.894c-73.603 0-133.533-59.93-133.533-133.533s59.93-133.533 133.533-133.533c73.603 0 133.533 59.93 133.533 133.533s-59.93 133.533-133.533 133.533z" />
<glyph unicode="&#xe932;" glyph-name="back-arrow" d="M371.879 523.425l279.934 289.544-110.004 110.004-462.648-474.835 462.648-474.835 110.004 110.004-272.487 281.841h566.516v158.278h-573.963z" />
<glyph unicode="&#xe933;" glyph-name="eye" d="M512 252.223c-108.118 0-195.777 87.659-195.777 195.777s87.659 195.777 195.777 195.777c108.118 0 195.777-87.659 195.777-195.777s-87.659-195.777-195.777-195.777zM512 741.666c-243.302 0-440.499-293.666-440.499-293.666s197.197-293.666 440.499-293.666c243.302 0 440.499 293.666 440.499 293.666s-197.197 293.666-440.499 293.666zM512 496.944c-27.017 0-48.944-21.927-48.944-48.944s21.927-48.944 48.944-48.944c27.017 0 48.944 21.927 48.944 48.944s-21.927 48.944-48.944 48.944z" />
<glyph unicode="&#xe934;" glyph-name="link" d="M429.967 188.808h-124.957c-143.544 0-260.327 116.56-260.327 259.83s116.783 259.83 260.327 259.83h124.957c28.74 0 52.065-23.281 52.065-51.966s-23.325-51.966-52.065-51.966h-124.957c-86.116 0-156.196-69.946-156.196-155.898s70.080-155.898 156.196-155.898h124.957c28.74 0 52.065-23.229 52.065-51.966s-23.325-51.966-52.065-51.966zM721.538 188.808h-124.957c-28.792 0-52.065 23.229-52.065 51.966s23.273 51.966 52.065 51.966h124.957c86.116 0 156.196 69.946 156.196 155.898s-70.080 155.898-156.196 155.898h-124.957c-28.792 0-52.065 23.281-52.065 51.966s23.273 51.966 52.065 51.966h124.957c143.544 0 260.327-116.56 260.327-259.83s-116.783-259.83-260.327-259.83zM721.538 396.672h-416.523c-28.74 0-52.065 23.229-52.065 51.966 0 28.685 23.325 51.966 52.065 51.966h416.523c28.792 0 52.065-23.281 52.065-51.966 0-28.737-23.273-51.966-52.065-51.966z" />
<glyph unicode="&#xe935;" glyph-name="envelope-b" d="M240.845 701.355h542.321l-271.16-237.281-271.16 237.281zM867.525 265.197l-116.458 116.481c-19.858 19.862-52.008 19.862-71.815 0-19.858-19.862-19.858-51.967 0-71.829l116.458-116.481h-567.41l116.458 116.481c19.858 19.862 19.858 51.967 0 71.829s-52.008 19.862-71.815 0l-116.458-116.481v375.047l322.101-281.882c9.548-8.382 21.484-12.598 33.419-12.598s23.871 4.216 33.419 12.598l322.101 281.882v-375.047zM54.908 91.771h914.195v711.182h-914.195v-711.182z" />
<glyph unicode="&#xe936;" glyph-name="speak-b" d="M668.092 180.947c7.57 0 15.089-1.657 22.089-4.921 31.112-14.658 73.631-29.628 123.98-35.014-20.067 32.632-31.112 62.777-36.349 79.766-5.341 17.455-1.089 36.413 11.148 49.932 48.482 53.557 74.097 117.267 74.097 184.291 0 167.147-160.017 303.112-356.694 303.112s-356.694-135.965-356.694-303.112c0-167.147 160.017-303.112 356.694-303.112 49.727 0 98.001 8.65 143.476 25.743 5.911 2.227 12.082 3.315 18.252 3.315zM852.843 35.348c-75.134 0-139.172 18.129-186.98 38.122-51.127-16.678-104.69-25.173-159.499-25.173-253.87 0-460.399 182.427-460.399 406.705s206.529 406.705 460.399 406.705c253.818 0 460.399-182.427 460.399-406.705 0-82.926-27.637-161.553-80.32-229.251 11.771-26.882 33.393-63.606 70.52-89.245 17.215-11.965 25.563-33.098 21.156-53.557-4.407-20.511-20.741-36.257-41.378-40.039-29.245-5.283-57.297-7.562-83.897-7.562z" />
<glyph unicode="&#xe937;" glyph-name="help-c-2" d="M513.044 286.481c27.043 0 49.806-22.71 49.806-49.754s-22.762-49.754-49.806-49.754c-26.991 0-49.754 22.71-49.754 49.754s22.762 49.754 49.754 49.754zM526.566 521.257c26.312 18.534 49.754 34.874 49.754 62.597s-21.301 51.163-67.504 51.163c-43.436 0-74.709-19.839-98.933-49.701l-47.561 53.304c36.232 44.063 90.997 70.428 155.003 70.428 89.588 0 144.353-47.665 144.353-111.724 0-58.994-39.834-87.447-75.387-112.298-26.991-19.943-51.894-37.015-51.894-65.468 0-11.329 6.369-24.172 15.61-31.951l-62.544-20.674c-17.072 16.341-25.582 37.015-25.582 60.456 0 47.665 34.144 71.837 64.685 93.869zM512 917.865c-259.522 0-469.865-210.343-469.865-469.865s210.343-469.865 469.865-469.865c259.522 0 469.865 210.343 469.865 469.865s-210.343 469.865-469.865 469.865zM512 865.658c230.286 0 417.658-187.372 417.658-417.658s-187.372-417.658-417.658-417.658c-230.286 0-417.658 187.372-417.658 417.658s187.372 417.658 417.658 417.658z" />
<glyph unicode="&#xe938;" glyph-name="cog-s" d="M512.638 341.67c-58.342 0-105.691 47.35-105.691 105.691s47.35 105.691 105.691 105.691c58.342 0 105.691-47.35 105.691-105.691s-47.35-105.691-105.691-105.691zM572.090 922.973h-118.903c-32.711 0-59.451-26.74-59.451-59.451v-80.22c-11.837-4.175-23.358-8.931-34.561-14.321l-56.756 56.756c-11.52 11.52-26.74 17.333-42.012 17.333s-30.492-5.813-42.012-17.333l-84.13-84.13c-23.094-23.094-23.094-60.931 0-84.025l56.756-56.756c-5.337-11.203-10.146-22.724-14.321-34.561h-80.22c-32.711 0-59.451-26.74-59.451-59.451v-118.903c0-32.711 26.74-59.451 59.451-59.451h80.22c4.175-11.837 8.984-23.305 14.321-34.561l-56.756-56.756c-23.094-23.094-23.094-60.931 0-84.025l84.13-84.077c11.52-11.573 26.74-17.333 42.012-17.333s30.492 5.76 42.012 17.333l56.756 56.703c11.203-5.337 22.724-10.146 34.561-14.321v-80.22c0-32.711 26.74-59.451 59.451-59.451h118.903c32.711 0 59.451 26.74 59.451 59.451v80.22c11.837 4.175 23.305 8.984 34.561 14.321l56.756-56.703c11.52-11.573 26.74-17.333 42.012-17.333s30.492 5.76 42.012 17.333l84.077 84.077c23.146 23.094 23.146 60.931 0 84.025l-56.703 56.756c5.337 11.256 10.146 22.724 14.321 34.561h80.22c32.711 0 59.451 26.74 59.451 59.451v118.903c0 32.711-26.74 59.451-59.451 59.451h-80.22c-4.175 11.837-8.984 23.358-14.321 34.561l56.703 56.756c23.146 23.094 23.146 60.931 0 84.025l-84.077 84.13c-11.52 11.52-26.74 17.333-42.012 17.333s-30.492-5.813-42.012-17.333l-56.756-56.756c-11.256 5.39-22.724 10.146-34.561 14.321v80.22c0 32.711-26.74 59.451-59.451 59.451zM512.638 288.825c87.407 0 158.537 71.13 158.537 158.537s-71.13 158.537-158.537 158.537c-87.407 0-158.537-71.13-158.537-158.537s71.13-158.537 158.537-158.537zM572.090 870.127c3.488 0 6.606-3.118 6.606-6.606v-117.529l35.195-12.472c9.935-3.488 19.817-7.61 29.435-12.207l33.716-16.118 83.179 83.126c1.533 1.533 3.382 1.902 4.65 1.902s3.118-0.37 4.65-1.902l84.077-84.077c1.533-1.533 1.85-3.382 1.85-4.65s-0.317-3.118-1.85-4.65l-83.126-83.179 16.118-33.716c4.598-9.618 8.72-19.5 12.207-29.382l12.419-35.248h117.582c3.488 0 6.606-3.118 6.606-6.606v-118.903c0-3.488-3.118-6.606-6.606-6.606h-117.582l-12.419-35.195c-3.488-9.935-7.61-19.817-12.207-29.488l-16.118-33.663 83.126-83.179c1.533-1.533 1.85-3.382 1.85-4.65s-0.317-3.118-1.85-4.65l-84.077-84.077c-1.533-1.533-3.382-1.85-4.65-1.85s-3.118 0.317-4.65 1.85l-83.179 83.126-33.716-16.118c-9.618-4.598-19.5-8.72-29.435-12.207l-35.195-12.419v-117.582c0-3.488-3.118-6.606-6.606-6.606h-118.903c-3.488 0-6.606 3.118-6.606 6.606v117.582l-35.248 12.419c-9.882 3.488-19.764 7.61-29.382 12.207l-33.716 16.118-83.179-83.126c-1.533-1.533-3.382-1.85-4.65-1.85s-3.118 0.317-4.65 1.85l-84.077 84.077c-1.533 1.533-1.902 3.382-1.902 4.65s0.37 3.118 1.902 4.65l83.126 83.179-16.118 33.716c-4.598 9.618-8.72 19.5-12.207 29.435l-12.472 35.195h-117.529c-3.488 0-6.606 3.118-6.606 6.606v118.903c0 3.488 3.118 6.606 6.606 6.606h117.529l12.472 35.248c3.488 9.882 7.61 19.764 12.207 29.382l16.118 33.716-83.126 83.179c-1.533 1.533-1.902 3.382-1.902 4.65s0.37 3.118 1.902 4.65l84.077 84.077c1.533 1.533 3.382 1.902 4.65 1.902s3.118-0.37 4.65-1.902l83.179-83.126 33.716 16.118c9.618 4.598 19.5 8.72 29.382 12.207l35.248 12.472v117.529c0 3.488 3.118 6.606 6.606 6.606h118.903z" />
<glyph unicode="&#xe939;" glyph-name="search-2" d="M408.437 240.873c-171.346 0-310.69 139.344-310.69 310.69s139.344 310.69 310.69 310.69c171.346 0 310.69-139.344 310.69-310.69s-139.344-310.69-310.69-310.69zM970.475 26.187l-284.799 284.799c-1.243 1.191-2.744 1.812-4.194 2.693 55.562 63.743 89.427 146.749 89.427 237.885 0 200.188-162.284 362.472-362.472 362.472s-362.472-162.284-362.472-362.472c0-200.188 162.284-362.472 362.472-362.472 91.136 0 174.142 33.865 237.885 89.427 0.88-1.45 1.502-2.952 2.693-4.194l284.799-284.799c5.075-5.023 11.703-7.56 18.331-7.56s13.256 2.537 18.331 7.56c10.097 10.149 10.097 26.512 0 36.661z" />
<glyph unicode="&#xe93a;" glyph-name="heart-e" d="M22.983 633.102c0.055-1.162 0.097-2.051 0.132-2.749-0.132-20.815 1.814-38.931 5.586-56.893 21.427-119.365 105.378-242.771 231.431-365.502 50.531-49.199 104.54-94.946 158.55-136.132 18.913-14.423 36.495-27.26 52.31-38.366 9.581-6.729 16.511-11.428 20.352-13.952l20.656-13.572 20.656 13.572c3.841 2.524 10.771 7.224 20.352 13.952 15.815 11.106 33.397 23.943 52.31 38.366 54.009 41.186 108.019 86.933 158.55 136.132 126.053 122.731 210.004 246.137 231.642 366.582 3.562 16.882 5.508 34.998 5.508 53.196-0.097 3.316-0.055 4.205 0 5.367-0.734 6.365-1.060 9.193-1.435 11.016-5.962 135.944-121.065 246.934-261.882 246.934v-75.233c100.808 0 183.179-79.777 187.211-180.609 0.256-1.478 0.477-2.753 0.67-3.857 0.069-3.355 0.133-4.637 0.193-5.487-0.128-12.29-1.512-24.609-4.103-36.944-18.433-102.516-94.484-214.309-210.287-327.060-48.181-46.911-99.934-90.746-151.687-130.212-17.214-13.127-33.241-24.856-47.698-35.053-14.457 10.197-30.484 21.926-47.698 35.053-51.753 39.466-103.506 83.301-151.687 130.212-115.803 112.751-191.854 224.544-210.076 325.98-2.791 13.363-4.185 25.732-4.313 38.024 0.056 0.791 0.115 1.955 0.217 4.002 4.677 106.174 87.049 185.951 187.857 185.951 61.583 0 117.97-29.997 153.18-79.68 15.392-23.52 42.532-39.189 72.521-39.189s57.129 15.668 73.287 40.313c34.443 48.558 90.829 78.556 152.413 78.556v75.233c-86.317 0-165.432-42.089-214.561-111.413-3.436-5.196-7.351-7.456-11.139-7.456s-7.703 2.26-10.372 6.332c-49.896 70.448-129.011 112.537-215.328 112.537-139.938 0-254.482-109.609-262.187-248.702-0.278-1.862-0.596-4.62-1.13-9.248z" />
<glyph unicode="&#xe93b;" glyph-name="heart-f" d="M756.509 882.115c-82.427 0-154.91-41.023-199.193-103.509-9.726-14.834-26.244-25.266-45.316-25.266s-35.59 10.432-45.316 25.266c-44.283 62.486-116.767 103.509-199.193 103.509-131.709 0-238.315-104.324-243.531-234.783-0.217-1.358-0.978-2.445-0.978-3.912 0-0.978 0.272-2.010 0.272-2.988s-0.272-1.847-0.272-2.825c0-17.279 1.902-34.123 5.325-50.423 52.271-290.965 483.693-574.433 483.693-574.433s431.422 283.467 483.693 574.433c3.423 16.301 5.325 33.145 5.325 50.423 0 0.978-0.272 1.847-0.272 2.825s0.272 2.010 0.272 2.988c0 1.467-0.761 2.554-0.978 3.912-5.216 130.459-111.822 234.783-243.531 234.783z" />
<glyph unicode="&#xe93c;" glyph-name="check-circle-e" d="M512 937.017c-270.019 0-489.017-218.998-489.017-489.017s218.998-489.017 489.017-489.017c270.019 0 489.017 218.998 489.017 489.017s-218.998 489.017-489.017 489.017zM512 855.515c224.704 0 407.515-182.811 407.515-407.515s-182.811-407.515-407.515-407.515c-224.704 0-407.515 182.811-407.515 407.515s182.811 407.515 407.515 407.515zM468.347 227.372l-201.72 201.72 57.623 57.623 144.097-144.097 259.342 259.342 57.623-57.623z" />
<glyph unicode="&#xe93d;" glyph-name="check-circle-f" d="M468.157 227.372l-201.634 201.72 57.598 57.623 144.036-144.097 259.232 259.342 57.598-57.623-316.83-316.965zM511.824 937.017c-269.986 0-488.809-218.917-488.809-489.017 0-270.019 218.824-489.017 488.809-489.017 269.904 0 488.809 218.998 488.809 489.017 0 270.101-218.905 489.017-488.809 489.017v0z" />
<glyph unicode="&#xe93e;" glyph-name="shield-check" d="M512.724 929.826c-56.533-73.588-146.251-121.825-248.201-121.825-44.194 0-86.049 9.219-124.074 25.351v-446.085c0-199.165 372.275-420.734 372.275-420.734s372.275 221.569 372.275 420.734v446.085c-38.078-16.133-79.88-25.351-124.074-25.351-102.003 0-191.669 48.237-248.201 121.825zM512.724 849.538c67.169-61.1 154.654-95.134 248.201-95.134 23.187 0 46.162 2.090 68.765 6.324v-373.462c0-114.429-183.691-271.521-316.966-357.115-133.275 85.594-316.913 242.686-316.913 357.115v373.462c22.549-4.234 45.524-6.324 68.711-6.324 93.547 0 181.085 34.034 248.201 95.134zM456.372 282.582l-148.591 149.749 37.6 37.893 110.991-111.856 268.198 270.288 37.6-37.893z" />
<glyph unicode="&#xe93f;" glyph-name="heart-key" d="M160.22 259.803c-3.685-0.759-7.316-1.192-10.947-1.409l-0.705 0.108h-0.813l-0.813 0.163-3.468 0.054c-36.418 1.517-65.032 31.107-65.032 67.362 0 22.057 10.514 42.162 27.043 53.922 23.303 15.228 37.177 40.645 37.177 68.013s-13.874 52.73-35.442 66.766c-18.263 12.952-28.777 33.058-28.777 55.169 0 36.255 28.614 65.791 65.032 67.254l3.468 0.163 1.463 0.271h0.325c3.794-0.163 7.912-0.705 13.006-1.788 84.921-15.228 180.843-122.585 229.726-187.834-48.937-65.303-145.022-172.714-231.243-188.214zM972.633 475.113h-534.076c-43.192 58.475-153.909 193.741-267.228 214.118-8.129 1.68-16.529 2.655-25.146 2.655-0.488 0-0.921-0.163-1.409-0.163s-0.975 0.163-1.463 0.163c-0.759 0-1.301-0.379-1.951-0.488-65.032-2.601-117.112-55.765-117.112-121.447 0-41.133 20.485-77.28 51.646-99.337 7.424-4.877 12.573-13.115 12.573-22.599 0-9.538-5.148-17.775-12.573-22.599-31.161-22.111-51.646-58.258-51.646-99.337 0-65.682 52.080-118.9 117.112-121.502 0.65-0.108 1.192-0.434 1.951-0.434 0.488 0 0.975 0.163 1.463 0.163s0.921-0.163 1.409-0.163c8.617 0 17.017 0.921 25.146 2.601 113.318 20.377 224.036 155.698 267.228 214.172h344.399v-81.29c0-15.012 12.139-27.097 27.097-27.097 15.012 0 27.097 12.085 27.097 27.097v81.29h108.387v-135.484c0-15.012 12.139-27.097 27.097-27.097 15.012 0 27.097 12.085 27.097 27.097v162.58c0 14.957-12.085 27.097-27.097 27.097z" />
<glyph unicode="&#xe940;" glyph-name="cog-s-2" d="M512.638 284.994c-89.681 0-162.367 72.686-162.367 162.367s72.686 162.367 162.367 162.367c89.681 0 162.367-72.686 162.367-162.367s-72.686-162.367-162.367-162.367zM566.977 934.464h-108.678c-29.659 0-53.906-24.247-53.906-53.906v-70.251c-25.167-7.469-49.306-17.373-71.983-29.659l-49.576 49.576c-10.446 10.5-24.247 15.75-38.102 15.75-13.801 0-27.602-5.25-38.102-15.75l-76.854-76.854c-20.945-20.945-20.945-55.259 0-76.204l49.576-49.576c-12.286-22.677-22.19-46.816-29.659-71.983h-70.251c-29.659 0-53.906-24.247-53.906-53.906v-108.678c0-29.659 24.247-53.906 53.906-53.906h70.251c7.469-25.167 17.373-49.306 29.659-71.983l-49.576-49.576c-20.945-20.945-20.945-55.259 0-76.15l76.854-76.908c10.5-10.5 24.301-15.696 38.102-15.696 13.855 0 27.657 5.196 38.102 15.696l49.576 49.576c22.677-12.34 46.816-22.136 71.983-29.659v-70.251c0-29.659 24.247-53.906 53.906-53.906h108.678c29.659 0 53.906 24.247 53.906 53.906v70.251c25.167 7.523 49.306 17.319 71.983 29.659l49.576-49.576c10.446-10.5 24.247-15.696 38.048-15.696 13.855 0 27.657 5.196 38.102 15.696l76.908 76.908c20.945 20.891 20.945 55.205 0 76.15l-49.576 49.576c12.34 22.677 22.136 46.816 29.659 71.983h70.251c29.659 0 53.906 24.247 53.906 53.906v108.678c0 29.659-24.247 53.906-53.906 53.906h-70.251c-7.523 25.167-17.319 49.306-29.659 71.983l49.576 49.576c20.945 20.945 20.945 55.259 0 76.204l-76.908 76.854c-10.446 10.5-24.247 15.75-38.102 15.75-13.801 0-27.602-5.25-38.048-15.75l-49.576-49.576c-22.677 12.286-46.816 22.19-71.983 29.659v70.251c0 29.659-24.247 53.906-53.906 53.906zM512.638 230.872c119.394 0 216.49 97.096 216.49 216.49s-97.096 216.49-216.49 216.49c-119.394 0-216.49-97.096-216.49-216.49s97.096-216.49 216.49-216.49zM566.761 880.341v-110.356l38.698-11.528c21.811-6.495 42.54-15.046 61.645-25.383l35.504-19.213 28.523 28.523 49.197 49.576 76.908-76.529-78.099-78.099 19.213-35.504c10.337-19.105 18.889-39.834 25.383-61.7l11.528-38.643h40.321l70.034 0.216 0.216-108.461h-110.572l-11.528-38.698c-6.495-21.811-15.046-42.594-25.383-61.645l-19.213-35.504 28.523-28.523 49.576-49.197-76.529-76.908-78.099 78.099-35.504-19.213c-19.051-10.337-39.834-18.889-61.645-25.383l-38.698-11.528v-40.321l0.216-70.034-108.461-0.216v110.572l-38.643 11.528c-21.92 6.495-42.594 15.046-61.7 25.383l-35.45 19.213-28.577-28.523-49.251-49.576-76.854 76.529 78.099 78.099-19.213 35.504c-10.337 19.051-18.835 39.834-25.383 61.645l-11.528 38.698h-40.321l-70.034-0.216-0.216 108.461h110.572l11.528 38.643c6.549 21.865 15.046 42.594 25.383 61.7l19.213 35.504-28.523 28.523-49.576 49.251 76.529 76.854 78.153-78.099 35.45 19.213c19.105 10.337 39.834 18.889 61.7 25.383l38.643 11.528v40.321l-0.216 70.034h108.461z" />
<glyph unicode="&#xe941;" glyph-name="md-circle" d="M512.638 14.382c-238.734 0-432.98 194.246-432.98 432.98s194.246 432.98 432.98 432.98c238.734 0 432.98-194.246 432.98-432.98s-194.246-432.98-432.98-432.98zM512.638 934.464c-269.043 0-487.102-218.059-487.102-487.102s218.059-487.102 487.102-487.102c269.043 0 487.102 218.059 487.102 487.102s-218.059 487.102-487.102 487.102zM702.067 404.102c0-8.984-7.307-16.237-16.291-16.237h-113.603v-113.657c0-8.984-7.307-16.291-16.291-16.291h-86.488c-8.822 0-16.291 7.469-16.291 16.291v113.657h-113.603c-8.984 0-16.291 7.252-16.291 16.237v86.542c0 8.822 7.469 16.237 16.291 16.237h113.603v113.657c0 8.822 7.469 16.237 16.291 16.237h86.488c8.984 0 16.291-7.252 16.291-16.237v-113.657h113.603c8.822 0 16.291-7.415 16.291-16.237v-86.542zM685.776 561.003h-59.481v59.535c0 38.806-31.553 70.359-70.413 70.359h-86.488c-38.86 0-70.413-31.553-70.413-70.359v-59.535h-59.481c-38.86 0-70.413-31.553-70.413-70.359v-86.542c0-38.806 31.553-70.359 70.413-70.359h59.481v-59.535c0-38.806 31.553-70.413 70.413-70.413h86.488c38.86 0 70.413 31.608 70.413 70.413v59.535h59.481c38.806 0 70.413 31.553 70.413 70.359v86.542c0 38.806-31.608 70.359-70.413 70.359v0z" />
<glyph unicode="&#xe942;" glyph-name="speak-heart" d="M512 884.699c-271.299 0-491.287-187.89-491.287-419.614 0-122.658 61.957-232.597 160.105-309.347-10.481-41.486-32.698-98.094-79.807-144.438 99.731 0 181.667 29.259 241.003 60.428 53.059-16.704 110.157-26.311 169.985-26.311 271.354 0 491.287 187.835 491.287 419.668 0 231.724-219.933 419.614-491.287 419.614zM512 830.112c240.785 0 436.699-163.762 436.699-365.026 0-201.318-195.914-365.081-436.699-365.081-51.858 0-103.498 7.97-153.554 23.8l-21.671 6.878-20.143-10.59c-33.844-17.795-68.671-31.224-104.317-40.286 9.989 22.708 16.758 44.161 21.453 62.503l8.734 34.499-28.058 21.944c-89.742 70.145-139.143 164.69-139.143 266.332 0 201.264 195.914 365.026 436.699 365.026zM604.116 613.946c-31.006 0-58.354-15.448-75.058-38.975-3.657-5.623-9.88-9.553-17.031-9.553-7.206 0-13.429 3.93-17.086 9.553-16.704 23.527-43.997 38.975-75.058 38.975-49.62 0-89.796-39.303-91.761-88.432-0.055-0.491-0.328-0.928-0.328-1.474 0-0.382 0.055-0.764 0.055-1.146s-0.055-0.71-0.055-1.037c0-6.55 0.71-12.883 1.965-18.996 19.706-109.666 182.267-216.439 182.267-216.439s162.507 106.773 182.158 216.439c1.365 6.114 2.020 12.446 2.020 18.996 0 0.328-0.055 0.655-0.055 1.037s0.055 0.764 0.055 1.146c0 0.546-0.218 0.983-0.328 1.474-1.965 49.129-42.141 88.432-91.761 88.432z" />
<glyph unicode="&#xe943;" glyph-name="clinic" d="M838.45 27.216h-162.906v325.33h-325.811v-325.33h-162.906v819.67l651.623-121.999v-697.671zM404.035 27.216v271.109h217.208v-271.109h-217.208zM952.049 758.722l-868.83 162.665c-14.716 2.657-28.889-6.94-31.658-21.634s6.896-28.846 21.666-31.611l59.298-11.115v-884.031h760.226v741.699l49.306-9.218c1.683-0.325 3.367-0.488 5.050-0.488 12.761 0 24.164 9.055 26.608 22.122 2.769 14.694-6.951 28.846-21.666 31.611v0zM458.337 542.323h27.151v-27.111c0-14.965 12.164-27.111 27.151-27.111s27.151 12.146 27.151 27.111v27.111h27.151c14.987 0 27.151 12.146 27.151 27.111s-12.164 27.111-27.151 27.111h-27.151v27.111c0 14.965-12.164 27.111-27.151 27.111s-27.151-12.146-27.151-27.111v-27.111h-27.151c-14.987 0-27.151-12.146-27.151-27.111s12.164-27.111 27.151-27.111z" />
<glyph unicode="&#xe944;" glyph-name="hospital-2" d="M194.272 924.249v-273.045l-159.048-52.988v-627.743h954.286v627.743l-158.995 52.988v273.045h-636.244zM88.24 553.337l159.048 52.988v264.938h530.212v-264.938l158.995-52.988v-529.875h-105.979v317.925h-636.244v-317.925h-106.032v529.875zM538.928 23.461v264.938h238.571v-264.938h-238.571zM247.288 23.461v264.938h238.571v-264.938h-238.571zM512.383 473.855c-73.056 0-132.54 59.452-132.54 132.469s59.484 132.469 132.54 132.469c73.109 0 132.54-59.452 132.54-132.469s-59.431-132.469-132.54-132.469zM512.383 791.781c-102.321 0-185.556-83.19-185.556-185.456s83.235-185.456 185.556-185.456c102.321 0 185.556 83.19 185.556 185.456s-83.235 185.456-185.556 185.456zM565.399 632.818h-26.508v26.494c0 14.625-11.876 26.494-26.508 26.494s-26.508-11.869-26.508-26.494v-26.494h-26.508c-14.632 0-26.508-11.869-26.508-26.494s11.876-26.494 26.508-26.494h26.508v-26.494c0-14.625 11.876-26.494 26.508-26.494s26.508 11.869 26.508 26.494v26.494h26.508c14.632 0 26.508 11.869 26.508 26.494s-11.876 26.494-26.508 26.494z" />
<glyph unicode="&#xe945;" glyph-name="pill" d="M889.733 581.64l-224.663-224.719-244.925 244.87 224.775 224.719c32.62 32.675 76.15 50.711 122.407 50.711s89.732-18.035 122.407-50.711c42.194-42.194 58.003-100.976 47.482-155.528-6.346-32.731-22.155-64.015-47.482-89.342v0zM378.34 70.247c-32.675-32.731-76.205-50.711-122.407-50.711-46.257 0-89.732 17.98-122.407 50.711-67.521 67.521-67.521 177.348 0 244.814l34.011 34.067 213.252 213.308 244.925-244.87-247.375-247.319zM929.088 865.864c-11.133 11.189-23.212 20.93-35.904 29.28-25.383 16.811-53.327 27.944-82.161 33.51-14.417 2.839-29.113 4.231-43.697 4.231-58.559 0-117.119-22.377-161.762-67.020-2.115-2.060-5.789-5.733-10.855-10.799-7.737-7.793-19.65-19.65-33.232-33.343-9.073-8.962-19.037-18.982-30.115-30.059l-52.436-52.381-84.444-84.499c-132.761-132.705-281.776-281.776-300.368-300.368-89.342-89.286-89.342-234.182 0-323.524 44.699-44.699 103.258-67.020 161.818-67.020s117.119 22.322 161.762 67.020c16.143 16.087 130.59 130.59 247.375 247.319 30.393 30.449 61.12 61.12 90.233 90.233 87.561 87.616 161.094 161.15 173.786 173.841 89.398 89.342 89.398 234.182 0 323.58v0z" />
<glyph unicode="&#xe946;" glyph-name="tube" d="M687.009 770.787h-351.351c-26.224 0-47.483 25.070-47.483 55.836s21.258 55.836 47.483 55.836h351.351c26.224 0 47.539-25.070 47.539-55.836s-21.314-55.836-47.539-55.836v0zM583.116 395.904c-26.057 0-50.663 8.543-68.63 22.39-4.966 4.969-10.322 9.548-14.451 12.731l-26.559 24.009c-29.405 23.060-64.501 35.4-101.605 36.237v223.679h278.983v-319.046h-67.737zM650.853 152.627c0-76.998-62.604-139.59-139.491-139.59-76.943 0-139.491 62.592-139.491 139.59v283.088c24.495-0.838 47.594-9.269 65.672-23.339l26.503-23.954c3.794-2.959 7.477-6.086 13.447-11.837 30.465-23.842 67.012-36.517 105.623-36.517h67.737v-187.441zM790.344 826.622c0 61.587-46.367 111.672-103.335 111.672h-351.351c-56.968 0-103.279-50.085-103.279-111.672 0-54.328 36.1-99.555 83.695-109.494v-564.501c0-107.763 87.601-195.426 195.288-195.426 107.631 0 195.288 87.662 195.288 195.426v564.501c47.539 9.939 83.695 55.166 83.695 109.494v0z" />
<glyph unicode="&#xe947;" glyph-name="radiology" d="M941.007 179.87c0-88.697-72.181-160.878-160.878-160.878h-536.259c-88.697 0-160.878 72.181-160.878 160.878v536.259c0 88.697 72.181 160.878 160.878 160.878h536.259c88.697 0 160.878-72.181 160.878-160.878v-536.259zM780.13 930.633h-536.259c-117.977 0-214.504-96.527-214.504-214.504v-536.259c0-117.977 96.527-214.504 214.504-214.504h536.259c117.977 0 214.504 96.527 214.504 214.504v536.259c0 117.977-96.527 214.504-214.504 214.504v0zM699.691 367.561h-160.878v107.252h160.878c29.602 0 53.626-24.078 53.626-53.626 0-29.602-24.024-53.626-53.626-53.626v0zM646.065 206.683h-107.252v107.252h107.252c29.602 0 53.626-24.024 53.626-53.626s-24.024-53.626-53.626-53.626v0zM377.935 206.683c-29.548 0-53.626 24.024-53.626 53.626s24.078 53.626 53.626 53.626h107.252v-107.252h-107.252zM270.683 421.187c0 29.548 24.078 53.626 53.626 53.626h160.878v-107.252h-160.878c-29.548 0-53.626 24.024-53.626 53.626v0zM753.317 689.317c-14.801 0-26.813-12.012-26.813-26.813s12.012-26.813 26.813-26.813c29.602 0 53.626-24.078 53.626-53.626s-24.024-53.626-53.626-53.626h-214.504v231.879c0 14.801-12.012 26.813-26.813 26.813s-26.813-12.012-26.813-26.813v-231.879h-214.504c-29.548 0-53.626 24.078-53.626 53.626s24.078 53.626 53.626 53.626c14.801 0 26.813 12.012 26.813 26.813s-12.012 26.813-26.813 26.813c-59.149 0-107.252-48.102-107.252-107.252 0-46.762 30.245-86.177 72.073-100.817-11.637-17.16-18.447-37.806-18.447-60.061 0-46.708 30.245-86.177 72.073-100.87-11.637-17.107-18.447-37.806-18.447-60.007 0-59.149 48.102-107.252 107.252-107.252h107.252v-74.165c0-14.801 12.012-26.813 26.813-26.813s26.813 12.012 26.813 26.813v74.165h107.252c59.149 0 107.252 48.102 107.252 107.252 0 22.201-6.81 42.901-18.447 60.007 41.828 14.694 72.073 54.162 72.073 100.87 0 22.255-6.81 42.901-18.447 60.061 41.828 14.64 72.073 54.055 72.073 100.817 0 59.149-48.102 107.252-107.252 107.252v0z" />
<glyph unicode="&#xe948;" glyph-name="browser" d="M87.603 130.804v424.63h850.070v-424.63h-850.070zM87.603 608.513v159.236h850.070v-159.236h-850.070zM937.674 820.828h-850.070c-29.221 0-53.129-23.885-53.129-53.079v-636.945c0-29.193 23.908-53.079 53.129-53.079h850.070c29.221 0 53.129 23.885 53.129 53.079v636.945c0 29.193-23.908 53.079-53.129 53.079v0zM167.297 661.592c14.664 0 26.565 11.89 26.565 26.539s-11.901 26.539-26.565 26.539c-14.664 0-26.565-11.89-26.565-26.539s11.901-26.539 26.565-26.539zM273.556 661.592c14.664 0 26.565 11.89 26.565 26.539s-11.901 26.539-26.565 26.539c-14.664 0-26.565-11.89-26.565-26.539s11.901-26.539 26.565-26.539zM379.815 661.592c14.664 0 26.565 11.89 26.565 26.539s-11.901 26.539-26.565 26.539c-14.664 0-26.565-11.89-26.565-26.539s11.901-26.539 26.565-26.539zM193.862 290.041v159.236h212.518v-159.236h-212.518zM167.297 236.962h265.647c14.664 0 26.565 11.89 26.565 26.539v212.315c0 14.65-11.901 26.539-26.565 26.539h-265.647c-14.664 0-26.565-11.89-26.565-26.539v-212.315c0-14.65 11.901-26.539 26.565-26.539v0zM592.333 449.277h212.518c14.664 0 26.565 11.89 26.565 26.539s-11.901 26.539-26.565 26.539h-212.518c-14.664 0-26.565-11.89-26.565-26.539s11.901-26.539 26.565-26.539zM592.333 343.119h212.518c14.664 0 26.565 11.89 26.565 26.539s-11.901 26.539-26.565 26.539h-212.518c-14.664 0-26.565-11.89-26.565-26.539s11.901-26.539 26.565-26.539zM592.333 236.962h212.518c14.664 0 26.565 11.89 26.565 26.539s-11.901 26.539-26.565 26.539h-212.518c-14.664 0-26.565-11.89-26.565-26.539s11.901-26.539 26.565-26.539z" />
<glyph unicode="&#xe949;" glyph-name="iphone" d="M248.233 24.667v132.291h528.811v-132.291h-528.811zM248.233 739.041v132.291h528.811v-132.291h-528.811zM248.233 209.875v476.249h528.811v-476.249h-528.811zM777.044 924.249h-528.811c-29.085 0-52.881-23.812-52.881-52.917v-846.666c0-29.104 23.797-52.917 52.881-52.917h528.811c29.085 0 52.881 23.812 52.881 52.917v846.666c0 29.104-23.797 52.917-52.881 52.917v0z" />
<glyph unicode="&#xe94a;" glyph-name="medication" d="M828.648 651.012h-624.359v208.12h624.359v-208.12zM754.594 34.314h-483.91v104.002h138.267c14.309 0 25.922 11.648 25.922 26s-11.613 26-25.922 26h-138.267v104.002h138.267c14.309 0 25.922 11.648 25.922 26s-11.613 26-25.922 26h-138.267v104.002h138.267c14.309 0 25.922 11.648 25.922 26s-11.613 26-25.922 26h-138.267v104.002h483.91v-572.010zM822.812 914.035h-621.623c-28.595 0-51.802-23.23-51.802-51.853v-207.41c0-28.623 23.207-51.853 51.802-51.853h17.25v-570.378c0-28.674 23.207-51.853 51.802-51.853h483.519c28.595 0 51.802 23.178 51.802 51.853v570.378h17.25c28.646 0 51.802 23.23 51.802 51.853v207.41c0 28.623-23.155 51.853-51.802 51.853v0z" />
<glyph unicode="&#xe94b;" glyph-name="user-2" d="M519.417 915.312c-130.921 0-237.099-104.626-237.099-233.656 0-81.935 43-153.797 107.787-195.492-168.060-53.377-293.067-207.123-293.067-388.648v-116.205l829.925-0.623v116.828c0 181.161-114.997 334.699-278.855 388.336 65.149 41.643 108.409 113.609 108.409 195.804 0 129.030-106.179 233.656-237.099 233.656zM519.408 862.963c102.050 0 184.985-81.441 184.985-181.557 0-61.315-31.496-118.116-84.385-151.938-16.836-10.79-26.005-30.398-23.466-50.265s16.318-36.519 35.329-42.744c145.201-47.568 242.744-183.632 242.744-338.631v-64.79l-725.227 0.519v64.271c0 153.909 103.138 290.077 256.575 338.838 19.115 6.069 32.998 22.669 35.64 42.588 2.694 19.919-6.423 39.58-23.311 50.473-52.527 33.822-83.867 90.519-83.867 151.678 0 100.116 82.987 181.557 184.985 181.557z" />
<glyph unicode="&#xe94c;" glyph-name="building" d="M646.993 17.858h107.484v860.285h-483.678v-860.285h107.484v241.955c0 14.867 12.011 26.884 26.871 26.884h214.968c14.86 0 26.871-12.017 26.871-26.884v-241.955zM781.348-35.91h-537.42c-14.86 0-26.871 12.017-26.871 26.884v914.053c0 14.867 12.011 26.884 26.871 26.884h537.42c14.86 0 26.871-12.017 26.871-26.884v-914.053c0-14.867-12.011-26.884-26.871-26.884zM378.283 689.955c-14.86 0-26.871 12.017-26.871 26.884v53.768c0 14.867 12.011 26.884 26.871 26.884s26.871-12.017 26.871-26.884v-53.768c0-14.867-12.011-26.884-26.871-26.884zM646.993 689.955c-14.86 0-26.871 12.017-26.871 26.884v53.768c0 14.867 12.011 26.884 26.871 26.884s26.871-12.017 26.871-26.884v-53.768c0-14.867-12.011-26.884-26.871-26.884zM512.638 689.955c-14.86 0-26.871 12.017-26.871 26.884v53.768c0 14.867 12.011 26.884 26.871 26.884s26.871-12.017 26.871-26.884v-53.768c0-14.867-12.011-26.884-26.871-26.884zM378.283 528.652c-14.86 0-26.871 12.017-26.871 26.884v53.768c0 14.867 12.011 26.884 26.871 26.884s26.871-12.017 26.871-26.884v-53.768c0-14.867-12.011-26.884-26.871-26.884zM646.993 528.652c-14.86 0-26.871 12.017-26.871 26.884v53.768c0 14.867 12.011 26.884 26.871 26.884s26.871-12.017 26.871-26.884v-53.768c0-14.867-12.011-26.884-26.871-26.884zM512.638 528.652c-14.86 0-26.871 12.017-26.871 26.884v53.768c0 14.867 12.011 26.884 26.871 26.884s26.871-12.017 26.871-26.884v-53.768c0-14.867-12.011-26.884-26.871-26.884zM378.283 367.348c-14.86 0-26.871 12.017-26.871 26.884v53.768c0 14.867 12.011 26.884 26.871 26.884s26.871-12.017 26.871-26.884v-53.768c0-14.867-12.011-26.884-26.871-26.884zM646.993 367.348c-14.86 0-26.871 12.017-26.871 26.884v53.768c0 14.867 12.011 26.884 26.871 26.884s26.871-12.017 26.871-26.884v-53.768c0-14.867-12.011-26.884-26.871-26.884zM512.638 367.348c-14.86 0-26.871 12.017-26.871 26.884v53.768c0 14.867 12.011 26.884 26.871 26.884s26.871-12.017 26.871-26.884v-53.768c0-14.867-12.011-26.884-26.871-26.884z" />
<glyph unicode="&#xe94d;" glyph-name="calendar-sm" d="M929.383 17.681l-836.242 0.209 0.209 679.881h130.486v-52.315c0-14.439 11.71-26.157 26.139-26.157s26.139 11.718 26.139 26.157v52.315h470.504v-52.315c0-14.439 11.71-26.157 26.139-26.157s26.139 11.718 26.139 26.157v52.315h130.486l0.209-0.209-0.209-679.881zM929.383 750.086h-130.486v156.944c0 14.439-11.71 26.157-26.139 26.157s-26.139-11.718-26.139-26.157v-156.944h-470.504v156.944c0 14.439-11.71 26.157-26.139 26.157s-26.139-11.718-26.139-26.157v-156.944h-130.486c-28.858 0-52.487-23.646-52.487-52.524v-679.672c0-28.878 23.63-52.524 52.487-52.524h836.033c28.858 0 52.487 23.646 52.487 52.524v679.672c0 28.878-23.63 52.524-52.487 52.524v0zM249.971 436.198h104.556v104.629h-104.556zM459.083 436.198h104.556v104.629h-104.556zM668.196 436.198h104.556v104.629h-104.556zM249.971 279.254h104.556v104.629h-104.556zM459.083 279.254h104.556v104.629h-104.556zM668.196 279.254h104.556v104.629h-104.556zM249.971 122.31h104.556v104.629h-104.556zM460.36 119.757h104.556v104.629h-104.556zM668.196 122.31h104.556v104.629h-104.556z" />
<glyph unicode="&#xe94e;" glyph-name="ticket" d="M773.746 711.022h-522.214v154.494h113.373c21.567-59.944 79.638-102.996 147.734-102.996s126.167 43.052 147.734 102.996h113.373v-154.494zM251.531 238.603v420.070h522.214v-420.070h-522.214zM773.746 30.484h-113.373c-21.567 59.944-79.638 102.996-147.734 102.996s-126.167-43.052-147.734-102.996h-113.373v154.494h522.214v-154.494zM616.698 919.142c0-57.793-46.905-104.698-104.698-104.698s-104.698 46.905-104.698 104.698h-209.397v-942.284h209.397c0 57.793 46.905 104.698 104.698 104.698s104.698-46.905 104.698-104.698h209.397v942.284h-209.397z" />
<glyph unicode="&#xe94f;" glyph-name="notification-s" d="M513.277 910.204c-170.613 0-308.988-135.983-308.988-303.759v-56.939c0-154.585-51.498-257.642-154.494-360.698h926.963c-102.996 103.057-154.494 206.113-154.494 360.698v56.939c0 167.776-138.323 303.759-308.988 303.759zM513.277 858.676c141.98 0 257.49-113.156 257.49-252.231v-56.939c0-120.37 28.942-217.604 94.241-309.17h-703.462c65.299 91.566 94.241 188.8 94.241 309.17v56.939c0 139.075 115.51 252.231 257.49 252.231zM513.277-16.758c-85.154 0-154.494 68.743-154.494 153.217h51.515c0-56.333 46.158-102.145 102.979-102.145s102.979 45.812 102.979 102.145h51.515c0-84.474-69.339-153.217-154.494-153.217z" />
<glyph unicode="&#xe950;" glyph-name="add-member" d="M691.392 38.272c-112.947 0-204.8 91.904-204.8 204.8 0 112.947 91.853 204.8 204.8 204.8s204.8-91.853 204.8-204.8c0-112.896-91.853-204.8-204.8-204.8zM691.392 499.072c-141.414 0-256-114.586-256-256s114.586-256 256-256c141.414 0 256 114.586 256 256s-114.586 256-256 256zM486.931 38.216l-383.455 0.358v82.545c0 153.276 102.459 288.806 255.023 337.239 9.459 3.017 16.31 11.2 17.639 21.020 1.278 9.82-3.17 19.537-11.555 24.856-55.524 35.749-88.604 95.689-88.604 160.436 0 105.764 87.53 191.838 195.204 191.838s195.255-86.074 195.255-191.838c0-36.005-10.225-70.987-29.603-101.264-7.618-11.865-4.141-27.669 7.72-35.289 11.81-7.569 27.66-4.194 35.329 7.723 24.643 38.511 37.681 83.057 37.681 128.83 0 133.995-110.537 242.982-246.382 242.982s-246.331-108.986-246.331-242.982c0-66.333 27.251-128.625 74.646-173.938-149.547-65.668-247.149-209.022-247.149-369.612v-108.117c0-14.167 11.401-25.572 25.513-25.572l409.069-0.358c14.060 0 25.564 11.456 25.564 25.572 0 14.064-11.453 25.572-25.564 25.572zM794.175 267.97h-76.608v76.608c0 14.096-11.44 25.536-25.536 25.536s-25.536-11.44-25.536-25.536v-76.608h-76.608c-14.096 0-25.536-11.44-25.536-25.536s11.44-25.536 25.536-25.536h76.608v-76.608c0-14.096 11.44-25.536 25.536-25.536s25.536 11.44 25.536 25.536v76.608h76.608c14.096 0 25.536 11.44 25.536 25.536s-11.44 25.536-25.536 25.536z" />
<glyph unicode="&#xe951;" glyph-name="globe" d="M466.099 21.513c-5.482 4.719-10.911 9.492-16.178 14.425l-2.849 2.628c-20.209 19.037-38.161 39.63-55.092 60.865h240.040c-16.984-21.236-34.936-41.882-55.146-60.973-6.235-5.792-12.685-11.369-19.188-16.946-15.050-1.609-30.26-2.52-45.686-2.52-15.533 0-30.798 0.965-45.901 2.52v0zM557.756 874.487c3.547-3.057 7.147-6.113 10.64-9.277l6.341-6.113 4.997-4.344c19.13-18.233 36.165-37.914 52.285-58.184h-240.040c16.927 21.289 34.929 41.882 55.133 60.919 6.233 5.845 12.628 11.476 19.076 16.999 15.046 1.609 30.254 2.52 45.783 2.52 15.476 0 30.737-0.912 45.783-2.52v0zM791.621 313.935c7.686 34.91 11.902 70.786 13.397 107.252h133.436c-2.295-37.216-9.127-73.146-20.282-107.252h-126.551zM302.603 260.309h418.793c-13.223-37.485-30.478-73.307-51.55-107.252h-315.694c-21.018 33.945-38.326 69.767-51.55 107.252v0zM232.379 582.065c-7.635-34.91-11.853-70.786-13.402-107.252h-133.431c2.296 37.216 9.077 73.199 20.29 107.252h126.543zM721.397 635.691h-418.793c13.223 37.485 30.478 73.36 51.55 107.252h315.694c21.071-33.945 38.326-69.767 51.55-107.252v0zM271.96 474.813c1.721 36.573 6.777 72.449 15.274 107.252h450.862c8.444-34.803 13.553-70.625 15.221-107.252h-481.357zM271.96 421.187h481.357c-1.667-36.573-6.777-72.395-15.221-107.252h-450.862c-8.498 34.857-13.553 70.679-15.274 107.252v0zM218.929 421.187c1.548-36.466 5.818-72.341 13.45-107.252h-126.551c-11.209 34.106-17.987 70.035-20.282 107.252h133.383zM805.12 474.813c-1.547 36.466-5.869 72.341-13.499 107.252h126.558c11.151-34.052 17.981-70.035 20.275-107.252h-133.334zM699.783 795.292c-13.24 19.493-27.939 38.11-43.503 56.18 38.099-13.798 73.658-32.744 105.975-56.18h-62.472zM822.595 742.943c30.238-31.586 55.562-67.73 75.001-107.252h-120.088c-11.879 37.163-27.106 73.039-45.897 107.252h90.984zM263.022 797.845c31.548 22.322 66.288 40.39 103.421 53.626-15.056-17.175-28.941-35.138-41.869-53.626h-61.553zM201.229 742.943h91.16c-18.814-34.213-34.448-70.035-46.254-107.252h-119.731c19.461 39.522 44.69 75.666 74.825 107.252v0zM325.674 99.431c13.247-18.557 27.851-36.38 43.324-53.626-38.058 13.21-73.672 31.242-105.975 53.626h62.651zM201.302 153.057c-30.164 31.586-55.418 67.73-74.898 107.252h119.956c11.818-37.163 27.197-73.039 46.029-107.252h-91.087zM759.701 99.431c-31.569-22.397-66.273-40.43-103.421-53.626 15.093 17.139 28.964 35.12 41.879 53.626h61.543zM822.717 153.057h-91.106c18.814 34.267 34.394 70.089 46.254 107.252h119.731c-19.407-39.522-44.69-75.666-74.879-107.252v0zM963.369 278.435c19.895 52.768 31.264 109.826 31.264 169.565 0 59.793-11.369 116.744-31.264 169.619-0.322 0.912-0.536 1.77-0.965 2.628-61.938 161.897-208.23 281.59-385.356 305.507-0.483 0.161-1.073 0.107-1.609 0.215-20.807 2.735-41.882 4.665-63.439 4.665-205.816 0-381.012-129.024-450.458-310.387-0.375-0.858-0.644-1.716-0.965-2.628-19.895-52.875-31.21-109.826-31.21-169.619 0-266.575 216.059-482.633 482.633-482.633 205.709 0 380.959 129.024 450.404 310.387 0.429 0.858 0.644 1.716 0.965 2.681v0z" />
<glyph unicode="&#xe952;" glyph-name="heart-vim" d="M401.274 759.729c-68.92 84.513-197.059 100.077-286.244 34.758-89.156-65.319-105.582-186.792-36.692-271.335l339.095-415.841c21.188-27.854 55.469-46.155 94.453-46.155 38.953 0 73.265 18.301 94.453 46.155l339.065 415.841c68.92 84.543 52.493 206.016-36.662 271.335-89.185 65.319-217.324 49.756-286.244-34.758l-110.611-135.668-110.611 135.668z" />
<glyph unicode="&#xe953;" glyph-name="home-3" d="M841.184 567.701h-692.752l363.568 290.873 363.568-290.873h-34.385zM811.258 29.047h-119.703v269.327c0 16.549-13.377 29.925-29.926 29.925h-299.258c-16.549 0-29.926-13.377-29.926-29.925v-269.327h-119.703v478.803h598.516v-478.803zM392.297 29.047v239.401h239.406v-239.401h-239.406zM979.59 561.147l-448.887 359.102c-10.923 8.738-26.484 8.738-37.407 0l-448.887-359.102c-9.905-7.93-13.736-21.277-9.516-33.277 4.19-11.97 15.502-20.020 28.22-20.020h89.777v-508.728c0-16.519 13.377-29.925 29.926-29.925h658.367c16.549 0 29.926 13.406 29.926 29.925v508.728h89.777c12.718 0 24.030 8.050 28.22 20.020 4.22 12 0.389 25.347-9.516 33.277v0z" />
<glyph unicode="&#xe954;" glyph-name="places" d="M962.114 926.803c16.571 0 29.966-13.424 29.966-29.965s-13.395-29.965-29.966-29.965h-29.966v-868.988c0-16.541-13.395-29.965-29.966-29.965s-29.966 13.424-29.966 29.965v868.988h-479.449v-868.988c0-16.541-13.395-29.965-29.966-29.965s-29.966 13.424-29.966 29.965v621.925l-181.621-163.46c0.959-2.877 1.828-5.813 1.828-8.99v-449.476c0-16.541-13.395-29.965-29.966-29.965s-29.966 13.424-29.966 29.965v406.177l-9.919-8.93c-5.723-5.154-12.915-7.701-20.047-7.701-8.181 0-16.361 3.356-22.264 9.918-11.057 12.316-10.068 31.254 2.217 42.311l289.737 260.756v166.456h-29.966c-16.571 0-29.966 13.424-29.966 29.965s13.395 29.965 29.966 29.965h659.242zM722.035 267.97h-180.030c-16.593 0-30.005-13.442-30.005-30.005v-240.040c0-16.563 13.412-30.005 30.005-30.005s30.005 13.442 30.005 30.005v210.035h120.020v-210.035c0-16.563 13.412-30.005 30.005-30.005s30.005 13.442 30.005 30.005v240.040c0 16.563-13.412 30.005-30.005 30.005zM572.010 386.713v60.010h120.020v-60.010h-120.020zM722.035 506.733h-180.030c-16.593 0-30.005-13.442-30.005-30.005v-120.020c0-16.563 13.412-30.005 30.005-30.005h180.030c16.563 0 30.005 13.442 30.005 30.005v120.020c0 16.563-13.442 30.005-30.005 30.005v0zM572.010 626.753v60.010h120.020v-60.010h-120.020zM722.035 746.773h-180.030c-16.593 0-30.005-13.442-30.005-30.005v-120.020c0-16.563 13.412-30.005 30.005-30.005h180.030c16.563 0 30.005 13.442 30.005 30.005v120.020c0 16.563-13.442 30.005-30.005 30.005v0z" />
<glyph unicode="&#xe955;" glyph-name="help-w" d="M652.297 49.636l-67.519 216.553c49.52 19.992 89.027 59.492 109.023 109.033l216.563-67.567c-42.593-120.223-137.821-215.434-258.067-258.019zM113.636 307.703l216.563 67.519c19.96-49.55 59.516-89.057 109.023-109.023l-67.531-216.563c-120.242 42.562-215.475 137.821-258.056 258.067zM371.703 846.364l67.519-216.563c-49.52-19.96-89.027-59.486-109.023-109.023l-216.563 67.561c42.593 120.212 137.821 215.444 258.067 258.025zM511.377 312.658c-75.1 0-135.995 60.865-135.995 135.965s60.896 135.995 135.995 135.995c75.1 0 135.965-60.896 135.965-135.995s-60.865-135.965-135.965-135.965zM910.364 588.297l-216.594-67.519c-19.996 49.52-59.503 89.027-108.993 108.993l67.549 216.594c120.246-42.623 215.444-137.851 258.037-258.067zM980.607 329.412c2.752 10.918 5.263 21.927 7.259 33.118 1.754 9.678 3.297 19.387 4.446 29.125 0.514 4.416 0.968 8.801 1.361 13.247 1.331 14.336 2.238 28.732 2.238 43.159 0 14.457-0.938 28.914-2.238 43.31-0.393 4.264-0.817 8.529-1.331 12.793-1.21 10.102-2.752 20.203-4.627 30.244-1.875 10.434-4.204 20.687-6.744 30.849-1.028 3.992-1.815 8.015-2.934 11.947-0.060 0.212-0.242 0.363-0.302 0.575-45.276 162.836-173.3 290.8-336.166 336.045-0.121 0.030-0.212 0.151-0.363 0.181-2.389 0.696-4.839 1.149-7.259 1.784-13.187 3.418-26.555 6.351-40.165 8.68-7.773 1.331-15.515 2.601-23.318 3.569-5.837 0.696-11.705 1.301-17.602 1.784-11.584 0.998-23.137 1.603-34.751 1.754-2.057 0.030-4.053 0.333-6.109 0.333-2.026 0-3.992-0.302-6.019-0.302-11.705-0.151-23.349-0.786-35.023-1.784-5.777-0.484-11.523-1.059-17.239-1.754-8.075-0.998-16.060-2.299-24.075-3.69-13.338-2.299-26.464-5.172-39.408-8.559-2.45-0.635-4.96-1.089-7.38-1.784-0.151-0.060-0.242-0.151-0.393-0.212-162.896-45.215-290.951-173.21-336.227-336.106-0.060-0.181-0.212-0.333-0.272-0.514-0.968-3.478-1.694-7.017-2.571-10.555-2.782-10.918-5.263-21.927-7.289-33.118-1.754-9.678-3.266-19.387-4.446-29.125-0.484-4.416-0.968-8.801-1.361-13.247-1.301-14.336-2.208-28.732-2.208-43.159 0-14.457 0.907-28.914 2.208-43.31 0.393-4.264 0.847-8.529 1.331-12.763 1.21-10.132 2.782-20.233 4.627-30.275 1.875-10.434 4.234-20.687 6.775-30.849 0.998-3.992 1.815-8.015 2.934-11.947 0.060-0.212 0.212-0.363 0.272-0.575 45.276-162.745 173.179-290.709 335.955-335.985 0.242-0.060 0.393-0.272 0.665-0.333 4.446-1.27 8.983-2.178 13.459-3.297 9.346-2.299 18.721-4.476 28.309-6.23 10.555-1.966 21.171-3.599 31.847-4.839 3.871-0.454 7.712-0.877 11.614-1.21 14.608-1.361 29.277-2.299 43.975-2.299 14.729 0 29.458 0.938 44.157 2.299 3.66 0.333 7.289 0.726 10.918 1.149 11.281 1.301 22.472 2.994 33.632 5.111 8.196 1.542 16.241 3.418 24.286 5.353 5.384 1.301 10.797 2.45 16.151 3.932 0.272 0.091 0.484 0.333 0.786 0.423 162.654 45.336 290.528 173.27 335.773 335.985 0.060 0.181 0.181 0.333 0.242 0.514 0.998 3.478 1.694 7.017 2.601 10.555z" />
<glyph unicode="&#xe956;" glyph-name="heart-vim-e" d="M235.34 841.257c-44.309 0-88.92-13.401-126.665-41.050-90.644-66.43-107.309-189.913-37.292-275.824l344.64-422.721c21.534-28.314 56.376-46.919 95.967-46.919 39.621 0 74.463 18.604 95.997 46.919l344.64 422.721c70.017 85.911 53.322 209.394-37.292 275.824-37.746 27.649-82.387 41.050-126.665 41.050-62.032 0-123.369-26.257-164.26-76.383l-112.42-137.912-112.39 137.912c-40.891 50.125-102.227 76.383-164.26 76.383zM234.805 781.247c46.529 0 89.278-19.715 117.304-54.094l112.406-137.851c11.489-14.091 28.691-22.255 46.831-22.255 18.17 0 35.373 8.164 46.861 22.255l112.406 137.851c28.026 34.38 70.775 54.094 117.304 54.094 33.256 0 64.699-10.16 90.911-29.36 30.687-22.496 50.157-54.729 54.752-90.742 4.505-34.984-5.684-69.787-28.661-97.938l-344.475-422.564c-0.423-0.514-0.847-1.058-1.27-1.572-10.944-14.423-28.842-23.041-47.829-23.041-18.956 0-36.854 8.618-47.829 23.041-0.393 0.514-0.816 1.058-1.27 1.572l-344.445 422.564c-22.977 28.151-33.166 62.954-28.661 97.938 4.595 36.012 24.065 68.245 54.752 90.742 26.212 19.231 57.654 29.36 90.911 29.36z" />
<glyph unicode="&#xe957;" glyph-name="warning" d="M121.503 122.807h782.425l-390.086 624.164-392.339-624.164zM957.321 63.681h-889.389c-10.762 0-20.723 5.853-25.941 15.255-5.188 9.401-4.892 20.901 0.83 30.006l445.969 709.512c5.425 8.632 14.912 13.865 25.11 13.865h0.030c10.228 0 19.715-5.292 25.14-13.924l443.42-709.512c5.692-9.105 5.989-20.576 0.741-29.977-5.188-9.401-15.12-15.225-25.911-15.225v0zM511.333 330.534h-0.527c-14.934 0.235-27.575 10.543-30.023 24.521l-25.809 146.833c-1.518 8.516 1.022 17.238 6.909 23.816 5.887 6.607 14.531 10.396 23.64 10.396h56.793c9.295 0 18.063-3.935 23.95-10.748s8.242-15.74 6.414-24.374l-30.983-146.833c-2.881-13.744-15.616-23.611-30.364-23.611zM573.287 240.519c0-32.773-26.598-59.372-59.372-59.372s-59.372 26.598-59.372 59.372c0 32.773 26.598 59.372 59.372 59.372s59.372-26.598 59.372-59.372z" />
<glyph unicode="&#xe958;" glyph-name="check-s-2" d="M449.9 299.89c-7.806 0-15.318 3.095-20.827 8.638l-117.831 117.923c-11.518 11.527-11.518 30.159 0 41.686s30.135 11.527 41.653 0l95.738-95.812 214.924 241.978c10.752 12.176 29.428 13.266 41.565 2.447 12.166-10.849 13.256-29.451 2.445-41.656l-235.663-265.326c-5.391-6.044-13.020-9.64-21.151-9.876-0.265 0-0.56 0-0.854 0zM188.289 860.17c-48.77 0-88.459-39.689-88.459-88.459v-648.698c0-48.77 39.689-88.459 88.459-88.459h648.698c48.77 0 88.459 39.689 88.459 88.459v648.698c0 48.77-39.689 88.459-88.459 88.459h-648.698zM836.988-24.419h-648.698c-81.294 0-147.431 66.138-147.431 147.431v648.698c0 81.294 66.138 147.431 147.431 147.431h648.698c81.294 0 147.431-66.138 147.431-147.431v-648.698c0-81.294-66.138-147.431-147.431-147.431v0z" />
<glyph unicode="&#xe959;" glyph-name="user-r" d="M297.83-41.542h-244.771c-16.92 0-30.596 13.707-30.596 30.596v76.491c0 194.746 114.645 368.656 289.839 446.738-38.796 46.354-60.367 104.456-60.367 165.19 0 143.405 116.664 260.069 260.069 260.069s260.069-116.664 260.069-260.069c0-77.286-34.941-150.32-95.858-200.314-13.126-10.739-32.31-8.812-43.080 4.253-10.709 13.065-8.812 32.31 4.253 43.049 46.69 38.337 73.492 94.114 73.492 153.012 0 109.657-89.219 198.876-198.876 198.876s-198.876-89.219-198.876-198.876c0-58.898 26.802-114.675 73.492-153.012 8.628-7.068 12.697-18.266 10.678-29.22s-9.852-19.949-20.438-23.467c-175.348-58.317-293.205-221.579-293.205-406.228v-45.895h214.175c16.92 0 30.596-13.707 30.596-30.596s-13.677-30.596-30.596-30.596zM987.922 320.474l-183.578 122.385c-9.362 6.272-21.479 6.854-31.392 1.53-9.974-5.354-16.185-15.696-16.185-26.986v-91.789c-185.567 0-336.56-150.993-336.56-336.56 0-16.889 13.707-30.596 30.596-30.596 16.92 0 30.596 13.707 30.596 30.596 0 151.819 123.518 275.367 275.367 275.367v-91.789c0-11.29 6.211-21.662 16.185-26.986 4.498-2.417 9.454-3.61 14.411-3.61 5.966 0 11.871 1.744 16.981 5.14l183.578 122.385c8.506 5.66 13.615 15.206 13.615 25.456 0 10.219-5.11 19.765-13.615 25.456z" />
<glyph unicode="&#xe95a;" glyph-name="note-h-e" d="M923.132 330.534h-264.299c-16.24 0-29.367-13.156-29.367-29.367v-264.299h-440.499c-48.572 0-88.1 39.527-88.1 88.1v499.232h822.264v-293.666zM688.2 79.002v192.798h192.798l-192.798-192.798zM100.868 771.032c0 48.572 39.527 88.1 88.1 88.1h646.065c48.572 0 88.1-39.527 88.1-88.1v-88.1h-822.264v88.1zM835.032 917.865h-646.065c-80.964 0-146.833-65.869-146.833-146.833v-646.065c0-80.964 65.869-146.833 146.833-146.833h469.865c3.935 0 7.782 0.793 11.306 2.291 3.583 1.468 6.784 3.641 9.485 6.343l293.607 293.607c2.702 2.702 4.875 5.932 6.373 9.485 1.468 3.553 2.261 7.4 2.261 11.306v469.865c0 80.964-65.869 146.833-146.833 146.833v0z" />
<glyph unicode="&#xe95b;" glyph-name="lightning" d="M300.192 925.526l-106.117-530.585h212.234l-52.74-424.468 477.208 636.702h-212.234l106.117 318.351z" />
<glyph unicode="&#xe95c;" glyph-name="clock" d="M487.741 748.579c0 14.516 12.005 26.284 26.813 26.284s26.813-11.768 26.813-26.284v-301.108c0-14.516-12.005-26.284-26.813-26.284s-26.813 11.768-26.813 26.284v301.108zM685.036 474.813c14.44 0 26.146-12.005 26.146-26.813s-11.706-26.813-26.146-26.813h-171.15c-14.44 0-26.146 12.005-26.146 26.813s11.706 26.813 26.146 26.813h171.15zM933.169 447.362c0 232.267-188.264 420.53-420.53 420.53s-420.53-188.264-420.53-420.53c0-232.233 188.283-420.53 420.53-420.53s420.53 188.298 420.53 420.53zM985.696 447.362c0-261.241-211.799-473.057-473.057-473.057s-473.057 211.816-473.057 473.057c0 261.276 211.781 473.057 473.057 473.057s473.057-211.781 473.057-473.057z" />
<glyph unicode="&#xe95d;" glyph-name="dots" d="M251.531 447.362c0-57.441-46.619-104.060-104.060-104.060s-104.060 46.619-104.060 104.060c0 57.441 46.619 104.060 104.060 104.060s104.060-46.619 104.060-104.060zM616.698 447.362c0-57.441-46.619-104.060-104.060-104.060s-104.060 46.619-104.060 104.060c0 57.441 46.619 104.060 104.060 104.060s104.060-46.619 104.060-104.060zM981.865 447.362c0-57.441-46.619-104.060-104.060-104.060s-104.060 46.619-104.060 104.060c0 57.441 46.619 104.060 104.060 104.060s104.060-46.619 104.060-104.060z" />
</font>
</defs>
</svg>
