<svg xmlns="http://www.w3.org/2000/svg" version="1.1" width="132px" height="132px" style="shape-rendering:geometricPrecision; text-rendering:geometricPrecision; image-rendering:optimizeQuality; fill-rule:evenodd; clip-rule:evenodd" xmlns:xlink="http://www.w3.org/1999/xlink">
<g><path style="opacity:0.881" fill="#acd5a1" d="M 53.5,-0.5 C 61.5,-0.5 69.5,-0.5 77.5,-0.5C 106.5,6.5 124.5,24.5 131.5,53.5C 131.5,61.5 131.5,69.5 131.5,77.5C 124.5,106.5 106.5,124.5 77.5,131.5C 69.5,131.5 61.5,131.5 53.5,131.5C 24.5,124.5 6.5,106.5 -0.5,77.5C -0.5,69.5 -0.5,61.5 -0.5,53.5C 6.5,24.5 24.5,6.5 53.5,-0.5 Z M 54.5,4.5 C 91.991,1.84662 115.824,18.5133 126,54.5C 129.137,92.0158 112.637,115.849 76.5,126C 38.9842,129.137 15.1508,112.637 5,76.5C 2.06651,38.9617 18.5665,14.9617 54.5,4.5 Z"/></g>
<g><path style="opacity:1" fill="#107039" d="M 63.5,32.5 C 65.6547,32.372 67.6547,32.872 69.5,34C 78.6667,43.1667 87.8333,52.3333 97,61.5C 99,64.1667 99,66.8333 97,69.5C 87.8333,78.6667 78.6667,87.8333 69.5,97C 66.8333,99 64.1667,99 61.5,97C 52.3333,87.8333 43.1667,78.6667 34,69.5C 32,66.8333 32,64.1667 34,61.5C 43.7284,51.6039 53.5618,41.9372 63.5,32.5 Z"/></g>
</svg>
