<svg width="24" height="18" viewBox="0 0 24 18" fill="none" xmlns="http://www.w3.org/2000/svg">
<path d="M8.87279 17.2456C13.497 17.2456 17.2456 13.497 17.2456 8.87279C17.2456 4.24863 13.497 0.5 8.87279 0.5C4.24863 0.5 0.5 4.24863 0.5 8.87279C0.5 13.497 4.24863 17.2456 8.87279 17.2456Z" fill="white" stroke="#0DC99E" stroke-linecap="round" stroke-linejoin="round"/>
<path d="M15.2271 5.36114V9.4098H13.2028C13.0746 9.41061 12.949 9.44584 12.839 9.51181C12.7291 9.57778 12.6389 9.67206 12.5779 9.7848C12.5169 9.89755 12.4872 10.0246 12.4921 10.1527C12.497 10.2808 12.5362 10.4053 12.6056 10.5131L16.133 16.3583C16.1967 16.4637 16.2866 16.5508 16.3939 16.6113C16.5011 16.6718 16.6222 16.7035 16.7454 16.7035C16.8685 16.7035 16.9896 16.6718 17.0968 16.6113C17.2041 16.5508 17.294 16.4637 17.3577 16.3583L20.8851 10.5131C20.9502 10.4042 20.9852 10.28 20.9865 10.1532C20.9878 10.0264 20.9554 9.90147 20.8926 9.79128C20.8298 9.6811 20.7388 9.58959 20.629 9.52611C20.5192 9.46264 20.3945 9.42949 20.2677 9.43005H18.2434V5.38139L15.2271 5.36114Z" fill="#0DC99E" stroke="#0DC99E" stroke-linecap="round" stroke-linejoin="round"/>
<path d="M6.96875 10.6898C6.96875 11.5982 7.78025 11.901 8.78555 11.901C9.79084 11.901 10.6023 11.901 10.6023 10.6898C10.6023 8.87297 6.96875 8.87297 6.96875 7.05617C6.96875 5.84497 7.78025 5.84497 8.78555 5.84497C9.79084 5.84497 10.6023 6.30523 10.6023 7.05617" stroke="#0DC99E" stroke-linecap="round" stroke-linejoin="round"/>
<path d="M8.78589 11.9V13.7168" stroke="#0DC99E" stroke-linecap="round" stroke-linejoin="round"/>
<path d="M8.78589 4.02783V5.84463" stroke="#0DC99E" stroke-linecap="round" stroke-linejoin="round"/>
</svg>
