<svg width="154" height="130" viewBox="0 0 154 130" fill="none" xmlns="http://www.w3.org/2000/svg">
<path d="M149.458 72.9449C149.062 72.9449 148.682 73.0121 148.327 73.1308C148.241 70.2036 145.819 67.8564 142.841 67.8564C139.809 67.8564 137.351 70.2893 137.351 73.2907C137.351 73.4281 137.358 73.5638 137.368 73.6985C136.839 72.8139 135.867 72.2189 134.753 72.2189C133.074 72.2189 131.712 73.5669 131.712 75.2294C131.712 75.4651 131.742 75.6935 131.794 75.9138C131.48 75.7409 131.12 75.6415 130.735 75.6415C129.531 75.6415 128.555 76.6078 128.555 77.7999C128.555 78.992 129.531 79.9583 130.735 79.9583C131.939 79.9583 147.925 79.9583 149.458 79.9583C151.414 79.9583 153 78.3884 153 76.4517C153 74.5149 151.414 72.9449 149.458 72.9449Z" fill="white"/>
<path d="M149.458 72.9449C149.062 72.9449 148.682 73.0121 148.327 73.1308C148.241 70.2036 145.819 67.8564 142.841 67.8564C139.809 67.8564 137.351 70.2893 137.351 73.2907C137.351 73.4281 137.358 73.5638 137.368 73.6985C136.839 72.8139 135.867 72.2189 134.753 72.2189C133.074 72.2189 131.712 73.5669 131.712 75.2294C131.712 75.4651 131.742 75.6935 131.794 75.9138C131.48 75.7409 131.12 75.6415 130.735 75.6415C129.531 75.6415 128.555 76.6078 128.555 77.7999C128.555 78.992 129.531 79.9583 130.735 79.9583C131.939 79.9583 147.925 79.9583 149.458 79.9583C151.414 79.9583 153 78.3884 153 76.4517C153 74.5149 151.414 72.9449 149.458 72.9449Z" fill="url(#paint0_linear_2_8054)" fill-opacity="0.1" stroke="#32333C"/>
<path d="M33.9083 65.0045C33.2847 65.0045 32.687 65.1107 32.1271 65.2983C31.9922 60.6734 28.1789 56.9648 23.4917 56.9648C18.7186 56.9648 14.849 60.8087 14.849 65.5509C14.849 65.7681 14.8601 65.9825 14.8756 66.1952C14.0421 64.7977 12.5126 63.8575 10.7587 63.8575C8.11488 63.8575 5.97116 65.9873 5.97116 68.6141C5.97116 68.9866 6.01889 69.3474 6.10017 69.6955C5.60661 69.4223 5.03869 69.2653 4.43376 69.2653C2.53803 69.2653 1.00098 70.792 1.00098 72.6755C1.00098 74.559 2.53803 76.0857 4.43376 76.0857C6.32914 76.0857 31.4941 76.0857 33.9083 76.0857C36.9879 76.0857 39.4848 73.6054 39.4848 70.5453C39.4848 67.4852 36.9879 65.0045 33.9083 65.0045Z" fill="white"/>
<path d="M33.9083 65.0045C33.2847 65.0045 32.687 65.1107 32.1271 65.2983C31.9922 60.6734 28.1789 56.9648 23.4917 56.9648C18.7186 56.9648 14.849 60.8087 14.849 65.5509C14.849 65.7681 14.8601 65.9825 14.8756 66.1952C14.0421 64.7977 12.5126 63.8575 10.7587 63.8575C8.11488 63.8575 5.97116 65.9873 5.97116 68.6141C5.97116 68.9866 6.01889 69.3474 6.10017 69.6955C5.60661 69.4223 5.03869 69.2653 4.43376 69.2653C2.53803 69.2653 1.00098 70.792 1.00098 72.6755C1.00098 74.559 2.53803 76.0857 4.43376 76.0857C6.32914 76.0857 31.4941 76.0857 33.9083 76.0857C36.9879 76.0857 39.4848 73.6054 39.4848 70.5453C39.4848 67.4852 36.9879 65.0045 33.9083 65.0045Z" fill="url(#paint1_linear_2_8054)" fill-opacity="0.1" stroke="#32333C"/>
<path d="M111.548 45.7762C111.324 45.7762 111.11 45.8138 110.909 45.8803C110.861 44.2411 109.494 42.9267 107.814 42.9267C106.103 42.9267 104.715 44.2891 104.715 45.9699C104.715 46.0468 104.719 46.1228 104.725 46.1982C104.426 45.7029 103.878 45.3697 103.249 45.3697C102.301 45.3697 101.533 46.1245 101.533 47.0555C101.533 47.1876 101.55 47.3154 101.579 47.4388C101.402 47.342 101.198 47.2863 100.982 47.2863C100.302 47.2863 99.751 47.8275 99.751 48.495C99.751 49.1626 100.302 49.7037 100.982 49.7037C101.661 49.7037 110.682 49.7037 111.548 49.7037C112.652 49.7037 113.547 48.8246 113.547 47.74C113.547 46.6554 112.652 45.7762 111.548 45.7762Z" fill="white"/>
<path d="M111.548 45.7762C111.324 45.7762 111.11 45.8138 110.909 45.8803C110.861 44.2411 109.494 42.9267 107.814 42.9267C106.103 42.9267 104.715 44.2891 104.715 45.9699C104.715 46.0468 104.719 46.1228 104.725 46.1982C104.426 45.7029 103.878 45.3697 103.249 45.3697C102.301 45.3697 101.533 46.1245 101.533 47.0555C101.533 47.1876 101.55 47.3154 101.579 47.4388C101.402 47.342 101.198 47.2863 100.982 47.2863C100.302 47.2863 99.751 47.8275 99.751 48.495C99.751 49.1626 100.302 49.7037 100.982 49.7037C101.661 49.7037 110.682 49.7037 111.548 49.7037C112.652 49.7037 113.547 48.8246 113.547 47.74C113.547 46.6554 112.652 45.7762 111.548 45.7762Z" fill="url(#paint2_linear_2_8054)" fill-opacity="0.1" stroke="#32333C"/>
<path d="M10.4404 122.799L45.7173 122.92" stroke="#32333C" stroke-linecap="round"/>
<path d="M74.0957 128.729H118.63" stroke="#32333C" stroke-linecap="round"/>
<path d="M22.543 117.353H67.0777" stroke="#32333C" stroke-linecap="round"/>
<path d="M98.8447 122.799H143.379" stroke="#32333C" stroke-linecap="round"/>
<path d="M82.2663 41.8148L121.834 117.965C123.066 120.337 122.143 123.26 119.77 124.492C119.081 124.851 118.315 125.038 117.538 125.038H38.4032C35.7298 125.038 33.5625 122.87 33.5625 120.197C33.5625 119.42 33.7495 118.654 34.1077 117.965L73.6753 41.8148C74.908 39.4425 77.8304 38.5186 80.2027 39.7512C81.0865 40.2104 81.8071 40.931 82.2663 41.8148Z" fill="white"/>
<path d="M82.2663 41.8148L121.834 117.965C123.066 120.337 122.143 123.26 119.77 124.492C119.081 124.851 118.315 125.038 117.538 125.038H38.4032C35.7298 125.038 33.5625 122.87 33.5625 120.197C33.5625 119.42 33.7495 118.654 34.1077 117.965L73.6753 41.8148C74.908 39.4425 77.8304 38.5186 80.2027 39.7512C81.0865 40.2104 81.8071 40.931 82.2663 41.8148Z" fill="url(#paint3_linear_2_8054)" fill-opacity="0.75" stroke="#32333C"/>
<path d="M80.2858 41.8148L119.853 117.965C121.086 120.337 120.162 123.26 117.79 124.492C117.1 124.851 116.335 125.038 115.558 125.038H36.4228C33.7493 125.038 31.582 122.87 31.582 120.197C31.582 119.42 31.769 118.654 32.1273 117.965L71.6948 41.8148C72.9275 39.4425 75.8499 38.5186 78.2222 39.7512C79.106 40.2104 79.8266 40.931 80.2858 41.8148Z" fill="white"/>
<path d="M80.2858 41.8148L119.853 117.965C121.086 120.337 120.162 123.26 117.79 124.492C117.1 124.851 116.335 125.038 115.558 125.038H36.4228C33.7493 125.038 31.582 122.87 31.582 120.197C31.582 119.42 31.769 118.654 32.1273 117.965L71.6948 41.8148C72.9275 39.4425 75.8499 38.5186 78.2222 39.7512C79.106 40.2104 79.8266 40.931 80.2858 41.8148Z" fill="url(#paint4_linear_2_8054)" fill-opacity="0.15" stroke="#32333C"/>
<path fill-rule="evenodd" clip-rule="evenodd" d="M78.3324 45.5736L115.734 117.14C116.353 118.324 115.895 119.787 114.71 120.406C114.364 120.587 113.98 120.681 113.589 120.681H38.7856C37.4489 120.681 36.3652 119.597 36.3652 118.261C36.3652 117.87 36.4597 117.486 36.6405 117.14L74.0423 45.5736C74.6614 44.3889 76.1237 43.9304 77.3084 44.5496C77.7463 44.7784 78.1036 45.1358 78.3324 45.5736Z" fill="url(#paint5_linear_2_8054)" fill-opacity="0.15"/>
<path fill-rule="evenodd" clip-rule="evenodd" d="M76.2159 97.1978C74.4861 97.1071 73.064 95.7794 72.8734 94.0472L70.4723 72.2978C70.2975 70.7179 71.4835 69.3141 73.073 69.2175L78.4022 68.8955C78.5093 68.8896 78.6162 68.889 78.7209 68.8945C80.2465 68.9745 81.4496 70.2864 81.35 71.8474L79.9465 93.8842C79.8263 95.7683 78.2473 97.2274 76.3569 97.2025C76.3093 97.2018 76.2626 97.2002 76.2159 97.1978Z" fill="url(#paint6_linear_2_8054)" fill-opacity="0.5"/>
<path fill-rule="evenodd" clip-rule="evenodd" d="M76.2053 111.067C75.8158 111.074 75.421 111.038 75.0237 110.956C72.1356 110.359 70.2788 107.538 70.8773 104.656C71.3928 102.169 73.5677 100.449 76.0092 100.407C76.3979 100.4 76.7926 100.435 77.1899 100.517C80.0781 101.115 81.9348 103.936 81.3372 106.818C80.8208 109.304 78.6468 111.024 76.2053 111.067Z" fill="url(#paint7_linear_2_8054)" fill-opacity="0.5"/>
<path d="M62.8454 38.8256L37.5782 15.6326C36.7903 14.9095 36.7379 13.6846 37.4611 12.8968C37.6712 12.6679 37.9333 12.4929 38.2253 12.3866L67.9402 1.57129C68.9451 1.20554 70.0562 1.72367 70.422 2.72856C70.5282 3.02054 70.5627 3.33381 70.5224 3.64191L66.0747 37.6502C65.936 38.7106 64.964 39.4577 63.9037 39.3191C63.5085 39.2674 63.139 39.095 62.8454 38.8256Z" fill="white"/>
<path d="M62.8454 38.8256L37.5782 15.6326C36.7903 14.9095 36.7379 13.6846 37.4611 12.8968C37.6712 12.6679 37.9333 12.4929 38.2253 12.3866L67.9402 1.57129C68.9451 1.20554 70.0562 1.72367 70.422 2.72856C70.5282 3.02054 70.5627 3.33381 70.5224 3.64191L66.0747 37.6502C65.936 38.7106 64.964 39.4577 63.9037 39.3191C63.5085 39.2674 63.139 39.095 62.8454 38.8256Z" fill="url(#paint8_linear_2_8054)" fill-opacity="0.75" stroke="#32333C"/>
<path d="M63.9616 38.4195L38.6944 15.2265C37.9066 14.5034 37.8541 13.2785 38.5773 12.4907C38.7874 12.2618 39.0495 12.0868 39.3415 11.9805L69.0564 1.16519C70.0613 0.79944 71.1724 1.31757 71.5382 2.32246C71.6445 2.61444 71.6789 2.92771 71.6386 3.23581L67.1909 37.2441C67.0522 38.3045 66.0802 39.0516 65.0199 38.913C64.6248 38.8613 64.2552 38.6889 63.9616 38.4195Z" fill="white"/>
<path d="M63.9616 38.4195L38.6944 15.2265C37.9066 14.5034 37.8541 13.2785 38.5773 12.4907C38.7874 12.2618 39.0495 12.0868 39.3415 11.9805L69.0564 1.16519C70.0613 0.79944 71.1724 1.31757 71.5382 2.32246C71.6445 2.61444 71.6789 2.92771 71.6386 3.23581L67.1909 37.2441C67.0522 38.3045 66.0802 39.0516 65.0199 38.913C64.6248 38.8613 64.2552 38.6889 63.9616 38.4195Z" fill="url(#paint9_linear_2_8054)" fill-opacity="0.15" stroke="#32333C"/>
<path fill-rule="evenodd" clip-rule="evenodd" d="M64.1819 36.7418L40.3529 14.9731C39.9581 14.6124 39.9305 14.0001 40.2911 13.6053C40.3964 13.49 40.528 13.4019 40.6748 13.3485L68.7652 3.12444C69.2676 2.94157 69.8232 3.20063 70.0061 3.70308C70.0595 3.8498 70.0766 4.00726 70.056 4.16203L65.7946 36.1549C65.724 36.6849 65.2371 37.0573 64.7071 36.9867C64.5111 36.9606 64.3279 36.8752 64.1819 36.7418Z" fill="url(#paint10_linear_2_8054)" fill-opacity="0.15"/>
<path fill-rule="evenodd" clip-rule="evenodd" d="M57.9201 17.0615C58.5822 16.8591 59.2978 17.1634 59.6062 17.788L63.4815 25.6298C63.7632 26.1993 63.5097 26.8888 62.926 27.1423L60.9686 27.9917C60.9292 28.0086 60.8891 28.0234 60.849 28.0357C60.2652 28.2142 59.634 27.8858 59.4579 27.2858L56.9722 18.8161C56.7597 18.0919 57.1532 17.328 57.8666 17.079C57.8845 17.0727 57.9023 17.0669 57.9201 17.0615Z" fill="url(#paint11_linear_2_8054)" fill-opacity="0.5"/>
<path fill-rule="evenodd" clip-rule="evenodd" d="M56.0283 11.8502C56.1737 11.7944 56.3269 11.7541 56.4873 11.7306C57.6535 11.5598 58.7365 12.3657 58.9058 13.5302C59.0521 14.5347 58.4705 15.4781 57.5594 15.8279C57.4144 15.8835 57.2613 15.9242 57.1009 15.9477C55.9346 16.1182 54.8516 15.3123 54.682 14.1479C54.5359 13.1433 55.1172 12.2 56.0283 11.8502Z" fill="url(#paint12_linear_2_8054)" fill-opacity="0.5"/>
<path d="M83.289 8.39698L103.376 12.8682C104.002 13.0076 104.397 13.6284 104.258 14.2547C104.217 14.4366 104.133 14.6062 104.014 14.749L91.8179 29.2833C91.4055 29.7748 90.6727 29.8389 90.1812 29.4265C90.0384 29.3067 89.9265 29.1542 89.855 28.982L81.9636 9.97651C81.7175 9.38393 81.9985 8.70409 82.591 8.45804C82.8119 8.36635 83.0556 8.34503 83.289 8.39698Z" fill="white"/>
<path d="M83.289 8.39698L103.376 12.8682C104.002 13.0076 104.397 13.6284 104.258 14.2547C104.217 14.4366 104.133 14.6062 104.014 14.749L91.8179 29.2833C91.4055 29.7748 90.6727 29.8389 90.1812 29.4265C90.0384 29.3067 89.9265 29.1542 89.855 28.982L81.9636 9.97651C81.7175 9.38393 81.9985 8.70409 82.591 8.45804C82.8119 8.36635 83.0556 8.34503 83.289 8.39698Z" fill="url(#paint13_linear_2_8054)" fill-opacity="0.75" stroke="#32333C"/>
<path d="M82.7304 9.06403L102.818 13.5353C103.444 13.6747 103.839 14.2954 103.699 14.9217C103.659 15.1037 103.575 15.2732 103.455 15.4161L91.2593 29.9504C90.8469 30.4419 90.1141 30.506 89.6226 30.0936C89.4798 29.9737 89.3679 29.8213 89.2964 29.6491L81.405 10.6436C81.159 10.051 81.4399 9.37114 82.0324 9.12509C82.2533 9.0334 82.497 9.01208 82.7304 9.06403Z" fill="white"/>
<path d="M82.7304 9.06403L102.818 13.5353C103.444 13.6747 103.839 14.2954 103.699 14.9217C103.659 15.1037 103.575 15.2732 103.455 15.4161L91.2593 29.9504C90.8469 30.4419 90.1141 30.506 89.6226 30.0936C89.4798 29.9737 89.3679 29.8213 89.2964 29.6491L81.405 10.6436C81.159 10.051 81.4399 9.37114 82.0324 9.12509C82.2533 9.0334 82.497 9.01208 82.7304 9.06403Z" fill="url(#paint14_linear_2_8054)" fill-opacity="0.15" stroke="#32333C"/>
<path fill-rule="evenodd" clip-rule="evenodd" d="M83.118 10.0019L102.031 14.1646C102.344 14.2336 102.542 14.5435 102.473 14.8568C102.453 14.9483 102.411 15.0335 102.351 15.1053L90.8217 28.845C90.6155 29.0908 90.2491 29.1228 90.0033 28.9166C89.9315 28.8564 89.8754 28.7797 89.8397 28.6931L82.4561 10.7907C82.3338 10.4941 82.4751 10.1545 82.7716 10.0322C82.8813 9.98701 83.0022 9.97643 83.118 10.0019Z" fill="url(#paint15_linear_2_8054)" fill-opacity="0.15"/>
<path fill-rule="evenodd" clip-rule="evenodd" d="M92.2759 18.3497C91.9926 18.6535 91.5295 18.71 91.1818 18.478L86.8156 15.5659C86.4984 15.3544 86.4233 14.9201 86.6505 14.6133L87.4128 13.5847C87.4282 13.5641 87.4446 13.5444 87.4617 13.526C87.7116 13.2581 88.1381 13.2393 88.4095 13.4983L92.2421 17.1536C92.5698 17.4661 92.5944 17.9811 92.2985 18.3245C92.291 18.3332 92.2835 18.3415 92.2759 18.3497Z" fill="url(#paint16_linear_2_8054)" fill-opacity="0.5"/>
<path fill-rule="evenodd" clip-rule="evenodd" d="M94.8226 20.4898C94.7638 20.5624 94.6963 20.6293 94.62 20.6896C94.0653 21.1282 93.2608 21.0344 92.8235 20.4801C92.446 20.002 92.4652 19.3373 92.8337 18.8823C92.8924 18.8098 92.9597 18.7428 93.036 18.6824C93.5909 18.244 94.3954 18.3378 94.8329 18.892C95.2102 19.3702 95.1911 20.0347 94.8226 20.4898Z" fill="url(#paint17_linear_2_8054)" fill-opacity="0.5"/>
<defs>
<linearGradient id="paint0_linear_2_8054" x1="143.444" y1="79.9583" x2="143.444" y2="67.8564" gradientUnits="userSpaceOnUse">
<stop stop-color="#87DCFA"/>
<stop offset="0.446738" stop-color="#09ACE4"/>
<stop offset="1" stop-color="#0AB6C9"/>
</linearGradient>
<linearGradient id="paint1_linear_2_8054" x1="24.4408" y1="76.0857" x2="24.4408" y2="56.9648" gradientUnits="userSpaceOnUse">
<stop stop-color="#87DCFA"/>
<stop offset="0.446738" stop-color="#09ACE4"/>
<stop offset="1" stop-color="#0AB6C9"/>
</linearGradient>
<linearGradient id="paint2_linear_2_8054" x1="108.154" y1="49.7037" x2="108.154" y2="42.9267" gradientUnits="userSpaceOnUse">
<stop stop-color="#87DCFA"/>
<stop offset="0.446738" stop-color="#09ACE4"/>
<stop offset="1" stop-color="#0AB6C9"/>
</linearGradient>
<linearGradient id="paint3_linear_2_8054" x1="65.6326" y1="66.0578" x2="106.905" y2="110.189" gradientUnits="userSpaceOnUse">
<stop stop-color="#FA7071"/>
<stop offset="1" stop-color="#F63277"/>
</linearGradient>
<linearGradient id="paint4_linear_2_8054" x1="63.6521" y1="66.0578" x2="104.924" y2="110.189" gradientUnits="userSpaceOnUse">
<stop stop-color="#FA7071"/>
<stop offset="1" stop-color="#F63277"/>
</linearGradient>
<linearGradient id="paint5_linear_2_8054" x1="65.1232" y1="68.3426" x2="101.862" y2="107.459" gradientUnits="userSpaceOnUse">
<stop stop-color="#FA7071"/>
<stop offset="1" stop-color="#F63277"/>
</linearGradient>
<linearGradient id="paint6_linear_2_8054" x1="75.4025" y1="77.191" x2="79.4366" y2="91.3116" gradientUnits="userSpaceOnUse">
<stop stop-color="#FA7071"/>
<stop offset="1" stop-color="#F63277"/>
</linearGradient>
<linearGradient id="paint7_linear_2_8054" x1="74.5856" y1="103.617" x2="79.819" y2="109.244" gradientUnits="userSpaceOnUse">
<stop stop-color="#FA7071"/>
<stop offset="1" stop-color="#F63277"/>
</linearGradient>
<linearGradient id="paint8_linear_2_8054" x1="65.7805" y1="27.449" x2="44.2434" y2="16.5109" gradientUnits="userSpaceOnUse">
<stop stop-color="#FA7071"/>
<stop offset="1" stop-color="#F63277"/>
</linearGradient>
<linearGradient id="paint9_linear_2_8054" x1="66.8967" y1="27.0429" x2="45.3596" y2="16.1048" gradientUnits="userSpaceOnUse">
<stop stop-color="#FA7071"/>
<stop offset="1" stop-color="#F63277"/>
</linearGradient>
<linearGradient id="paint10_linear_2_8054" x1="66.0315" y1="26.3862" x2="46.8826" y2="16.7125" gradientUnits="userSpaceOnUse">
<stop stop-color="#FA7071"/>
<stop offset="1" stop-color="#F63277"/>
</linearGradient>
<linearGradient id="paint11_linear_2_8054" x1="60.961" y1="24.4656" x2="57.5153" y2="19.7126" gradientUnits="userSpaceOnUse">
<stop stop-color="#FA7071"/>
<stop offset="1" stop-color="#F63277"/>
</linearGradient>
<linearGradient id="paint12_linear_2_8054" x1="57.6553" y1="14.4277" x2="54.9198" y2="13.0288" gradientUnits="userSpaceOnUse">
<stop stop-color="#FA7071"/>
<stop offset="1" stop-color="#F63277"/>
</linearGradient>
<linearGradient id="paint13_linear_2_8054" x1="85.1768" y1="15.189" x2="99.6493" y2="14.4114" gradientUnits="userSpaceOnUse">
<stop stop-color="#FA7071"/>
<stop offset="1" stop-color="#F63277"/>
</linearGradient>
<linearGradient id="paint14_linear_2_8054" x1="84.6182" y1="15.856" x2="99.0907" y2="15.0785" gradientUnits="userSpaceOnUse">
<stop stop-color="#FA7071"/>
<stop offset="1" stop-color="#F63277"/>
</linearGradient>
<linearGradient id="paint15_linear_2_8054" x1="85.2636" y1="15.9377" x2="98.1158" y2="15.2197" gradientUnits="userSpaceOnUse">
<stop stop-color="#FA7071"/>
<stop offset="1" stop-color="#F63277"/>
</linearGradient>
<linearGradient id="paint16_linear_2_8054" x1="88.4746" y1="15.4146" x2="91.6909" y2="16.8507" gradientUnits="userSpaceOnUse">
<stop stop-color="#FA7071"/>
<stop offset="1" stop-color="#F63277"/>
</linearGradient>
<linearGradient id="paint17_linear_2_8054" x1="93.204" y1="19.6386" x2="95.0451" y2="19.5448" gradientUnits="userSpaceOnUse">
<stop stop-color="#FA7071"/>
<stop offset="1" stop-color="#F63277"/>
</linearGradient>
</defs>
</svg>
