<svg width="56" height="39" viewBox="0 0 56 39" fill="none" xmlns="http://www.w3.org/2000/svg">
    <path d="M32.5 34.9729H45.359" stroke="#32333C" stroke-width="0.5" stroke-linecap="round" />
    <path d="M4.35303 37.2623H17.1907" stroke="#32333C" stroke-width="0.5" stroke-linecap="round" />
    <path d="M23.1177 37.2377H35.9766" stroke="#32333C" stroke-width="0.5" stroke-linecap="round" />
    <path d="M33.0485 38.5564H50.698" stroke="#32333C" stroke-width="0.5" stroke-linecap="round" />
    <path fill-rule="evenodd" clip-rule="evenodd"
        d="M53.2209 19.3035C52.1423 19.3035 51.2651 18.4242 51.2651 17.3437C51.2651 16.2629 52.1423 15.3835 53.2209 15.3835C54.2994 15.3835 55.1766 16.2629 55.1766 17.3437C55.1766 18.4242 54.2994 19.3035 53.2209 19.3035V19.3035Z"
        fill="white" />
    <path fill-rule="evenodd" clip-rule="evenodd"
        d="M53.2209 19.3035C52.1423 19.3035 51.2651 18.4242 51.2651 17.3437C51.2651 16.2629 52.1423 15.3835 53.2209 15.3835C54.2994 15.3835 55.1766 16.2629 55.1766 17.3437C55.1766 18.4242 54.2994 19.3035 53.2209 19.3035V19.3035Z"
        fill="url(#paint0_linear_15024_125)" fill-opacity="0.15" />
    <path fill-rule="evenodd" clip-rule="evenodd"
        d="M53.2209 19.3035C52.1423 19.3035 51.2651 18.4242 51.2651 17.3437C51.2651 16.2629 52.1423 15.3835 53.2209 15.3835C54.2994 15.3835 55.1766 16.2629 55.1766 17.3437C55.1766 18.4242 54.2994 19.3035 53.2209 19.3035V19.3035Z"
        stroke="#32333C" stroke-width="0.5" />
    <path fill-rule="evenodd" clip-rule="evenodd"
        d="M51.4247 10.8235C50.8084 10.8235 50.3071 10.3211 50.3071 9.7035C50.3071 9.08585 50.8084 8.5835 51.4247 8.5835C52.041 8.5835 52.5422 9.08585 52.5422 9.7035C52.5422 10.3211 52.041 10.8235 51.4247 10.8235V10.8235Z"
        fill="white" />
    <path fill-rule="evenodd" clip-rule="evenodd"
        d="M51.4247 10.8235C50.8084 10.8235 50.3071 10.3211 50.3071 9.7035C50.3071 9.08585 50.8084 8.5835 51.4247 8.5835C52.041 8.5835 52.5422 9.08585 52.5422 9.7035C52.5422 10.3211 52.041 10.8235 51.4247 10.8235V10.8235Z"
        fill="url(#paint1_linear_15024_125)" fill-opacity="0.15" />
    <path fill-rule="evenodd" clip-rule="evenodd"
        d="M51.4247 10.8235C50.8084 10.8235 50.3071 10.3211 50.3071 9.7035C50.3071 9.08585 50.8084 8.5835 51.4247 8.5835C52.041 8.5835 52.5422 9.08585 52.5422 9.7035C52.5422 10.3211 52.041 10.8235 51.4247 10.8235V10.8235Z"
        stroke="#32333C" stroke-width="0.5" />
    <path fill-rule="evenodd" clip-rule="evenodd"
        d="M39.0118 33.4635C37.9774 33.4635 37.1357 32.6203 37.1357 31.5835C37.1357 30.5467 37.9774 29.7035 39.0118 29.7035C40.0462 29.7035 40.8876 30.5467 40.8876 31.5835C40.8876 32.6203 40.0462 33.4635 39.0118 33.4635V33.4635Z"
        fill="white" />
    <path fill-rule="evenodd" clip-rule="evenodd"
        d="M39.0118 33.4635C37.9774 33.4635 37.1357 32.6203 37.1357 31.5835C37.1357 30.5467 37.9774 29.7035 39.0118 29.7035C40.0462 29.7035 40.8876 30.5467 40.8876 31.5835C40.8876 32.6203 40.0462 33.4635 39.0118 33.4635V33.4635Z"
        fill="url(#paint2_linear_15024_125)" fill-opacity="0.15" />
    <path fill-rule="evenodd" clip-rule="evenodd"
        d="M39.0118 33.4635C37.9774 33.4635 37.1357 32.6203 37.1357 31.5835C37.1357 30.5467 37.9774 29.7035 39.0118 29.7035C40.0462 29.7035 40.8876 30.5467 40.8876 31.5835C40.8876 32.6203 40.0462 33.4635 39.0118 33.4635V33.4635Z"
        stroke="#32333C" stroke-width="0.5" />
    <ellipse cx="39.0118" cy="17.3436" rx="14.1691" ry="14.2" fill="white" />
    <ellipse cx="39.0118" cy="17.3436" rx="14.1691" ry="14.2" fill="url(#paint3_linear_15024_125)"
        fill-opacity="0.15" />
    <ellipse cx="39.0118" cy="17.3436" rx="14.1691" ry="14.2" stroke="#32333C" stroke-width="0.5" />
    <mask id="mask0_15024_125" style="mask-type:luminance" maskUnits="userSpaceOnUse" x="24" y="2"
        width="30" height="30">
        <ellipse cx="39.0118" cy="17.3434" rx="14.1691" ry="14.2" fill="white" />
        <ellipse cx="39.0118" cy="17.3434" rx="14.1691" ry="14.2" stroke="white" stroke-width="0.5" />
    </mask>
    <g mask="url(#mask0_15024_125)">
        <path d="M38.9232 2.30304L39.0829 34.5438" stroke="#32333C" stroke-width="0.5"
            stroke-linecap="square" />
        <path d="M53.2924 17.4235H22.878" stroke="#32333C" stroke-width="0.5"
            stroke-linecap="square" />
        <ellipse cx="38.9719" cy="17.3434" rx="7.18431" ry="14.2"
            fill="url(#paint4_linear_15024_125)" fill-opacity="0.15" stroke="#32333C"
            stroke-width="0.5" />
        <ellipse cx="38.9716" cy="4.8235" rx="8.24" ry="16.2046"
            transform="rotate(90 38.9716 4.8235)" fill="url(#paint5_linear_15024_125)"
            fill-opacity="0.15" stroke="#32333C" stroke-width="0.5" />
        <ellipse cx="39.0114" cy="3.62352" rx="4.52" ry="8.86065"
            transform="rotate(90 39.0114 3.62352)" fill="url(#paint6_linear_15024_125)"
            fill-opacity="0.15" stroke="#32333C" stroke-width="0.5" />
        <ellipse cx="38.9716" cy="29.6235" rx="8.24" ry="16.2046"
            transform="rotate(90 38.9716 29.6235)" fill="url(#paint7_linear_15024_125)"
            fill-opacity="0.15" stroke="#32333C" stroke-width="0.5" />
        <ellipse cx="39.0114" cy="31.6235" rx="4.52" ry="8.86065"
            transform="rotate(90 39.0114 31.6235)" fill="url(#paint8_linear_15024_125)"
            fill-opacity="0.15" stroke="#32333C" stroke-width="0.5" />
    </g>
    <path fill-rule="evenodd" clip-rule="evenodd"
        d="M24.8029 19.3035C23.7244 19.3035 22.8472 18.4242 22.8472 17.3437C22.8472 16.2629 23.7244 15.3835 24.8029 15.3835C25.8811 15.3835 26.7586 16.2629 26.7586 17.3437C26.7586 18.4242 25.8811 19.3035 24.8029 19.3035V19.3035Z"
        fill="white" />
    <path fill-rule="evenodd" clip-rule="evenodd"
        d="M24.8029 19.3035C23.7244 19.3035 22.8472 18.4242 22.8472 17.3437C22.8472 16.2629 23.7244 15.3835 24.8029 15.3835C25.8811 15.3835 26.7586 16.2629 26.7586 17.3437C26.7586 18.4242 25.8811 19.3035 24.8029 19.3035V19.3035Z"
        fill="url(#paint9_linear_15024_125)" fill-opacity="0.15" />
    <path fill-rule="evenodd" clip-rule="evenodd"
        d="M24.8029 19.3035C23.7244 19.3035 22.8472 18.4242 22.8472 17.3437C22.8472 16.2629 23.7244 15.3835 24.8029 15.3835C25.8811 15.3835 26.7586 16.2629 26.7586 17.3437C26.7586 18.4242 25.8811 19.3035 24.8029 19.3035V19.3035Z"
        stroke="#32333C" stroke-width="0.5" />
    <path fill-rule="evenodd" clip-rule="evenodd"
        d="M38.8518 4.98351C37.8177 4.98351 36.9761 4.14003 36.9761 3.10335C36.9761 2.06699 37.8177 1.22351 38.8518 1.22351C39.8862 1.22351 40.7279 2.06699 40.7279 3.10335C40.7279 4.14003 39.8862 4.98351 38.8518 4.98351V4.98351Z"
        fill="white" />
    <path fill-rule="evenodd" clip-rule="evenodd"
        d="M38.8518 4.98351C37.8177 4.98351 36.9761 4.14003 36.9761 3.10335C36.9761 2.06699 37.8177 1.22351 38.8518 1.22351C39.8862 1.22351 40.7279 2.06699 40.7279 3.10335C40.7279 4.14003 39.8862 4.98351 38.8518 4.98351V4.98351Z"
        fill="url(#paint10_linear_15024_125)" fill-opacity="0.15" />
    <path fill-rule="evenodd" clip-rule="evenodd"
        d="M38.8518 4.98351C37.8177 4.98351 36.9761 4.14003 36.9761 3.10335C36.9761 2.06699 37.8177 1.22351 38.8518 1.22351C39.8862 1.22351 40.7279 2.06699 40.7279 3.10335C40.7279 4.14003 39.8862 4.98351 38.8518 4.98351V4.98351Z"
        stroke="#32333C" stroke-width="0.5" />
    <path fill-rule="evenodd" clip-rule="evenodd"
        d="M31.7875 18.5035C31.1712 18.5035 30.6699 18.0012 30.6699 17.3835C30.6699 16.7659 31.1712 16.2635 31.7875 16.2635C32.4038 16.2635 32.905 16.7659 32.905 17.3835C32.905 18.0012 32.4038 18.5035 31.7875 18.5035V18.5035Z"
        fill="white" />
    <path fill-rule="evenodd" clip-rule="evenodd"
        d="M31.7875 18.5035C31.1712 18.5035 30.6699 18.0012 30.6699 17.3835C30.6699 16.7659 31.1712 16.2635 31.7875 16.2635C32.4038 16.2635 32.905 16.7659 32.905 17.3835C32.905 18.0012 32.4038 18.5035 31.7875 18.5035V18.5035Z"
        fill="url(#paint11_linear_15024_125)" fill-opacity="0.15" />
    <path fill-rule="evenodd" clip-rule="evenodd"
        d="M31.7875 18.5035C31.1712 18.5035 30.6699 18.0012 30.6699 17.3835C30.6699 16.7659 31.1712 16.2635 31.7875 16.2635C32.4038 16.2635 32.905 16.7659 32.905 17.3835C32.905 18.0012 32.4038 18.5035 31.7875 18.5035V18.5035Z"
        stroke="#32333C" stroke-width="0.5" />
    <path fill-rule="evenodd" clip-rule="evenodd"
        d="M39.0516 22.5835C38.4353 22.5835 37.9341 22.0808 37.9341 21.4635C37.9341 20.8459 38.4353 20.3435 39.0516 20.3435C39.6679 20.3435 40.1692 20.8459 40.1692 21.4635C40.1692 22.0808 39.6679 22.5835 39.0516 22.5835V22.5835Z"
        fill="white" />
    <path fill-rule="evenodd" clip-rule="evenodd"
        d="M39.0516 22.5835C38.4353 22.5835 37.9341 22.0808 37.9341 21.4635C37.9341 20.8459 38.4353 20.3435 39.0516 20.3435C39.6679 20.3435 40.1692 20.8459 40.1692 21.4635C40.1692 22.0808 39.6679 22.5835 39.0516 22.5835V22.5835Z"
        fill="url(#paint12_linear_15024_125)" fill-opacity="0.15" />
    <path fill-rule="evenodd" clip-rule="evenodd"
        d="M39.0516 22.5835C38.4353 22.5835 37.9341 22.0808 37.9341 21.4635C37.9341 20.8459 38.4353 20.3435 39.0516 20.3435C39.6679 20.3435 40.1692 20.8459 40.1692 21.4635C40.1692 22.0808 39.6679 22.5835 39.0516 22.5835V22.5835Z"
        stroke="#32333C" stroke-width="0.5" />
    <path fill-rule="evenodd" clip-rule="evenodd"
        d="M38.9721 14.1035C38.3558 14.1035 37.8545 13.6009 37.8545 12.9837C37.8545 12.3661 38.3558 11.8635 38.9721 11.8635C39.5884 11.8635 40.0896 12.3661 40.0896 12.9837C40.0896 13.6009 39.5884 14.1035 38.9721 14.1035V14.1035Z"
        fill="white" />
    <path fill-rule="evenodd" clip-rule="evenodd"
        d="M38.9721 14.1035C38.3558 14.1035 37.8545 13.6009 37.8545 12.9837C37.8545 12.3661 38.3558 11.8635 38.9721 11.8635C39.5884 11.8635 40.0896 12.3661 40.0896 12.9837C40.0896 13.6009 39.5884 14.1035 38.9721 14.1035V14.1035Z"
        fill="url(#paint13_linear_15024_125)" fill-opacity="0.15" />
    <path fill-rule="evenodd" clip-rule="evenodd"
        d="M38.9721 14.1035C38.3558 14.1035 37.8545 13.6009 37.8545 12.9837C37.8545 12.3661 38.3558 11.8635 38.9721 11.8635C39.5884 11.8635 40.0896 12.3661 40.0896 12.9837C40.0896 13.6009 39.5884 14.1035 38.9721 14.1035V14.1035Z"
        stroke="#32333C" stroke-width="0.5" />
    <path fill-rule="evenodd" clip-rule="evenodd"
        d="M26.599 10.8235C25.9827 10.8235 25.4814 10.3211 25.4814 9.7035C25.4814 9.08585 25.9827 8.5835 26.599 8.5835C27.2153 8.5835 27.7166 9.08585 27.7166 9.7035C27.7166 10.3211 27.2153 10.8235 26.599 10.8235V10.8235Z"
        fill="white" />
    <path fill-rule="evenodd" clip-rule="evenodd"
        d="M26.599 10.8235C25.9827 10.8235 25.4814 10.3211 25.4814 9.7035C25.4814 9.08585 25.9827 8.5835 26.599 8.5835C27.2153 8.5835 27.7166 9.08585 27.7166 9.7035C27.7166 10.3211 27.2153 10.8235 26.599 10.8235V10.8235Z"
        fill="url(#paint14_linear_15024_125)" fill-opacity="0.15" />
    <path fill-rule="evenodd" clip-rule="evenodd"
        d="M26.599 10.8235C25.9827 10.8235 25.4814 10.3211 25.4814 9.7035C25.4814 9.08585 25.9827 8.5835 26.599 8.5835C27.2153 8.5835 27.7166 9.08585 27.7166 9.7035C27.7166 10.3211 27.2153 10.8235 26.599 10.8235V10.8235Z"
        stroke="#32333C" stroke-width="0.5" />
    <path fill-rule="evenodd" clip-rule="evenodd"
        d="M28.355 27.8635C27.7386 27.8635 27.2373 27.3612 27.2373 26.7432C27.2373 26.1259 27.7386 25.6235 28.355 25.6235C28.9711 25.6235 29.4724 26.1259 29.4724 26.7432C29.4724 27.3612 28.9711 27.8635 28.355 27.8635V27.8635Z"
        fill="white" />
    <path fill-rule="evenodd" clip-rule="evenodd"
        d="M28.355 27.8635C27.7386 27.8635 27.2373 27.3612 27.2373 26.7432C27.2373 26.1259 27.7386 25.6235 28.355 25.6235C28.9711 25.6235 29.4724 26.1259 29.4724 26.7432C29.4724 27.3612 28.9711 27.8635 28.355 27.8635V27.8635Z"
        fill="url(#paint15_linear_15024_125)" fill-opacity="0.15" />
    <path fill-rule="evenodd" clip-rule="evenodd"
        d="M28.355 27.8635C27.7386 27.8635 27.2373 27.3612 27.2373 26.7432C27.2373 26.1259 27.7386 25.6235 28.355 25.6235C28.9711 25.6235 29.4724 26.1259 29.4724 26.7432C29.4724 27.3612 28.9711 27.8635 28.355 27.8635V27.8635Z"
        stroke="#32333C" stroke-width="0.5" />
    <path fill-rule="evenodd" clip-rule="evenodd"
        d="M46.2362 18.5035C45.6199 18.5035 45.1187 18.0012 45.1187 17.3835C45.1187 16.7659 45.6199 16.2635 46.2362 16.2635C46.8525 16.2635 47.3538 16.7659 47.3538 17.3835C47.3538 18.0012 46.8525 18.5035 46.2362 18.5035V18.5035Z"
        fill="white" />
    <path fill-rule="evenodd" clip-rule="evenodd"
        d="M46.2362 18.5035C45.6199 18.5035 45.1187 18.0012 45.1187 17.3835C45.1187 16.7659 45.6199 16.2635 46.2362 16.2635C46.8525 16.2635 47.3538 16.7659 47.3538 17.3835C47.3538 18.0012 46.8525 18.5035 46.2362 18.5035V18.5035Z"
        fill="url(#paint16_linear_15024_125)" fill-opacity="0.15" />
    <path fill-rule="evenodd" clip-rule="evenodd"
        d="M46.2362 18.5035C45.6199 18.5035 45.1187 18.0012 45.1187 17.3835C45.1187 16.7659 45.6199 16.2635 46.2362 16.2635C46.8525 16.2635 47.3538 16.7659 47.3538 17.3835C47.3538 18.0012 46.8525 18.5035 46.2362 18.5035V18.5035Z"
        stroke="#32333C" stroke-width="0.5" />
    <path fill-rule="evenodd" clip-rule="evenodd"
        d="M49.6682 27.8635C49.0521 27.8635 48.5508 27.3612 48.5508 26.7432C48.5508 26.1259 49.0521 25.6235 49.6682 25.6235C50.2846 25.6235 50.7859 26.1259 50.7859 26.7432C50.7859 27.3612 50.2846 27.8635 49.6682 27.8635V27.8635Z"
        fill="white" />
    <path fill-rule="evenodd" clip-rule="evenodd"
        d="M49.6682 27.8635C49.0521 27.8635 48.5508 27.3612 48.5508 26.7432C48.5508 26.1259 49.0521 25.6235 49.6682 25.6235C50.2846 25.6235 50.7859 26.1259 50.7859 26.7432C50.7859 27.3612 50.2846 27.8635 49.6682 27.8635V27.8635Z"
        fill="url(#paint17_linear_15024_125)" fill-opacity="0.15" />
    <path fill-rule="evenodd" clip-rule="evenodd"
        d="M49.6682 27.8635C49.0521 27.8635 48.5508 27.3612 48.5508 26.7432C48.5508 26.1259 49.0521 25.6235 49.6682 25.6235C50.2846 25.6235 50.7859 26.1259 50.7859 26.7432C50.7859 27.3612 50.2846 27.8635 49.6682 27.8635V27.8635Z"
        stroke="#32333C" stroke-width="0.5" />
    <path
        d="M18.6314 20.6219L18.8666 20.7068C18.1047 22.8176 18.9754 25.1789 20.7996 27.4492C22.6173 29.7114 25.3386 31.825 28.1372 33.4043C30.9401 34.986 33.787 36.0131 35.8488 36.1336C36.8827 36.194 37.6745 36.0239 38.1728 35.6319C38.6534 35.2537 38.9128 34.6261 38.7902 33.6326L39.0384 33.602L39.2865 33.5714C39.4236 34.6827 39.1392 35.5076 38.482 36.0248C37.8425 36.528 36.9023 36.696 35.8196 36.6327C33.6483 36.5058 30.7236 35.438 27.8915 33.8397C25.0551 32.2391 22.2783 30.0878 20.4098 27.7624C18.548 25.4452 17.5447 22.8964 18.3963 20.537L18.6314 20.6219ZM12.6861 11.2485L12.7867 11.0197C15.2564 12.106 17.0819 13.5701 18.1393 15.245C19.2003 16.9256 19.481 18.8095 18.8693 20.6989L18.6314 20.6219L18.3936 20.5449C18.957 18.8049 18.703 17.0745 17.7165 15.5119C16.7264 13.9437 14.9917 12.5358 12.5854 11.4774L12.6861 11.2485Z"
        fill="#32333C" />
    <path fill-rule="evenodd" clip-rule="evenodd"
        d="M13.0095 12.0584C13.0095 12.6847 13.5166 13.1923 14.1422 13.1923C14.7678 13.1923 15.2749 12.6847 15.2749 12.0584C15.2749 11.4322 14.7678 10.9246 14.1422 10.9246C13.5166 10.9246 13.0095 11.4322 13.0095 12.0584"
        fill="white" />
    <path fill-rule="evenodd" clip-rule="evenodd"
        d="M13.0095 12.0584C13.0095 12.6847 13.5166 13.1923 14.1422 13.1923C14.7678 13.1923 15.2749 12.6847 15.2749 12.0584C15.2749 11.4322 14.7678 10.9246 14.1422 10.9246C13.5166 10.9246 13.0095 11.4322 13.0095 12.0584"
        fill="url(#paint18_linear_15024_125)" fill-opacity="0.15" />
    <path
        d="M13.0095 12.0584C13.0095 12.6847 13.5166 13.1923 14.1422 13.1923C14.7678 13.1923 15.2749 12.6847 15.2749 12.0584C15.2749 11.4322 14.7678 10.9246 14.1422 10.9246C13.5166 10.9246 13.0095 11.4322 13.0095 12.0584"
        stroke="#32333C" stroke-width="0.5" stroke-linecap="round" stroke-linejoin="round" />
    <path fill-rule="evenodd" clip-rule="evenodd"
        d="M4.91908 12.0437L7.19415 5.74121L8.479 7.21391L6.20394 13.5163L4.91908 12.0437Z"
        fill="white" />
    <path fill-rule="evenodd" clip-rule="evenodd"
        d="M4.91908 12.0437L7.19415 5.74121L8.479 7.21391L6.20394 13.5163L4.91908 12.0437Z"
        fill="url(#paint19_linear_15024_125)" fill-opacity="0.15" />
    <path fill-rule="evenodd" clip-rule="evenodd"
        d="M4.91908 12.0437L7.19415 5.74121L8.479 7.21391L6.20394 13.5163L4.91908 12.0437Z"
        stroke="#32333C" stroke-width="0.5" stroke-linecap="round" stroke-linejoin="round" />
    <path fill-rule="evenodd" clip-rule="evenodd"
        d="M10.0101 6.37676C10.812 6.55711 11.5553 6.88864 12.2055 7.35728L13.6601 8.40413L14.9517 9.95273L13.4971 8.90587C12.8469 8.43736 12.1037 8.10583 11.3016 7.92548L8.47615 7.28993L7.18456 5.74121L10.0101 6.37676"
        fill="white" />
    <path fill-rule="evenodd" clip-rule="evenodd"
        d="M10.0101 6.37676C10.812 6.55711 11.5553 6.88864 12.2055 7.35728L13.6601 8.40413L14.9517 9.95273L13.4971 8.90587C12.8469 8.43736 12.1037 8.10583 11.3016 7.92548L8.47615 7.28993L7.18456 5.74121L10.0101 6.37676"
        fill="url(#paint20_linear_15024_125)" fill-opacity="0.15" />
    <path
        d="M10.0101 6.37676C10.812 6.55711 11.5553 6.88864 12.2055 7.35728L13.6601 8.40413L14.9517 9.95273L13.4971 8.90587C12.8469 8.43736 12.1037 8.10583 11.3016 7.92548L8.47615 7.28993L7.18456 5.74121L10.0101 6.37676"
        stroke="#32333C" stroke-width="0.5" stroke-linecap="round" stroke-linejoin="round" />
    <path fill-rule="evenodd" clip-rule="evenodd"
        d="M13.4429 8.91284L14.8819 9.9182C15.2407 10.1695 15.3694 10.6472 15.203 11.1151L14.4483 13.2386C14.282 13.7066 13.8566 14.0632 13.3838 14.133L11.4888 14.4104C10.6414 14.535 9.80192 14.5095 9.00862 14.3363L6.20362 13.5163L8.47576 7.36096L11.271 7.97131C12.0643 8.14451 12.7997 8.46291 13.4429 8.91284Z"
        fill="white" />
    <path fill-rule="evenodd" clip-rule="evenodd"
        d="M13.4429 8.91284L14.8819 9.9182C15.2407 10.1695 15.3694 10.6472 15.203 11.1151L14.4483 13.2386C14.282 13.7066 13.8566 14.0632 13.3838 14.133L11.4888 14.4104C10.6414 14.535 9.80192 14.5095 9.00862 14.3363L6.20362 13.5163L8.47576 7.36096L11.271 7.97131C12.0643 8.14451 12.7997 8.46291 13.4429 8.91284Z"
        fill="url(#paint21_linear_15024_125)" fill-opacity="0.15" />
    <path fill-rule="evenodd" clip-rule="evenodd"
        d="M13.4429 8.91284L14.8819 9.9182C15.2407 10.1695 15.3694 10.6472 15.203 11.1151L14.4483 13.2386C14.282 13.7066 13.8566 14.0632 13.3838 14.133L11.4888 14.4104C10.6414 14.535 9.80192 14.5095 9.00862 14.3363L6.20362 13.5163L8.47576 7.36096L11.271 7.97131C12.0643 8.14451 12.7997 8.46291 13.4429 8.91284Z"
        stroke="#32333C" stroke-width="0.5" stroke-linecap="round" stroke-linejoin="round" />
    <path fill-rule="evenodd" clip-rule="evenodd"
        d="M6.45433 11.5757C6.38133 11.7894 6.28472 11.9128 6.21567 11.8946C6.20561 11.8922 6.19554 11.8893 6.18535 11.8867C5.43904 11.6897 2.52767 10.9473 1.933 10.8012C1.57316 10.713 0.968058 10.5403 1.04154 10.0242C1.09128 9.67517 1.48014 9.58386 1.75476 9.64741C2.17082 9.74356 5.80416 10.6973 6.45529 10.8691C6.47135 10.8733 6.48586 10.8853 6.49833 10.9055C6.56401 11.0129 6.54423 11.3129 6.45433 11.5757"
        fill="white" />
    <path fill-rule="evenodd" clip-rule="evenodd"
        d="M6.45433 11.5757C6.38133 11.7894 6.28472 11.9128 6.21567 11.8946C6.20561 11.8922 6.19554 11.8893 6.18535 11.8867C5.43904 11.6897 2.52767 10.9473 1.933 10.8012C1.57316 10.713 0.968058 10.5403 1.04154 10.0242C1.09128 9.67517 1.48014 9.58386 1.75476 9.64741C2.17082 9.74356 5.80416 10.6973 6.45529 10.8691C6.47135 10.8733 6.48586 10.8853 6.49833 10.9055C6.56401 11.0129 6.54423 11.3129 6.45433 11.5757"
        fill="url(#paint22_linear_15024_125)" fill-opacity="0.55" />
    <path
        d="M6.45433 11.5757C6.38133 11.7894 6.28472 11.9128 6.21567 11.8946C6.20561 11.8922 6.19554 11.8893 6.18535 11.8867C5.43904 11.6897 2.52767 10.9473 1.933 10.8012C1.57316 10.713 0.968058 10.5403 1.04154 10.0242C1.09128 9.67517 1.48014 9.58386 1.75476 9.64741C2.17082 9.74356 5.80416 10.6973 6.45529 10.8691C6.47135 10.8733 6.48586 10.8853 6.49833 10.9055C6.56401 11.0129 6.54423 11.3129 6.45433 11.5757"
        stroke="#32333C" stroke-width="0.5" />
    <path fill-rule="evenodd" clip-rule="evenodd"
        d="M7.42511 8.33626C7.35211 8.54981 7.2555 8.67334 7.18645 8.65513C7.17638 8.65258 7.16619 8.64978 7.15612 8.64711C6.40981 8.4501 3.49841 7.70768 2.90373 7.56174C2.54388 7.47336 1.93866 7.30068 2.01226 6.78468C2.06188 6.43562 2.45086 6.34444 2.72549 6.40786C3.14155 6.50401 6.77494 7.4577 7.42607 7.62949C7.44213 7.63369 7.45664 7.64566 7.46899 7.66591C7.53467 7.77326 7.51502 8.07329 7.42511 8.33626"
        fill="white" />
    <path fill-rule="evenodd" clip-rule="evenodd"
        d="M7.42511 8.33626C7.35211 8.54981 7.2555 8.67334 7.18645 8.65513C7.17638 8.65258 7.16619 8.64978 7.15612 8.64711C6.40981 8.4501 3.49841 7.70768 2.90373 7.56174C2.54388 7.47336 1.93866 7.30068 2.01226 6.78468C2.06188 6.43562 2.45086 6.34444 2.72549 6.40786C3.14155 6.50401 6.77494 7.4577 7.42607 7.62949C7.44213 7.63369 7.45664 7.64566 7.46899 7.66591C7.53467 7.77326 7.51502 8.07329 7.42511 8.33626"
        fill="url(#paint23_linear_15024_125)" fill-opacity="0.55" />
    <path
        d="M7.42511 8.33626C7.35211 8.54981 7.2555 8.67334 7.18645 8.65513C7.17638 8.65258 7.16619 8.64978 7.15612 8.64711C6.40981 8.4501 3.49841 7.70768 2.90373 7.56174C2.54388 7.47336 1.93866 7.30068 2.01226 6.78468C2.06188 6.43562 2.45086 6.34444 2.72549 6.40786C3.14155 6.50401 6.77494 7.4577 7.42607 7.62949C7.44213 7.63369 7.45664 7.64566 7.46899 7.66591C7.53467 7.77326 7.51502 8.07329 7.42511 8.33626"
        stroke="#32333C" stroke-width="0.5" />
    <path fill-rule="evenodd" clip-rule="evenodd"
        d="M6.2934 11.8946C6.28318 11.8921 6.27296 11.889 6.26262 11.8864C5.50512 11.6818 2.55006 10.911 1.94647 10.7593C1.58122 10.6677 0.967047 10.4884 1.04163 9.95264C1.04163 9.95264 6.62689 11.2906 6.53564 11.5635C6.46155 11.7854 6.36348 11.9135 6.2934 11.8946Z"
        fill="url(#paint24_linear_15024_125)" fill-opacity="0.15" />
    <path fill-rule="evenodd" clip-rule="evenodd"
        d="M7.26411 8.3311C7.25389 8.32846 7.24354 8.32555 7.23332 8.32277C6.47583 8.11824 3.52078 7.34744 2.91719 7.19592C2.55194 7.10417 1.93765 6.92489 2.01235 6.38916C2.01235 6.38916 7.5976 7.72702 7.50635 8.00004C7.43225 8.22176 7.33419 8.35001 7.26411 8.3311Z"
        fill="url(#paint25_linear_15024_125)" fill-opacity="0.15" />
    <path
        d="M29.7222 20.3853C30.2697 20.3853 30.7172 20.8266 30.7173 21.3745V36.5474C30.7172 37.0953 30.2696 37.5366 29.7222 37.5366C29.1749 37.5364 28.7281 37.0951 28.728 36.5474V21.3745L28.7329 21.2729C28.7841 20.7732 29.2091 20.3855 29.7222 20.3853Z"
        fill="white" />
    <path
        d="M29.7222 20.3853C30.2697 20.3853 30.7172 20.8266 30.7173 21.3745V36.5474C30.7172 37.0953 30.2696 37.5366 29.7222 37.5366C29.1749 37.5364 28.7281 37.0951 28.728 36.5474V21.3745L28.7329 21.2729C28.7841 20.7732 29.2091 20.3855 29.7222 20.3853Z"
        fill="url(#paint26_linear_15024_125)" fill-opacity="0.15" />
    <path
        d="M29.7222 20.3853C30.2697 20.3853 30.7172 20.8266 30.7173 21.3745V36.5474C30.7172 37.0953 30.2696 37.5366 29.7222 37.5366C29.1749 37.5364 28.7281 37.0951 28.728 36.5474V21.3745L28.7329 21.2729C28.7841 20.7732 29.2091 20.3855 29.7222 20.3853Z"
        stroke="#32333C" stroke-width="0.5" />
    <path
        d="M12.8945 20.3853C13.442 20.3853 13.8896 20.8266 13.8896 21.3745V36.5474C13.8896 37.0953 13.442 37.5366 12.8945 37.5366C12.3473 37.5364 11.9005 37.0951 11.9004 36.5474V21.3745L11.9053 21.2729C11.9565 20.7732 12.3815 20.3855 12.8945 20.3853Z"
        fill="white" />
    <path
        d="M12.8945 20.3853C13.442 20.3853 13.8896 20.8266 13.8896 21.3745V36.5474C13.8896 37.0953 13.442 37.5366 12.8945 37.5366C12.3473 37.5364 11.9005 37.0951 11.9004 36.5474V21.3745L11.9053 21.2729C11.9565 20.7732 12.3815 20.3855 12.8945 20.3853Z"
        fill="url(#paint27_linear_15024_125)" fill-opacity="0.15" />
    <path
        d="M12.8945 20.3853C13.442 20.3853 13.8896 20.8266 13.8896 21.3745V36.5474C13.8896 37.0953 13.442 37.5366 12.8945 37.5366C12.3473 37.5364 11.9005 37.0951 11.9004 36.5474V21.3745L11.9053 21.2729C11.9565 20.7732 12.3815 20.3855 12.8945 20.3853Z"
        stroke="#32333C" stroke-width="0.5" />
    <path fill-rule="evenodd" clip-rule="evenodd"
        d="M12.1504 36.2675H13.6396V35.8527H12.1504V36.2675Z" fill="white" />
    <path fill-rule="evenodd" clip-rule="evenodd"
        d="M12.1504 36.2675H13.6396V35.8527H12.1504V36.2675Z" fill="url(#paint28_linear_15024_125)"
        fill-opacity="0.45" />
    <path fill-rule="evenodd" clip-rule="evenodd"
        d="M12.1504 29.875H13.6396V29.4593H12.1504V29.875Z" fill="white" />
    <path fill-rule="evenodd" clip-rule="evenodd"
        d="M12.1504 29.875H13.6396V29.4593H12.1504V29.875Z" fill="url(#paint29_linear_15024_125)"
        fill-opacity="0.45" />
    <path fill-rule="evenodd" clip-rule="evenodd" d="M28.978 29.875H30.4672V29.4593H28.978V29.875Z"
        fill="white" />
    <path fill-rule="evenodd" clip-rule="evenodd" d="M28.978 29.875H30.4672V29.4593H28.978V29.875Z"
        fill="url(#paint30_linear_15024_125)" fill-opacity="0.45" />
    <path fill-rule="evenodd" clip-rule="evenodd"
        d="M14.5335 36.841C14.5335 37.1686 14.3721 37.4352 14.1731 37.4352H11.618C11.4187 37.4352 11.2573 37.1686 11.2573 36.841C11.2573 36.5125 11.4187 36.2458 11.618 36.2458H14.1731C14.3721 36.2458 14.5335 36.5125 14.5335 36.841"
        fill="white" />
    <path fill-rule="evenodd" clip-rule="evenodd"
        d="M14.5335 36.841C14.5335 37.1686 14.3721 37.4352 14.1731 37.4352H11.618C11.4187 37.4352 11.2573 37.1686 11.2573 36.841C11.2573 36.5125 11.4187 36.2458 11.618 36.2458H14.1731C14.3721 36.2458 14.5335 36.5125 14.5335 36.841"
        fill="url(#paint31_linear_15024_125)" fill-opacity="0.15" />
    <path
        d="M14.5335 36.841C14.5335 37.1686 14.3721 37.4352 14.1731 37.4352H11.618C11.4187 37.4352 11.2573 37.1686 11.2573 36.841C11.2573 36.5125 11.4187 36.2458 11.618 36.2458H14.1731C14.3721 36.2458 14.5335 36.5125 14.5335 36.841"
        stroke="#32333C" stroke-width="0.5" />
    <path fill-rule="evenodd" clip-rule="evenodd"
        d="M28.978 36.2675H30.4672V35.8527H28.978V36.2675Z" fill="white" />
    <path fill-rule="evenodd" clip-rule="evenodd"
        d="M28.978 36.2675H30.4672V35.8527H28.978V36.2675Z" fill="url(#paint32_linear_15024_125)"
        fill-opacity="0.45" />
    <path fill-rule="evenodd" clip-rule="evenodd"
        d="M31.3606 36.841C31.3606 37.1686 31.1992 37.4352 31 37.4352H28.4451C28.2459 37.4352 28.0845 37.1686 28.0845 36.841C28.0845 36.5125 28.2459 36.2458 28.4451 36.2458H31C31.1992 36.2458 31.3606 36.5125 31.3606 36.841"
        fill="white" />
    <path fill-rule="evenodd" clip-rule="evenodd"
        d="M31.3606 36.841C31.3606 37.1686 31.1992 37.4352 31 37.4352H28.4451C28.2459 37.4352 28.0845 37.1686 28.0845 36.841C28.0845 36.5125 28.2459 36.2458 28.4451 36.2458H31C31.1992 36.2458 31.3606 36.5125 31.3606 36.841"
        fill="url(#paint33_linear_15024_125)" fill-opacity="0.15" />
    <path
        d="M31.3606 36.841C31.3606 37.1686 31.1992 37.4352 31 37.4352H28.4451C28.2459 37.4352 28.0845 37.1686 28.0845 36.841C28.0845 36.5125 28.2459 36.2458 28.4451 36.2458H31C31.1992 36.2458 31.3606 36.5125 31.3606 36.841"
        stroke="#32333C" stroke-width="0.5" />
    <path fill-rule="evenodd" clip-rule="evenodd"
        d="M33.7175 28.3913C33.7175 28.9941 33.2284 29.4814 32.6244 29.4814H9.89285C9.28938 29.4814 8.7998 28.9941 8.7998 28.3913V23.2122C8.7998 22.6098 9.28938 22.1221 9.89285 22.1221H32.6244C33.2284 22.1221 33.7175 22.6098 33.7175 23.2122V28.3913Z"
        fill="white" stroke="#32333C" stroke-width="0.5" />
    <path fill-rule="evenodd" clip-rule="evenodd"
        d="M11.8612 29.4814H10.1401L12.8865 22.1221H14.6076L11.8612 29.4814Z" fill="white" />
    <path fill-rule="evenodd" clip-rule="evenodd"
        d="M11.8612 29.4814H10.1401L12.8865 22.1221H14.6076L11.8612 29.4814Z"
        fill="url(#paint34_linear_15024_125)" fill-opacity="0.35" />
    <path fill-rule="evenodd" clip-rule="evenodd"
        d="M11.8612 29.4814H10.1401L12.8865 22.1221H14.6076L11.8612 29.4814Z" stroke="#32333C"
        stroke-width="0.5" />
    <path fill-rule="evenodd" clip-rule="evenodd"
        d="M15.4354 29.4814H13.7144L16.4608 22.1221H18.1818L15.4354 29.4814Z" fill="white" />
    <path fill-rule="evenodd" clip-rule="evenodd"
        d="M15.4354 29.4814H13.7144L16.4608 22.1221H18.1818L15.4354 29.4814Z"
        fill="url(#paint35_linear_15024_125)" fill-opacity="0.35" />
    <path fill-rule="evenodd" clip-rule="evenodd"
        d="M15.4354 29.4814H13.7144L16.4608 22.1221H18.1818L15.4354 29.4814Z" stroke="#32333C"
        stroke-width="0.5" />
    <path fill-rule="evenodd" clip-rule="evenodd"
        d="M18.9351 29.4814H17.2139L19.9601 22.1221H21.6813L18.9351 29.4814Z" fill="white" />
    <path fill-rule="evenodd" clip-rule="evenodd"
        d="M18.9351 29.4814H17.2139L19.9601 22.1221H21.6813L18.9351 29.4814Z"
        fill="url(#paint36_linear_15024_125)" fill-opacity="0.35" />
    <path fill-rule="evenodd" clip-rule="evenodd"
        d="M18.9351 29.4814H17.2139L19.9601 22.1221H21.6813L18.9351 29.4814Z" stroke="#32333C"
        stroke-width="0.5" />
    <path fill-rule="evenodd" clip-rule="evenodd"
        d="M22.5087 29.4814H20.7876L23.534 22.1221H25.2551L22.5087 29.4814Z" fill="white" />
    <path fill-rule="evenodd" clip-rule="evenodd"
        d="M22.5087 29.4814H20.7876L23.534 22.1221H25.2551L22.5087 29.4814Z"
        fill="url(#paint37_linear_15024_125)" fill-opacity="0.35" />
    <path fill-rule="evenodd" clip-rule="evenodd"
        d="M22.5087 29.4814H20.7876L23.534 22.1221H25.2551L22.5087 29.4814Z" stroke="#32333C"
        stroke-width="0.5" />
    <path fill-rule="evenodd" clip-rule="evenodd"
        d="M26.0834 29.4814H24.3618L27.1082 22.1221H28.8293L26.0834 29.4814Z" fill="white" />
    <path fill-rule="evenodd" clip-rule="evenodd"
        d="M26.0834 29.4814H24.3618L27.1082 22.1221H28.8293L26.0834 29.4814Z"
        fill="url(#paint38_linear_15024_125)" fill-opacity="0.35" />
    <path fill-rule="evenodd" clip-rule="evenodd"
        d="M26.0834 29.4814H24.3618L27.1082 22.1221H28.8293L26.0834 29.4814Z" stroke="#32333C"
        stroke-width="0.5" />
    <path fill-rule="evenodd" clip-rule="evenodd"
        d="M29.5826 29.4814H27.8613L30.6075 22.1221H32.3288L29.5826 29.4814Z" fill="white" />
    <path fill-rule="evenodd" clip-rule="evenodd"
        d="M29.5826 29.4814H27.8613L30.6075 22.1221H32.3288L29.5826 29.4814Z"
        fill="url(#paint39_linear_15024_125)" fill-opacity="0.35" />
    <path fill-rule="evenodd" clip-rule="evenodd"
        d="M29.5826 29.4814H27.8613L30.6075 22.1221H32.3288L29.5826 29.4814Z" stroke="#32333C"
        stroke-width="0.5" />
    <path fill-rule="evenodd" clip-rule="evenodd" d="M28.978 22.0697H30.4672V21.654H28.978V22.0697Z"
        fill="white" />
    <path fill-rule="evenodd" clip-rule="evenodd" d="M28.978 22.0697H30.4672V21.654H28.978V22.0697Z"
        fill="url(#paint40_linear_15024_125)" fill-opacity="0.45" />
    <path fill-rule="evenodd" clip-rule="evenodd"
        d="M12.1504 22.0697H13.6396V21.654H12.1504V22.0697Z" fill="white" />
    <path fill-rule="evenodd" clip-rule="evenodd"
        d="M12.1504 22.0697H13.6396V21.654H12.1504V22.0697Z" fill="url(#paint41_linear_15024_125)"
        fill-opacity="0.45" />
    <defs>
        <linearGradient id="paint0_linear_15024_125" x1="51.6263" y1="17.4953" x2="53.5148"
            y2="19.5983" gradientUnits="userSpaceOnUse">
            <stop stop-color="#FA7071" />
            <stop offset="1" stop-color="#F63277" />
        </linearGradient>
        <linearGradient id="paint1_linear_15024_125" x1="50.5135" y1="9.79023" x2="51.5927"
            y2="10.9919" gradientUnits="userSpaceOnUse">
            <stop stop-color="#FA7071" />
            <stop offset="1" stop-color="#F63277" />
        </linearGradient>
        <linearGradient id="paint2_linear_15024_125" x1="37.4821" y1="31.7291" x2="39.2936"
            y2="33.7462" gradientUnits="userSpaceOnUse">
            <stop stop-color="#FA7071" />
            <stop offset="1" stop-color="#F63277" />
        </linearGradient>
        <linearGradient id="paint3_linear_15024_125" x1="27.4591" y1="18.4433" x2="41.1415"
            y2="33.6788" gradientUnits="userSpaceOnUse">
            <stop stop-color="#FA7071" />
            <stop offset="1" stop-color="#F63277" />
        </linearGradient>
        <linearGradient id="paint4_linear_15024_125" x1="33.1142" y1="18.4431" x2="44.8975"
            y2="25.096" gradientUnits="userSpaceOnUse">
            <stop stop-color="#FA7071" />
            <stop offset="1" stop-color="#F63277" />
        </linearGradient>
        <linearGradient id="paint5_linear_15024_125" x1="32.2531" y1="6.07846" x2="45.7349"
            y2="13.7287" gradientUnits="userSpaceOnUse">
            <stop stop-color="#FA7071" />
            <stop offset="1" stop-color="#F63277" />
        </linearGradient>
        <linearGradient id="paint6_linear_15024_125" x1="35.326" y1="4.30973" x2="42.7099"
            y2="8.51307" gradientUnits="userSpaceOnUse">
            <stop stop-color="#FA7071" />
            <stop offset="1" stop-color="#F63277" />
        </linearGradient>
        <linearGradient id="paint7_linear_15024_125" x1="32.2531" y1="30.8785" x2="45.7349"
            y2="38.5288" gradientUnits="userSpaceOnUse">
            <stop stop-color="#FA7071" />
            <stop offset="1" stop-color="#F63277" />
        </linearGradient>
        <linearGradient id="paint8_linear_15024_125" x1="35.326" y1="32.3097" x2="42.7099"
            y2="36.5131" gradientUnits="userSpaceOnUse">
            <stop stop-color="#FA7071" />
            <stop offset="1" stop-color="#F63277" />
        </linearGradient>
        <linearGradient id="paint9_linear_15024_125" x1="23.2083" y1="17.4953" x2="25.0969"
            y2="19.5983" gradientUnits="userSpaceOnUse">
            <stop stop-color="#FA7071" />
            <stop offset="1" stop-color="#F63277" />
        </linearGradient>
        <linearGradient id="paint10_linear_15024_125" x1="37.3225" y1="3.24911" x2="39.1339"
            y2="5.2662" gradientUnits="userSpaceOnUse">
            <stop stop-color="#FA7071" />
            <stop offset="1" stop-color="#F63277" />
        </linearGradient>
        <linearGradient id="paint11_linear_15024_125" x1="30.8763" y1="17.4703" x2="31.9555"
            y2="18.672" gradientUnits="userSpaceOnUse">
            <stop stop-color="#FA7071" />
            <stop offset="1" stop-color="#F63277" />
        </linearGradient>
        <linearGradient id="paint12_linear_15024_125" x1="38.1404" y1="21.5502" x2="39.2196"
            y2="22.7519" gradientUnits="userSpaceOnUse">
            <stop stop-color="#FA7071" />
            <stop offset="1" stop-color="#F63277" />
        </linearGradient>
        <linearGradient id="paint13_linear_15024_125" x1="38.0608" y1="13.0703" x2="39.14"
            y2="14.2719" gradientUnits="userSpaceOnUse">
            <stop stop-color="#FA7071" />
            <stop offset="1" stop-color="#F63277" />
        </linearGradient>
        <linearGradient id="paint14_linear_15024_125" x1="25.6878" y1="9.79023" x2="26.767"
            y2="10.9919" gradientUnits="userSpaceOnUse">
            <stop stop-color="#FA7071" />
            <stop offset="1" stop-color="#F63277" />
        </linearGradient>
        <linearGradient id="paint15_linear_15024_125" x1="27.4437" y1="26.8303" x2="28.5228"
            y2="28.0319" gradientUnits="userSpaceOnUse">
            <stop stop-color="#FA7071" />
            <stop offset="1" stop-color="#F63277" />
        </linearGradient>
        <linearGradient id="paint16_linear_15024_125" x1="45.325" y1="17.4703" x2="46.4042"
            y2="18.672" gradientUnits="userSpaceOnUse">
            <stop stop-color="#FA7071" />
            <stop offset="1" stop-color="#F63277" />
        </linearGradient>
        <linearGradient id="paint17_linear_15024_125" x1="48.7571" y1="26.8303" x2="49.8363"
            y2="28.0319" gradientUnits="userSpaceOnUse">
            <stop stop-color="#FA7071" />
            <stop offset="1" stop-color="#F63277" />
        </linearGradient>
        <linearGradient id="paint18_linear_15024_125" x1="15.0657" y1="12.1462" x2="13.9733"
            y2="13.364" gradientUnits="userSpaceOnUse">
            <stop stop-color="#FA7071" />
            <stop offset="1" stop-color="#F63277" />
        </linearGradient>
        <linearGradient id="paint19_linear_15024_125" x1="8.15033" y1="9.92984" x2="5.09736"
            y2="11.4897" gradientUnits="userSpaceOnUse">
            <stop stop-color="#FA7071" />
            <stop offset="1" stop-color="#F63277" />
        </linearGradient>
        <linearGradient id="paint20_linear_15024_125" x1="14.2346" y1="8.01005" x2="12.6302"
            y2="11.312" gradientUnits="userSpaceOnUse">
            <stop stop-color="#FA7071" />
            <stop offset="1" stop-color="#F63277" />
        </linearGradient>
        <linearGradient id="paint21_linear_15024_125" x1="14.4374" y1="11.2005" x2="11.1861"
            y2="15.8185" gradientUnits="userSpaceOnUse">
            <stop stop-color="#FA7071" />
            <stop offset="1" stop-color="#F63277" />
        </linearGradient>
        <linearGradient id="paint22_linear_15024_125" x1="6.02917" y1="10.8503" x2="5.31486"
            y2="12.7842" gradientUnits="userSpaceOnUse">
            <stop stop-color="#FA7071" />
            <stop offset="1" stop-color="#F63277" />
        </linearGradient>
        <linearGradient id="paint23_linear_15024_125" x1="6.99987" y1="7.61084" x2="6.28556"
            y2="9.54473" gradientUnits="userSpaceOnUse">
            <stop stop-color="#FA7071" />
            <stop offset="1" stop-color="#F63277" />
        </linearGradient>
        <linearGradient id="paint24_linear_15024_125" x1="6.02917" y1="10.9998" x2="5.4871"
            y2="12.7119" gradientUnits="userSpaceOnUse">
            <stop stop-color="#FA7071" />
            <stop offset="1" stop-color="#F63277" />
        </linearGradient>
        <linearGradient id="paint25_linear_15024_125" x1="6.99987" y1="7.43632" x2="6.45781"
            y2="9.14846" gradientUnits="userSpaceOnUse">
            <stop stop-color="#FA7071" />
            <stop offset="1" stop-color="#F63277" />
        </linearGradient>
        <linearGradient id="paint26_linear_15024_125" x1="29.1155" y1="29.6057" x2="30.7101"
            y2="29.7648" gradientUnits="userSpaceOnUse">
            <stop stop-color="#FA7071" />
            <stop offset="1" stop-color="#F63277" />
        </linearGradient>
        <linearGradient id="paint27_linear_15024_125" x1="12.2879" y1="29.6057" x2="13.8825"
            y2="29.7648" gradientUnits="userSpaceOnUse">
            <stop stop-color="#FA7071" />
            <stop offset="1" stop-color="#F63277" />
        </linearGradient>
        <linearGradient id="paint28_linear_15024_125" x1="12.2879" y1="36.0803" x2="12.4317"
            y2="36.5395" gradientUnits="userSpaceOnUse">
            <stop stop-color="#FA7071" />
            <stop offset="1" stop-color="#F63277" />
        </linearGradient>
        <linearGradient id="paint29_linear_15024_125" x1="12.2879" y1="29.6873" x2="12.4317"
            y2="30.1466" gradientUnits="userSpaceOnUse">
            <stop stop-color="#FA7071" />
            <stop offset="1" stop-color="#F63277" />
        </linearGradient>
        <linearGradient id="paint30_linear_15024_125" x1="29.1155" y1="29.6873" x2="29.2593"
            y2="30.1466" gradientUnits="userSpaceOnUse">
            <stop stop-color="#FA7071" />
            <stop offset="1" stop-color="#F63277" />
        </linearGradient>
        <linearGradient id="paint31_linear_15024_125" x1="11.5598" y1="36.8866" x2="11.8989"
            y2="37.9289" gradientUnits="userSpaceOnUse">
            <stop stop-color="#FA7071" />
            <stop offset="1" stop-color="#F63277" />
        </linearGradient>
        <linearGradient id="paint32_linear_15024_125" x1="29.1155" y1="36.0803" x2="29.2593"
            y2="36.5395" gradientUnits="userSpaceOnUse">
            <stop stop-color="#FA7071" />
            <stop offset="1" stop-color="#F63277" />
        </linearGradient>
        <linearGradient id="paint33_linear_15024_125" x1="28.3869" y1="36.8866" x2="28.726"
            y2="37.9289" gradientUnits="userSpaceOnUse">
            <stop stop-color="#FA7071" />
            <stop offset="1" stop-color="#F63277" />
        </linearGradient>
        <linearGradient id="paint34_linear_15024_125" x1="10.5526" y1="26.0867" x2="13.8643"
            y2="28.3302" gradientUnits="userSpaceOnUse">
            <stop stop-color="#FA7071" />
            <stop offset="1" stop-color="#F63277" />
        </linearGradient>
        <linearGradient id="paint35_linear_15024_125" x1="14.1268" y1="26.0867" x2="17.4385"
            y2="28.3302" gradientUnits="userSpaceOnUse">
            <stop stop-color="#FA7071" />
            <stop offset="1" stop-color="#F63277" />
        </linearGradient>
        <linearGradient id="paint36_linear_15024_125" x1="17.6263" y1="26.0867" x2="20.938"
            y2="28.3302" gradientUnits="userSpaceOnUse">
            <stop stop-color="#FA7071" />
            <stop offset="1" stop-color="#F63277" />
        </linearGradient>
        <linearGradient id="paint37_linear_15024_125" x1="21.2001" y1="26.0867" x2="24.5118"
            y2="28.3302" gradientUnits="userSpaceOnUse">
            <stop stop-color="#FA7071" />
            <stop offset="1" stop-color="#F63277" />
        </linearGradient>
        <linearGradient id="paint38_linear_15024_125" x1="24.7743" y1="26.0867" x2="28.086"
            y2="28.3302" gradientUnits="userSpaceOnUse">
            <stop stop-color="#FA7071" />
            <stop offset="1" stop-color="#F63277" />
        </linearGradient>
        <linearGradient id="paint39_linear_15024_125" x1="28.2738" y1="26.0867" x2="31.5855"
            y2="28.3302" gradientUnits="userSpaceOnUse">
            <stop stop-color="#FA7071" />
            <stop offset="1" stop-color="#F63277" />
        </linearGradient>
        <linearGradient id="paint40_linear_15024_125" x1="29.1155" y1="21.882" x2="29.2593"
            y2="22.3413" gradientUnits="userSpaceOnUse">
            <stop stop-color="#FA7071" />
            <stop offset="1" stop-color="#F63277" />
        </linearGradient>
        <linearGradient id="paint41_linear_15024_125" x1="12.2879" y1="21.882" x2="12.4317"
            y2="22.3413" gradientUnits="userSpaceOnUse">
            <stop stop-color="#FA7071" />
            <stop offset="1" stop-color="#F63277" />
        </linearGradient>
    </defs>
</svg>
    