<svg width="160" height="136" viewBox="0 0 160 136" fill="none" xmlns="http://www.w3.org/2000/svg">
    <path fill-rule="evenodd" clip-rule="evenodd" d="M155.424 76.7993C155.011 76.7993 154.617 76.8692 154.247 76.9927C154.157 73.9478 151.638 71.5063 148.541 71.5063C145.387 71.5063 142.83 74.037 142.83 77.159C142.83 77.302 142.837 77.4431 142.848 77.5832C142.297 76.6631 141.286 76.0441 140.127 76.0441C138.381 76.0441 136.964 77.4463 136.964 79.1756C136.964 79.4209 136.996 79.6584 137.049 79.8876C136.723 79.7077 136.348 79.6043 135.948 79.6043C134.696 79.6043 133.68 80.6095 133.68 81.8495C133.68 83.0894 134.696 84.0946 135.948 84.0946C137.201 84.0946 153.828 84.0946 155.424 84.0946C157.458 84.0946 159.108 82.4616 159.108 80.447C159.108 78.4324 157.458 76.7993 155.424 76.7993Z" fill="white"/>
    <path d="M155.424 76.7993C155.011 76.7993 154.617 76.8692 154.247 76.9927C154.157 73.9478 151.638 71.5063 148.541 71.5063C145.387 71.5063 142.83 74.037 142.83 77.159C142.83 77.302 142.837 77.4431 142.848 77.5832C142.297 76.6631 141.286 76.0441 140.127 76.0441C138.381 76.0441 136.964 77.4463 136.964 79.1756C136.964 79.4209 136.996 79.6584 137.049 79.8876C136.723 79.7077 136.348 79.6043 135.948 79.6043C134.696 79.6043 133.68 80.6095 133.68 81.8495C133.68 83.0894 134.696 84.0946 135.948 84.0946C137.201 84.0946 153.828 84.0946 155.424 84.0946C157.458 84.0946 159.108 82.4616 159.108 80.447C159.108 78.4324 157.458 76.7993 155.424 76.7993" stroke="#32333C"/>
    <path fill-rule="evenodd" clip-rule="evenodd" d="M35.2299 68.5396C34.5813 68.5396 33.9596 68.65 33.3771 68.8452C33.2368 64.0343 29.2703 60.1768 24.3946 60.1768C19.4298 60.1768 15.4046 64.1752 15.4046 69.1079C15.4046 69.3338 15.4161 69.5569 15.4323 69.7781C14.5653 68.3244 12.9743 67.3464 11.1499 67.3464C8.39983 67.3464 6.16995 69.5619 6.16995 72.2942C6.16995 72.6817 6.2196 73.057 6.30414 73.4191C5.79075 73.1349 5.2 72.9716 4.57075 72.9716C2.59883 72.9716 1 74.5597 1 76.5189C1 78.478 2.59883 80.0662 4.57075 80.0662C6.54231 80.0662 32.7187 80.0662 35.2299 80.0662C38.4334 80.0662 41.0306 77.4861 41.0306 74.3031C41.0306 71.12 38.4334 68.5396 35.2299 68.5396Z" fill="white"/>
    <path d="M35.23 68.5396C34.5813 68.5396 33.9596 68.65 33.3771 68.8452C33.2368 64.0343 29.2703 60.1768 24.3946 60.1768C19.4298 60.1768 15.4046 64.1752 15.4046 69.1079C15.4046 69.3338 15.4161 69.5569 15.4323 69.7781C14.5653 68.3244 12.9743 67.3464 11.1499 67.3464C8.39983 67.3464 6.16995 69.5619 6.16995 72.2942C6.16995 72.6817 6.2196 73.057 6.30414 73.4191C5.79075 73.1349 5.2 72.9716 4.57075 72.9716C2.59883 72.9716 1 74.5597 1 76.5189C1 78.478 2.59883 80.0662 4.57075 80.0662C6.54231 80.0662 32.7187 80.0662 35.23 80.0662C38.4334 80.0662 41.0306 77.4861 41.0306 74.3031C41.0306 71.12 38.4334 68.5396 35.23 68.5396" stroke="#32333C"/>
    <path fill-rule="evenodd" clip-rule="evenodd" d="M115.991 48.5383C115.759 48.5383 115.536 48.5774 115.327 48.6466C115.277 46.9415 113.855 45.5742 112.107 45.5742C110.327 45.5742 108.884 46.9914 108.884 48.7397C108.884 48.8198 108.888 48.8988 108.894 48.9772C108.583 48.462 108.013 48.1154 107.359 48.1154C106.373 48.1154 105.573 48.9006 105.573 49.869C105.573 50.0063 105.591 50.1394 105.621 50.2677C105.437 50.167 105.226 50.1091 105 50.1091C104.293 50.1091 103.72 50.672 103.72 51.3664C103.72 52.0607 104.293 52.6236 105 52.6236C105.707 52.6236 115.091 52.6236 115.991 52.6236C117.139 52.6236 118.071 51.7092 118.071 50.581C118.071 49.4528 117.139 48.5383 115.991 48.5383Z" fill="white"/>
    <path d="M115.991 48.5383C115.759 48.5383 115.536 48.5774 115.327 48.6466C115.277 46.9415 113.855 45.5742 112.107 45.5742C110.327 45.5742 108.884 46.9914 108.884 48.7397C108.884 48.8198 108.888 48.8988 108.894 48.9772C108.583 48.462 108.013 48.1154 107.359 48.1154C106.373 48.1154 105.573 48.9006 105.573 49.869C105.573 50.0063 105.591 50.1394 105.621 50.2677C105.437 50.167 105.226 50.1091 105 50.1091C104.293 50.1091 103.72 50.672 103.72 51.3664C103.72 52.0607 104.293 52.6236 105 52.6236C105.707 52.6236 115.091 52.6236 115.991 52.6236C117.139 52.6236 118.071 51.7092 118.071 50.581C118.071 49.4528 117.139 48.5383 115.991 48.5383" stroke="#32333C"/>
    <path d="M10.8187 128.657L47.5134 128.783" stroke="#32333C" stroke-linecap="round"/>
    <path d="M77.0328 134.825H123.358" stroke="#32333C" stroke-linecap="round"/>
    <path d="M23.407 122.992H69.7317" stroke="#32333C" stroke-linecap="round"/>
    <path d="M102.776 128.656H149.1" stroke="#32333C" stroke-linecap="round"/>
    <path fill-rule="evenodd" clip-rule="evenodd" d="M76.6265 44.3573C78.4934 40.7644 83.6333 40.7644 85.5001 44.3573L126.716 123.68C128.446 127.009 126.03 130.985 122.279 130.985H39.8474C36.0964 130.985 33.6811 127.009 35.4105 123.68L76.6265 44.3573Z" fill="white"/>
    <path fill-rule="evenodd" clip-rule="evenodd" d="M76.6265 44.3573C78.4934 40.7644 83.6333 40.7644 85.5001 44.3573L126.716 123.68C128.446 127.009 126.03 130.985 122.279 130.985H39.8474C36.0964 130.985 33.6811 127.009 35.4105 123.68L76.6265 44.3573Z" fill="url(#paint0_linear_150_13706)" fill-opacity="0.75"/>
    <path fill-rule="evenodd" clip-rule="evenodd" d="M76.6265 44.3573C78.4934 40.7644 83.6333 40.7644 85.5001 44.3573L126.716 123.68C128.446 127.009 126.03 130.985 122.279 130.985H39.8474C36.0964 130.985 33.6811 127.009 35.4105 123.68L76.6265 44.3573Z" stroke="#32333C"/>
    <path fill-rule="evenodd" clip-rule="evenodd" d="M74.5662 44.3573C76.433 40.7644 81.5729 40.7644 83.4398 44.3573L124.656 123.68C126.385 127.009 123.97 130.985 120.219 130.985H37.787C34.036 130.985 31.6207 127.009 33.3502 123.68L74.5662 44.3573Z" fill="white"/>
    <path fill-rule="evenodd" clip-rule="evenodd" d="M74.5662 44.3573C76.433 40.7644 81.5729 40.7644 83.4398 44.3573L124.656 123.68C126.385 127.009 123.97 130.985 120.219 130.985H37.787C34.036 130.985 31.6207 127.009 33.3502 123.68L74.5662 44.3573Z" fill="url(#paint1_linear_150_13706)" fill-opacity="0.15"/>
    <path fill-rule="evenodd" clip-rule="evenodd" d="M74.5662 44.3573C76.433 40.7644 81.5729 40.7644 83.4398 44.3573L124.656 123.68C126.385 127.009 123.97 130.985 120.219 130.985H37.787C34.036 130.985 31.6207 127.009 33.3502 123.68L74.5662 44.3573Z" stroke="#32333C"/>
    <path fill-rule="evenodd" clip-rule="evenodd" d="M78.3227 45.7539C78.6968 45.0382 79.7212 45.0382 80.0953 45.7539L121.506 124.991C121.854 125.656 121.371 126.454 120.62 126.454H37.7984C37.0472 126.454 36.5642 125.656 36.9121 124.991L78.3227 45.7539Z" fill="url(#paint2_linear_150_13706)" fill-opacity="0.15"/>
    <path fill-rule="evenodd" clip-rule="evenodd" d="M79.2375 102.027C77.4381 101.932 75.9589 100.551 75.7606 98.7494L73.263 76.1258C73.0812 74.4825 74.3148 73.0222 75.9683 72.9218L81.5117 72.5868C81.6231 72.5807 81.7342 72.5801 81.8432 72.5858C83.4301 72.6688 84.6816 74.0336 84.5779 75.6574L83.118 98.5798C82.993 100.54 81.3505 102.057 79.3841 102.032C79.3346 102.031 79.286 102.029 79.2375 102.027Z" fill="url(#paint3_linear_150_13706)" fill-opacity="0.5"/>
    <path fill-rule="evenodd" clip-rule="evenodd" d="M79.227 116.453C78.8217 116.46 78.4111 116.423 77.9979 116.337C74.9936 115.717 73.0623 112.783 73.6848 109.785C74.221 107.198 76.4834 105.409 79.0229 105.365C79.4273 105.357 79.8378 105.394 80.2511 105.48C83.2554 106.101 85.1867 109.035 84.5651 112.033C84.028 114.62 81.7666 116.409 79.227 116.453Z" fill="url(#paint4_linear_150_13706)" fill-opacity="0.5"/>
    <path fill-rule="evenodd" clip-rule="evenodd" d="M68.9346 38.2038C68.6195 40.6129 65.7212 41.6678 63.9313 40.0249L40.2423 18.2807C38.5844 16.7589 39.1302 14.0212 41.2449 13.2515L69.1037 3.11173C71.2185 2.34203 73.3963 4.08838 73.1045 6.31984L68.9346 38.2038Z" fill="white"/>
    <path fill-rule="evenodd" clip-rule="evenodd" d="M68.9346 38.2038C68.6195 40.6129 65.7212 41.6678 63.9313 40.0249L40.2423 18.2807C38.5844 16.7589 39.1302 14.0212 41.2449 13.2515L69.1037 3.11173C71.2185 2.34203 73.3963 4.08838 73.1045 6.31984L68.9346 38.2038Z" fill="url(#paint5_linear_150_13706)" fill-opacity="0.75"/>
    <path fill-rule="evenodd" clip-rule="evenodd" d="M68.9346 38.2038C68.6195 40.6129 65.7212 41.6678 63.9313 40.0249L40.2423 18.2807C38.5844 16.7589 39.1302 14.0212 41.2449 13.2515L69.1037 3.11173C71.2185 2.34203 73.3963 4.08838 73.1045 6.31984L68.9346 38.2038Z" stroke="#32333C"/>
    <path fill-rule="evenodd" clip-rule="evenodd" d="M70.0951 36.7815C69.7801 39.1905 66.8817 40.2455 65.0918 38.6025L41.4029 16.8583C39.745 15.3365 40.2908 12.5988 42.4055 11.8291L70.2643 1.68936C72.379 0.919662 74.5568 2.66602 74.265 4.89748L70.0951 36.7815Z" fill="white"/>
    <path fill-rule="evenodd" clip-rule="evenodd" d="M70.0951 36.7815C69.7801 39.1905 66.8817 40.2455 65.0918 38.6025L41.4029 16.8583C39.745 15.3365 40.2908 12.5988 42.4055 11.8291L70.2643 1.68936C72.379 0.919662 74.5568 2.66602 74.265 4.89748L70.0951 36.7815Z" fill="url(#paint6_linear_150_13706)" fill-opacity="0.15"/>
    <path fill-rule="evenodd" clip-rule="evenodd" d="M70.0951 36.7815C69.7801 39.1905 66.8817 40.2455 65.0918 38.6025L41.4029 16.8583C39.745 15.3365 40.2908 12.5988 42.4055 11.8291L70.2643 1.68936C72.379 0.919662 74.5568 2.66602 74.265 4.89748L70.0951 36.7815Z" stroke="#32333C"/>
    <path fill-rule="evenodd" clip-rule="evenodd" d="M68.6477 35.6465C68.4344 37.2478 66.5089 37.9486 65.3163 36.8591L43.1427 16.6026C42.0335 15.5893 42.3958 13.7605 43.8076 13.2467L69.9465 3.73286C71.3583 3.21901 72.8114 4.38707 72.613 5.87631L68.6477 35.6465Z" fill="url(#paint7_linear_150_13706)" fill-opacity="0.15"/>
    <path fill-rule="evenodd" clip-rule="evenodd" d="M60.2061 17.6694C60.8947 17.4588 61.6391 17.7754 61.9599 18.4251L65.9911 26.582C66.284 27.1745 66.0204 27.8916 65.4131 28.1554L63.3771 29.039C63.3361 29.0565 63.2944 29.0719 63.2527 29.0846C62.6454 29.2704 61.9888 28.9288 61.8057 28.3046L59.2201 19.4945C58.999 18.7412 59.4084 17.9466 60.1504 17.6876C60.1691 17.6811 60.1876 17.675 60.2061 17.6694Z" fill="url(#paint8_linear_150_13706)" fill-opacity="0.5"/>
    <path fill-rule="evenodd" clip-rule="evenodd" d="M58.2376 12.249C58.3889 12.1909 58.5482 12.149 58.7151 12.1245C59.9282 11.9469 61.0547 12.7851 61.2308 13.9964C61.383 15.0413 60.778 16.0227 59.8303 16.3864C59.6795 16.4444 59.5202 16.4867 59.3534 16.5111C58.1402 16.6884 57.0137 15.8501 56.8372 14.639C56.6853 13.5939 57.29 12.6127 58.2376 12.249Z" fill="url(#paint9_linear_150_13706)" fill-opacity="0.5"/>
    <path fill-rule="evenodd" clip-rule="evenodd" d="M85.8011 12.7067C85.1799 11.2108 86.5017 9.63561 88.0827 9.98754L106.218 14.0243C107.682 14.3503 108.28 16.1128 107.315 17.2621L96.3048 30.384C95.3404 31.5333 93.5009 31.251 92.9256 29.8654L85.8011 12.7067Z" fill="white"/>
    <path fill-rule="evenodd" clip-rule="evenodd" d="M85.8011 12.7067C85.1799 11.2108 86.5017 9.63561 88.0827 9.98754L106.218 14.0243C107.682 14.3503 108.28 16.1128 107.315 17.2621L96.3048 30.384C95.3404 31.5333 93.5009 31.251 92.9256 29.8654L85.8011 12.7067Z" fill="url(#paint10_linear_150_13706)" fill-opacity="0.75"/>
    <path fill-rule="evenodd" clip-rule="evenodd" d="M85.8011 12.7067C85.1799 11.2108 86.5017 9.63561 88.0827 9.98754L106.218 14.0243C107.682 14.3503 108.28 16.1128 107.315 17.2621L96.3048 30.384C95.3404 31.5333 93.5009 31.251 92.9256 29.8654L85.8011 12.7067Z" stroke="#32333C"/>
    <path fill-rule="evenodd" clip-rule="evenodd" d="M85.2188 14.4006C84.5977 12.9046 85.9195 11.3295 87.5005 11.6814L105.636 15.7181C107.1 16.0441 107.698 17.8066 106.733 18.9559L95.7226 32.0779C94.7582 33.2272 92.9187 32.9449 92.3434 31.5592L85.2188 14.4006Z" fill="white"/>
    <path fill-rule="evenodd" clip-rule="evenodd" d="M85.2188 14.4006C84.5977 12.9046 85.9195 11.3295 87.5005 11.6814L105.636 15.7181C107.1 16.0441 107.698 17.8066 106.733 18.9559L95.7226 32.0779C94.7582 33.2272 92.9187 32.9449 92.3434 31.5592L85.2188 14.4006Z" fill="url(#paint11_linear_150_13706)" fill-opacity="0.15"/>
    <path fill-rule="evenodd" clip-rule="evenodd" d="M85.2188 14.4006C84.5977 12.9046 85.9195 11.3295 87.5005 11.6814L105.636 15.7181C107.1 16.0441 107.698 17.8066 106.733 18.9559L95.7226 32.0779C94.7582 33.2272 92.9187 32.9449 92.3434 31.5592L85.2188 14.4006Z" stroke="#32333C"/>
    <path fill-rule="evenodd" clip-rule="evenodd" d="M86.0179 13.8465C85.7099 13.0998 86.3684 12.315 87.1573 12.4886L105.452 16.5154C106.186 16.6768 106.486 17.5593 106.003 18.1348L94.8508 31.4258C94.3679 32.0012 93.4467 31.8587 93.1603 31.1643L86.0179 13.8465Z" fill="url(#paint12_linear_150_13706)" fill-opacity="0.15"/>
    <path fill-rule="evenodd" clip-rule="evenodd" d="M95.9433 21.0094C95.6487 21.3254 95.1669 21.3842 94.8053 21.1428L90.2636 18.1137C89.9336 17.8937 89.8554 17.442 90.0918 17.1228L90.8847 16.0529C90.9008 16.0315 90.9178 16.0109 90.9357 15.9918C91.1955 15.7131 91.6392 15.6936 91.9215 15.963L95.9081 19.7652C96.249 20.0903 96.2746 20.626 95.9668 20.9832C95.959 20.9922 95.9512 21.0009 95.9433 21.0094Z" fill="url(#paint13_linear_150_13706)" fill-opacity="0.5"/>
    <path fill-rule="evenodd" clip-rule="evenodd" d="M98.5923 23.2352C98.5312 23.3107 98.4609 23.3803 98.3816 23.4431C97.8045 23.8993 96.9677 23.8017 96.5128 23.2251C96.1202 22.7278 96.1402 22.0364 96.5235 21.5631C96.5845 21.4877 96.6546 21.418 96.7339 21.3552C97.3111 20.8991 98.148 20.9967 98.603 21.5731C98.9954 22.0706 98.9756 22.7618 98.5923 23.2352Z" fill="url(#paint14_linear_150_13706)" fill-opacity="0.5"/>
    <defs>
        <linearGradient id="paint0_linear_150_13706" x1="40.7454" y1="87.087" x2="86.3583" y2="139.984" gradientUnits="userSpaceOnUse">
            <stop stop-color="#FA7071"/>
            <stop offset="1" stop-color="#F63277"/>
        </linearGradient>
        <linearGradient id="paint1_linear_150_13706" x1="38.685" y1="87.087" x2="84.298" y2="139.984" gradientUnits="userSpaceOnUse">
            <stop stop-color="#FA7071"/>
            <stop offset="1" stop-color="#F63277"/>
        </linearGradient>
        <linearGradient id="paint2_linear_150_13706" x1="44.0988" y1="88.4465" x2="83.5562" y2="134.471" gradientUnits="userSpaceOnUse">
            <stop stop-color="#FA7071"/>
            <stop offset="1" stop-color="#F63277"/>
        </linearGradient>
        <linearGradient id="paint3_linear_150_13706" x1="73.6434" y1="88.09" x2="83.7431" y2="93.0475" gradientUnits="userSpaceOnUse">
            <stop stop-color="#FA7071"/>
            <stop offset="1" stop-color="#F63277"/>
        </linearGradient>
        <linearGradient id="paint4_linear_150_13706" x1="74.6023" y1="111.417" x2="80.0464" y2="117.295" gradientUnits="userSpaceOnUse">
            <stop stop-color="#FA7071"/>
            <stop offset="1" stop-color="#F63277"/>
        </linearGradient>
        <linearGradient id="paint5_linear_150_13706" x1="76.3177" y1="19.1605" x2="51.9525" y2="5.53082" gradientUnits="userSpaceOnUse">
            <stop stop-color="#FA7071"/>
            <stop offset="1" stop-color="#F63277"/>
        </linearGradient>
        <linearGradient id="paint6_linear_150_13706" x1="77.4783" y1="17.7381" x2="53.113" y2="4.10846" gradientUnits="userSpaceOnUse">
            <stop stop-color="#FA7071"/>
            <stop offset="1" stop-color="#F63277"/>
        </linearGradient>
        <linearGradient id="paint7_linear_150_13706" x1="75.2592" y1="17.9675" x2="54.1457" y2="6.07731" gradientUnits="userSpaceOnUse">
            <stop stop-color="#FA7071"/>
            <stop offset="1" stop-color="#F63277"/>
        </linearGradient>
        <linearGradient id="paint8_linear_150_13706" x1="64.2125" y1="22.1398" x2="59.7417" y2="21.6589" gradientUnits="userSpaceOnUse">
            <stop stop-color="#FA7071"/>
            <stop offset="1" stop-color="#F63277"/>
        </linearGradient>
        <linearGradient id="paint9_linear_150_13706" x1="60.663" y1="13.5085" x2="57.8144" y2="12.0453" gradientUnits="userSpaceOnUse">
            <stop stop-color="#FA7071"/>
            <stop offset="1" stop-color="#F63277"/>
        </linearGradient>
        <linearGradient id="paint10_linear_150_13706" x1="87.53" y1="24.4613" x2="104.279" y2="24.2339" gradientUnits="userSpaceOnUse">
            <stop stop-color="#FA7071"/>
            <stop offset="1" stop-color="#F63277"/>
        </linearGradient>
        <linearGradient id="paint11_linear_150_13706" x1="86.9478" y1="26.1551" x2="103.697" y2="25.9277" gradientUnits="userSpaceOnUse">
            <stop stop-color="#FA7071"/>
            <stop offset="1" stop-color="#F63277"/>
        </linearGradient>
        <linearGradient id="paint12_linear_150_13706" x1="88.032" y1="25.3701" x2="102.57" y2="25.2144" gradientUnits="userSpaceOnUse">
            <stop stop-color="#FA7071"/>
            <stop offset="1" stop-color="#F63277"/>
        </linearGradient>
        <linearGradient id="paint13_linear_150_13706" x1="92.5204" y1="19.8884" x2="94.9878" y2="18.797" gradientUnits="userSpaceOnUse">
            <stop stop-color="#FA7071"/>
            <stop offset="1" stop-color="#F63277"/>
        </linearGradient>
        <linearGradient id="paint14_linear_150_13706" x1="96.9542" y1="23.3083" x2="98.8733" y2="23.214" gradientUnits="userSpaceOnUse">
            <stop stop-color="#FA7071"/>
            <stop offset="1" stop-color="#F63277"/>
        </linearGradient>
    </defs>
</svg>
