<?xml version="1.0" encoding="utf-8"?>
<!-- Generator: Adobe Illustrator 25.4.1, SVG Export Plug-In . SVG Version: 6.00 Build 0)  -->
<svg version="1.1" id="Layer_1"
	xmlns="http://www.w3.org/2000/svg"
	xmlns:xlink="http://www.w3.org/1999/xlink" x="0px" y="0px" viewBox="0 0 220 30.17" style="enable-background:new 0 0 220 30.17;" xml:space="preserve">
	<style type="text/css">
	.st0{fill:#0B98D5;}
	.st1{fill:#FFFFFF;}
	</style>
	<g>
		<polygon class="st0" points="189.16,26.94 189.16,20.37 195.73,20.37 195.73,9.87 189.16,9.87 189.16,3.3 178.7,3.3 178.7,9.87 
		172.13,9.87 172.13,20.37 178.7,20.37 178.7,26.94 	"/>
		<path class="st0" d="M192,25.72c0-0.71,0.59-1.31,1.32-1.31c0.72,0,1.3,0.6,1.3,1.31c0,0.73-0.59,1.32-1.3,1.32
		C192.59,27.04,192,26.46,192,25.72 M194.42,25.72c0-0.64-0.47-1.1-1.1-1.1c-0.65,0-1.11,0.46-1.11,1.1c0,0.65,0.46,1.11,1.11,1.11
		C193.96,26.83,194.42,26.37,194.42,25.72 M193.02,26.47h-0.2v-1.5h0.65c0.4,0,0.53,0.15,0.53,0.42c0,0.29-0.21,0.39-0.46,0.42
		l0.44,0.67h-0.21l-0.42-0.67h-0.32V26.47z M193.28,25.63c0.21,0,0.51,0.03,0.51-0.25c0-0.21-0.18-0.24-0.36-0.24h-0.41v0.49H193.28
		z"/>
		<path class="st0" d="M214.55,25.72c0-0.71,0.59-1.31,1.32-1.31c0.72,0,1.31,0.6,1.31,1.31c0,0.73-0.59,1.32-1.31,1.32
		C215.14,27.04,214.55,26.46,214.55,25.72 M216.98,25.72c0-0.64-0.46-1.1-1.11-1.1c-0.64,0-1.11,0.46-1.11,1.1
		c0,0.65,0.47,1.11,1.11,1.11C216.51,26.83,216.98,26.37,216.98,25.72 M215.57,26.47h-0.19v-1.5h0.65c0.39,0,0.53,0.15,0.53,0.42
		c0,0.29-0.21,0.39-0.47,0.42l0.45,0.67h-0.22l-0.42-0.67h-0.32V26.47z M215.84,25.63c0.21,0,0.5,0.03,0.5-0.25
		c0-0.21-0.17-0.24-0.35-0.24h-0.41v0.49H215.84z"/>
		<path class="st0" d="M208.34,27.19c4.54-2.51,7.28-6.49,8.7-10.87c1.47-4.54,1.2-9.97-0.51-13.32c-2.59,1.3-5.17,2-8.19,2.02
		c-3.03,0.01-5.62-0.73-8.21-2.03c-1.7,3.35-1.97,8.79-0.5,13.33C201.06,20.7,203.81,24.68,208.34,27.19"/>
		<path class="st1" d="M183.95,8.65L183.95,8.65c-2.61,0-4.85,1.53-5.88,3.75h4.62c0.66-0.01,0.95-0.41,0.96-0.71
		c0.02-0.38-0.04-0.49-0.35-0.89c-0.33-0.44-0.1-1.3,0.65-1.31c0.76,0.01,0.99,0.87,0.65,1.31c-0.3,0.41-0.36,0.52-0.35,0.89
		c0.01,0.3,0.3,0.7,0.96,0.71h4.62C188.8,10.18,186.54,8.65,183.95,8.65 M182.62,11.51h-2.92c0.7-0.82,1.63-1.42,2.69-1.74
		c-0.33,0.55-0.06,1.26,0.25,1.6C182.7,11.43,182.67,11.49,182.62,11.51 M185.27,11.51c-0.05-0.01-0.08-0.08-0.02-0.13
		c0.31-0.34,0.58-1.05,0.25-1.6c1.06,0.31,2,0.92,2.69,1.74H185.27z"/>
		<path class="st1" d="M182.23,13.27l-4.35-0.42c-0.27,0.71-0.42,1.48-0.42,2.28c0,2.07,0.97,3.92,2.48,5.1v0.02l2.98-5.61
		C183.14,14.18,183.05,13.38,182.23,13.27 M182.02,14.37l-2.31,4.41c-0.84-0.99-1.35-2.25-1.35-3.64c0-0.46,0.05-0.91,0.16-1.33
		l3.3,0.3C182.05,14.13,182.07,14.23,182.02,14.37"/>
		<polygon class="st1" points="177.87,12.85 177.88,12.86 177.88,12.85 	"/>
		<polygon class="st1" points="190.02,12.85 190.02,12.85 190.02,12.85 	"/>
		<path class="st1" d="M190.43,15.14c0-0.8-0.14-1.57-0.41-2.29l-4.35,0.42c-0.82,0.11-0.92,0.91-0.7,1.37l2.98,5.61l0-0.02
		C189.46,19.06,190.43,17.21,190.43,15.14 M185.88,14.37c-0.05-0.14-0.04-0.24,0.2-0.26l3.3-0.3c0.1,0.42,0.16,0.87,0.16,1.33
		c0,1.39-0.51,2.66-1.35,3.64L185.88,14.37z"/>
		<polygon class="st1" points="180.38,20.57 180.38,20.56 180.38,20.55 	"/>
		<path class="st1" d="M183.54,15.84l-3.16,4.72c1.02,0.68,2.24,1.07,3.57,1.07c1.31,0,2.53-0.39,3.55-1.07l-3.16-4.72
		C184.13,15.53,183.77,15.51,183.54,15.84 M183.95,20.73c-0.82,0-1.58-0.18-2.27-0.49l2.18-3.34c0.03-0.03,0.06-0.05,0.09-0.05
		c0.03,0,0.06,0.02,0.09,0.05l2.18,3.34C185.53,20.55,184.76,20.73,183.95,20.73"/>
		<polygon class="st1" points="187.51,20.55 187.5,20.56 187.51,20.57 	"/>
		<polygon class="st1" points="208.35,25.17 208.34,25.16 208.33,25.17 	"/>
		<path class="st1" d="M215.5,5.55c-1.87,0.64-2.96,0.84-3.97,1c-0.95,0.15-1.79,0.24-3.17,0.26h-0.02
		c-1.38-0.02-2.22-0.11-3.17-0.26c-1.02-0.16-2.12-0.36-3.98-1c-1.25,3.03-0.97,6.92,0.16,10.24c1.27,3.74,3.25,7.05,6.99,9.37
		c3.73-2.32,5.72-5.62,6.99-9.37C216.46,12.47,216.74,8.59,215.5,5.55 M214.87,14.31c-1.14,4.74-4,8.34-6.53,9.93c0,0,0,0,0,0h-0.01
		c0,0,0,0,0.01,0c-2.53-1.59-5.38-5.2-6.53-9.93c-0.61-2.52-0.77-5.35,0.02-7.58c1.13,0.29,2.18,0.54,3.27,0.7
		c1.1,0.14,2.17,0.25,3.23,0.26h0.02c1.06-0.01,2.14-0.12,3.23-0.26c1.09-0.16,2.15-0.41,3.28-0.7
		C215.64,8.96,215.48,11.79,214.87,14.31"/>
		<path class="st1" d="M207.62,21.14c-0.1,0.11-0.33,0.32-0.28,0.77c0.03,0.29,0.09,0.38,0.19,0.58c0.07,0.14,0.19,0.19,0.23,0
		c0.03-0.12-0.07-0.21-0.04-0.46c0.03-0.24,0.16-0.29,0.16-0.29l-0.03-0.76C207.83,20.98,207.73,21.03,207.62,21.14"/>
		<path class="st1" d="M207.34,14.11c0.26,0.48,0.41,0.7,0.54,1.35c0.37,0.04,0.63,0.09,1.03,0.16l0.05-1.78c0,0-0.25-0.11-0.63-0.13
		c-0.49-0.04-0.7-0.06-0.7-0.06l0.01,0.15c0,0-0.26,0.07-0.29,0.13C207.33,13.97,207.28,14.01,207.34,14.11"/>
		<path class="st1" d="M209.43,16.14c-0.43-0.14-1.22-0.24-1.82-0.32c-0.09-0.01-0.23-0.07-0.25-0.21c-0.02-0.15,0.17-0.18,0.17-0.18
		s-0.04-0.14-0.12-0.36c-0.05-0.13-0.17-0.38-0.3-0.62c-0.4,0.17-0.98,0.34-1.02,0.89c-0.05,0.82,0.56,1.3,1.42,1.45
		c0.47,0.08,0.91,0.13,1.4,0.19c0.06,0,0.21,0.02,0.32,0.06c0.08,0.04,0.13,0.12,0.14,0.17c0.01,0.09,0,0.13-0.06,0.19
		c-0.05,0.06-0.12,0.08-0.12,0.08l-0.03,0.98c0,0,0.33-0.02,0.65-0.21c0.3-0.19,0.49-0.41,0.56-0.71c0.08-0.34,0.02-0.6-0.22-0.94
		C209.99,16.41,209.71,16.24,209.43,16.14"/>
		<path class="st1" d="M208.83,18.92l0.03-1.62c-0.33-0.04-0.47-0.05-0.86-0.1l0.08,1.34l0.38,0.18L208.83,18.92z"/>
		<path class="st1" d="M209.13,19.41c-0.42-0.25-0.99-0.47-1.37-0.65c-0.03-0.01-0.16-0.09-0.12-0.24c0.02-0.07,0.1-0.1,0.1-0.1
		l-0.06-0.81c0,0-0.21,0.06-0.35,0.15c-0.13,0.08-0.37,0.21-0.46,0.43c-0.24,0.57-0.03,1.09,0.57,1.35
		c0.25,0.11,0.61,0.22,0.88,0.32c0.26,0.11,0.76,0.43,0.79,0.57c0.02,0.09-0.06,0.16-0.06,0.16l-0.02,0.7c0,0,0.26-0.06,0.46-0.24
		c0.2-0.16,0.34-0.37,0.34-0.72C209.84,19.95,209.67,19.72,209.13,19.41"/>
		<path class="st1" d="M208.47,20.23c-0.12-0.08-0.39-0.16-0.39-0.16s0.05,1.76,0.07,2.68c0.01,0.21,0.1,0.28,0.31,0.28
		c0.24,0,0.29-0.1,0.29-0.23c0.01-0.3,0.04-1.56,0.06-2.23c0.01-0.06-0.02-0.07-0.04-0.11C208.64,20.34,208.5,20.26,208.47,20.23"/>
		<path class="st1" d="M210.41,9.37c-0.4,0.17-0.67,0.54-1.07,0.76c-0.05,0.02-0.12,0.03-0.14-0.03c-0.05-0.2,0.05-0.62-0.01-0.91
		c-0.03-0.13-0.03-0.15-0.12-0.22c-0.43-0.07-0.78-0.27-1.1-0.45c-0.07-0.04-0.3-0.03-0.36,0.07c-0.07,0.14-0.03,0.43-0.03,0.43
		s0.42,0.16,0.56,0.33c0.12,0.11,0.2,0.28,0.27,0.37c0.05,0.07,0.12,0.13,0.18,0.2c0.1,0.1,0.13,0.21,0.11,0.28
		c-0.03,0.05-0.17,0.1-0.31,0.12c-0.3,0.02-0.54,0.03-0.54,0.03s0.64,0.08,0.91,0.15c0.15,0.04,0.22,0.09,0.28,0.15
		c0.03,0.04,0.1,0.2,0.08,0.25c-0.44-0.2-0.81-0.35-1.24-0.41c0.04,0.01,0.21,0.07,0.28,0.12c0.07,0.05,0.08,0.15,0.08,0.17
		c-0.05,0.34-0.62,0.34-0.62,0.34l0.02,0.48c0.44,0.09,1,0.1,1.56,0.21c0,0,0.08-0.16,0.12-0.21c0.15-0.24,0.35-0.36,0.57-0.56
		c0.33-0.31,0.66-0.56,0.91-0.79c0.12-0.11,0.17-0.11,0.22-0.29C211.14,9.56,210.6,9.29,210.41,9.37"/>
		<path class="st1" d="M210.01,12.42c-1-0.51-2.08-0.33-3.1-0.65c-0.29-0.1-0.63-0.23-0.72-0.57c-0.05-0.21-0.05-0.42,0.1-0.51
		c0.23-0.14,0.41,0.09,0.78,0.17c0.23,0.04,0.48,0.04,0.67-0.01c0.08-0.03,0.2-0.05,0.21-0.11c0-0.07-0.14-0.1-0.19-0.13
		c-0.12-0.05-0.21-0.05-0.33-0.11c-0.21-0.08-0.42-0.22-0.64-0.34c0.2-0.04,0.52-0.05,0.72-0.03c0.16,0.02,0.63,0.02,0.78-0.03
		c0.02,0,0.1-0.03,0.06-0.08c-0.05-0.1-0.14-0.13-0.21-0.22c-0.14-0.19-0.25-0.39-0.48-0.48c-0.65-0.25-1.38-0.32-2.02,0.02
		c-0.85,0.44-1.25,1.55-0.81,2.44c0.35,0.73,1.02,1.09,1.81,1.29c0.39,0.1,0.73,0.15,1.14,0.2c0.49,0.05,0.91,0.08,1.38,0.19
		c0.09,0.02,0.27,0.1,0.31,0.2c0.09,0.18,0.04,0.4-0.18,0.49c-0.01,0.4-0.06,1.26-0.06,1.26s2.01-0.22,1.67-1.99
		C210.83,13.02,210.4,12.62,210.01,12.42 M207.75,9.64c-0.03-0.01-0.12-0.03-0.14-0.02c-0.08,0.06-0.14,0.12-0.23,0.13
		c-0.19,0.03-0.16-0.13-0.28-0.22c-0.08-0.05-0.16,0.01-0.22-0.11C207.14,9.42,207.54,9.42,207.75,9.64"/>
		<path class="st0" d="M18.34,10.47c3.03,0,4.29,0.19,4.67,0.43c0.12-0.12,0.38-0.43,0.38-0.99c0-1.36-1.64-2.72-5.23-2.72
		c-5.17,0-10.47,1.67-14.57,1.79c-0.25,1.05,0.06,2.41,2.27,2.41c0.81,0,1.79-0.07,2.85-0.17C3.47,18.98,2,22.34,2,24.86
		c0,1.48,1.89,1.42,2.27,0.37c0.89-2.35,2.29-4.61,3.73-6.67c2.98-0.03,6.84-0.32,8.82-0.55c2.02-0.25,2.52-0.93,2.65-1.48
		c0.19-1.17-0.57-1.55-1.89-1.55c-1.58,0-4.86,0.31-7.44,0.63c1.42-1.92,2.62-3.58,3.07-4.85C14.89,10.6,16.64,10.47,18.34,10.47"/>
		<path class="st0" d="M32.01,4.47c-0.75-0.51-1.68-0.34-2.2,0.34c-7.13,9.13-9.85,14.86-9.85,17.99c0,1.87,0.99,2.67,2.43,2.67
		c1.8,0,3.65-1.19,7.82-5.16c-0.75,2.38-0.29,5.33,2.9,5.33c2.84,0,6.78-4.25,7.94-7.6c1.62-0.46,3.59-1.36,5.85-2.5
		c-1.27,2.5-3.13,6.13-4.05,7.72c-0.58,1.02,0.12,2.38,1.33,2.38c0.69,0,0.98-0.28,1.39-0.79c2.49-3.63,4.46-5.73,8.23-8.17
		c-0.41,0.91-0.35,2.16,0.58,2.5c0.81,0.28,1.74-0.06,2.03-0.79l1.74-4.48c0.29-0.68-0.06-1.36-0.52-1.71
		c-0.52-0.4-1.16-0.51-1.8-0.11c-1.57,0.91-5.04,4.31-7.3,6.47l2.66-4.48c0.35-0.57,0.18-1.47-0.35-1.93
		c-0.58-0.45-1.33-0.45-1.85-0.17c-2.72,1.76-5.1,3.12-7.77,4.03c-0.17-0.57-0.69-1.14-1.62-1.14c-1.56,0-3.02,1.19-3.02,2.33
		c0,0.97,1.04,1.31,1.97,1.25c-1.16,2.38-3.54,4.6-4.75,4.6c-0.46,0-0.7-0.29-0.7-1.02c0-4.54,3.94-8.4,6.78-7.66
		c1.04,0.11,1.04-0.4,1.04-0.68c0-0.62-0.93-1.82-2.55-1.82c-1.91,0-3.71,0.91-6.03,3.69c-5.91,6.24-8.46,7.26-8.86,7.26
		c-0.23,0-0.29-0.12-0.29-0.34c0-1.99,2.55-6.75,9.21-15.83C32.93,5.95,32.76,4.92,32.01,4.47"/>
		<path class="st0" d="M67.52,6.91c-1.27,0-2.66,1.47-2.66,3.12c0,0.62,0.29,0.91,1.16,0.91c1.27,0,2.95-1.31,2.95-2.78
		C68.97,7.31,68.39,6.91,67.52,6.91"/>
		<path class="st0" d="M101.13,19.11c-3.48,3.23-5.16,3.69-6.32,3.69c-0.29,0-0.4-0.12-0.4-0.4c0-1.02,0.58-2.44,1.91-4.31
		c0.52-0.85,0.46-1.76-0.29-2.27c-0.87-0.57-1.91-0.23-2.55,0.62c-3.48,4.71-5.97,6.42-7.13,6.42c-0.23,0-0.4-0.17-0.4-0.46
		c0-2.89,6.08-8.34,10.31-7.6c0.58,0.11,0.93-0.23,0.93-0.57c0-0.62-1.22-1.98-3.36-1.98c-2.55,0-5.45,1.65-7.65,3.8
		c-5.74,6.01-8.11,6.75-8.52,6.75c-0.23,0-0.29-0.12-0.29-0.34c0-1.99,2.43-5.73,9.85-15.6c0.58-0.74,0.35-1.7-0.47-2.21
		c-0.69-0.45-1.62-0.28-2.14,0.4l-5.97,8c-0.64-0.29-1.33-0.57-2.61-0.57c-2.38,0-4.87,1.53-6.89,3.52
		c-6.08,6.01-8.81,6.75-9.16,6.75c-0.18,0-0.29-0.11-0.29-0.28c0-1.25,1.56-3.8,4.98-8.34c0.52-0.68,0.29-1.76-0.4-2.15
		c-0.93-0.57-1.8-0.28-2.26,0.34c-4.11,5.11-5.62,8.57-5.62,10.5c0,1.87,0.92,2.67,2.43,2.67c1.51,0,3.54-1.08,6.89-4.03
		c-0.46,2.04-0.11,4.31,2.32,4.31c1.68,0,3.71-1.19,6.26-3.52c-0.29,1.99,0.46,3.23,2.26,3.23c1.33,0,2.95-0.85,6.14-3.69
		c-0.35,1.87,0,3.97,2.44,3.97c1.62,0,3.59-1.08,6.14-3.46c-0.17,1.87,0.69,3.17,2.61,3.17c2.43,0,4.46-1.42,6.14-2.89
		C101.48,21.27,102.23,19.51,101.13,19.11 M69.26,22.86c-0.17,0-0.35-0.17-0.35-0.51c0-2.44,4.98-7.66,8.57-7.49
		C73.72,20.7,70.54,22.86,69.26,22.86"/>
		<path class="st0" d="M128.42,10.43c0-2.04-2.84-3.29-6.2-3.23c-4.58,0.06-9.27,1.31-10.66,1.7c-0.64,0.17-0.93,0.62-0.81,1.13
		c0.12,0.57,0.64,0.85,1.04,0.85c0.58,0,1.85-0.62,4.58-1.02c-1.51,2.5-5.85,9.42-8.05,12.82h-0.58c-0.81,0-1.45,0.62-1.45,1.48
		c0,1.13,1.1,1.42,3.01,1.42c10.83,0,15.24-2.33,15.24-5.79c0-2.55-3.48-4.03-3.48-4.54C121.06,14.57,128.42,13.55,128.42,10.43
		 M121.35,20.64c0,2.61-6.55,2.61-9.5,2.33c2.43-3.8,7.24-11.29,8.52-13.39h1.33c1.39,0,3.25,0.4,3.25,1.31
		c0,2.27-7.36,2.67-7.36,5.05C117.58,17.8,121.35,19.28,121.35,20.64"/>
		<path class="st0" d="M137.92,4.47c-0.76-0.56-1.74-0.28-2.26,0.4c-7.24,9.19-9.91,15.04-9.91,18.21c0,1.82,0.93,2.67,2.38,2.67
		c1.97,0,2.96-1.36,7.3-5.5c-0.98,2.55-1.04,5.5,2.03,5.5c1.79,0,4.05-1.47,6.95-4.54c-0.64,2.32,0.35,4.82,2.67,4.82
		c0.75,0,1.16-0.29,1.16-0.57c0-0.23-0.75-1.02-0.75-2.95c0-2.61,1.56-4.99,3.88-7.94c0.52-0.68,0.4-1.65-0.23-2.22
		c-0.64-0.51-1.74-0.51-2.26,0.17c-5.74,6.87-8.64,10.27-10.2,10.27c-0.35,0-0.35-0.17-0.35-0.45c0-1.13,1.51-4.26,4.29-7.89
		c0.52-0.68,0.41-1.59-0.18-2.1c-0.69-0.62-1.68-0.57-2.26,0c-2.49,2.84-3.88,4.37-5.04,5.5c-5.04,4.94-5.5,5.22-5.85,5.22
		c-0.23,0-0.29-0.11-0.29-0.34c0-2.04,2.38-6.75,9.33-16.06C138.85,5.95,138.62,4.92,137.92,4.47"/>
		<path class="st0" d="M154.66,23.14c-1.27,0-1.45-1.19-1.1-2.16c5.16-1.7,8.63-4.26,8.63-6.52c0-1.65-1.1-2.72-3.36-2.72
		c-4.87,0-8.69,6.35-8.69,10.44c0,2.1,0.98,3.69,3.3,3.69c1.85,0,4.34-0.79,6.78-2.72c1.8-1.42,2.26-2.89,1.56-3.46
		C158.49,22.63,155.77,23.14,154.66,23.14 M158.6,14.69c0.4,0,0.69,0.23,0.69,0.51c0,1.02-2.38,2.44-5.1,3.57
		C155.01,16.9,156.69,14.69,158.6,14.69"/>
	</g>
</svg>
