<svg version="1.1" id="Layer_1" xmlns="http://www.w3.org/2000/svg" xmlns:xlink="http://www.w3.org/1999/xlink" x="0px" y="0px"
	 viewBox="0 0 250 250" style="enable-background:new 0 0 250 250;" xml:space="preserve">
<style type="text/css">
	.st0{fill:#0D880B;}
	.st1{fill:none;}
</style>
<g>
	<path class="st0" d="M137,244c-7.9,0-15.9,0-23.8,0c-2-0.6-4-0.4-6.1-0.7c-50-8.9-82.2-38-97.3-86.1C7.6,150,6.8,144.2,6,135
		c0-7.8-0.4-10-0.1-16.2c0.6-2.3,0.6-6.8,0.9-9.1C15.1,51,65.3,7.2,124.4,7.3c61.2,0,112.1,46.6,118.1,108
		c5.8,59.7-35.7,115.2-95,127.1C144,243.1,140.5,243.1,137,244z M169.6,139.1c0-26.8,0-53.6,0-80.4c0-12.8-2.2-15.2-14.7-15.2
		c-21.1,0-42.1,0-63.2,0c-11.8,0-14,2.2-14.1,13.8c0,21.7,0,43.3,0,65c0,5.7,0,11.3,0,17.2c-3.4,0.2-5.6,0.4-7.6,0.5
		c-6.5,0.4-12.7,0.6-12.7,4.9c-0.9,4.6,3,8.4,5.9,11.3c17.2,17.8,34.8,35.2,52.3,52.6c7.5,7.4,10,7.4,17.4,0
		c15.6-15.5,31.3-30.9,46.4-46.8c4.3-4.5,10.3-11.1,9.5-15.8c-1.3-8.4-10.8-5.1-17.1-6.2C171.5,140,171.3,139.8,169.6,139.1z"/>
</g>
<path class="st1" d="M-70.4,15.4H82v152.3H-70.4V15.4z"/>
<path class="st0" d="M126.2,113.5c-13.3-3.7-17.5-7.4-17.5-13.3c0-6.8,5.9-11.5,15.8-11.5c8.3,0,12.5,3.4,14,8.7
	c0.7,2.5,2.6,4.3,5.1,4.3h1.8c3.9,0,6.6-4,5.3-7.9c-2.5-7.3-8.2-13.4-17.3-15.8v-4.3c0-5.2-3.9-9.3-8.8-9.3c-4.9,0-8.8,4.2-8.8,9.3
	v4.1c-11.3,2.6-20.5,10.4-20.5,22.4c0,14.3,11.2,21.5,27.5,25.6c14.6,3.7,17.5,9.2,17.5,15c0,4.3-2.9,11.1-15.8,11.1
	c-9.6,0-14.6-3.7-16.5-8.9c-0.9-2.4-2.9-4.2-5.3-4.2H101c-3.9,0-6.7,4.2-5.2,8.1c3.3,8.6,11.1,13.7,19.9,15.7v4.2
	c0,5.2,3.9,9.3,8.8,9.3c4.9,0,8.8-4.2,8.8-9.3v-4c11.4-2.3,20.5-9.3,20.5-22C153.7,123.2,139.5,117.2,126.2,113.5z"/>
</svg>
