<svg width="15" height="15" viewBox="0 0 15 15" fill="none" xmlns="http://www.w3.org/2000/svg">
    <path fill-rule="evenodd" clip-rule="evenodd" d="M7.5 1.875C4.39819 1.875 1.875 4.39819 1.875 7.5C1.875 10.6018 4.39819 13.125 7.5 13.125C10.6018 13.125 13.125 10.6018 13.125 7.5C13.125 4.39819 10.6018 1.875 7.5 1.875ZM7.5 2.8125C7.65747 2.8125 7.81494 2.82715 7.96875 2.8418V4.2627C7.81494 4.24072 7.6593 4.21875 7.5 4.21875C7.3407 4.21875 7.18506 4.24072 7.03125 4.2627V2.8418C7.18506 2.82715 7.34253 2.8125 7.5 2.8125ZM6.09375 3.01758V4.54102C5.4126 4.86694 4.86511 5.4126 4.54102 6.09375H3.03223C3.48816 4.62891 4.63257 3.47534 6.09375 3.01758ZM8.90625 3.01758C10.3656 3.47534 11.5247 4.6344 11.9824 6.09375H10.459C10.1349 5.4126 9.5874 4.86511 8.90625 4.54102V3.01758ZM7.5 5.15625C8.80005 5.15625 9.84375 6.19995 9.84375 7.5C9.84375 8.80005 8.80005 9.84375 7.5 9.84375C6.19995 9.84375 5.15625 8.80005 5.15625 7.5C5.15625 6.19995 6.19995 5.15625 7.5 5.15625ZM2.8418 7.03125H4.24805C4.22607 7.18323 4.21875 7.34253 4.21875 7.5C4.21875 7.6593 4.24072 7.81494 4.2627 7.96875H2.8418C2.82715 7.81494 2.8125 7.65747 2.8125 7.5C2.8125 7.34253 2.82715 7.18506 2.8418 7.03125ZM10.7373 7.03125H12.1582C12.1729 7.18506 12.1875 7.34253 12.1875 7.5C12.1875 7.65747 12.1729 7.81494 12.1582 7.96875H10.7373C10.7593 7.81494 10.7812 7.6593 10.7812 7.5C10.7812 7.3407 10.7593 7.18506 10.7373 7.03125ZM3.01758 8.90625H4.54102C4.86511 9.5874 5.4126 10.1349 6.09375 10.459V11.9824C4.6344 11.5247 3.47534 10.3656 3.01758 8.90625ZM10.459 8.90625H11.9824C11.5247 10.3656 10.3656 11.5247 8.90625 11.9824V10.459C9.5874 10.1349 10.1349 9.5874 10.459 8.90625ZM7.03125 10.7373C7.18506 10.7593 7.3407 10.7812 7.5 10.7812C7.6593 10.7812 7.81494 10.7593 7.96875 10.7373V12.1582C7.81494 12.1729 7.65747 12.1875 7.5 12.1875C7.34253 12.1875 7.18506 12.1729 7.03125 12.1582V10.7373Z" fill="#6D7278"/>
</svg>
