<svg width="30" height="30" viewBox="0 0 30 30" fill="none" xmlns="http://www.w3.org/2000/svg">
    <path fill-rule="evenodd" clip-rule="evenodd" d="M15 3.75C8.79639 3.75 3.75 8.79639 3.75 15C3.75 21.2036 8.79639 26.25 15 26.25C21.2036 26.25 26.25 21.2036 26.25 15C26.25 8.79639 21.2036 3.75 15 3.75ZM15 5.625C15.3149 5.625 15.6299 5.6543 15.9375 5.68359V8.52539C15.6299 8.48145 15.3186 8.4375 15 8.4375C14.6814 8.4375 14.3701 8.48145 14.0625 8.52539V5.68359C14.3701 5.6543 14.6851 5.625 15 5.625ZM12.1875 6.03516V9.08203C10.8252 9.73389 9.73022 10.8252 9.08203 12.1875H6.06445C6.97632 9.25781 9.26514 6.95068 12.1875 6.03516ZM17.8125 6.03516C20.7312 6.95068 23.0493 9.2688 23.9648 12.1875H20.918C20.2698 10.8252 19.1748 9.73022 17.8125 9.08203V6.03516ZM15 10.3125C17.6001 10.3125 19.6875 12.3999 19.6875 15C19.6875 17.6001 17.6001 19.6875 15 19.6875C12.3999 19.6875 10.3125 17.6001 10.3125 15C10.3125 12.3999 12.3999 10.3125 15 10.3125ZM5.68359 14.0625H8.49609C8.45215 14.3665 8.4375 14.6851 8.4375 15C8.4375 15.3186 8.48145 15.6299 8.52539 15.9375H5.68359C5.6543 15.6299 5.625 15.3149 5.625 15C5.625 14.6851 5.6543 14.3701 5.68359 14.0625ZM21.4746 14.0625H24.3164C24.3457 14.3701 24.375 14.6851 24.375 15C24.375 15.3149 24.3457 15.6299 24.3164 15.9375H21.4746C21.5186 15.6299 21.5625 15.3186 21.5625 15C21.5625 14.6814 21.5186 14.3701 21.4746 14.0625ZM6.03516 17.8125H9.08203C9.73022 19.1748 10.8252 20.2698 12.1875 20.918V23.9648C9.2688 23.0493 6.95068 20.7312 6.03516 17.8125ZM20.918 17.8125H23.9648C23.0493 20.7312 20.7312 23.0493 17.8125 23.9648V20.918C19.1748 20.2698 20.2698 19.1748 20.918 17.8125ZM14.0625 21.4746C14.3701 21.5186 14.6814 21.5625 15 21.5625C15.3186 21.5625 15.6299 21.5186 15.9375 21.4746V24.3164C15.6299 24.3457 15.3149 24.375 15 24.375C14.6851 24.375 14.3701 24.3457 14.0625 24.3164V21.4746Z" fill="#E02062"/>
</svg>
