<svg xmlns="http://www.w3.org/2000/svg" width="106" height="22" viewBox="0 0 106 22">
  <path fill="#78BE43" d="M28.54 5.68C28.25 5.68 27.97 5.92 27.97 6.26L27.97 18.04C27.07 18.25 26.17 18.35 25.26 18.35 23.23 18.35 22.49 17.59 22.49 15.37L22.49 6.26C22.49 5.88 22.2 5.68 21.94 5.68L18.84 5.68 18.84 15.4C18.84 19.96 21.25 21.44 25.15 21.44 28.27 21.44 31.35 20.54 31.61 20.47L31.61 5.68 28.54 5.68zM75.94 21.26C76.23 21.26 76.51 21.02 76.51 20.68L76.51 8.79C77.41 8.58 78.31 8.49 79.22 8.49 81.25 8.49 81.99 9.25 81.99 11.47L81.99 20.69C81.99 21.07 82.28 21.27 82.54 21.27L85.64 21.27 85.64 11.45C85.64 6.89 83.23 5.41 79.33 5.41 76.21 5.41 73.13 6.31 72.87 6.38L72.87 21.28 75.94 21.28 75.94 21.26zM63.56 5.41C59.54 5.41 57.01 7.59 57.01 12.25L57.01 14.59C57.01 19.75 59.75 21.43 62.72 21.43 64.18 21.43 65.69 20.41 66.18 19.75L66.18 20.71C66.18 20.96 66.4 21.25 66.73 21.25 66.73 21.25 69.7 21.25 69.83 21.25L69.83 6.31C69.82 6.31 66.78 5.41 63.56 5.41zM66.18 17.47C65.51 18.04 64.98 18.4 63.56 18.45 61.52 18.45 60.65 17.21 60.65 14.55L60.65 12.4C60.65 9.34 61.78 8.5 63.56 8.5 65.06 8.5 65.88 8.62 66.18 8.69L66.18 17.47zM94.74 5.41C90.72 5.41 88.19 7.59 88.19 12.25L88.19 14.59C88.19 19.75 90.93 21.43 93.9 21.43 95.36 21.43 96.87 20.41 97.36 19.75L97.36 20.71C97.36 20.96 97.58 21.25 97.91 21.25 97.91 21.25 100.88 21.25 101.01 21.25L101.01 6.31C101 6.31 97.96 5.41 94.74 5.41zM97.36 17.47C96.69 18.04 96.16 18.4 94.74 18.45 92.71 18.45 91.83 17.21 91.83 14.55L91.83 12.4C91.83 9.34 92.96 8.5 94.74 8.5 96.24 8.5 97.06 8.62 97.36 8.69L97.36 17.47zM.48 21.26C1.03 21.26 3.75 21.26 3.75 21.26 3.99 21.26 4.3 21.02 4.3 20.71L4.3 12.08 10.33 12.08C11.33 12.08 12.08 12.89 12.08 13.73L12.08 20.7C12.08 20.99 12.33 21.25 12.62 21.25 12.62 21.25 15.71 21.25 15.89 21.25 15.89 21.25 15.89.99 15.89.77L12.62.77C12.34.77 12.08 1.01 12.08 1.29L12.08 8.98 5.8 8.98C4.97 8.98 4.3 8.29 4.3 7.52L4.3 1.29C4.3 1.09 4.1.77 3.75.77L.48.77C.48.98.48 21.26.48 21.26zM48.89 5.4C47.16 5.4 45.51 6.07 44.78 6.59 43.66 5.75 42.13 5.4 40.24 5.4 37.37 5.4 34.99 6.29 34.65 6.42L34.65 21.26 37.74 21.26C38.04 21.26 38.29 21.01 38.29 20.68L38.29 8.76C38.94 8.58 39.54 8.49 40.08 8.49 42.22 8.49 42.74 9.35 42.74 11.47L42.74 20.69C42.74 20.96 42.95 21.27 43.29 21.27L45.84 21.27C46.19 21.27 46.39 21 46.39 20.69L46.39 9.22C46.96 8.73 47.77 8.49 48.52 8.49 50.17 8.49 50.84 9.23 50.84 11.26L50.84 20.69C50.84 20.94 51.02 21.27 51.39 21.27 51.39 21.27 54.24 21.27 54.48003 21.27L54.48003 10.76C54.49 6.77 52 5.4 48.89 5.4zM103.7 18.45C103.89 18.45 104.07 18.49 104.23 18.56 104.39 18.63 104.54 18.73 104.66 18.85 104.78 18.97 104.87 19.12 104.94 19.29 105.01 19.46 105.04 19.64 105.04 19.83 105.04 20.02 105.01 20.2 104.94 20.37 104.87 20.54 104.77 20.68 104.65 20.81 104.53 20.93 104.39 21.03 104.22 21.1 104.06 21.17 103.88 21.21 103.69 21.21 103.5 21.21 103.32 21.17 103.16 21.1 102.99 21.03 102.85 20.93 102.73 20.81 102.61 20.69 102.51 20.54 102.44 20.37 102.37 20.2 102.33 20.02 102.33 19.83 102.33 19.64 102.36 19.46 102.43 19.29 102.5 19.12 102.6 18.98 102.72 18.85 102.84 18.73 102.99 18.63 103.15 18.56 103.33 18.49 103.51 18.45 103.7 18.45zM103.7 18.68C103.55 18.68 103.41 18.71 103.28 18.77 103.15 18.83 103.04 18.91 102.94 19.01 102.84 19.11 102.77 19.23 102.71 19.37 102.65 19.51 102.63 19.66 102.63 19.82 102.63 19.98 102.66 20.13 102.71 20.27 102.76 20.41 102.84 20.53 102.93 20.63 103.03 20.73 103.14 20.81 103.27 20.87 103.4 20.93 103.54 20.96 103.69 20.96 103.84 20.96 103.98 20.93 104.11 20.87 104.24 20.81 104.35 20.73 104.45 20.63 104.55 20.53 104.62 20.41 104.68 20.27 104.73 20.13 104.76 19.98 104.76 19.82 104.76 19.66 104.73 19.51 104.68 19.37 104.63 19.23 104.55 19.11 104.46 19.01 104.36 18.91 104.25 18.83 104.12 18.77 103.99 18.71 103.85 18.68 103.7 18.68zM103.66 19.07C103.75 19.07 103.84 19.08 103.91 19.09 103.98 19.1 104.05 19.13 104.1 19.16 104.15 19.19 104.19 19.24 104.22 19.29 104.25 19.34 104.26 19.41 104.26 19.49 104.26 19.72 104.16 19.87 103.95 19.95L104.04 20.11C104.07 20.17 104.11 20.24 104.16 20.3 104.2 20.37 104.25 20.43 104.31 20.51 104.32 20.52 104.31 20.53 104.29 20.54 104.27 20.55 104.24 20.55 104.2 20.55L104.11 20.55C104.07 20.55 104.03 20.55 104.02 20.54 104 20.53 103.99 20.52 103.98 20.51 103.9 20.41 103.83 20.31 103.78 20.21L103.65 19.98 103.46 19.98 103.46 20.51C103.46 20.52 103.45 20.53 103.44 20.53 103.42 20.54 103.4 20.54 103.38 20.54L103.26 20.54C103.23 20.54 103.21 20.54 103.19 20.53 103.17 20.52 103.17 20.52 103.17 20.51L103.17 19.07 103.66 19.07 103.66 19.07zM103.47 19.77L103.69 19.77C103.79 19.77 103.87 19.75 103.91 19.7 103.95 19.66 103.98 19.6 103.98 19.53 103.98 19.49 103.97 19.45 103.95 19.42 103.93 19.39 103.9 19.37 103.87 19.35 103.84 19.34 103.8 19.33 103.77 19.32 103.73 19.32 103.69 19.31 103.66 19.31L103.48 19.31 103.48 19.77 103.47 19.77z"/>
</svg>
