<svg width="24" height="18" viewBox="0 0 24 18" fill="none" xmlns="http://www.w3.org/2000/svg">
<path d="M8.87279 17.2456C13.497 17.2456 17.2456 13.497 17.2456 8.87279C17.2456 4.24863 13.497 0.5 8.87279 0.5C4.24863 0.5 0.5 4.24863 0.5 8.87279C0.5 13.497 4.24863 17.2456 8.87279 17.2456Z" fill="white" stroke="#E02062" stroke-linecap="round" stroke-linejoin="round"/>
<path d="M15.2269 12.5021V8.45348H13.2025C13.0743 8.45267 12.9487 8.41744 12.8388 8.35147C12.7289 8.28551 12.6387 8.19122 12.5776 8.07848C12.5166 7.96573 12.487 7.83866 12.4919 7.71055C12.4967 7.58244 12.5359 7.458 12.6054 7.35022L16.1328 1.50497C16.1965 1.3996 16.2864 1.31247 16.3936 1.25199C16.5009 1.19151 16.622 1.15974 16.7451 1.15974C16.8683 1.15974 16.9893 1.19151 17.0966 1.25199C17.2039 1.31247 17.2937 1.3996 17.3575 1.50497L20.8849 7.35022C20.95 7.45907 20.985 7.58327 20.9863 7.71009C20.9876 7.83692 20.9552 7.96181 20.8924 8.072C20.8296 8.18218 20.7386 8.2737 20.6288 8.33717C20.519 8.40064 20.3943 8.43379 20.2675 8.43324H18.2431V12.4819L15.2269 12.5021Z" fill="#E02062" stroke="#E02062" stroke-linecap="round" stroke-linejoin="round"/>
<path d="M6.96875 10.6898C6.96875 11.5982 7.78025 11.901 8.78555 11.901C9.79084 11.901 10.6023 11.901 10.6023 10.6898C10.6023 8.87297 6.96875 8.87297 6.96875 7.05617C6.96875 5.84497 7.78025 5.84497 8.78555 5.84497C9.79084 5.84497 10.6023 6.30523 10.6023 7.05617" stroke="#E02062" stroke-linecap="round" stroke-linejoin="round"/>
<path d="M8.78589 11.9001V13.7169" stroke="#E02062" stroke-linecap="round" stroke-linejoin="round"/>
<path d="M8.78589 4.02783V5.84463" stroke="#E02062" stroke-linecap="round" stroke-linejoin="round"/>
</svg>
