<?xml version="1.0" encoding="UTF-8"?>
<svg width="111px" height="87px" viewBox="0 0 111 87" version="1.1" xmlns="http://www.w3.org/2000/svg" xmlns:xlink="http://www.w3.org/1999/xlink">
    <title>Group 12</title>
    <defs>
        <linearGradient x1="36.2724515%" y1="29.7891375%" x2="83.8677628%" y2="83.5397547%" id="linearGradient-1">
            <stop stop-color="#09ACE4" offset="0%"></stop>
            <stop stop-color="#0AB6C9" offset="44.6737753%"></stop>
            <stop stop-color="#09ACE4" offset="100%"></stop>
        </linearGradient>
        <ellipse id="path-2" cx="13.0252101" cy="13.1030928" rx="13.0252101" ry="13.1030928"></ellipse>
        <filter id="filter-3">
            <feColorMatrix in="SourceGraphic" type="matrix" values="0 0 0 0 0.196078 0 0 0 0 0.200000 0 0 0 0 0.235294 0 0 0 1.000000 0"></feColorMatrix>
        </filter>
        <linearGradient x1="5.59968724%" y1="73.2222907%" x2="-81.5138003%" y2="106.486663%" id="linearGradient-4">
            <stop stop-color="#000000" offset="0%"></stop>
            <stop stop-color="#000000" stop-opacity="0" offset="100%"></stop>
        </linearGradient>
        <path d="M22.8802381,4.82689103 C13.2665212,5.03110874 5.48634078,12.9641629 5.46733643,22.6413555 L5.45787662,27.4568002 C5.45624299,28.2902445 6.10202456,28.937196 6.93394738,28.9355542 L10.6313909,28.9282402 C11.4633177,28.9265953 12.1116413,28.2770849 12.1132781,27.4436406 L12.1227348,22.6281959 C12.1345557,16.6088921 16.7510179,11.4756569 22.744381,11.2477276 C29.0458947,11.0037559 34.3201867,16.071135 34.3078809,22.3373847 L34.2979392,27.3997753 C34.2963025,28.2332196 34.9420841,28.8801711 35.7740069,28.8785262 L39.3482023,28.871459 C40.1801291,28.869814 40.8284527,28.2203037 40.8300895,27.3868594 L40.8390966,22.8183606 C40.8585808,12.8787889 32.8020753,4.62206408 22.8802381,4.82689103 Z" id="path-5"></path>
        <linearGradient x1="50%" y1="0%" x2="50%" y2="100%" id="linearGradient-6">
            <stop stop-color="#000000" stop-opacity="0" offset="0%"></stop>
            <stop stop-color="#000000" offset="100%"></stop>
        </linearGradient>
        <linearGradient x1="50%" y1="0%" x2="50%" y2="100%" id="linearGradient-7">
            <stop stop-color="#000000" stop-opacity="0" offset="0%"></stop>
            <stop stop-color="#000000" offset="100%"></stop>
        </linearGradient>
        <linearGradient x1="50%" y1="0%" x2="50%" y2="100%" id="linearGradient-8">
            <stop stop-color="#000000" stop-opacity="0" offset="0%"></stop>
            <stop stop-color="#000000" offset="100%"></stop>
        </linearGradient>
        <linearGradient x1="36.1077962%" y1="42.3216569%" x2="84.2739902%" y2="62.7421452%" id="linearGradient-9">
            <stop stop-color="#09ACE4" offset="0%"></stop>
            <stop stop-color="#0AB6C9" offset="44.6737753%"></stop>
            <stop stop-color="#09ACE4" offset="100%"></stop>
        </linearGradient>
        <path d="M3.34882862,0.0607961987 C1.51937793,0.0607961987 0,1.44218904 0,3.25334399 L0,28.670936 C0,30.4820949 1.51937793,31.8634838 3.34882862,31.8634838 L48.2479383,31.8634838 C50.0773929,31.8634838 51.5967669,30.4820949 51.5967669,28.670936 L51.5967669,3.25334399 C51.5967669,1.44218904 50.0773929,0.0607961987 48.2479383,0.0607961987 L3.34882862,0.0607961987 Z" id="path-10"></path>
        <linearGradient x1="36.1077962%" y1="40.2524918%" x2="84.2739902%" y2="66.1759071%" id="linearGradient-11">
            <stop stop-color="#09ACE4" offset="0%"></stop>
            <stop stop-color="#0AB6C9" offset="44.6737753%"></stop>
            <stop stop-color="#09ACE4" offset="100%"></stop>
        </linearGradient>
        <path d="M8.85456558,0 C7.23085858,0 5.88235294,1.38139284 5.88235294,3.19254779 L5.88235294,28.6101398 C5.88235294,30.4212987 7.23085858,31.8026876 8.85456558,31.8026876 L48.7042313,31.8026876 C50.3279418,31.8026876 51.6764439,30.4212987 51.6764439,28.6101398 L51.6764439,3.19254779 C51.6764439,1.38139284 50.3279418,0 48.7042313,0 L8.85456558,0 Z" id="path-12"></path>
        <linearGradient x1="47.7703858%" y1="3.71654823%" x2="50%" y2="96.5400049%" id="linearGradient-13">
            <stop stop-color="#0AB6C9" offset="0%"></stop>
            <stop stop-color="#48C85A" offset="100%"></stop>
        </linearGradient>
        <linearGradient x1="44.2578466%" y1="29.7891375%" x2="64.1666876%" y2="83.5397547%" id="linearGradient-14">
            <stop stop-color="#09ACE4" offset="0%"></stop>
            <stop stop-color="#0AB6C9" offset="44.6737753%"></stop>
            <stop stop-color="#09ACE4" offset="100%"></stop>
        </linearGradient>
        <linearGradient x1="-31.7187708%" y1="50%" x2="90.6550297%" y2="50%" id="linearGradient-15">
            <stop stop-color="#FFFFFF" stop-opacity="0.5" offset="0%"></stop>
            <stop stop-color="#000000" stop-opacity="0.5" offset="100%"></stop>
        </linearGradient>
        <path d="M28.6514663,8.75465261 C31.3458565,8.75465261 33.5372953,10.9977389 33.5372953,13.7556302 C33.5372953,15.606483 32.5912639,17.1999302 31.1422811,18.0701992 L31.1422811,22.7770017 C31.1422811,23.4634103 30.5674777,23.9537023 29.8968737,23.9537023 L27.4060589,23.9537023 C26.7354549,23.9537023 26.1606515,23.4634103 26.1606515,22.7770017 L26.1606515,18.0701992 C24.7116687,17.1999302 23.7656373,15.606483 23.7656373,13.7556302 C23.7656373,10.9977389 25.9570761,8.75465261 28.6514663,8.75465261 Z" id="path-16"></path>
    </defs>
    <g id="Page-1" stroke="none" stroke-width="1" fill="none" fill-rule="evenodd">
        <g id="Welcome-screen-V2" transform="translate(-1396.000000, -267.000000)">
            <g id="Group-5-Copy" transform="translate(1261.000000, 46.000000)">
                <g id="Group-12" transform="translate(136.000000, 221.000000)">
                    <g id="Group-45" transform="translate(0.000000, 78.000000)" stroke="#32333C" stroke-linecap="round">
                        <g id="Group-4">
                            <line x1="42.9685039" y1="7.76203883" x2="72.4540949" y2="7.34907228" id="Line-2-Copy-3"></line>
                            <line x1="-3.51895276e-17" y1="3.43894629" x2="10.5314961" y2="3.11111111" id="Line-2-Copy-4"></line>
                            <line x1="41.9378285" y1="0.836928282" x2="58.7971576" y2="0.836928282" id="Line-2-Copy-2"></line>
                            <line x1="97.3110236" y1="4.88888889" x2="107" y2="4.88888889" id="Line-2"></line>
                        </g>
                    </g>
                    <g id="Group-2" transform="translate(28.000000, 49.000000)" stroke="#32333C" stroke-linecap="square">
                        <line x1="5.92105263" y1="0.0787878788" x2="0.0789473684" y2="0.0787878788" id="Line"></line>
                        <line x1="5.92105263" y1="25.9212121" x2="0.0789473684" y2="25.9212121" id="Line-Copy"></line>
                    </g>
                    <g id="Group-5" transform="translate(8.000000, 0.000000)">
                        <g id="Group-3">
                            <rect id="Rectangle" stroke="#32333C" fill-opacity="0.89" fill="#FFFFFF" x="0.5" y="6.5" width="63.7058824" height="75" rx="4"></rect>
                            <rect id="Rectangle-Copy-3" stroke="#32333C" fill-opacity="0.89" fill="#FFFFFF" x="3.5" y="3.5" width="63.7058824" height="78" rx="4"></rect>
                            <rect id="Rectangle-Copy-2" stroke="#32333C" fill-opacity="0.89" fill="#FFFFFF" x="6.5" y="0.5" width="63.7058824" height="81" rx="4"></rect>
                            <g id="Group-4" transform="translate(27.008403, 8.453608)">
                                <g id="Oval">
                                    <use fill="#FFFFFF" xlink:href="#path-2"></use>
                                    <use stroke="#32333C" stroke-width="1" fill-opacity="0.15" fill="url(#linearGradient-1)" xlink:href="#path-2"></use>
                                </g>
                                <g filter="url(#filter-3)" fill="#32333C" id="Icon/user">
                                    <g transform="translate(5.165170, 5.196054)">
                                        <g fill="none">
                                            <rect id="Rectangle" x="0" y="0" width="15.7200811" height="15.8140775"></rect>
                                            <g id="user-solid" transform="translate(2.947515, 2.470950)" fill="#001C36">
                                                <path d="M4.91252535,0 C3.01851643,0 1.47375761,1.55399553 1.47375761,3.45932945 C1.47375761,4.65040426 2.07822862,5.70827956 2.99357014,6.33180837 C1.24156415,7.08853669 0,8.83750596 0,10.8721783 L0.982505071,10.8721783 C0.982505071,8.68307161 2.73643038,6.91865891 4.91252535,6.91865891 C7.08862082,6.91865891 8.84254564,8.68307161 8.84254564,10.8721783 L9.82505071,10.8721783 C9.82505071,8.83750596 8.58348656,7.08853669 6.83148057,6.33180837 C7.74682209,5.70827956 8.3512931,4.65040426 8.3512931,3.45932945 C8.3512931,1.55399553 6.80653428,0 4.91252535,0 Z M4.91252535,0.988379844 C6.2749838,0.988379844 7.36878803,2.08872484 7.36878803,3.45932945 C7.36878803,4.82993456 6.2749838,5.93027906 4.91252535,5.93027906 C3.5500674,5.93027906 2.45626268,4.82993456 2.45626268,3.45932945 C2.45626268,2.08872484 3.5500674,0.988379844 4.91252535,0.988379844 Z" id="Shape"></path>
                                            </g>
                                        </g>
                                    </g>
                                </g>
                            </g>
                            <line x1="16.0840336" y1="63.4020619" x2="27.0084034" y2="63.4020619" id="Line-3-Copy-4" stroke="#32333C" stroke-linecap="round"></line>
                            <line x1="16.9243697" y1="71.0103093" x2="34.5714286" y2="71.0103093" id="Line-3-Copy-3" stroke="#32333C" stroke-linecap="round"></line>
                            <line x1="48.8571429" y1="63.4020619" x2="58.9411765" y2="63.4020619" id="Line-3-Copy-6" stroke="#32333C" stroke-linecap="round"></line>
                            <line x1="42.1344538" y1="71.0103093" x2="59.7815126" y2="71.0103093" id="Line-3-Copy-5" stroke="#32333C" stroke-linecap="round"></line>
                            <line x1="26.1680672" y1="43.1134021" x2="48.8571429" y2="43.1134021" id="Line-3-Copy" stroke="#32333C" stroke-linecap="round"></line>
                            <line x1="20.2857143" y1="51.5670103" x2="55.5798319" y2="51.5670103" id="Line-3-Copy-2" stroke="#32333C" stroke-linecap="round"></line>
                        </g>
                        <g id="Group-3" transform="translate(41.176471, 12.257732)">
                            <g id="Path" transform="translate(23.148487, 16.879357) rotate(-15.000000) translate(-23.148487, -16.879357) ">
                                <use fill="#FFFFFF" xlink:href="#path-5"></use>
                                <path stroke="#32333C" stroke-width="1" d="M22.8699183,4.32699754 C17.9240914,4.43205832 13.4501186,6.52581312 10.2117103,9.83890304 C6.9783646,13.1468137 4.9770986,17.6698775 4.9673374,22.6403736 L4.95787759,27.4558179 C4.95678425,28.0136121 5.17496457,28.5074328 5.52945308,28.8625657 C5.88426884,29.2180265 6.37768441,29.436653 6.93493414,29.4355532 L10.63238,29.4282392 C11.188522,29.4271396 11.6819969,29.2073189 12.0375698,28.8510951 C12.3928183,28.4951963 12.6121839,28.0013092 12.6132771,27.4446225 L12.6227338,22.6291778 C12.6284331,19.727071 13.7520883,17.0398797 15.5999185,15.0600385 C17.4137101,13.1166676 19.9263951,11.8552579 22.7633824,11.7473664 C25.7721502,11.630878 28.5352837,12.78211 30.5454156,14.7098718 C32.5560903,16.6381542 33.8137587,19.3438666 33.8078819,22.3364028 L33.7979402,27.3987933 C33.7968448,27.9565861 34.0150245,28.4504075 34.369513,28.8055404 C34.7243287,29.1610012 35.217745,29.379627 35.7749955,29.3785252 L39.3491909,29.371458 C39.9053334,29.3703584 40.3988083,29.1505377 40.7543812,28.7943139 C41.1096297,28.4384151 41.3289953,27.9445279 41.3300885,27.3878413 L41.3390956,22.8193464 C41.3491526,17.688921 39.2652711,12.994853 35.8964298,9.61989424 C32.5546816,6.27207787 27.9495909,4.2221325 22.8699183,4.32699754 Z" fill-opacity="0.15" fill="url(#linearGradient-4)"></path>
                            </g>
                            <path d="M22.8726973,4.82663838 C13.2589805,5.03085609 5.47880004,12.9639102 5.4597957,22.6411029 C12.98225,15.1973038 18.7412649,11.3994278 22.7368403,11.2474749 C29.038354,11.0035032 34.312646,16.0708824 34.3003402,22.3371321 L34.2903985,27.3995226 C34.2887618,28.2329669 34.9345433,28.8799185 35.7664662,28.8782767 L39.3406616,28.8712063 C40.1725883,28.8695614 40.820912,28.220051 40.8225487,27.3866067 L40.8315559,22.8181079 C40.8510401,12.8785363 32.7945345,4.62181143 22.8726973,4.82663838 Z" id="Path-Copy" fill-opacity="0.15" fill="url(#linearGradient-6)" transform="translate(23.145676, 16.850592) rotate(-15.000000) translate(-23.145676, -16.850592) "></path>
                            <path d="M22.6288937,2.97426728 C18.5427618,7.40677785 18.4974762,9.54705671 22.4930371,9.39510384 C28.7945278,9.15113218 34.0688005,14.2185114 34.0564947,20.4847611 L34.046553,25.5471516 C34.0449163,26.3805959 34.6906955,27.0275475 35.5226153,27.0259057 L39.0967977,27.0188354 C39.9287214,27.0171904 40.5770427,26.3676801 40.5786795,25.5342358 L40.5876866,20.965737 C40.6071708,11.0261653 32.5506947,2.76944041 22.6288937,2.97426728 Z" id="Path-Copy-4" fill-opacity="0.15" fill="url(#linearGradient-7)" transform="translate(30.058818, 14.998221) rotate(-15.000000) translate(-30.058818, -14.998221) "></path>
                            <path d="M22.5760967,2.57323446 C30.2546169,5.12911555 34.0638172,10.9659468 34.0036977,20.0837282 L33.9937561,25.1461188 C33.9921193,25.9795631 34.6378985,26.6265146 35.4698183,26.6248728 L39.0440007,26.6178025 C39.8759244,26.6161576 40.5242457,25.9666472 40.5258825,25.1332029 L40.5348896,20.5647042 C40.5543738,10.6251325 32.4978977,2.36840758 22.5760967,2.57323446 Z" id="Path-Copy-5" fill-opacity="0.15" fill="url(#linearGradient-8)" transform="translate(31.555493, 14.597188) rotate(-15.000000) translate(-31.555493, -14.597188) "></path>
                            <g id="Group" transform="translate(29.253547, 42.748252) rotate(-15.000000) translate(-29.253547, -42.748252) translate(3.253547, 26.748252)">
                                <g id="Shape">
                                    <use fill="#FFFFFF" xlink:href="#path-10"></use>
                                    <use stroke="#32333C" stroke-width="1" fill-opacity="0.45" fill="url(#linearGradient-9)" xlink:href="#path-10"></use>
                                </g>
                                <g id="Path-Copy-2">
                                    <use fill="#FFFFFF" xlink:href="#path-12"></use>
                                    <use stroke="#32333C" stroke-width="1" fill-opacity="0.15" fill="url(#linearGradient-11)" xlink:href="#path-12"></use>
                                </g>
                                <path d="M8.66481226,0 C7.04110526,0 5.69259962,1.38139284 5.69259962,3.19254779 L48.514478,31.8026876 C50.1381885,31.8026876 51.4866906,30.4212987 51.4866906,28.6101398 L51.4866906,3.19254779 C51.4866906,1.38139284 50.1381885,0 48.514478,0 L8.66481226,0 Z" id="Path-Copy-3" fill-opacity="0.15" fill="url(#linearGradient-11)"></path>
                                <path d="M28.6514663,8.25465261 C27.1651004,8.25465261 25.816788,8.87223205 24.8405086,9.87152022 C23.8683999,10.8665395 23.2656373,12.2401694 23.2656373,13.7556302 C23.2656373,15.6868067 24.2050725,17.3604151 25.6606515,18.344177 L25.6606515,22.7770017 C25.6606515,23.260241 25.8594571,23.6755062 26.1749581,23.9736016 C26.4920285,24.2731798 26.9307863,24.4537023 27.4060589,24.4537023 L29.8968737,24.4537023 C30.3721463,24.4537023 30.8109041,24.2731798 31.1279745,23.9736016 C31.4434755,23.6755062 31.6422811,23.260241 31.6422811,22.7770017 L31.6422811,18.344177 C33.0978601,17.3604151 34.0372953,15.6868067 34.0372953,13.7556302 C34.0372953,12.2401694 33.4345327,10.8665395 32.462424,9.87152022 C31.4861447,8.87223205 30.1378323,8.25465261 28.6514663,8.25465261 Z" id="Path" stroke="#32333C" fill-opacity="0.9" fill="url(#linearGradient-13)"></path>
                                <g id="Path-Copy-6">
                                    <use fill-opacity="0.9" fill="url(#linearGradient-14)" xlink:href="#path-16"></use>
                                    <use fill="url(#linearGradient-15)" xlink:href="#path-16"></use>
                                </g>
                            </g>
                        </g>
                    </g>
                </g>
            </g>
        </g>
    </g>
</svg>