<svg version="1.1" id="Layer_1" xmlns="http://www.w3.org/2000/svg" xmlns:xlink="http://www.w3.org/1999/xlink" x="0px" y="0px"
	 viewBox="0 0 250 250" style="enable-background:new 0 0 250 250;" xml:space="preserve">
<style type="text/css">
	.st0{fill:#0F880C;}
</style>
<g>
	<path class="st0" d="M130,245c-3.3,0-6.7,0-10,0c-1.8-0.3-3.6-0.8-5.4-0.9c-49.2-4-91.6-38.9-104.5-86.3C7.8,149.3,6.7,140.6,5,132
		c0-3.7,0-7.3,0-11c0.5-3.9,0.8-7.9,1.4-11.8C15.3,50.4,61.2,8.8,120.3,5.7C175.7,2.8,227.6,41.2,240.8,95c1.9,7.6,2.8,15.3,4.2,23
		c0,4.7,0,9.3,0,14c-0.3,1.6-0.8,3.2-0.9,4.8c-4.7,48.8-39.1,90.2-86.3,103.1C148.7,242.3,139.3,243.3,130,245z M114.1,134.6
		c-7.9-7.4-15.5-14.5-23.2-21.7c-6.3-5.9-14-6-20-0.3c-7,6.8-7.3,16.7-0.6,24.2c9.5,10.5,19.1,20.9,28.6,31.4c8.1,9,18.4,9,26.8,0.1
		c8.3-8.9,16.7-17.7,25-26.5c12.6-13.3,25.2-26.5,37.7-39.9c6.8-7.3,6.1-17.2-1.2-24c-6.7-6.1-14.3-5.3-21.4,2.2
		c-6.8,7.3-13.7,14.5-20.6,21.8C134.6,113.1,123.9,124.3,114.1,134.6z"/>
</g>
</svg>
