<?xml version="1.0" encoding="UTF-8"?>
<svg width="17px" height="17px" viewBox="0 0 17 17" version="1.1" xmlns="http://www.w3.org/2000/svg" xmlns:xlink="http://www.w3.org/1999/xlink">
    <title>menu copy 3 2</title>
    <g id="Page-1" stroke="none" stroke-width="1" fill="none" fill-rule="evenodd">
        <g id="07" transform="translate(-1111.000000, -530.000000)">
            <g id="Group-21-Copy-5" transform="translate(848.000000, 51.000000)">
                <g id="Group-6-Copy-3" transform="translate(228.000000, 0.000000)">
                    <g id="Group-10-Copy" transform="translate(20.000000, 467.000000)">
                        <g id="Icon/user-shield" transform="translate(14.000000, 11.000000)">
                            <rect id="Rectangle" x="0" y="0" width="19" height="19"></rect>
                            <g id="user-shield-solid" transform="translate(1.781250, 1.187500)" fill="#f63277">
                                <path d="M5.9375,0 C3.621875,0 1.78125,1.840625 1.78125,4.15625 C1.78125,5.60351562 2.49966434,6.86465428 3.60424775,7.60742188 C1.49031957,8.51872719 0,10.6243119 0,13.0625 L1.1875,13.0625 C1.1875,10.45 3.325,8.3125 5.9375,8.3125 C6.14006197,8.3125 6.33687169,8.29336819 6.53125,8.26611328 L6.53125,10.984375 C6.53125,14.071875 10.5685178,15.8535887 10.7466428,15.9129637 L10.984375,16.03125 L11.2221072,15.9129637 C11.4002322,15.8535887 15.4375,14.071875 15.4375,10.984375 L15.4375,7.71875 L14.9028928,7.71875 C13.7747678,7.71875 13.1214113,7.30358872 12.5870363,7.00671372 C12.0526613,6.76921372 11.578125,6.53125 10.984375,6.53125 C10.390625,6.53125 9.915625,6.76921372 9.5,7.00671372 C9.19941406,7.17370591 8.83881544,7.37573469 8.38323997,7.52276619 C9.42172,6.77122594 10.09375,5.55207431 10.09375,4.15625 C10.09375,1.840625 8.253125,0 5.9375,0 Z M5.9375,1.1875 C7.6,1.1875 8.90625,2.49375 8.90625,4.15625 C8.90625,5.81875 7.6,7.125 5.9375,7.125 C4.275,7.125 2.96875,5.81875 2.96875,4.15625 C2.96875,2.49375 4.275,1.1875 5.9375,1.1875 Z M10.984375,7.71875 C11.28125,7.71875 11.5182863,7.83726784 11.9932863,8.07476784 L12.171875,8.13391128 C12.646875,8.37141128 13.3,8.72835716 14.25,8.84710716 L14.25,10.9252322 C14.25,12.8846072 11.696875,14.3089113 10.984375,14.6651613 C10.271875,14.3089113 7.71875,12.8846072 7.71875,10.9252322 L7.71875,8.84710716 C8.728125,8.72835716 9.38101784,8.37141128 9.85601784,8.13391128 L10.0346072,8.07476784 L10.09375,8.07476784 L10.1528928,8.07476784 C10.5091428,7.77789284 10.6875,7.71875 10.984375,7.71875 Z" id="Shape"></path>
                                <polygon id="Path" fill-rule="nonzero" points="13.1869475 9.98291448 12.5253993 9.32136629 10.628125 11.2177187 9.90869573 10.4983574 9.24714754 11.1599056 10.2977778 12.2105359 10.6285519 12.5270299 10.9546104 12.2151479"></polygon>
                            </g>
                        </g>
                    </g>
                </g>
            </g>
        </g>
    </g>
</svg>