<svg width="244" height="35" viewBox="0 0 244 35" fill="none" xmlns="http://www.w3.org/2000/svg">
<path d="M221.749 30.914V3.37402H231.711V5.38002H224.367V15.716H230.351V17.62H224.367V28.976H231.779V30.914H221.749Z" fill="#413188"/>
<path d="M204.385 30.914V3.37402H210.607C212.329 3.37402 213.678 3.65736 214.653 4.22402C215.65 4.76802 216.364 5.57269 216.795 6.63802C217.225 7.68069 217.441 8.92736 217.441 10.378C217.441 11.398 217.327 12.3614 217.101 13.268C216.874 14.1747 216.489 14.9454 215.945 15.58C215.401 16.2147 214.63 16.634 213.633 16.838L217.849 30.914H215.333L211.287 17.382H206.969V30.914H204.385ZM206.969 15.478H210.471C211.627 15.478 212.522 15.2854 213.157 14.9C213.791 14.5147 214.245 13.948 214.517 13.2C214.789 12.452 214.925 11.5114 214.925 10.378C214.925 8.67802 214.63 7.40869 214.041 6.57002C213.451 5.73136 212.284 5.31202 210.539 5.31202H206.969V15.478Z" fill="#413188"/>
<path d="M190.804 30.914V3.37402H200.766V5.38002H193.422V15.716H199.406V17.62H193.422V28.976H200.834V30.914H190.804Z" fill="#413188"/>
<path d="M172.144 30.914V3.37402H174.762V15.58H183.432V3.37402H186.016V30.914H183.432V17.518H174.762V30.914H172.144Z" fill="#413188"/>
<path d="M152 31.322C149.938 31.322 148.306 30.9593 147.104 30.234C145.903 29.5087 145.042 28.466 144.52 27.106C143.999 25.746 143.738 24.1253 143.738 22.244V12.01C143.738 10.106 143.999 8.48533 144.52 7.148C145.042 5.81067 145.903 4.79067 147.104 4.088C148.306 3.36267 149.938 3 152 3C154.086 3 155.729 3.36267 156.93 4.088C158.154 4.79067 159.027 5.81067 159.548 7.148C160.07 8.48533 160.33 10.106 160.33 12.01V22.244C160.33 24.1253 160.07 25.746 159.548 27.106C159.027 28.466 158.154 29.5087 156.93 30.234C155.729 30.9593 154.086 31.322 152 31.322ZM152 27.004C152.635 27.004 153.1 26.8453 153.394 26.528C153.689 26.2107 153.882 25.8027 153.972 25.304C154.063 24.8053 154.108 24.2953 154.108 23.774V10.514C154.108 9.97 154.063 9.46 153.972 8.984C153.882 8.48533 153.689 8.07733 153.394 7.76C153.1 7.44267 152.635 7.284 152 7.284C151.411 7.284 150.969 7.44267 150.674 7.76C150.38 8.07733 150.187 8.48533 150.096 8.984C150.006 9.46 149.96 9.97 149.96 10.514V23.774C149.96 24.2953 149.994 24.8053 150.062 25.304C150.153 25.8027 150.334 26.2107 150.606 26.528C150.901 26.8453 151.366 27.004 152 27.004Z" fill="#E07A39"/>
<path d="M131.497 31.322C129.593 31.322 128.086 30.9253 126.975 30.132C125.887 29.3387 125.105 28.228 124.629 26.8C124.176 25.3493 123.949 23.6833 123.949 21.802V12.554C123.949 10.6047 124.199 8.916 124.697 7.488C125.196 6.06 126.046 4.96067 127.247 4.19C128.471 3.39667 130.126 3 132.211 3C134.251 3 135.849 3.34 137.005 4.02C138.184 4.7 139.023 5.64067 139.521 6.842C140.02 8.04333 140.269 9.44867 140.269 11.058V12.826H134.319V10.582C134.319 9.99267 134.274 9.44867 134.183 8.95C134.115 8.45133 133.934 8.05467 133.639 7.76C133.367 7.44267 132.914 7.284 132.279 7.284C131.622 7.284 131.146 7.46533 130.851 7.828C130.557 8.168 130.364 8.59867 130.273 9.12C130.205 9.64133 130.171 10.1853 130.171 10.752V23.502C130.171 24.114 130.228 24.692 130.341 25.236C130.477 25.7573 130.704 26.188 131.021 26.528C131.361 26.8453 131.837 27.004 132.449 27.004C133.084 27.004 133.571 26.834 133.911 26.494C134.251 26.154 134.489 25.712 134.625 25.168C134.761 24.624 134.829 24.046 134.829 23.434V20.204H132.347V16.634H140.303V30.914H136.291L135.951 28.636C135.589 29.4067 135.056 30.0527 134.353 30.574C133.651 31.0727 132.699 31.322 131.497 31.322Z" fill="#E07A39"/>
<path d="M112.289 31.322C110.227 31.322 108.595 30.9593 107.393 30.234C106.192 29.5087 105.331 28.466 104.809 27.106C104.288 25.746 104.027 24.1253 104.027 22.244V12.01C104.027 10.106 104.288 8.48533 104.809 7.148C105.331 5.81067 106.192 4.79067 107.393 4.088C108.595 3.36267 110.227 3 112.289 3C114.375 3 116.018 3.36267 117.219 4.088C118.443 4.79067 119.316 5.81067 119.837 7.148C120.359 8.48533 120.619 10.106 120.619 12.01V22.244C120.619 24.1253 120.359 25.746 119.837 27.106C119.316 28.466 118.443 29.5087 117.219 30.234C116.018 30.9593 114.375 31.322 112.289 31.322ZM112.289 27.004C112.924 27.004 113.389 26.8453 113.683 26.528C113.978 26.2107 114.171 25.8027 114.261 25.304C114.352 24.8053 114.397 24.2953 114.397 23.774V10.514C114.397 9.97 114.352 9.46 114.261 8.984C114.171 8.48533 113.978 8.07733 113.683 7.76C113.389 7.44267 112.924 7.284 112.289 7.284C111.7 7.284 111.258 7.44267 110.963 7.76C110.669 8.07733 110.476 8.48533 110.385 8.984C110.295 9.46 110.249 9.97 110.249 10.514V23.774C110.249 24.2953 110.283 24.8053 110.351 25.304C110.442 25.8027 110.623 26.2107 110.895 26.528C111.19 26.8453 111.655 27.004 112.289 27.004Z" fill="#E07A39"/>
<path d="M89.7588 30.914V3.37402H95.8448V26.8H102.169V30.914H89.7588Z" fill="#E07A39"/>
<path d="M64.9648 30.914V3.37402H71.1868C72.9095 3.37402 74.2582 3.65736 75.2328 4.22402C76.2302 4.76802 76.9442 5.57269 77.3748 6.63802C77.8055 7.68069 78.0208 8.92736 78.0208 10.378C78.0208 11.398 77.9075 12.3614 77.6808 13.268C77.4542 14.1747 77.0688 14.9454 76.5248 15.58C75.9808 16.2147 75.2102 16.634 74.2128 16.838L78.4288 30.914H75.9128L71.8668 17.382H67.5488V30.914H64.9648ZM67.5488 15.478H71.0508C72.2068 15.478 73.1022 15.2854 73.7368 14.9C74.3715 14.5147 74.8248 13.948 75.0968 13.2C75.3688 12.452 75.5048 11.5114 75.5048 10.378C75.5048 8.67802 75.2102 7.40869 74.6208 6.57002C74.0315 5.73136 72.8642 5.31202 71.1188 5.31202H67.5488V15.478Z" fill="#413188"/>
<path d="M53.435 31.254C51.5763 31.254 50.1256 30.9254 49.083 30.268C48.063 29.588 47.3603 28.6587 46.975 27.48C46.5896 26.2787 46.397 24.9187 46.397 23.4V3.37402H48.913V23.468C48.913 24.5334 49.0263 25.508 49.253 26.392C49.5023 27.2534 49.9556 27.9334 50.613 28.432C51.2703 28.9307 52.211 29.18 53.435 29.18C54.6136 29.18 55.5316 28.9307 56.189 28.432C56.8463 27.9107 57.2996 27.2194 57.549 26.358C57.821 25.4967 57.957 24.5334 57.957 23.468V3.37402H60.439V23.4C60.439 24.9187 60.235 26.2787 59.827 27.48C59.419 28.6587 58.705 29.588 57.685 30.268C56.665 30.9254 55.2483 31.254 53.435 31.254Z" fill="#413188"/>
<path d="M35.3677 31.2541C33.5317 31.2541 32.0924 30.9027 31.0497 30.2001C30.0297 29.4747 29.3044 28.4774 28.8737 27.208C28.4657 25.916 28.2617 24.4427 28.2617 22.7881V11.364C28.2617 9.68672 28.4771 8.23605 28.9077 7.01205C29.3611 5.76538 30.0977 4.80205 31.1177 4.12205C32.1604 3.44205 33.5771 3.10205 35.3677 3.10205C37.1357 3.10205 38.5297 3.44205 39.5497 4.12205C40.5924 4.80205 41.3291 5.76538 41.7597 7.01205C42.1904 8.23605 42.4057 9.68672 42.4057 11.364V22.8221C42.4057 24.4767 42.1904 25.9387 41.7597 27.208C41.3517 28.4547 40.6377 29.4407 39.6177 30.166C38.5977 30.8914 37.1811 31.2541 35.3677 31.2541ZM35.3677 29.18C36.5691 29.18 37.4871 28.942 38.1217 28.466C38.7564 27.9674 39.1871 27.2874 39.4137 26.4261C39.6631 25.5421 39.7877 24.5221 39.7877 23.3661V10.8881C39.7877 9.73205 39.6631 8.72338 39.4137 7.86205C39.1871 7.00072 38.7564 6.34338 38.1217 5.89005C37.4871 5.41405 36.5691 5.17605 35.3677 5.17605C34.1437 5.17605 33.2031 5.41405 32.5457 5.89005C31.9111 6.34338 31.4691 7.00072 31.2197 7.86205C30.9931 8.72338 30.8797 9.73205 30.8797 10.8881V23.3661C30.8797 24.5221 30.9931 25.5421 31.2197 26.4261C31.4691 27.2874 31.9111 27.9674 32.5457 28.466C33.2031 28.942 34.1437 29.18 35.3677 29.18Z" fill="#413188"/>
<path d="M17.2884 30.914V21.768L11.0664 3.37402H13.5824L18.5464 18.674L23.3064 3.37402H25.8564L19.8044 21.768V30.914H17.2884Z" fill="#413188"/>
<path d="M234.276 34.51V31.314C234.865 31.314 235.33 31.2687 235.67 31.178C236.01 31.0873 236.259 30.906 236.418 30.634C236.577 30.3847 236.679 29.988 236.724 29.444C236.769 28.9227 236.792 28.2087 236.792 27.302V23.12C236.792 21.3067 236.996 19.9353 237.404 19.006C237.812 18.0767 238.481 17.4987 239.41 17.272C238.481 17.0453 237.812 16.4673 237.404 15.538C236.996 14.586 236.792 13.2033 236.792 11.39V7.242C236.792 6.358 236.769 5.644 236.724 5.1C236.679 4.556 236.577 4.15933 236.418 3.91C236.259 3.638 236.01 3.45667 235.67 3.366C235.33 3.27533 234.865 3.23 234.276 3.23V0C235.908 0 237.189 0.102 238.118 0.306C239.047 0.509998 239.739 0.872665 240.192 1.394C240.668 1.91533 240.963 2.64067 241.076 3.57C241.212 4.47667 241.28 5.65533 241.28 7.106V10.812C241.28 12.2173 241.325 13.2713 241.416 13.974C241.507 14.654 241.699 15.1073 241.994 15.334C242.289 15.538 242.742 15.64 243.354 15.64V18.904C242.742 18.904 242.289 19.006 241.994 19.21C241.699 19.414 241.507 19.856 241.416 20.536C241.325 21.216 241.28 22.2813 241.28 23.732V27.438C241.28 28.866 241.212 30.0333 241.076 30.94C240.963 31.8693 240.668 32.5947 240.192 33.116C239.739 33.6373 239.047 34 238.118 34.204C237.189 34.408 235.908 34.51 234.276 34.51Z" fill="#E07A39"/>
<path d="M9.57409 34.51C7.96476 34.51 6.68409 34.408 5.73209 34.204C4.80276 34 4.11143 33.6373 3.65809 33.116C3.20476 32.5947 2.91009 31.8693 2.77409 30.94C2.66076 30.0333 2.60409 28.866 2.60409 27.438V23.732C2.60409 22.2813 2.55876 21.216 2.46809 20.536C2.37743 19.856 2.18476 19.414 1.89009 19.21C1.59543 19.006 1.13076 18.904 0.496094 18.904V15.64C1.13076 15.64 1.59543 15.538 1.89009 15.334C2.18476 15.1073 2.37743 14.654 2.46809 13.974C2.55876 13.2713 2.60409 12.2173 2.60409 10.812V7.106C2.60409 5.65533 2.66076 4.47667 2.77409 3.57C2.91009 2.64067 3.20476 1.91533 3.65809 1.394C4.11143 0.872665 4.80276 0.509998 5.73209 0.306C6.68409 0.102 7.96476 0 9.57409 0V3.23C9.00743 3.23 8.54276 3.27533 8.18009 3.366C7.84009 3.45667 7.59076 3.638 7.43209 3.91C7.27343 4.15933 7.17143 4.556 7.12609 5.1C7.08076 5.644 7.05809 6.358 7.05809 7.242V11.39C7.05809 13.2033 6.85409 14.586 6.44609 15.538C6.06076 16.4673 5.40343 17.0453 4.47409 17.272C5.40343 17.4987 6.06076 18.0767 6.44609 19.006C6.85409 19.9353 7.05809 21.3067 7.05809 23.12V27.302C7.05809 28.2087 7.08076 28.9227 7.12609 29.444C7.17143 29.988 7.27343 30.3847 7.43209 30.634C7.59076 30.906 7.84009 31.0873 8.18009 31.178C8.54276 31.2687 9.00743 31.314 9.57409 31.314V34.51Z" fill="#E07A39"/>
</svg>
