<svg width="16" height="16" viewBox="0 0 16 16" fill="none" xmlns="http://www.w3.org/2000/svg">
<path d="M4.49982 2.6004C5.27295 2.6004 5.9001 3.22671 5.90021 3.99982C5.90021 4.25673 5.82958 4.49696 5.7088 4.70392L6.64728 6.0174C7.0324 5.75412 7.4981 5.60044 7.99982 5.6004C8.72639 5.6004 9.37611 5.9243 9.81622 6.43439L10.6287 5.784C10.6098 5.6923 10.6004 5.59711 10.6004 5.49982C10.6005 4.72677 11.2268 4.10051 11.9998 4.1004C12.773 4.1004 13.4001 4.72671 13.4002 5.49982C13.4002 6.27302 12.773 6.90021 11.9998 6.90021C11.6169 6.90016 11.2701 6.74602 11.0174 6.49689L10.2332 7.12579C10.3394 7.39687 10.4002 7.69109 10.4002 7.99982C10.4002 8.51802 10.2332 8.99621 9.95392 9.38849L10.7703 10.2049C10.9163 10.1378 11.0786 10.1004 11.2498 10.1004C11.8849 10.1004 12.4001 10.6148 12.4002 11.2498C12.4002 11.8849 11.8849 12.4002 11.2498 12.4002C10.6148 12.4001 10.1004 11.8849 10.1004 11.2498C10.1004 11.0786 10.1378 10.9163 10.2049 10.7703L9.38849 9.95392C8.99621 10.2332 8.51802 10.4002 7.99982 10.4002C7.48149 10.4002 7.00248 10.2343 6.61017 9.9549L6.09552 10.4695C6.28767 10.7664 6.40017 11.1199 6.40021 11.4998C6.40021 12.5492 5.54916 13.4002 4.49982 13.4002C3.45057 13.4001 2.6004 12.5491 2.6004 11.4998C2.60051 10.4506 3.45063 9.60051 4.49982 9.6004C4.87936 9.6004 5.23241 9.71239 5.52911 9.90411L6.04474 9.38849C5.76576 8.99633 5.6004 8.51774 5.6004 7.99982C5.60045 7.46881 5.77423 6.97933 6.06622 6.58185L5.11993 5.25372C4.93288 5.34639 4.72271 5.40021 4.49982 5.40021C3.72671 5.4001 3.1004 4.77295 3.1004 3.99982C3.10051 3.22677 3.72677 2.60051 4.49982 2.6004ZM4.49982 10.4002C3.89246 10.4003 3.40031 10.8925 3.40021 11.4998C3.40021 12.1073 3.89239 12.6003 4.49982 12.6004C5.10733 12.6004 5.6004 12.1073 5.6004 11.4998C5.6003 10.8924 5.10726 10.4002 4.49982 10.4002ZM11.2498 10.9002C11.0567 10.9003 10.9003 11.0567 10.9002 11.2498C10.9002 11.4431 11.0566 11.6003 11.2498 11.6004C11.4431 11.6004 11.6004 11.4431 11.6004 11.2498C11.6003 11.0566 11.4431 10.9002 11.2498 10.9002ZM7.99982 6.40021C7.11632 6.40031 6.40031 7.11632 6.40021 7.99982C6.40021 8.88341 7.11625 9.6003 7.99982 9.6004C8.88347 9.6004 9.6004 8.88347 9.6004 7.99982C9.6003 7.11625 8.88341 6.40021 7.99982 6.40021ZM11.9998 4.90021C11.6686 4.90031 11.4003 5.1686 11.4002 5.49982C11.4002 5.83112 11.6685 6.1003 11.9998 6.1004C12.3312 6.1004 12.6004 5.83119 12.6004 5.49982C12.6003 5.16854 12.3311 4.90021 11.9998 4.90021ZM4.49982 3.40021C4.1686 3.40031 3.90031 3.6686 3.90021 3.99982C3.90021 4.33112 4.16854 4.6003 4.49982 4.6004C4.83119 4.6004 5.1004 4.33119 5.1004 3.99982C5.1003 3.66854 4.83112 3.40021 4.49982 3.40021Z" fill="#10ABE4"/>
</svg>
