<svg width="16" height="16" viewBox="0 0 16 16" fill="none" xmlns="http://www.w3.org/2000/svg">
<rect width="16" height="16" rx="8" fill="#CECFD1"/>
<path fill-rule="evenodd" clip-rule="evenodd" d="M11.1129 4.74889C10.6996 4.41495 10.0987 4.42085 9.69349 4.74372L9.68141 4.75334L9.60492 4.82242L8.00002 6.4638L6.40598 4.83352C6.00237 4.42074 5.33182 4.38955 4.88715 4.74889C4.45384 5.09903 4.37061 5.71148 4.70623 6.15541L4.71588 6.16818L4.7831 6.24616L6.49796 8L4.79408 9.7426C4.36361 10.1829 4.41493 10.8695 4.88715 11.2511C5.3004 11.5851 5.90134 11.5791 6.30656 11.2563L6.31864 11.2467L6.39512 11.1776L8.00002 9.5362L9.59407 11.1665C9.99768 11.5793 10.6682 11.6104 11.1129 11.2511C11.5462 10.901 11.6294 10.2885 11.2938 9.84459L11.2842 9.83182L11.2169 9.75384L9.50209 8L11.206 6.2574C11.6364 5.81715 11.5851 5.13048 11.1129 4.74889Z" fill="white"/>
</svg>
