<svg version="1.1" id="Layer_1" xmlns="http://www.w3.org/2000/svg" xmlns:xlink="http://www.w3.org/1999/xlink" x="0px" y="0px"
	 viewBox="0 0 602 250" style="enable-background:new 0 0 602 250;" xml:space="preserve">
<style type="text/css">
	.st0{fill:#D1D3D4;}
</style>
<g>
	<path class="st0" d="M145,243.7c-15.3-15.8-30-30.9-44.6-46.1c-0.9-1-1.9-1.9-2.8-2.8c-23.4-23.4-46.9-46.7-70.2-70.3
		c-10.7-10.9-18.1-24-19.8-39.2C5.6,67.1,8.4,49.5,20,34.3C33.2,17.1,50.3,7.4,72.4,6.4c16.5-0.7,31.2,3.5,44.4,13.1
		c3,2.2,6,4.6,8.7,7.2c6.7,6.5,13.2,13.1,20,20.1c7.5-7.6,14.5-15.1,22-22.2C179.6,12.9,194.1,7,211,6.4c16.9-0.6,32.2,3.3,45.5,14
		c14.9,11.9,23.8,27.1,26.1,46.2c2.9,24.3-5.7,43.9-22.8,60.6c-16.5,16.2-32.8,32.6-49.1,49c-20.6,20.8-41,41.6-61.5,62.5
		C148,240.1,146.9,241.6,145,243.7z M145,70.6c-7.9-7.9-15.3-15.5-22.8-23c-5.3-5.2-10.4-10.7-16.3-15.2c-11.9-9-25.6-11.1-40.1-8.6
		c-11.1,1.9-19.8,7.8-27.8,15.7c-18.5,18.2-19,51.5-0.5,70.5c24.6,25.2,49.4,50.2,74.2,75.2c10.1,10.2,20.2,20.2,30.3,30.3
		c1.2,1.2,2.4,2.3,3.7,3.6c2.3-2.7,4.3-5.3,6.6-7.6c4.6-4.8,9.4-9.4,14.1-14.1c29.1-29.4,58.3-58.7,87.2-88.3
		c9.6-9.8,13.8-22.5,13.2-35.9c-0.5-11.5-4.5-22.1-12.2-31.4c-8.8-10.5-19.9-16.8-33-18.5c-18.1-2.4-33.6,3.8-46.4,17
		C165.3,50.3,155.4,60.1,145,70.6z"/>
</g>
<g>
	<path class="st0" d="M458.9,243.7c-15.3-15.8-30-30.9-44.6-46.1c-0.9-1-1.9-1.9-2.8-2.8c-23.4-23.4-46.9-46.7-70.2-70.3
		c-10.7-10.9-18.1-24-19.8-39.2c-2.1-18.2,0.8-35.8,12.4-51C347,17.1,364.1,7.4,386.2,6.4c16.5-0.7,31.2,3.5,44.4,13.1
		c3,2.2,6,4.6,8.7,7.2c6.7,6.5,13.2,13.1,20,20.1c7.5-7.6,14.5-15.1,22-22.2C493.4,12.9,507.9,7,524.8,6.4
		c16.9-0.6,32.2,3.3,45.5,14c14.9,11.9,23.8,27.1,26.1,46.2c2.9,24.3-5.7,43.9-22.8,60.6c-16.5,16.2-32.8,32.6-49.1,49
		c-20.6,20.8-41,41.6-61.5,62.5C461.8,240.1,460.7,241.6,458.9,243.7z M458.8,70.6c-7.9-7.9-15.3-15.5-22.8-23
		c-5.3-5.2-10.4-10.7-16.3-15.2c-11.9-9-25.6-11.1-40.1-8.6c-11.1,1.9-19.8,7.8-27.8,15.7c-18.5,18.2-19,51.5-0.5,70.5
		c24.6,25.2,49.4,50.2,74.2,75.2c10.1,10.2,20.2,20.2,30.3,30.3c1.2,1.2,2.4,2.3,3.7,3.6c2.3-2.7,4.3-5.3,6.6-7.6
		c4.6-4.8,9.4-9.4,14.1-14.1c29.1-29.4,58.3-58.7,87.2-88.3c9.6-9.8,13.8-22.5,13.2-35.9c-0.5-11.5-4.5-22.1-12.2-31.4
		c-8.8-10.5-19.9-16.8-33-18.5c-18.1-2.4-33.6,3.8-46.4,17C479.2,50.3,469.2,60.1,458.8,70.6z"/>
</g>
</svg>
