<svg width="16" height="16" viewBox="0 0 16 16" fill="none" xmlns="http://www.w3.org/2000/svg">
<path fill-rule="evenodd" clip-rule="evenodd" d="M8.91369 3.11659C8.56165 2.32515 7.43837 2.32515 7.08632 3.11659L5.92188 5.73439L3.05328 6.04237C2.19361 6.13466 1.84829 7.20067 2.49055 7.77949L4.62501 9.70314L4.02939 12.5061C3.8494 13.353 4.75777 14.0129 5.50762 13.5799L8.00001 12.1406L10.4924 13.5799C11.2422 14.0129 12.1506 13.353 11.9706 12.5061L11.375 9.70314L13.5095 7.77949C14.1517 7.20066 13.8064 6.13466 12.9467 6.04237L10.0781 5.73439L8.91369 3.11659ZM8.00001 3.51564L9.28126 6.40626L9.40626 6.67189L9.68751 6.70314L12.8281 7.03126L10.4844 9.14064L10.2656 9.34376L10.3281 9.62501L10.9844 12.7031L8.25001 11.1406L8.00001 10.9844L7.75001 11.1406L5.01563 12.7031L5.67188 9.62501L5.73438 9.34376L5.51563 9.14064L3.17188 7.03126L6.31251 6.70314L6.59376 6.67189L6.71876 6.40626L8.00001 3.51564Z" fill="#00B8EC"/>
</svg>
