<svg xmlns="http://www.w3.org/2000/svg" width="34" height="12" viewBox="0 0 34 12">
  <g fill="none" fill-rule="evenodd" stroke="#9D9D9D">
    <polygon points="12.5 .5 21.5 .5 21.5 11.5 12.5 11.5"/>
    <path d="M24.5,0.5 L32,0.5 C32.8284,0.5 33.5,1.17157 33.5,2 L33.5,10 C33.5,10.8284 32.8284,11.5 32,11.5 L24.5,11.5 L24.5,0.5 Z"/>
    <path d="M0.5,0.5 L8,0.5 C8.8284,0.5 9.5,1.17157 9.5,2 L9.5,10 C9.5,10.8284 8.8284,11.5 8,11.5 L0.5,11.5 L0.5,0.5 Z" transform="matrix(-1 0 0 1 10 0)"/>
  </g>
</svg>
