<?xml version="1.0" encoding="utf-8"?>
<!-- Generator: Adobe Illustrator 25.3.1, SVG Export Plug-In . SVG Version: 6.00 Build 0)  -->
<svg version="1.1" id="Layer_1" xmlns="http://www.w3.org/2000/svg" xmlns:xlink="http://www.w3.org/1999/xlink" x="0px" y="0px"
	 viewBox="0 0 250 250" style="enable-background:new 0 0 250 250;" xml:space="preserve">
<style type="text/css">
	.st0{fill:#003DA1;}
</style>
<g>
	<path class="st0" d="M137,242.6c-8.8,1.2-15.4,1.5-25.7,0c-2.1,0-3.9-0.6-5.9-0.9c-48.7-9.4-80.6-37.7-95.5-85
		c-2.3-7.5-2.4-15.3-4-23c0-5.5,0-11,0-16.5c0.6-2.3,0.5-4.6,0.8-7C15.8,45.7,73.3,1.4,138.1,8.9c56.3,6.5,99.2,50.3,104.5,106.9
		c5.1,54.4-30.1,106-83.6,122.2C151.8,240.1,147.1,241.4,137,242.6z M161.1,130.9c0-16.2,0.3-32.3-0.1-48.5
		c-0.2-6.9,1.8-11.9,6.7-16.9c2.7-2.8,4.7-8.3,3.7-11.7c-0.7-2.4-6.7-4.6-10.4-4.6c-23.2-0.4-46.4-0.4-69.6,0
		c-3.7,0.1-9.7,2.3-10.4,4.7c-0.9,3.4,1.1,8.9,3.8,11.7c4.9,5,6.7,10.1,6.6,17c-0.3,32.6-0.3,65.3-0.1,97.9
		c0.1,21.5,13.3,36.9,31.8,38c21.9,1.3,37.5-13.5,38-36.3C161.3,165,161,148,161.1,130.9z"/>
	<path class="st0" d="M148,57.5c0,11.3,0,21.9,0,33c-14.6,0-28.5,0-43.3,0c0-10.8,0-21.6,0-33C118.5,57.5,133.3,57.5,148,57.5z"/>
</g>
</svg>
