<svg version="1.1" id="Layer_1" xmlns="http://www.w3.org/2000/svg" xmlns:xlink="http://www.w3.org/1999/xlink" x="0px" y="0px"
	 viewBox="0 0 601 250" style="enable-background:new 0 0 601 250;" xml:space="preserve">
<style type="text/css">
	.st0{fill:#293682;}
</style>
<path class="st0" d="M217.2,5c3.8,0.7,7.5,1.2,11.2,2c26.5,6,44.9,21.7,53.3,47.4c8.4,25.6,3.5,49.5-14.6,69.7
	c-10.4,11.6-22,22.3-33,33.4c-27.5,27.5-55.1,55.1-82.7,82.6c-1.2,1.2-2.4,2.3-5.1,4.8c-1.6-1.3-3.3-2.7-4.6-3.9
	c-36.9-37-72.2-75-109.3-111.9c-12.6-12.6-20.6-27.4-22.3-45.4c-0.1-1.3,0.1-2.3-0.2-3.6c0-2.3,0-4.9,0-7.3c0.3-1.4,0.1-2.8,0.3-4.2
	C13.3,40,34,15.7,62.1,8.1C67.4,6.7,72.9,6,78.2,5c2,0,4,0,6,0c4.7,0.9,9.5,1.6,14.1,2.7c14.5,3.5,26.4,11.3,36.6,22.1
	c4,4.3,8.3,8.3,12.9,12.9c5.6-5.8,10.6-11.1,15.8-16.3C173,17,184.1,10.7,197,7.6c4.7-1.1,9.4-1.7,14.2-2.6C213.2,5,215.2,5,217.2,5
	z"/>
<path class="st0" d="M517.2,5c3.8,0.7,7.5,1.2,11.2,2c26.5,6,44.9,21.7,53.3,47.4c8.4,25.6,3.5,49.5-14.6,69.7
	c-10.4,11.6-22,22.3-33,33.4c-27.5,27.5-55.1,55.1-82.7,82.6c-1.2,1.2-2.4,2.3-5.1,4.8c-1.6-1.3-3.3-2.7-4.6-3.9
	c-36.9-37-72.2-75-109.3-111.9c-12.6-12.6-20.6-27.4-22.3-45.4c-0.1-1.3,0.1-2.3-0.2-3.6c0-2.3,0-4.9,0-7.3c0.3-1.4,0.1-2.8,0.3-4.2
	C313.3,40,334,15.7,362.1,8.1c5.3-1.4,10.8-2.1,16.1-3.1c2,0,4,0,6,0c4.7,0.9,9.5,1.6,14.1,2.7c14.5,3.5,26.4,11.3,36.6,22.1
	c4,4.3,8.3,8.3,12.9,12.9c5.6-5.8,10.6-11.1,15.8-16.3C473,17,484.1,10.7,497,7.6c4.7-1.1,9.4-1.7,14.2-2.6C513.2,5,515.2,5,517.2,5
	z"/>
</svg>
