<?xml version="1.0" encoding="utf-8"?>
<!-- Generator: Adobe Illustrator 25.4.1, SVG Export Plug-In . SVG Version: 6.00 Build 0)  -->
<svg version="1.1" id="premera_Layer_1" xmlns="http://www.w3.org/2000/svg" xmlns:xlink="http://www.w3.org/1999/xlink" x="0px" y="0px"
	 viewBox="0 0 658.14 196.94" style="enable-background:new 0 0 658.14 196.94;" xml:space="preserve">
<style type="text/css">
	.st0{fill:#FFFFFF;}
	.st1{fill:#231F20;}
	.st2{fill:#0099D8;}
</style>
<g>
	<ellipse class="st0" cx="586.13" cy="55.02" rx="25.37" ry="24.98"/>
	<path class="st1" d="M507.79,98.35V11.66h4.34v86.68H507.79z"/>
	<path class="st2" d="M208.93,148.55c-3.58,0-5.59,2.58-5.59,7.74s1.9,7.74,5.59,7.74c3.69,0,5.55-2.58,5.55-7.74
		S212.62,148.55,208.93,148.55z M180.37,148.59h-2.87v5.81l2.72,0.25c3.05,0,4.23-0.93,4.23-3.12
		C184.46,149.34,183.1,148.59,180.37,148.59z M37.21,158.26h-2.65v5.91h2.65c3.26,0,4.73-1,4.73-3.05
		C41.94,159.09,40.44,158.26,37.21,158.26L37.21,158.26z M41.51,151.17c0-1.79-1.43-2.76-4.3-2.76h-2.65v5.52h2.65
		C40.15,154,41.51,152.96,41.51,151.17z"/>
	<path class="st2" d="M11.09,127.34v57.98h635.96v-57.98H11.09z M39.22,168.72H27.9v-24.87h9.32c7.42,0,11,1.97,11,6.41
		c0,2.9-1.72,4.77-5.3,5.59c3.98,0.72,6.06,2.47,6.06,6.06C48.97,166.47,45.71,168.72,39.22,168.72L39.22,168.72z M72.15,168.72
		H54.09v-24.83h7.17v20.07h10.75L72.15,168.72z M98.78,159.26c0,6.45-4.59,10.03-12.11,10.03c-7.53,0-11.36-3.58-11.36-10.14v-15.27
		h7.17v14.66c0,3.58,1.68,5.48,4.84,5.48s5.02-1.9,5.02-5.48v-14.66h6.63L98.78,159.26z M123.86,168.72h-18.85v-24.83h18.35v4.77
		h-11.65v5.09h11.11v4.8h-11.11v5.3h12L123.86,168.72z M165.54,161.06c0,4.98-4.26,8.13-11.43,8.13c-6.12,0.61-11.59-3.86-12.2-9.98
		c-0.08-0.78-0.07-1.57,0.01-2.35c0-8.64,4.41-13.29,12.65-13.29c6.81,0,10.54,2.9,10.75,8.17h-7.31c-0.11-1.98-1.8-3.49-3.78-3.38
		c-0.14,0.01-0.28,0.02-0.42,0.05c-3.37,0-5.12,3.19-5.12,8.28s1.61,7.63,5.2,7.63h0.54c1.98,0,3.58-1.6,3.58-3.58h7.17
		L165.54,161.06z M184.74,168.87c-0.57-3.37-0.61-5.23-0.97-7.17c-0.36-1.94-1.33-2.58-3.37-2.58h-2.65v9.57h-7.06v-24.47h11.25
		c6.16,0,9.28,2.15,9.28,6.38v0.18c0.02,3.27-2.61,5.93-5.88,5.95c0,0,0,0,0,0c2.35-0.31,4.53,1.26,4.98,3.58
		c0.47,1.72,0.5,4.69,1.61,8.56L184.74,168.87z M209.04,169.08c-6.42,0.61-12.12-4.11-12.73-10.53c-0.07-0.76-0.07-1.54,0.01-2.3
		c-0.64-6.42,4.04-12.14,10.46-12.79c0.75-0.08,1.51-0.08,2.26-0.01c6.43-0.58,12.1,4.16,12.68,10.59c0.06,0.69,0.06,1.38,0,2.06
		c0.66,6.42-4,12.16-10.42,12.82c-0.76,0.08-1.53,0.08-2.3,0.01L209.04,169.08z M236.56,169.08c-6.88,0.22-10.46-2.87-10.46-8.31
		h6.92v0.36c-0.12,1.86,1.28,3.46,3.14,3.58c0.15,0.01,0.3,0.01,0.44,0c2.69,0,4.05-0.43,4.05-2.69s-2.15-2.4-5.91-3.58
		c-5.66-1.51-8.35-3.58-8.35-7.6c0-4.01,3.91-7.38,10.39-7.38s10.07,2.37,10.07,7.17v0.36H240c0.21-1.53-0.85-2.94-2.38-3.15
		c-0.26-0.04-0.51-0.04-0.77,0c-2.04,0-3.33,1.08-3.33,2.54c0,2.11,3.19,2.33,7.7,3.58c4.52,1.25,6.63,3.58,6.63,7.17
		c0,5.2-3.83,8.17-11.43,8.17L236.56,169.08z M262.94,169.08c-6.77,0-10.36-2.97-10.36-8.42h6.88c-0.12,1.86,1.28,3.46,3.14,3.58
		c0.15,0.01,0.3,0.01,0.44,0c2.69,0,4.05-0.43,4.05-2.69c0-2.26-2.15-2.4-5.91-3.58c-5.66-1.51-8.35-3.58-8.35-7.6
		c0-4.01,3.83-7.17,10.32-7.17s10.07,2.37,10.07,7.17v0.36h-6.88c0.21-1.53-0.85-2.94-2.38-3.15c-0.26-0.04-0.51-0.04-0.77,0
		c-2.01,0-3.3,1.08-3.3,2.54c0,2.11,3.19,2.33,7.7,3.58c4.52,1.25,6.63,3.58,6.63,7.17c0,5.45-3.91,8.42-11.43,8.42L262.94,169.08z"
		/>
	<path class="st1" d="M254.77,64.2l4.73-10.75c3.58-8.6,8.39-19.31,11.9-27.66c0.45-0.96,1.46-1.51,2.51-1.36h14.33
		c0.59-0.01,1.1,0.39,1.22,0.97c-0.05,0.56-0.45,1.02-1,1.15c-3.4,0.47-4.41,1.94-4.05,7.17l4.91,45.26
		c0.39,5.05,1.22,6.49,4.16,7.17c0.5,0.12,0.86,0.56,0.86,1.08c0.02,0.47-0.35,0.88-0.82,0.9c0,0,0,0,0,0
		c-2.01,0-6.88-0.65-10.07-0.65s-8.21,0.65-10.11,0.65c-0.47,0.04-0.89-0.31-0.93-0.78c0-0.04,0-0.07,0-0.11
		c0-0.51,0.36-0.96,0.86-1.08c2.9-0.61,3.58-1.97,3.19-7.17l-3.98-38.67l-0.43,0.97c-5.52,12.11-13.55,30.14-21.18,46.23
		c-0.68,1.51-2.08,1.51-2.76,0c-8.78-19.03-16.73-35.58-21.5-46.23l-0.5-0.97v1.04c-1.18,10.03-3.91,28.45-4.01,37.52
		c0,4.62,1.47,6.45,4.44,7.17c0.48,0.12,0.84,0.52,0.9,1c-0.02,0.55-0.48,0.99-1.04,0.97c0,0,0,0,0,0c-2.72,0-5.3-0.61-8.1-0.61
		s-5.34,0.65-7.88,0.65c-0.57,0.06-1.08-0.35-1.15-0.92c0,0,0-0.01,0-0.01c-0.01-0.53,0.37-0.99,0.9-1.08
		c3.05-0.65,4.44-2.72,4.91-7.17c1.61-8.64,4.23-31.32,5.41-44.9c0.29-5.05-1.36-6.59-4.73-7.17c-0.61-0.13-1.01-0.71-0.9-1.33
		c0.18-0.54,0.65-0.93,1.22-1h16.56c0.4-0.06,0.8,0.11,1.04,0.43c0.1,0.16,0.19,0.32,0.25,0.5l0.29,0.72l12.29,27.49l4.73,10.75
		l1.36,3.08l0.39,0.9l1.79-3.98V64.2z M116.01,28.97c-2.92-0.19-5.84,0.01-8.71,0.57l-0.22,49.09c0,5.02,1.22,6.45,4.16,7.17
		c0.48,0.17,0.83,0.6,0.9,1.11c0.08,0.47-0.23,0.91-0.69,1c-0.09,0.02-0.18,0.02-0.27,0c-1.94,0-6.77-0.61-9.96-0.61
		s-8.21,0.61-10.14,0.61c-0.49,0.02-0.91-0.36-0.93-0.86c0-0.04,0-0.07,0-0.11c0-0.53,0.35-1,0.86-1.15
		c2.94-0.61,3.58-2.01,3.58-7.17V33.66c0-5.02-1.22-6.45-4.26-7.17c-0.57,0-0.82-0.97-0.79-1.36c0-0.42,0.34-0.75,0.75-0.75
		c7.38,0.68,25.44-0.29,32.25-0.29c10.11,0,19.39,6.24,19.39,16.56c0,5.91-5.48,12.51-12.94,15.66l-0.5,0.22
		c4.62,2.94,8.17,9.1,11.5,15.05c0.93,1.65,2.87,5.27,4.8,8.78c1.94,3.51,4.01,6.95,4.77,8.1c4.23,5.81,8.53,7.78,11.97,7.78
		c0.28,0.03,0.53,0.21,0.65,0.47c0.12,0.22,0.19,0.47,0.22,0.72c0.06,0.43-0.24,0.83-0.67,0.89c0,0-0.01,0-0.01,0h-5.73
		c-7.42,0.7-14.63-2.73-18.78-8.92c-1.96-2.49-3.77-5.1-5.41-7.81c-1.68-2.8-3.87-7.17-6.24-11.14c-1.9-3.69-4.31-7.09-7.17-10.11
		c-2.42-1.43-5.1-2.34-7.88-2.69h-0.5l1.86-2.62c8.64,0,17.38-3.08,17.38-13.04c0.46-6.73-4.63-12.56-11.36-13.02
		C117.26,28.91,116.63,28.92,116.01,28.97L116.01,28.97z M70.65,36.71c0-14.33-9.53-19.46-19.46-19.46c-3.45-0.01-6.9,0.33-10.28,1
		l-0.25,69.52c0,5.81,1.4,7.49,4.84,8.24c0.54,0.18,0.93,0.65,1,1.22c0.08,0.53-0.28,1.02-0.81,1.11c-0.09,0.01-0.18,0.02-0.27,0
		c-2.08,0-7.42-0.72-11.07-0.72s-8.92,0.72-11,0.72c-0.53,0.04-1-0.35-1.04-0.89c-0.01-0.06,0-0.13,0-0.19
		c0-0.59,0.4-1.11,0.97-1.25c3.4-0.72,4.55-2.33,4.55-8.24V22.73c0-5.77-1.08-7.49-4.66-8.1c-0.52-0.22-0.86-0.73-0.86-1.29
		c0-0.5,0.5-0.72,1-0.65c8.53,0.79,25.41-0.32,33.25-0.32c13.55,0,27.63,6.41,27.63,24.33S68.14,62.44,54.45,62.44
		c-3.76-0.04-7.5-0.61-11.11-1.68l1.76-3.58c1.96,0.3,3.93,0.48,5.91,0.54c7.17,0,19.64-3.94,19.64-21.11V36.71z M428.63,85.77
		c0.28,0.03,0.53,0.21,0.65,0.47c0.12,0.22,0.19,0.47,0.21,0.72c0.06,0.43-0.24,0.83-0.67,0.89c0,0-0.01,0-0.01,0h-10.75
		c-3.3,0.3-6.55-0.95-8.82-3.37c-0.63-0.75-1.23-1.53-1.79-2.33l-2.83-3.94c-2.15-2.97-4.62-6.41-6.34-8.67
		c-1.25-1.65-2.29-3.08-3.37-4.44c-1.08-1.3-2.28-2.5-3.58-3.58c-0.92-0.74-1.9-1.4-2.94-1.97c-1.77-1.06-3.78-1.66-5.84-1.76h-0.65
		l1.86-2.62c8.64,0,17.16-3.58,17.16-13.51c0.25-9.1-5.55-12.69-12.76-12.69c-2.92-0.02-5.83,0.21-8.71,0.68l-0.25,49.06
		c0,5.02,1.22,6.45,4.16,7.17c0.49,0.16,0.84,0.6,0.9,1.11c0.08,0.47-0.23,0.91-0.69,1c-0.09,0.02-0.18,0.02-0.27,0
		c-1.94,0-7.17-0.72-10.25-0.72c-3.08,0-7.7,0.72-9.6,0.72c-0.46,0.18-0.98-0.04-1.16-0.5c-0.08-0.19-0.08-0.41-0.02-0.61
		c0-0.53,0.35-1,0.86-1.15c2.94-0.61,3.58-2.01,3.58-7.17v-44.9c0-5.02-1.22-6.45-4.26-7.17c-0.57,0-0.82-0.97-0.79-1.36
		c0-0.42,0.34-0.75,0.75-0.75c7.38,0.68,24.19-0.29,31.03-0.29c10.11,0,19.74,6.24,19.74,16.56c0,7.45-5.05,13.33-13.87,16.02
		l-0.82,0.25l0.79,0.29c2,0.81,3.81,2.03,5.3,3.58c0.89,0.89,1.73,1.84,2.51,2.83c0.75,0.93,1.43,1.86,2.01,2.65
		c2.29,3.15,4.95,7.17,6.95,9.6c5.41,7.17,8.82,9.75,12.18,9.75L428.63,85.77z"/>
	<path class="st1" d="M436.7,66.02l-9.14,20.03l-6.09-2.76c9.14-20.14,21.89-48.52,27.56-59.84c0.57-0.88,1.75-1.13,2.63-0.56
		c0.23,0.15,0.42,0.34,0.56,0.56c5.81,11.54,27.56,55.4,27.56,55.4c1.94,4.12,3.58,6.59,6.92,7.17c0.48,0.06,0.88,0.4,1,0.86
		c0,0.36,0,0.75-0.86,0.75c-1.94,0-7.17-0.57-10.43-0.57s-8.31,0.57-10.25,0.57c-0.52,0.02-0.98-0.32-1.11-0.82
		c0-0.43,0-0.9,0.82-0.97c3.15-0.79,3.01-2.58,1.04-6.95c-0.36-0.82-2.08-4.12-3.58-7.17l-2.19-4.12l-0.72-1.29l-23.58-0.43
		L436.7,66.02z M457.55,60.76c0,0-7.17-15.91-8.71-19.67l-0.25-0.57l-9.39,20.21L457.55,60.76z M344.35,51.4l-3.08,5.27h-20.32V77.2
		c0,3.83,0.5,4.98,4.34,5.45c5.68,0.43,11.38,0.43,17.06,0c3.87-1.04,6.98-3.9,8.35-7.67c0.42-0.55,1.17-0.73,1.79-0.43
		c0.22,0.12,0.41,0.28,0.57,0.47c0.2,0.22,0.28,0.53,0.21,0.82c-0.65,2.87-2.01,8.64-2.51,10.28c-0.5,1.65-1.29,2.19-3.19,2.19
		c-6.84,0-20.78-0.57-29.06-0.57h-13.44c-0.49,0.02-0.91-0.36-0.94-0.85c0-0.05,0-0.1,0.01-0.15c-0.02-0.54,0.34-1.01,0.86-1.15
		c2.94-0.61,3.58-2.01,3.58-7.17V33.56c0-5.09-0.75-6.49-3.58-7.17c-0.5-0.12-0.86-0.56-0.86-1.08c-0.02-0.46,0.33-0.86,0.79-0.9
		h42.61c1.47-0.19,2.82,0.85,3.01,2.32c0,0,0,0,0,0.01l0.86,7.17c-0.02,0.57-0.41,1.05-0.97,1.18c-0.47,0-1.43-0.29-1.54-0.9
		c-0.55-1.44-1.51-2.69-2.76-3.58c-1.36-0.9-2.15-1.25-6.95-1.25h-18.24V51.3L344.35,51.4z M195.21,51.4l-3.08,5.27h-20.53V77.2
		c0,3.83,0.5,4.98,4.34,5.45c5.68,0.43,11.38,0.43,17.06,0c3.87-1.04,6.98-3.9,8.35-7.67c0.42-0.55,1.17-0.73,1.79-0.43
		c0.22,0.12,0.41,0.28,0.57,0.47c0.2,0.22,0.28,0.53,0.22,0.82c-0.65,2.87-2.01,8.64-2.51,10.28c-0.5,1.65-1.29,2.19-3.19,2.19
		c-6.84,0-20.78-0.57-29.06-0.57h-13.44c-0.49,0-0.89-0.37-0.93-0.86c-0.02-0.54,0.34-1.01,0.86-1.15c2.94-0.61,3.58-2.01,3.58-7.17
		V33.56c0-5.09-0.75-6.49-3.58-7.17c-0.5-0.12-0.86-0.56-0.86-1.08c-0.02-0.47,0.35-0.88,0.82-0.9c0,0,0,0,0,0h42.68
		c1.47-0.19,2.82,0.85,3.01,2.32c0,0,0,0,0,0.01l0.86,7.17c-0.02,0.57-0.41,1.05-0.97,1.18c-0.47,0-1.43-0.29-1.58-0.9
		c-0.55-1.44-1.51-2.69-2.76-3.58c-1.36-0.9-2.15-1.25-6.95-1.25h-18.31V51.3L195.21,51.4z"/>
	<g>
		<path class="st2" d="M630.24,35.85v38.34h-24.3v24.22h-38.24V74.19h-24.22V35.85h24.22V11.63h38.24v24.22H630.24z M584.69,39.72
			c-1.2-1.21-1.19-3.16,0.01-4.36c1.21-1.2,3.16-1.19,4.36,0.01c0.57,0.57,0.89,1.35,0.9,2.16c0,0.79-0.31,1.55-0.86,2.11
			c-1.21,1.2-1.21,3.15-0.01,4.36c0.57,0.58,1.35,0.9,2.16,0.91h17.16c-5.58-11.87-19.73-16.98-31.61-11.39
			c-5.01,2.35-9.04,6.38-11.39,11.39h17.13c1.7,0,3.08-1.38,3.08-3.08l0,0C585.61,41.03,585.27,40.27,584.69,39.72z M583.26,52.91
			c0.73-1.43,0.17-3.18-1.26-3.91c-0.41-0.21-0.86-0.32-1.32-0.32l-16.05-1.79c-3.56,9.64-0.53,20.48,7.53,26.88l10.97-20.64
			L583.26,52.91z M588.03,57.53c-0.29-0.32-0.71-0.5-1.15-0.5c-0.44,0-0.85,0.18-1.15,0.5l-11.68,17.49
			c7.84,5.06,17.92,5.06,25.77,0l-11.79-17.59V57.53z M609.31,46.78l-16.05,1.76c-1.62-0.12-3.03,1.09-3.15,2.71
			c0,0.01,0,0.01,0,0.02c0,0.48,0.13,0.95,0.36,1.36l11.14,20.93c8.08-6.34,11.19-17.14,7.7-26.8V46.78z M581.83,40.83
			c0.22,0.79,0,1.08-0.43,1.08h-10.36c2.68-3.26,6.29-5.62,10.36-6.77c-0.84,1.84-0.69,3.99,0.39,5.7H581.83z M603.01,41.91h-10.75
			c-0.34,0-0.61-0.27-0.61-0.61c0.71-1.07,1.12-2.3,1.18-3.58c0-0.88-0.2-1.75-0.57-2.54c4.21,1.09,7.98,3.49,10.75,6.84V41.91z
			 M580.25,52.37l-8.67,16.3c-3.3-3.79-5.1-8.66-5.05-13.69c0.01-1.67,0.21-3.33,0.61-4.95l12.79,1.43c0.32,0,0.57,0.26,0.57,0.57
			c0,0,0,0,0,0v0.32L580.25,52.37z M587.6,61.58l8.1,12.18c-5.53,2.57-11.92,2.57-17.45,0l8.13-12.18c0.11-0.22,0.33-0.36,0.57-0.36
			c0.27,0.01,0.52,0.16,0.64,0.39V61.58z M593.87,52.01c0-0.32,0.26-0.57,0.57-0.57l0,0l12.65-1.4c1.62,6.55-0.07,13.49-4.52,18.56
			l-8.6-16.23v-0.36L593.87,52.01z"/>
		<path class="st2" d="M616.44,97.41c2.65,0.1,4.88-1.97,4.97-4.62c0.1-2.65-1.97-4.88-4.62-4.97c-2.65-0.1-4.87,1.97-4.97,4.62
			c-0.1,2.55,1.89,4.7,4.44,4.8c0,0,0,0,0.01,0L616.44,97.41z M610.67,92.61c0-3.19,2.58-5.77,5.77-5.77c3.19,0,5.77,2.58,5.77,5.77
			c0,3.19-2.58,5.77-5.77,5.77c-3.15,0.04-5.73-2.48-5.77-5.63c0,0,0,0,0,0V92.61z"/>
		<path class="st2" d="M616.41,92.18c0.86,0,1.58,0,1.58-1.08s-0.75-0.97-1.43-0.97h-1.36v2.04H616.41z M615.23,95.77h-1v-6.49h2.51
			c1.54,0,2.29,0.57,2.29,1.9c0.06,0.95-0.66,1.77-1.61,1.83c0,0,0,0-0.01,0l1.86,2.94h-1.11l-1.72-2.87h-1.15v2.69L615.23,95.77z"
			/>
	</g>
</g>
</svg>
