<svg version="1.1" id="Layer_1" xmlns="http://www.w3.org/2000/svg" xmlns:xlink="http://www.w3.org/1999/xlink" x="0px" y="0px"
	 viewBox="0 0 601 250" style="enable-background:new 0 0 601 250;" xml:space="preserve">
<style type="text/css">
	.st0{fill:#D1D3D4;}
	.st1{fill:#293682;}
</style>
<g>
	<path class="st0" d="M526.4,4c4.9,0.9,9.9,1.5,14.7,2.8c53.4,13.8,71.8,79.4,33.3,119c-10.8,11.1-21.9,21.9-32.8,32.9
		c-26.7,26.7-52.5,53.4-79.2,80.1c-1.3,1.3-2.6,2.4-4.6,4.3c-1.4-1.1-1.8-1.7-2.7-2.5c-38.5-38.5-77.6-76.3-115.6-115.2
		C300.8,86,319.6,20.5,372.8,6.8c4.8-1.2,9.8-1.9,14.7-2.8c2,0,4,0,6,0c0.8,0.3,2.2,0.4,3,0.4c20,1.5,35.5,10.8,48.8,25.3
		c3.7,4,7.2,8.1,11.2,12.6c6.3-6.4,11.3-11.6,16.5-16.8c10.4-10.4,22.8-17.1,37.3-19.7c3.4-0.6,6.8-1.2,10.2-1.8
		C522.4,4,524.4,4,526.4,4z"/>
	<path class="st1" d="M213.4,4c3.8,0.7,7.5,1.2,11.2,2c26.5,6,44.9,21.7,53.3,47.4c8.4,25.6,3.5,49.5-14.6,69.7
		c-10.4,11.6-22,22.3-33,33.4c-27.5,27.5-55.1,55.1-82.7,82.6c-1.2,1.2-2.4,2.3-5.1,4.8c-1.6-1.3-3.3-2.7-4.6-3.9
		c-36.9-37-72.2-75-109.3-111.9C16,115.5,8,100.7,6.3,82.7c-0.1-1.3,0.1-2.3-0.2-3.6c0-2.3,0-4.9,0-7.3c0.3-1.4,0.1-2.8,0.3-4.2
		C9.5,39,30.2,14.7,58.3,7.1C63.6,5.7,69.1,5,74.4,4c2,0,4,0,6,0c4.7,0.9,9.5,1.6,14.1,2.7c14.5,3.5,26.4,11.3,36.6,22.1
		c4,4.3,8.3,8.3,12.9,12.9c5.6-5.8,10.6-11.1,15.8-16.3c9.4-9.4,20.5-15.7,33.4-18.8c4.7-1.1,9.4-1.7,14.2-2.6
		C209.4,4,211.4,4,213.4,4z"/>
</g>
</svg>
