<svg width="64" height="64" viewBox="0 0 64 64" fill="none" xmlns="http://www.w3.org/2000/svg">
    <g id="Icon/question">
        <g id="Icon/question_2">
            <g id="question-circle">
                <path id="Shape" fill-rule="evenodd" clip-rule="evenodd"
                    d="M32 8C18.7656 8 8 18.7656 8 32C8 45.2344 18.7656 56 32 56C45.2344 56 56 45.2344 56 32C56 18.7656 45.2344 8 32 8ZM32 12C43.0703 12 52 20.9297 52 32C52 43.0703 43.0703 52 32 52C20.9297 52 12 43.0703 12 32C12 20.9297 20.9297 12 32 12ZM32 20C27.6016 20 24 23.6016 24 28H28C28 25.7656 29.7656 24 32 24C34.2344 24 36 25.7656 36 28C36 29.5312 35.0156 30.8906 33.5625 31.375L32.75 31.625C31.1172 32.1641 30 33.7266 30 35.4375V38H34V35.4375L34.8125 35.1875C37.8906 34.1641 40 31.2422 40 28C40 23.6016 36.3984 20 32 20ZM30 40V44H34V40H30Z"
                    fill="#001C36" />
            </g>
        </g>
    </g>
</svg>