<svg width="16" height="16" viewBox="0 0 16 16" fill="none" xmlns="http://www.w3.org/2000/svg">
<path fill-rule="evenodd" clip-rule="evenodd" d="M8.00001 3.34287C5.42794 3.34287 3.34287 5.42794 3.34287 8.00001C3.34287 8.53007 3.43142 9.03945 3.59455 9.51416H7.74517L9.97127 5.80399C10.0991 5.59088 10.3756 5.52178 10.5887 5.64965C10.8018 5.77751 10.8709 6.05393 10.743 6.26704L8.79474 9.51416H12.4055C12.5686 9.03945 12.6572 8.53007 12.6572 8.00001C12.6572 5.42794 10.5721 3.34287 8.00001 3.34287ZM11.9834 10.4142H4.01664C4.83335 11.7589 6.31178 12.6572 8.00001 12.6572C9.68825 12.6572 11.1667 11.7589 11.9834 10.4142ZM2.44287 8.00001C2.44287 4.93089 4.93089 2.44287 8.00001 2.44287C11.0691 2.44287 13.5572 4.93089 13.5572 8.00001C13.5572 11.0691 11.0691 13.5572 8.00001 13.5572C4.93089 13.5572 2.44287 11.0691 2.44287 8.00001Z" fill="#00B8EC"/>
</svg>
