<svg version="1.1" id="Layer_1" xmlns="http://www.w3.org/2000/svg" xmlns:xlink="http://www.w3.org/1999/xlink" x="0px" y="0px"
	 viewBox="0 0 250 250" style="enable-background:new 0 0 250 250;" xml:space="preserve">
<style type="text/css">
	.st0{fill:#15539F;}
</style>
<g>
	<path class="st0" d="M190.7,71.3c-1.5-1-3.8-1.5-7-1.5h-10.8v12.7h10.3c3.4,0,5.7-0.4,7.1-1.3c1.7-1.1,2.6-2.8,2.6-5.1
		C192.9,73.9,192.2,72.3,190.7,71.3z"/>
	<path class="st0" d="M125,6C58.7,6,5,59.7,5,126s53.7,120,120,120s120-53.7,120-120S191.3,6,125,6z M90.5,70.4H75.4v37.8H64.5V70.4
		h-15v-8.6h40.9V70.4z M96.1,61.8h10.8v46.4H96.1V61.8z M138.8,212.2h-18.3v-54.6H114h-6.5h-6.3H99v-12.1c7.7-0.1,13.9-1.7,18.6-4.8
		c3.4-2.4,5.6-6.3,6.8-12h14.4V212.2z M154.4,108.2h-37.8V61.8h37.3v8.6h-26.4v9.9h24.2v8h-24.2v11.4h26.9V108.2z M194.1,108.2
		c-0.6-1-1-3-1.2-6.3c-0.2-3-0.5-5.2-0.8-6.4c-0.3-1.2-0.8-2.3-1.6-3.2c-1.3-1.5-3.8-2.3-7.8-2.3h-9.8v18.2H162V61.8h24.1
		c4.8,0,8.4,0.7,11,2.1c4.3,2.4,6.5,6,6.5,11c0,2.7-0.7,5.1-2.1,7.1c-1.4,2-3.3,3.4-5.8,4.3c2.2,0.5,3.9,1.6,5.2,3.4
		c0.8,1.1,1.3,2.3,1.6,3.6c0.3,1.2,0.6,4,1,8.4c0.3,3.2,0.8,5.2,1.5,6l0.5,0.5H194.1z"/>
</g>
</svg>
