<svg version="1.1" id="Layer_1" xmlns="http://www.w3.org/2000/svg" xmlns:xlink="http://www.w3.org/1999/xlink" x="0px" y="0px"
	 viewBox="0 0 250 250" style="enable-background:new 0 0 250 250;" xml:space="preserve">
<style type="text/css">
	.st0{fill:#13529F;}
</style>
<g>
	<path class="st0" d="M117,6c5.3,0,10.7,0,16,0c4.1,0.7,8.1,0.4,12.2,1.1c47.2,7.6,86.9,45.3,96.7,92.4c1.2,5.8,2.1,11.7,3.1,17.6
		c0,5.3,0,10.7,0,16c-0.7,4.1-1.3,8.2-2.1,12.2c-10.1,49.3-38.7,81.8-87.4,95.7c-7.3,2.1-15,2.8-22.5,4.1c-5.3,0-10.7,0-16,0
		c-4.1-0.7-8.1-1.3-12.2-2.1c-49.5-9.9-81.7-38.9-95.7-87.4C7,148.2,6.3,140.5,5,133c0-5.3,0-10.7,0-16c0.7-4.1,1.4-8.1,2.1-12.2
		C14.6,57.6,52.4,18,99.5,8.1C105.3,6.9,111.2,7,117,6z M115,101c0.5-4.5,0.6-8.6,1.5-12.4c0.9-3.7,3.3-6.5,7.8-6.5
		c4.2,0,6.7,2.6,7.2,6.3c1.2,9,0.8,17.5-6.7,24.3c-7.5,6.9-14.4,14.4-21.6,21.5c-10.9,10.8-15,24.5-16,39.3
		c-0.1,1.1,2.1,3.4,3.3,3.4c23,0.2,46,0.2,69,0c1.2,0,3.3-2.1,3.4-3.4c0.4-4.5-0.1-9,0.3-13.5c0.5-5-1.2-6.6-6.4-6.4
		c-10.6,0.4-21.2,0.1-33.1,0.1c2.3-2.9,3.6-5,5.2-6.6c6.8-6.7,13.5-13.3,20.5-19.8c12.1-11.2,15.7-25.2,13.6-40.9
		c-1.5-11.3-7.8-20.5-19.1-22.7c-8.9-1.7-18.2-2.2-27.2-1.6C107,63,97.1,67,93.1,77.3c-2.9,7.4-3.5,15.5-4.3,23.7
		C98.9,101,105.9,101,115,101z"/>
</g>
</svg>
