<svg width="16" height="16" viewBox="0 0 16 16" fill="none" xmlns="http://www.w3.org/2000/svg">
<path fill-rule="evenodd" clip-rule="evenodd" d="M8 1.5C4.41602 1.5 1.5 4.41602 1.5 8C1.5 11.584 4.41602 14.5 8 14.5C11.584 14.5 14.5 11.584 14.5 8C14.5 4.41602 11.584 1.5 8 1.5ZM8 2.5C11.043 2.5 13.5 4.95703 13.5 8C13.5 11.043 11.043 13.5 8 13.5C4.95703 13.5 2.5 11.043 2.5 8C2.5 4.95703 4.95703 2.5 8 2.5ZM8 4C6.625 4 5.5 5.125 5.5 6.5C5.5 7.25781 5.85352 7.93164 6.39062 8.39062C5.26562 8.97461 4.5 10.1504 4.5 11.5H5.5C5.5 10.1133 6.61328 9 8 9C9.38672 9 10.5 10.1133 10.5 11.5H11.5C11.5 10.1504 10.7344 8.97461 9.60938 8.39062C10.1465 7.93164 10.5 7.25781 10.5 6.5C10.5 5.125 9.375 4 8 4ZM8 5C8.83398 5 9.5 5.66602 9.5 6.5C9.5 7.33398 8.83398 8 8 8C7.16602 8 6.5 7.33398 6.5 6.5C6.5 5.66602 7.16602 5 8 5Z" fill="#001C36"/>
</svg>
