<?xml version="1.0" encoding="UTF-8"?>
<svg fill="none" viewBox="0 0 300 196" xmlns="http://www.w3.org/2000/svg">
<path d="m131.55 104.46c-0.626 0-1.133-0.507-1.133-1.133s0.507-1.134 1.133-1.134 1.134 0.508 1.134 1.134-0.508 1.133-1.134 1.133z" fill="#fff"/>
<path d="m131.55 104.46c-0.626 0-1.133-0.507-1.133-1.133s0.507-1.134 1.133-1.134 1.134 0.508 1.134 1.134-0.508 1.133-1.134 1.133z" fill="url(#u)" fill-opacity=".15"/>
<path d="m134.96 95.928c-0.507 0-0.919-0.4116-0.919-0.9194 0-0.5079 0.412-0.9195 0.919-0.9195 0.508 0 0.92 0.4116 0.92 0.9195 0 0.5078-0.412 0.9194-0.92 0.9194z" fill="#fff"/>
<path d="m134.96 95.928c-0.507 0-0.919-0.4116-0.919-0.9194 0-0.5079 0.412-0.9195 0.919-0.9195 0.508 0 0.92 0.4116 0.92 0.9195 0 0.5078-0.412 0.9194-0.92 0.9194z" fill="url(#l)" fill-opacity=".15"/>
<path d="m125.79 85.56c-0.547 0-0.99-0.4436-0.99-0.9908 0-0.5473 0.443-0.9909 0.99-0.9909 0.548 0 0.991 0.4436 0.991 0.9909 0 0.5472-0.443 0.9908-0.991 0.9908z" fill="#fff"/>
<path d="m125.79 85.56c-0.547 0-0.99-0.4436-0.99-0.9908 0-0.5473 0.443-0.9909 0.99-0.9909 0.548 0 0.991 0.4436 0.991 0.9909 0 0.5472-0.443 0.9908-0.991 0.9908z" fill="url(#i)" fill-opacity=".15"/>
<path d="m104.63 125.06c-0.863 0-1.562-0.699-1.562-1.562 0-0.862 0.699-1.561 1.562-1.561 0.862 0 1.561 0.699 1.561 1.561 0 0.863-0.699 1.562-1.561 1.562z" fill="#fff"/>
<path d="m104.63 125.06c-0.863 0-1.562-0.699-1.562-1.562 0-0.862 0.699-1.561 1.562-1.561 0.862 0 1.561 0.699 1.561 1.561 0 0.863-0.699 1.562-1.561 1.562z" fill="url(#h)" fill-opacity=".15"/>
<path d="m177.93 111.7c-0.547 0-0.991-0.443-0.991-0.99 0-0.548 0.444-0.991 0.991-0.991s0.991 0.443 0.991 0.991c0 0.547-0.444 0.99-0.991 0.99z" fill="#fff"/>
<path d="m177.93 111.7c-0.547 0-0.991-0.443-0.991-0.99 0-0.548 0.444-0.991 0.991-0.991s0.991 0.443 0.991 0.991c0 0.547-0.444 0.99-0.991 0.99z" fill="url(#g)" fill-opacity=".15"/>
<path d="m180.92 103.46c-1.099 0-1.99-0.89-1.99-1.989s0.891-1.9897 1.99-1.9897 1.989 0.8907 1.989 1.9897-0.89 1.989-1.989 1.989z" fill="#fff"/>
<path d="m180.92 103.46c-1.099 0-1.99-0.89-1.99-1.989s0.891-1.9897 1.99-1.9897 1.989 0.8907 1.989 1.9897-0.89 1.989-1.989 1.989z" fill="url(#f)" fill-opacity=".15"/>
<path d="m204.5 134.28c-0.705 0-1.276-0.572-1.276-1.276 0-0.705 0.571-1.277 1.276-1.277s1.276 0.572 1.276 1.277c0 0.704-0.571 1.276-1.276 1.276z" fill="#fff"/>
<path d="m204.5 134.28c-0.705 0-1.276-0.572-1.276-1.276 0-0.705 0.571-1.277 1.276-1.277s1.276 0.572 1.276 1.277c0 0.704-0.571 1.276-1.276 1.276z" fill="url(#e)" fill-opacity=".15"/>
<path d="m206.98 140.4c-0.276 0-0.499-0.224-0.499-0.499 0-0.276 0.223-0.5 0.499-0.5s0.5 0.224 0.5 0.5c0 0.275-0.224 0.499-0.5 0.499z" fill="#fff"/>
<path d="m206.98 140.4c-0.276 0-0.499-0.224-0.499-0.499 0-0.276 0.223-0.5 0.499-0.5s0.5 0.224 0.5 0.5c0 0.275-0.224 0.499-0.5 0.499z" fill="url(#d)" fill-opacity=".15"/>
<path d="m100.86 174.92c-0.744 0-1.3471-0.604-1.3471-1.348s0.6031-1.347 1.3471-1.347c0.745 0 1.348 0.603 1.348 1.347s-0.603 1.348-1.348 1.348z" fill="#fff"/>
<path d="m100.86 174.92c-0.744 0-1.3471-0.604-1.3471-1.348s0.6031-1.347 1.3471-1.347c0.745 0 1.348 0.603 1.348 1.347s-0.603 1.348-1.348 1.348z" fill="url(#c)" fill-opacity=".15"/>
<path d="m118.3 142.38c-0.608 0-1.101-0.493-1.101-1.102 0-0.608 0.493-1.101 1.101-1.101 0.609 0 1.102 0.493 1.102 1.101 0 0.609-0.493 1.102-1.102 1.102z" fill="#fff"/>
<path d="m118.3 142.38c-0.608 0-1.101-0.493-1.101-1.102 0-0.608 0.493-1.101 1.101-1.101 0.609 0 1.102 0.493 1.102 1.101 0 0.609-0.493 1.102-1.102 1.102z" fill="url(#b)" fill-opacity=".15"/>
<path d="m1 170.1h161" stroke="#32333C" stroke-linecap="round"/>
<path d="m138 170.1h161" stroke="#32333C" stroke-linecap="round"/>
<path d="m263.91 83.269c-0.378 0-0.741 0.0632-1.08 0.1748-0.082-2.7523-2.395-4.9592-5.238-4.9592-2.895 0-5.242 2.2875-5.242 5.1095 0 0.1293 7e-3 0.2569 0.016 0.3835-0.505-0.8317-1.433-1.3912-2.496-1.3912-1.604 0-2.904 1.2675-2.904 2.8306 0 0.2217 0.029 0.4364 0.078 0.6436-0.299-0.1626-0.644-0.2561-1.011-0.2561-1.15 0-2.082 0.9086-2.082 2.0295 0 1.1208 0.932 2.0294 2.082 2.0294h17.877c1.868 0 3.382-1.4761 3.382-3.2971s-1.514-3.2973-3.382-3.2973z" clip-rule="evenodd" fill="#fff" fill-rule="evenodd"/>
<path d="m263.91 83.269c-0.378 0-0.741 0.0632-1.08 0.1748-0.082-2.7523-2.395-4.9592-5.238-4.9592-2.895 0-5.242 2.2875-5.242 5.1095 0 0.1293 7e-3 0.2569 0.016 0.3835-0.505-0.8317-1.433-1.3912-2.496-1.3912-1.604 0-2.904 1.2675-2.904 2.8306 0 0.2217 0.029 0.4364 0.078 0.6436-0.299-0.1626-0.644-0.2561-1.011-0.2561-1.15 0-2.082 0.9086-2.082 2.0295 0 1.1208 0.932 2.0294 2.082 2.0294h17.877c1.868 0 3.382-1.4761 3.382-3.2971s-1.514-3.2973-3.382-3.2973" stroke="#32333C"/>
<path d="m57.85 131.01c-0.2884 0-0.5648 0.05-0.8237 0.139-0.0624-2.188-1.8259-3.942-3.9937-3.942-2.2073 0-3.9969 1.818-3.9969 4.061 0 0.103 0.0051 0.205 0.0123 0.305-0.3855-0.661-1.0928-1.106-1.904-1.106-1.2227 0-2.2141 1.008-2.2141 2.25 0 0.177 0.0221 0.347 0.0597 0.512-0.2283-0.129-0.4909-0.204-0.7707-0.204-0.8767 0-1.5875 0.723-1.5875 1.614 0 0.89 0.7108 1.613 1.5875 1.613h13.631c1.4243 0 2.579-1.174 2.579-2.621 0-1.448-1.1547-2.621-2.579-2.621z" clip-rule="evenodd" fill="#fff" fill-rule="evenodd"/>
<path d="m57.85 131.01c-0.2884 0-0.5648 0.05-0.8237 0.139-0.0624-2.188-1.8259-3.942-3.9937-3.942-2.2073 0-3.9969 1.818-3.9969 4.061 0 0.103 0.0051 0.205 0.0123 0.305-0.3855-0.661-1.0928-1.106-1.904-1.106-1.2227 0-2.2141 1.008-2.2141 2.25 0 0.177 0.0221 0.347 0.0597 0.512-0.2283-0.129-0.4909-0.204-0.7707-0.204-0.8767 0-1.5875 0.723-1.5875 1.614 0 0.89 0.7108 1.613 1.5875 1.613h13.631c1.4243 0 2.579-1.174 2.579-2.621 0-1.448-1.1547-2.621-2.579-2.621" stroke="#32333C"/>
<path d="m61.596 183.37h19.872" stroke="#32333C" stroke-linecap="round"/>
<path d="m226.15 183.37h19.872" stroke="#32333C" stroke-linecap="round"/>
<path d="m81 189.79h131.76" stroke="#32333C" stroke-linecap="round"/>
<path d="m202.61 131.95c8.342-10.57 6.354-25.76-4.437-33.929-10.792-8.1686-26.302-6.2226-34.64 4.3457l-13.395 16.963 31.218 39.553 21.254-26.933z" clip-rule="evenodd" fill="#fff" fill-rule="evenodd"/>
<path d="m202.61 131.95c8.342-10.57 6.354-25.76-4.437-33.929-10.792-8.1686-26.302-6.2226-34.64 4.3457l-13.395 16.963 31.218 39.553 21.254-26.933z" clip-rule="evenodd" fill="url(#t)" fill-opacity=".35" fill-rule="evenodd"/>
<path d="m202.61 131.95c8.342-10.57 6.354-25.76-4.437-33.929-10.792-8.1686-26.302-6.2226-34.64 4.3457l-13.395 16.963 31.218 39.553 21.254-26.933" stroke="#32333C"/>
<path d="m198.17 98.023c-10.792-8.1686-26.302-6.2226-34.64 4.3457l17.824 56.516 21.253-26.933c8.342-10.57 6.355-25.76-4.437-33.929z" clip-rule="evenodd" fill="url(#s)" fill-opacity=".35" fill-rule="evenodd"/>
<path d="m198.18 98.023c-10.792-8.1686-26.302-6.2226-34.64 4.3457l-13.395 16.963s58.826-13.14 48.035-21.309z" clip-rule="evenodd" fill="url(#r)" fill-opacity=".35" fill-rule="evenodd"/>
<path d="m136.76 102.37c-8.338-10.569-23.849-12.516-34.64-4.3462-10.792 8.1682-12.78 23.358-4.4375 33.928l41.034 51.998c2.564 3.482 6.716 5.77 11.43 5.77 4.718 0 8.87-2.288 11.434-5.77l19.78-25.066-44.6-56.514z" clip-rule="evenodd" fill="#fff" fill-rule="evenodd"/>
<path d="m136.76 102.37c-8.338-10.569-23.849-12.516-34.64-4.3462-10.792 8.1682-12.78 23.358-4.4375 33.928l41.034 51.998c2.564 3.482 6.716 5.77 11.43 5.77 4.718 0 8.87-2.288 11.434-5.77l19.78-25.066-44.6-56.514z" clip-rule="evenodd" fill="url(#q)" fill-opacity=".25" fill-rule="evenodd"/>
<path d="m136.76 102.37c-8.338-10.569-23.849-12.516-34.64-4.3462-10.792 8.1682-12.78 23.358-4.4375 33.928l41.034 51.998c2.564 3.482 6.716 5.77 11.43 5.77 4.718 0 8.87-2.288 11.434-5.77l19.78-25.066-44.6-56.514" stroke="#32333C"/>
<path d="m102.12 98.024c-10.792 8.1682 36.597 85.926 36.597 85.926 2.564 3.482 42.643-25.066 42.643-25.066l-44.6-56.514c-8.338-10.569-23.848-12.516-34.64-4.3462z" clip-rule="evenodd" fill="url(#p)" fill-opacity=".25" fill-rule="evenodd"/>
<path d="m136.76 102.37c-8.338-10.569-23.849-12.516-34.64-4.3462-10.792 8.1682-12.78 23.358-4.4375 33.928l41.034 51.998" clip-rule="evenodd" fill="url(#o)" fill-opacity=".25" fill-rule="evenodd"/>
<path d="m189.89 103.65c0 5.92 4.811 10.732 10.731 10.732s10.732-4.812 10.732-10.732c0-5.9194-4.812-10.731-10.732-10.731-5.919 0-10.731 4.8121-10.731 10.731z" fill="#fff"/>
<path d="m189.89 103.65c0 5.92 4.811 10.732 10.731 10.732s10.732-4.812 10.732-10.732c0-5.9194-4.812-10.731-10.732-10.731-5.919 0-10.731 4.8121-10.731 10.731z" fill="url(#a)"/>
<path d="m189.89 103.65c0 5.92 4.811 10.732 10.731 10.732s10.732-4.812 10.732-10.732c0-5.9194-4.812-10.731-10.732-10.731-5.919 0-10.731 4.8121-10.731 10.731z" stroke="#fff" stroke-width="6"/>
<path d="m192.39 103.65c0 4.54 3.692 8.232 8.231 8.232s8.232-3.692 8.232-8.232c0-4.5384-3.693-8.2311-8.232-8.2311s-8.231 3.6928-8.231 8.2311z" fill="#fff"/>
<path d="m192.39 103.65c0 4.54 3.692 8.232 8.231 8.232s8.232-3.692 8.232-8.232c0-4.5384-3.693-8.2311-8.232-8.2311s-8.231 3.6928-8.231 8.2311z" fill="url(#a)"/>
<path d="m192.39 103.65c0 4.54 3.692 8.232 8.231 8.232s8.232-3.692 8.232-8.232c0-4.5384-3.693-8.2311-8.232-8.2311s-8.231 3.6928-8.231 8.2311z" stroke="#32333C"/>
<path d="m208.87 94.585 2.033-2.0325" stroke="#32333C" stroke-linecap="round"/>
<path d="m205.49 93.593 0.339-3.7263" stroke="#32333C" stroke-linecap="round"/>
<path d="m209.87 97.973 3.726-0.3387" stroke="#32333C" stroke-linecap="round"/>
<path d="m226.39 182.54c0-7.145-32.515-12.937-72.625-12.937-40.111 0-72.625 5.792-72.625 12.937s32.514 12.937 72.625 12.937c40.11 0 72.625-5.792 72.625-12.937z" clip-rule="evenodd" fill="url(#n)" fill-opacity=".15" fill-rule="evenodd"/>
<path d="m81.144 182.06 41.115-182.06h63.069l41.114 182.06" clip-rule="evenodd" fill="url(#m)" fill-opacity=".15" fill-rule="evenodd"/>
<path d="m199.31 177.98h-91.031l34.899-177.98h21.234l34.898 177.98z" clip-rule="evenodd" fill="url(#k)" fill-opacity=".15" fill-rule="evenodd"/>
<path d="m175.09 98.616-42.598-0.5609 16.452-98.056h10.869l15.277 98.616z" clip-rule="evenodd" fill="url(#j)" fill-opacity=".15" fill-rule="evenodd"/>
<defs>
<linearGradient id="u" x1="132.47" x2="131.38" y1="103.41" y2="104.63" gradientUnits="userSpaceOnUse">
<stop stop-color="#FB9203" offset="0"/>
<stop stop-color="#FA7071" offset=".44674"/>
<stop stop-color="#F63277" offset="1"/>
</linearGradient>
<linearGradient id="l" x1="135.71" x2="134.82" y1="95.08" y2="96.068" gradientUnits="userSpaceOnUse">
<stop stop-color="#FB9203" offset="0"/>
<stop stop-color="#FA7071" offset=".44674"/>
<stop stop-color="#F63277" offset="1"/>
</linearGradient>
<linearGradient id="i" x1="126.6" x2="125.65" y1="84.646" y2="85.711" gradientUnits="userSpaceOnUse">
<stop stop-color="#FB9203" offset="0"/>
<stop stop-color="#FA7071" offset=".44674"/>
<stop stop-color="#F63277" offset="1"/>
</linearGradient>
<linearGradient id="h" x1="105.9" x2="104.4" y1="123.62" y2="125.3" gradientUnits="userSpaceOnUse">
<stop stop-color="#FB9203" offset="0"/>
<stop stop-color="#FA7071" offset=".44674"/>
<stop stop-color="#F63277" offset="1"/>
</linearGradient>
<linearGradient id="g" x1="178.74" x2="177.78" y1="110.79" y2="111.85" gradientUnits="userSpaceOnUse">
<stop stop-color="#FB9203" offset="0"/>
<stop stop-color="#FA7071" offset=".44674"/>
<stop stop-color="#F63277" offset="1"/>
</linearGradient>
<linearGradient id="f" x1="182.54" x2="180.62" y1="101.63" y2="103.77" gradientUnits="userSpaceOnUse">
<stop stop-color="#FB9203" offset="0"/>
<stop stop-color="#FA7071" offset=".44674"/>
<stop stop-color="#F63277" offset="1"/>
</linearGradient>
<linearGradient id="e" x1="205.54" x2="204.31" y1="133.11" y2="134.48" gradientUnits="userSpaceOnUse">
<stop stop-color="#FB9203" offset="0"/>
<stop stop-color="#FA7071" offset=".44674"/>
<stop stop-color="#F63277" offset="1"/>
</linearGradient>
<linearGradient id="d" x1="207.38" x2="206.9" y1="139.94" y2="140.48" gradientUnits="userSpaceOnUse">
<stop stop-color="#FB9203" offset="0"/>
<stop stop-color="#FA7071" offset=".44674"/>
<stop stop-color="#F63277" offset="1"/>
</linearGradient>
<linearGradient id="c" x1="101.96" x2="100.66" y1="173.67" y2="175.12" gradientUnits="userSpaceOnUse">
<stop stop-color="#FB9203" offset="0"/>
<stop stop-color="#FA7071" offset=".44674"/>
<stop stop-color="#F63277" offset="1"/>
</linearGradient>
<linearGradient id="b" x1="119.2" x2="118.14" y1="141.37" y2="142.55" gradientUnits="userSpaceOnUse">
<stop stop-color="#FB9203" offset="0"/>
<stop stop-color="#FA7071" offset=".44674"/>
<stop stop-color="#F63277" offset="1"/>
</linearGradient>
<linearGradient id="t" x1="209.72" x2="221" y1="163.85" y2="98.388" gradientUnits="userSpaceOnUse">
<stop stop-color="#09ACE4" offset="0"/>
<stop stop-color="#0AB6C9" offset="1"/>
</linearGradient>
<linearGradient id="s" x1="209.26" x2="223.68" y1="163.85" y2="99.68" gradientUnits="userSpaceOnUse">
<stop stop-color="#09ACE4" offset="0"/>
<stop stop-color="#0AB6C9" offset="1"/>
</linearGradient>
<linearGradient id="r" x1="201.53" x2="203.67" y1="121.32" y2="94.532" gradientUnits="userSpaceOnUse">
<stop stop-color="#09ACE4" offset="0"/>
<stop stop-color="#0AB6C9" offset="1"/>
</linearGradient>
<linearGradient id="q" x1="72.337" x2="141.69" y1="135.93" y2="201.82" gradientUnits="userSpaceOnUse">
<stop stop-color="#09ACE4" offset="0"/>
<stop stop-color="#0AB6C9" offset="1"/>
</linearGradient>
<linearGradient id="p" x1="81.655" x2="147" y1="133.54" y2="193.66" gradientUnits="userSpaceOnUse">
<stop stop-color="#09ACE4" offset="0"/>
<stop stop-color="#0AB6C9" offset="1"/>
</linearGradient>
<linearGradient id="o" x1="82.026" x2="135.8" y1="133.37" y2="161.62" gradientUnits="userSpaceOnUse">
<stop stop-color="#09ACE4" offset="0"/>
<stop stop-color="#0AB6C9" offset="1"/>
</linearGradient>
<linearGradient id="a" x1="192.89" x2="208.35" y1="103.65" y2="103.65" gradientUnits="userSpaceOnUse">
<stop stop-color="#EE7AA7" offset="0"/>
<stop stop-color="#FD7171" offset="1"/>
</linearGradient>
<linearGradient id="n" x1="82.037" x2="82.037" y1="169.93" y2="195.48" gradientUnits="userSpaceOnUse">
<stop stop-color="#FD7171" offset="0"/>
<stop stop-color="#FFC304" offset="1"/>
</linearGradient>
<linearGradient id="m" x1="82.037" x2="82.037" y1="6.2621" y2="182.06" gradientUnits="userSpaceOnUse">
<stop stop-color="#FD7171" offset="0"/>
<stop stop-color="#FFC304" offset="1"/>
</linearGradient>
<linearGradient id="k" x1="108.84" x2="108.84" y1="2.189" y2="177.98" gradientUnits="userSpaceOnUse">
<stop stop-color="#FD7171" offset="0"/>
<stop stop-color="#FFC304" offset="1"/>
</linearGradient>
<linearGradient id="j" x1="132.76" x2="132.76" y1="1.2129" y2="98.616" gradientUnits="userSpaceOnUse">
<stop stop-color="#FD7171" offset="0"/>
<stop stop-color="#FFC304" offset="1"/>
</linearGradient>
</defs>
</svg>