<svg width="42" height="12" viewBox="0 0 42 12" fill="none" xmlns="http://www.w3.org/2000/svg">
<path fill-rule="evenodd" clip-rule="evenodd" d="M38.7574 3.27295L34.8469 8.40989L35.6743 10.0944C36.3843 11.5411 38.1125 12.1284 39.5342 11.4059C40.9559 10.6833 41.5329 8.92478 40.8229 7.47798L38.7574 3.27295Z" fill="#6CCDEF"/>
<path fill-rule="evenodd" clip-rule="evenodd" d="M24.4015 3.09229L28.2664 8.32207L27.3961 10.0942C26.6861 11.5409 24.958 12.1282 23.5362 11.4056C22.1145 10.6831 21.5375 8.92456 22.2475 7.47776L24.4015 3.09229Z" fill="#09ACE4"/>
<path fill-rule="evenodd" clip-rule="evenodd" d="M38.7381 3.29205C38.3918 2.60367 38.1251 2.03641 37.9275 1.6421C37.7237 1.23526 37.5079 0.959285 37.1121 0.632979C35.8546 -0.356005 34.0476 -0.120405 33.0758 1.15912L31.4923 3.47025L34.8277 8.42898L38.7381 3.29205Z" fill="#09ACE4"/>
<path fill-rule="evenodd" clip-rule="evenodd" d="M29.9755 1.13987C29.0037 -0.139657 27.1759 -0.380505 25.9392 0.613727C25.4419 1.05087 25.3967 1.11995 25.1238 1.62285C24.8137 2.19407 24.4016 3.09235 24.4016 3.09235L30.2034 11.0163C30.502 11.4378 30.9857 11.7148 31.5353 11.7148C32.0849 11.7148 32.5686 11.4378 32.8672 11.0163L34.847 8.40973L29.9755 1.13987Z" fill="#6CCDEF"/>
<path fill-rule="evenodd" clip-rule="evenodd" d="M14.8839 2.92862C14.8839 1.31122 16.1528 0 17.7182 0C19.2835 0 20.5525 1.31122 20.5525 2.92862V8.78617C20.5525 10.4036 19.2835 11.7148 17.7182 11.7148C16.1528 11.7148 14.8839 10.4036 14.8839 8.78617V2.92862Z" fill="#6CCDEF"/>
<path fill-rule="evenodd" clip-rule="evenodd" d="M8.33187 1.15942C9.30875 -0.120425 11.1255 -0.356132 12.3895 0.633173C13.6537 1.62216 13.8863 3.46144 12.9093 4.74129L8.10283 11.0376C7.80262 11.4593 7.31635 11.7363 6.76379 11.7363C6.21133 11.7363 5.72506 11.4593 5.42485 11.0376L3.10789 8.00253L8.33187 1.15942Z" fill="#09ACE4"/>
<path fill-rule="evenodd" clip-rule="evenodd" d="M5.18155 1.13793C4.20467 -0.14191 2.38796 -0.377617 1.12392 0.611689C-0.140223 1.60067 -0.372893 3.43996 0.604092 4.7198L5.4106 11.0161C5.71081 11.4378 6.19708 11.7148 6.74964 11.7148C7.3021 11.7148 7.78837 11.4378 8.08858 11.0161L10.4055 7.98104L5.18155 1.13793Z" fill="#6CCDEF"/>
</svg>
